<svg xmlns="http://www.w3.org/2000/svg" xmlns:xlink="http://www.w3.org/1999/xlink" width="33" height="36.581" viewBox="0 0 33 36.581"><defs><style>.a{fill:none;}.b{clip-path:url(#a);}.c{fill:#fff;}.d{fill:#dff0fe;}.e{fill:#4788c7;}.f{fill:#98ccfd;}</style><clipPath id="a"><rect class="a" width="33" height="36.581"/></clipPath></defs><g class="b" transform="translate(0 0)"><path class="c" d="M9,36.927V1.7H27.393l8.766,8.766v24.2A2.272,2.272,0,0,1,33.9,36.927Z" transform="translate(-8.462 -1.216)"/><path class="d" d="M42.6,10.735V1.7h.323l8.766,8.766v.269Z" transform="translate(-23.992 -1.216)"/><path class="e" d="M36.128,9.889h0V9.835L27.146.8H8V36.995H33.385a2.754,2.754,0,0,0,2.743-2.743V10.911h0Zm-1.4,0H27.092V2.252Zm.43,24.363a1.791,1.791,0,0,1-1.775,1.775H9.022V1.768H26.071v9.143H35.16Z" transform="translate(-8 -0.8)"/><path class="c" d="M50.789,36.4l-8.067,4.034L41.7,52.481,42.722,53.5h6.024a3.007,3.007,0,0,0,3.012-3.012V36.4Z" transform="translate(-23.576 -17.254)"/><path class="e" d="M58.977,32.1h0a.482.482,0,0,1,.484.484v1.99a.482.482,0,0,1-.484.484h0a.482.482,0,0,1-.484-.484v-1.99C58.439,32.315,58.654,32.1,58.977,32.1Z" transform="translate(-31.333 -15.266)"/><path class="e" d="M41.5,67.268H38.484A.482.482,0,0,1,38,66.784h0a.482.482,0,0,1,.484-.484H41.5a.482.482,0,0,1,.484.484h0A.482.482,0,0,1,41.5,67.268Z" transform="translate(-21.866 -31.073)"/><path class="e" d="M19.778,49.4h4.141a.482.482,0,0,1,.484.484h0a.482.482,0,0,1-.484.484H19.778a.482.482,0,0,1-.484-.484h0C19.24,49.615,19.509,49.4,19.778,49.4Z" transform="translate(-13.217 -23.262)"/><path class="e" d="M19.778,38.2H32.847a.482.482,0,0,1,.484.484h0a.482.482,0,0,1-.484.484H19.778a.482.482,0,0,1-.484-.484h0C19.24,38.415,19.509,38.2,19.778,38.2Z" transform="translate(-13.217 -18.086)"/><path class="e" d="M19.778,26.9H34.891a.482.482,0,0,1,.484.484h0a.482.482,0,0,1-.484.484H19.778a.482.482,0,0,1-.484-.484h0C19.24,27.169,19.509,26.9,19.778,26.9Z" transform="translate(-13.217 -12.863)"/><path class="e" d="M30.863,44.768H19.784a.482.482,0,0,1-.484-.484h0a.482.482,0,0,1,.484-.484H30.863a.482.482,0,0,1,.484.484h0A.482.482,0,0,1,30.863,44.768Z" transform="translate(-13.223 -20.674)"/><path class="e" d="M30.863,33.568H19.784a.482.482,0,0,1-.484-.484h0a.482.482,0,0,1,.484-.484H30.863a.482.482,0,0,1,.484.484h0A.482.482,0,0,1,30.863,33.568Z" transform="translate(-13.223 -15.497)"/><g transform="translate(18.921 22.501)"><path class="f" d="M48.7,54.8a6.649,6.649,0,1,1,6.649-6.648A6.656,6.656,0,0,1,48.7,54.8Z" transform="translate(-41.657 -41.114)"/><path class="e" d="M48.36,41.561A6.257,6.257,0,1,1,42.1,47.818a6.265,6.265,0,0,1,6.257-6.257m0-.783a7.04,7.04,0,1,0,7.04,7.04,7.039,7.039,0,0,0-7.04-7.04Z" transform="translate(-41.321 -40.778)"/><path class="c" d="M54.96,49.725H51.831V46.6H50.267v3.129H47.138v1.564h3.129v3.129h1.564V51.289H54.96Z" transform="translate(-44.01 -43.467)"/></g></g></svg>