<svg xmlns="http://www.w3.org/2000/svg" xmlns:xlink="http://www.w3.org/1999/xlink" width="21" height="78">
    <defs>
        <path d="M0 0h.343a3 3 0 0 1 2.884 2.172l9.676 33.706a2 2 0 0 1-.007 1.13l-9.649 31.97A3 3 0 0 1 .375 71.11H0V0z" id="b" />
        <filter x="-46.2%" y="-8.4%" width="192.2%" height="116.9%" filterUnits="objectBoundingBox" id="a">
            <feOffset in="SourceAlpha" result="shadowOffsetOuter1" />
            <feGaussianBlur stdDeviation="2" in="shadowOffsetOuter1" result="shadowBlurOuter1" />
            <feColorMatrix values="0 0 0 0 0 0 0 0 0 0 0 0 0 0 0 0 0 0 0.16 0" in="shadowBlurOuter1" result="shadowMatrixOuter1" />
            <feOffset in="SourceAlpha" result="shadowOffsetOuter2" />
            <feGaussianBlur stdDeviation=".5" in="shadowOffsetOuter2" result="shadowBlurOuter2" />
            <feColorMatrix values="0 0 0 0 0 0 0 0 0 0 0 0 0 0 0 0 0 0 0.26 0" in="shadowBlurOuter2" result="shadowMatrixOuter2" />
            <feMerge>
                <feMergeNode in="shadowMatrixOuter1" />
                <feMergeNode in="shadowMatrixOuter2" />
            </feMerge>
        </filter>
    </defs>
    <g fill="none" fill-rule="evenodd">
        <g transform="translate(4 3.444)">
            <use fill="#000" filter="url(#a)" xlink:href="#b" />
            <use fill="#FFF" xlink:href="#b" />
        </g>
        <path d="M4 3.444h.343a3 3 0 0 1 2.884 2.173l9.676 33.706a2 2 0 0 1-.007 1.13l-9.649 31.97a3 3 0 0 1-2.872 2.133H4V3.444z" fill="#d0e7fc" />
    </g>
</svg>