<?xml version="1.0" encoding="UTF-8"?>
<svg width="14px" height="21px" viewBox="0 0 14 21" version="1.1" xmlns="http://www.w3.org/2000/svg" xmlns:xlink="http://www.w3.org/1999/xlink">
    <!-- Generator: Sketch 53 (72520) - https://sketchapp.com -->
    <title>car weight</title>
    <desc>Created with Sketch.</desc>
    <defs>
        <polygon id="path-1" points="0.0001 0.6002 13.1 0.6002 13.1 20.9992 0.0001 20.9992"></polygon>
    </defs>
    <g id="Page-1" stroke="none" stroke-width="1" fill="#cccccc" fill-rule="evenodd">
        <g id="car-weight" transform="translate(0.000000, -1.000000)">
            <g id="Group-3" transform="translate(0.000000, 0.400000)">
                <mask id="mask-2" fill="white">
                    <use xlink:href="#path-1"></use>
                </mask>
                <g id="Clip-2"></g>
                <path d="M2.5001,1.6002 C2.2001,1.6002 2.0001,1.8002 2.0001,2.1002 L2.0001,2.3002 C2.0001,2.6002 2.2001,2.8002 2.5001,2.8002 L2.8001,2.8002 C4.6001,2.9002 5.6001,3.8002 5.6001,5.4002 C5.6001,7.2002 4.7001,8.2002 2.7001,8.2002 L2.3001,8.2002 C1.6001,8.2002 1.0001,8.9002 1.0001,9.7002 L1.0001,18.6002 C1.0001,19.4002 1.6001,19.9992 2.4001,19.9992 L10.7001,19.9992 C11.5001,19.9992 12.1001,19.4002 12.1001,18.6002 L12.1001,9.7002 C12.1001,8.9002 11.5001,8.3002 10.7001,8.3002 L10.4001,8.3002 C8.4001,8.2002 7.5001,7.3002 7.5001,5.5002 C7.5001,4.0002 8.5001,3.1002 10.3001,2.9002 L10.6001,2.9002 C10.9001,2.9002 11.1001,2.7002 11.1001,2.4002 L11.1001,2.1002 C11.1001,1.8002 10.9001,1.6002 10.6001,1.6002 L2.5001,1.6002 Z M10.7001,20.9992 L2.4001,20.9992 C1.1001,20.9992 0.0001,19.9002 0.0001,18.6002 L0.0001,9.7002 C0.0001,8.4002 1.1001,7.3002 2.4001,7.3002 L2.7001,7.3002 C4.3001,7.2002 4.6001,6.6002 4.6001,5.5002 C4.6001,4.9002 4.4001,4.1002 2.7001,3.9002 L2.4001,3.9002 C1.7001,3.9002 1.0001,3.2002 1.0001,2.3002 L1.0001,2.1002 C1.0001,1.3002 1.7001,0.6002 2.5001,0.6002 L10.6001,0.6002 C11.4001,0.6002 12.1001,1.3002 12.1001,2.1002 L12.1001,2.3002 C12.1001,3.1002 11.4001,3.8002 10.6001,3.8002 L10.3001,3.8002 C8.7001,3.9002 8.5001,4.7002 8.5001,5.4002 C8.5001,6.5002 8.8001,7.2002 10.4001,7.2002 L10.7001,7.2002 C12.0001,7.2002 13.1001,8.3002 13.1001,9.6002 L13.1001,18.4992 C13.1001,19.9002 12.1001,20.9992 10.7001,20.9992 L10.7001,20.9992 Z" id="Fill-1" fill="#cccccc" mask="url(#mask-2)"></path>
            </g>
            <g id="Group" transform="translate(3.215018, 11.579587)" fill="#cccccc">
                <polygon id="Fill-4" points="-5.19584376e-14 4.57582443 -5.19584376e-14 5.15143483e-14 0.877395503 5.15143483e-14 0.877395503 2.42848646 1.90438322 1.26145496 2.98441783 1.26145496 1.85133634 2.47304585 3.0650491 4.57582443 2.11975358 4.57582443 1.28585653 3.08732879 0.877395503 3.5148867 0.877395503 4.57582443"></polygon>
                <path d="M4.28884077,2.84967874 C4.28884077,3.20191007 4.35674079,3.458657 4.49360175,3.62310235 C4.62940178,3.78542582 4.79809088,3.86711803 4.99754718,3.86711803 C5.2118566,3.86711803 5.39327695,3.78330394 5.54074729,3.61673672 C5.68821764,3.44804762 5.76248328,3.20084913 5.76248328,2.87195843 C5.76248328,2.52821461 5.69140045,2.27358955 5.55029573,2.10702233 C5.40813008,1.94045511 5.22989254,1.85664103 5.01346124,1.85664103 C4.80339557,1.85664103 4.62940178,1.93939417 4.49360175,2.10277858 C4.35674079,2.26510205 4.28884077,2.51548336 4.28884077,2.84967874 M3.50586873,4.7943776 L4.50739394,4.91638544 C4.52436895,5.03308859 4.56256271,5.11265892 4.62303616,5.1572183 C4.70685024,5.21875269 4.83734558,5.25058082 5.01664406,5.25058082 C5.2458066,5.25058082 5.41661758,5.21556988 5.53119885,5.14766986 C5.60864731,5.1009886 5.66593795,5.0277839 5.70519264,4.92593388 C5.73383796,4.85272918 5.74763015,4.71905102 5.74763015,4.52277754 L5.74763015,4.03898994 C5.48451759,4.39652595 5.15350502,4.57582443 4.7535315,4.57582443 C4.30899859,4.57582443 3.95676726,4.38697751 3.69577658,4.01140556 C3.49207654,3.71328205 3.39022652,3.34301479 3.39022652,2.89954282 C3.39022652,2.34361145 3.52390467,1.91923635 3.79126098,1.62641754 C4.05861729,1.33253779 4.39069079,1.18612838 4.78854244,1.18612838 C5.19806441,1.18612838 5.53650354,1.3664878 5.80279891,1.72508475 L5.80279891,1.26145496 L6.62396472,1.26145496 L6.62396472,4.23632436 C6.62396472,4.62674944 6.59107565,4.91956825 6.52741938,5.11265892 C6.46270218,5.30574959 6.37146154,5.45852462 6.25581932,5.56886214 C6.13911617,5.67919967 5.98315833,5.76513562 5.78900672,5.82773095 C5.59485512,5.89032628 5.34871756,5.92215441 5.05059406,5.92215441 C4.48829707,5.92215441 4.09044542,5.82560907 3.85491724,5.63251841 C3.62045,5.43942774 3.50268591,5.196473 3.50268591,4.90153231 C3.50268591,4.87076512 3.50374685,4.83575417 3.50586873,4.7943776" id="Fill-6"></path>
            </g>
        </g>
    </g>
</svg>