<?xml version="1.0" encoding="UTF-8"?>
<svg width="30px" height="30px" viewBox="0 0 30 30" version="1.1" xmlns="http://www.w3.org/2000/svg" xmlns:xlink="http://www.w3.org/1999/xlink">
    <!-- Generator: sketchtool 53 (72520) - https://sketchapp.com -->
    <title>C612D69B-749B-44F0-A973-D6859875FC58</title>
    <desc>Created with sketchtool.</desc>
    <g id="Page-1" stroke="none" stroke-width="1" fill="none" fill-rule="evenodd">
        <g id="Учет---Дело---меню" transform="translate(-760.000000, -1506.000000)">
            <g id="header" transform="translate(60.000000, 100.000000)">
                <g id="m2" transform="translate(385.000000, 828.000000)">
                    <g id="6" transform="translate(0.000000, 573.000000)">
                        <g id="-icon-/-40*40-copy" transform="translate(310.000000, 0.000000)">
                            <g id="Group" transform="translate(-2.000000, -2.000000)">
                                <g id="icons8-time">
                                    <path d="M23.5,16 L19.125,16 C18.4875,16 18,15.5666667 18,15 C18,14.4333333 18.4875,14 19.125,14 L23.5,14 L23.5,16 Z M27,15 L24,18 L24,12 L27,15 Z" id="Combined-Shape" fill="#1888CC"></path>
                                    <path d="M22,37 C13.7425743,37 7,30.2574257 7,22 C7,13.7425743 13.7425743,7 22,7 C30.2574257,7 37,13.7425743 37,22 C37,30.2574257 30.2574257,37 22,37 Z M22,8 C14.2921348,8 8,14.2921348 8,22 C8,29.7078652 14.2921348,36 22,36 C29.7078652,36 36,29.7078652 36,22 C36,14.2921348 29.7078652,8 22,8 Z M21,20.2675644 L21,12.9166667 C21,12.3972222 21.4333333,12 22,12 C22.5666667,12 23,12.3972222 23,12.9166667 L23,20.2675644 C23.303628,20.4432037 23.5567963,20.696372 23.7324356,21 L28.0769231,21 C28.6,21 29,21.4333333 29,22 C29,22.5666667 28.6,23 28.0769231,23 L23.7324356,23 C23.3866262,23.5978014 22.7402824,24 22,24 C20.8954305,24 20,23.1045695 20,22 C20,21.2597176 20.4021986,20.6133738 21,20.2675644 Z M22,23 C22.5522847,23 23,22.5522847 23,22 C23,21.4477153 22.5522847,21 22,21 C21.4477153,21 21,21.4477153 21,22 C21,22.5522847 21.4477153,23 22,23 Z" id="Shape" fill="#CCCCCC" transform="translate(22.000000, 22.000000) rotate(142.000000) translate(-22.000000, -22.000000) "></path>
                                </g>
                            </g>
                        </g>
                    </g>
                </g>
            </g>
        </g>
    </g>
</svg>