<svg width="30" height="26" 
    xmlns="http://www.w3.org/2000/svg" 
    xmlns:xlink="http://www.w3.org/1999/xlink">
    <defs>
        <path id="a" d="M0 25.628h29.18V0H0z"/>
    </defs>
    <g fill="none" fill-rule="evenodd">
        <path d="M7.637 24.587h14.292a5.15 5.15 0 0 1-.356-1.882c0-.55.09-1.094.266-1.625H7.527a4.323 4.323 0 0 0-.323 1.625c0 .646.146 1.278.433 1.882zm16.013 1.041H7.012l-.148-.27a5.443 5.443 0 0 1-.7-2.653c0-.808.187-1.606.556-2.37l.142-.296H23.46l-.378.754a4.234 4.234 0 0 0-.468 1.912c0 .74.198 1.46.59 2.144l.446.78z" fill="#53A4D6"/>
        <mask id="b" fill="#fff">
            <use xlink:href="#a"/>
        </mask>
        <path fill="#53A4D6" mask="url(#b)" d="M18.996 22.38h3.023v-.75h-3.023zM20.096 23.971h1.923v-.75h-1.923zM7.64 8.729a.245.245 0 0 0-.329-.121.254.254 0 0 0-.117.335l.42.91a.245.245 0 0 0 .329.12.253.253 0 0 0 .117-.334l-.42-.91zM6.798 6.908a.246.246 0 0 0-.33-.121.254.254 0 0 0-.117.335l.422.91a.245.245 0 0 0 .328.12.254.254 0 0 0 .118-.334l-.421-.91zM5.955 5.087a.245.245 0 0 0-.329-.12.254.254 0 0 0-.117.334l.421.911a.245.245 0 0 0 .328.12.254.254 0 0 0 .118-.335l-.42-.91zM4.217 4.204a.254.254 0 0 0 .132.33.246.246 0 0 0 .323-.135l.198-.48.218.472a.245.245 0 0 0 .328.12.254.254 0 0 0 .118-.335l-.305-.659H4.5l-.283.687zM15.149 1.104V.5a.5.5 0 0 0-1 0v.604a1.243 1.243 0 0 1 1 0M3.835 5.132l-.382.928a.253.253 0 0 0 .132.329.245.245 0 0 0 .323-.134l.382-.928a.252.252 0 0 0-.132-.329.245.245 0 0 0-.323.134M8.482 10.55a.245.245 0 0 0-.33-.122.254.254 0 0 0-.116.335l.42.912a.245.245 0 0 0 .329.12.254.254 0 0 0 .118-.335l-.421-.91zM9.108 13.072l.539-.004-.323-.698a.245.245 0 0 0-.328-.12.256.256 0 0 0-.118.335l.23.487zM14.149 3.396V15.2h1V3.396a1.243 1.243 0 0 1-1 0M13.395 1.989l-9.091.059a.5.5 0 1 0 .006 1l9.308-.06a1.25 1.25 0 0 1-.223-1M5.123 16.234c-1.713.022-2.952-.606-3.77-1.918l7.492-.095c-.786 1.33-2.009 1.992-3.722 2.013m4.525-3.023l-9.125.115c-.359.005-.629.376-.483.704.958 2.15 2.707 3.234 5.096 3.204 2.388-.03 4.104-1.158 5.008-3.332.138-.331-.136-.695-.496-.691M14.801 1.511a.75.75 0 1 0-.367 1.455.75.75 0 0 0 .367-1.455M24.803 1.914l-8.962.06a1.244 1.244 0 0 1-.209 1.001l9.178-.06a.5.5 0 1 0-.007-1M3.144 8.11l.382-.928a.253.253 0 0 0-.132-.329.246.246 0 0 0-.323.134l-.382.928a.254.254 0 0 0 .132.33.246.246 0 0 0 .323-.135M2.38 9.966l.382-.928a.253.253 0 0 0-.132-.33.246.246 0 0 0-.323.134l-.382.928a.254.254 0 0 0 .132.33.246.246 0 0 0 .323-.134M1.616 11.821l.382-.928a.253.253 0 0 0-.132-.329.246.246 0 0 0-.323.134l-.382.928a.254.254 0 0 0 .132.33.246.246 0 0 0 .323-.135M1.234 12.75a.253.253 0 0 0-.132-.33.245.245 0 0 0-.323.134l-.257.624.529-.004.183-.425zM26.639 8.729a.245.245 0 0 0-.328-.121.253.253 0 0 0-.119.335l.421.91a.245.245 0 0 0 .329.12.253.253 0 0 0 .117-.334l-.42-.91zM25.797 6.908a.246.246 0 0 0-.33-.121.254.254 0 0 0-.117.335l.422.91a.245.245 0 0 0 .328.12.254.254 0 0 0 .118-.334l-.421-.91zM24.954 5.087a.245.245 0 0 0-.328-.12.254.254 0 0 0-.118.334l.42.911a.246.246 0 0 0 .33.12.254.254 0 0 0 .117-.335l-.421-.91zM23.217 4.204a.254.254 0 0 0 .132.33.246.246 0 0 0 .323-.135l.197-.48.218.472a.245.245 0 0 0 .328.12.253.253 0 0 0 .118-.335l-.304-.659h-.73l-.282.687zM22.834 5.132l-.382.928a.253.253 0 0 0 .132.329.244.244 0 0 0 .323-.134l.382-.928a.252.252 0 0 0-.132-.329.245.245 0 0 0-.323.134M27.48 10.55a.245.245 0 0 0-.328-.122.255.255 0 0 0-.118.335l.421.912a.246.246 0 0 0 .33.12.255.255 0 0 0 .117-.335l-.422-.91zM28.106 13.072l.54-.004-.323-.698a.246.246 0 0 0-.329-.12.254.254 0 0 0-.117.335l.23.487zM24.122 16.234c-1.713.022-2.952-.606-3.771-1.918l7.493-.095c-.785 1.33-2.008 1.992-3.722 2.013m4.525-3.023l-9.125.115c-.36.005-.63.376-.482.704.958 2.15 2.706 3.234 5.095 3.204 2.388-.03 4.105-1.158 5.008-3.332.138-.331-.136-.695-.496-.691M22.142 8.11l.383-.928a.253.253 0 0 0-.132-.329.245.245 0 0 0-.323.134l-.383.928a.254.254 0 0 0 .133.33.245.245 0 0 0 .322-.135M21.379 9.966l.382-.928a.253.253 0 0 0-.132-.33.245.245 0 0 0-.323.134l-.382.928a.254.254 0 0 0 .132.33.246.246 0 0 0 .323-.134M20.614 11.821l.383-.928a.253.253 0 0 0-.133-.329.244.244 0 0 0-.322.134l-.383.928a.254.254 0 0 0 .133.33.245.245 0 0 0 .322-.135M20.232 12.75a.253.253 0 0 0-.132-.33.245.245 0 0 0-.323.134l-.257.624.53-.004.182-.425zM11.857 19.621h5.625v-1.03h-5.625zM12.884 18.107h3.572v-1.03h-3.572zM13.88 16.595h1.58v-1.03h-1.58z"/>
    </g>
</svg>