<?xml version="1.0" encoding="UTF-8"?>
<svg width="30px" height="26px" viewBox="0 0 30 26" version="1.1" xmlns="http://www.w3.org/2000/svg" xmlns:xlink="http://www.w3.org/1999/xlink">
    <!-- Generator: Sketch 53 (72520) - https://sketchapp.com -->
    <title>case decision</title>
    <desc>Created with Sketch.</desc>
    <defs>
        <polygon id="path-1" points="0 25.6281 29.18 25.6281 29.18 0.0001 0 0.0001"></polygon>
    </defs>
    <g id="Page-1" stroke="none" stroke-width="1" fill="none" fill-rule="evenodd">
        <g id="case-decision">
            <path d="M7.637,24.5871 L21.929,24.5871 C21.692,23.9791 21.573,23.3491 21.573,22.7051 C21.573,22.1551 21.663,21.6111 21.839,21.0801 L7.527,21.0801 C7.313,21.6101 7.204,22.1561 7.204,22.7051 C7.204,23.3511 7.35,23.9831 7.637,24.5871 L7.637,24.5871 Z M23.65,25.6281 L7.012,25.6281 L6.864,25.3581 C6.4,24.5171 6.164,23.6241 6.164,22.7051 C6.164,21.8971 6.351,21.0991 6.72,20.3341 L6.862,20.0391 L23.46,20.0391 L23.082,20.7931 C22.771,21.4121 22.614,22.0561 22.614,22.7051 C22.614,23.4441 22.812,24.1651 23.204,24.8491 L23.65,25.6281 Z" id="Fill-1" fill="#CCCCCC"></path>
            <mask id="mask-2" fill="white">
                <use xlink:href="#path-1"></use>
            </mask>
            <g id="Clip-4"></g>
            <polygon id="Fill-3" fill="#CCCCCC" mask="url(#mask-2)" points="18.996 22.3791 22.019 22.3791 22.019 21.6291 18.996 21.6291"></polygon>
            <polygon id="Fill-5" fill="#CCCCCC" mask="url(#mask-2)" points="20.096 23.9711 22.019 23.9711 22.019 23.2211 20.096 23.2211"></polygon>
            <path d="M7.6395,8.7287 C7.5815,8.6027 7.4345,8.5487 7.3115,8.6077 C7.1875,8.6677 7.1355,8.8177 7.1935,8.9427 L7.6145,9.8537 C7.6725,9.9787 7.8195,10.0327 7.9425,9.9737 C8.0665,9.9147 8.1185,9.7647 8.0605,9.6387 L7.6395,8.7287 Z" id="Fill-6" fill="#CCCCCC" mask="url(#mask-2)"></path>
            <path d="M6.7977,6.9079 C6.7387,6.7819 6.5917,6.7279 6.4687,6.7869 C6.3457,6.8459 6.2927,6.9959 6.3507,7.1219 L6.7727,8.0329 C6.8307,8.1579 6.9777,8.2119 7.1007,8.1529 C7.2237,8.0939 7.2767,7.9439 7.2187,7.8179 L6.7977,6.9079 Z" id="Fill-7" fill="#CCCCCC" mask="url(#mask-2)"></path>
            <path d="M5.9554,5.0871 C5.8974,4.9611 5.7504,4.9071 5.6264,4.9661 C5.5034,5.0251 5.4514,5.1751 5.5094,5.3011 L5.9304,6.2121 C5.9884,6.3371 6.1354,6.3911 6.2584,6.3321 C6.3814,6.2731 6.4344,6.1231 6.3764,5.9971 L5.9554,5.0871 Z" id="Fill-8" fill="#CCCCCC" mask="url(#mask-2)"></path>
            <path d="M4.2171,4.2043 C4.1641,4.3323 4.2231,4.4793 4.3491,4.5343 C4.4751,4.5873 4.6191,4.5273 4.6721,4.3993 L4.8701,3.9193 L5.0881,4.3913 C5.1461,4.5163 5.2931,4.5703 5.4161,4.5113 C5.5391,4.4523 5.5921,4.3023 5.5341,4.1763 L5.2291,3.5173 L4.5001,3.5173 L4.2171,4.2043 Z" id="Fill-9" fill="#CCCCCC" mask="url(#mask-2)"></path>
            <path d="M15.1488,1.1042 L15.1488,0.5002 C15.1488,0.2242 14.9248,0.0002 14.6488,0.0002 C14.3728,0.0002 14.1488,0.2242 14.1488,0.5002 L14.1488,1.1042 C14.3018,1.0372 14.4708,1.0002 14.6488,1.0002 C14.8268,1.0002 14.9958,1.0372 15.1488,1.1042" id="Fill-10" fill="#CCCCCC" mask="url(#mask-2)"></path>
            <path d="M3.8353,5.132 L3.4533,6.06 C3.4003,6.188 3.4593,6.335 3.5853,6.389 C3.7103,6.443 3.8553,6.383 3.9083,6.255 L4.2903,5.327 C4.3433,5.199 4.2843,5.051 4.1583,4.998 C4.0323,4.944 3.8883,5.004 3.8353,5.132" id="Fill-11" fill="#CCCCCC" mask="url(#mask-2)"></path>
            <path d="M8.4818,10.5495 C8.4238,10.4235 8.2768,10.3695 8.1528,10.4285 C8.0298,10.4885 7.9778,10.6385 8.0358,10.7635 L8.4568,11.6745 C8.5148,11.7995 8.6618,11.8535 8.7848,11.7945 C8.9078,11.7355 8.9608,11.5855 8.9028,11.4595 L8.4818,10.5495 Z" id="Fill-12" fill="#CCCCCC" mask="url(#mask-2)"></path>
            <path d="M9.1077,13.0724 L9.6467,13.0684 L9.3237,12.3704 C9.2657,12.2444 9.1187,12.1904 8.9957,12.2494 C8.8727,12.3094 8.8197,12.4594 8.8777,12.5854 L9.1077,13.0724 Z" id="Fill-13" fill="#CCCCCC" mask="url(#mask-2)"></path>
            <path d="M14.1488,3.3962 L14.1488,15.1992 L15.1488,15.1992 L15.1488,3.3962 C14.9958,3.4632 14.8268,3.5002 14.6488,3.5002 C14.4708,3.5002 14.3018,3.4632 14.1488,3.3962" id="Fill-14" fill="#CCCCCC" mask="url(#mask-2)"></path>
            <path d="M13.3949,1.9889 L4.3039,2.0479 C4.0269,2.0499 3.8049,2.2749 3.8069,2.5509 C3.8089,2.8269 4.0339,3.0499 4.3099,3.0479 L13.6179,2.9879 C13.4109,2.7099 13.3209,2.3499 13.3949,1.9889" id="Fill-15" fill="#CCCCCC" mask="url(#mask-2)"></path>
            <path d="M5.1234,16.2336 C3.4104,16.2556 2.1714,15.6276 1.3524,14.3156 L8.8454,14.2206 C8.0594,15.5516 6.8364,16.2126 5.1234,16.2336 M9.6484,13.2106 L0.5234,13.3256 C0.1644,13.3306 -0.1056,13.7016 0.0404,14.0296 C0.9984,16.1796 2.7474,17.2636 5.1364,17.2336 C7.5244,17.2036 9.2404,16.0756 10.1444,13.9016 C10.2824,13.5706 10.0084,13.2066 9.6484,13.2106" id="Fill-16" fill="#CCCCCC" mask="url(#mask-2)"></path>
            <path d="M14.8011,1.5114 C14.3991,1.4104 13.9911,1.6534 13.8901,2.0554 C13.7891,2.4564 14.0321,2.8644 14.4341,2.9664 C14.8361,3.0674 15.2431,2.8234 15.3441,2.4224 C15.4461,2.0204 15.2021,1.6134 14.8011,1.5114" id="Fill-17" fill="#CCCCCC" mask="url(#mask-2)"></path>
            <path d="M24.8026,1.9142 L15.8406,1.9732 C15.8816,2.1592 15.8806,2.3572 15.8286,2.5552 C15.7886,2.7102 15.7206,2.8512 15.6316,2.9742 L24.8096,2.9142 C25.0856,2.9122 25.3086,2.6872 25.3066,2.4112 C25.3046,2.1352 25.0786,1.9122 24.8026,1.9142" id="Fill-18" fill="#CCCCCC" mask="url(#mask-2)"></path>
            <path d="M3.1439,8.11 L3.5259,7.182 C3.5789,7.054 3.5199,6.907 3.3939,6.853 C3.2689,6.799 3.1239,6.86 3.0709,6.987 L2.6889,7.915 C2.6359,8.043 2.6949,8.191 2.8209,8.245 C2.9469,8.298 3.0909,8.238 3.1439,8.11" id="Fill-19" fill="#CCCCCC" mask="url(#mask-2)"></path>
            <path d="M2.3797,9.9655 L2.7617,9.0375 C2.8147,8.9095 2.7557,8.7625 2.6297,8.7085 C2.5047,8.6545 2.3597,8.7155 2.3067,8.8425 L1.9247,9.7705 C1.8717,9.8985 1.9307,10.0465 2.0567,10.1005 C2.1827,10.1535 2.3267,10.0935 2.3797,9.9655" id="Fill-20" fill="#CCCCCC" mask="url(#mask-2)"></path>
            <path d="M1.6156,11.821 L1.9976,10.893 C2.0506,10.765 1.9916,10.618 1.8656,10.564 C1.7406,10.51 1.5956,10.571 1.5426,10.698 L1.1606,11.626 C1.1076,11.754 1.1666,11.902 1.2926,11.956 C1.4186,12.009 1.5626,11.949 1.6156,11.821" id="Fill-21" fill="#CCCCCC" mask="url(#mask-2)"></path>
            <path d="M1.2337,12.7492 C1.2867,12.6202 1.2277,12.4732 1.1017,12.4192 C0.9757,12.3652 0.8317,12.4262 0.7787,12.5542 L0.5217,13.1782 L1.0507,13.1742 L1.2337,12.7492 Z" id="Fill-22" fill="#CCCCCC" mask="url(#mask-2)"></path>
            <path d="M26.6385,8.7287 C26.5795,8.6027 26.4335,8.5487 26.3105,8.6077 C26.1865,8.6677 26.1335,8.8177 26.1925,8.9427 L26.6135,9.8537 C26.6715,9.9787 26.8185,10.0327 26.9415,9.9737 C27.0655,9.9147 27.1175,9.7647 27.0595,9.6387 L26.6385,8.7287 Z" id="Fill-23" fill="#CCCCCC" mask="url(#mask-2)"></path>
            <path d="M25.7967,6.9079 C25.7377,6.7819 25.5907,6.7279 25.4677,6.7869 C25.3447,6.8459 25.2917,6.9959 25.3497,7.1219 L25.7717,8.0329 C25.8287,8.1579 25.9767,8.2119 26.0997,8.1529 C26.2227,8.0939 26.2757,7.9439 26.2177,7.8179 L25.7967,6.9079 Z" id="Fill-24" fill="#CCCCCC" mask="url(#mask-2)"></path>
            <path d="M24.9539,5.0871 C24.8959,4.9611 24.7489,4.9071 24.6259,4.9661 C24.5029,5.0251 24.4499,5.1751 24.5079,5.3011 L24.9289,6.2121 C24.9869,6.3371 25.1339,6.3911 25.2579,6.3321 C25.3809,6.2731 25.4329,6.1231 25.3749,5.9971 L24.9539,5.0871 Z" id="Fill-25" fill="#CCCCCC" mask="url(#mask-2)"></path>
            <path d="M23.2166,4.2043 C23.1636,4.3323 23.2226,4.4793 23.3486,4.5343 C23.4736,4.5873 23.6186,4.5273 23.6716,4.3993 L23.8686,3.9193 L24.0866,4.3913 C24.1446,4.5163 24.2916,4.5703 24.4146,4.5113 C24.5376,4.4523 24.5916,4.3023 24.5326,4.1763 L24.2286,3.5173 L23.4996,3.5173 L23.2166,4.2043 Z" id="Fill-26" fill="#CCCCCC" mask="url(#mask-2)"></path>
            <path d="M22.8338,5.132 L22.4518,6.06 C22.3988,6.188 22.4588,6.335 22.5838,6.389 C22.7098,6.443 22.8548,6.383 22.9068,6.255 L23.2888,5.327 C23.3418,5.199 23.2828,5.051 23.1568,4.998 C23.0308,4.944 22.8868,5.004 22.8338,5.132" id="Fill-27" fill="#CCCCCC" mask="url(#mask-2)"></path>
            <path d="M27.4803,10.5495 C27.4223,10.4235 27.2753,10.3695 27.1523,10.4285 C27.0293,10.4885 26.9763,10.6385 27.0343,10.7635 L27.4553,11.6745 C27.5133,11.7995 27.6613,11.8535 27.7843,11.7945 C27.9073,11.7355 27.9593,11.5855 27.9023,11.4595 L27.4803,10.5495 Z" id="Fill-28" fill="#CCCCCC" mask="url(#mask-2)"></path>
            <path d="M28.1063,13.0724 L28.6453,13.0684 L28.3233,12.3704 C28.2643,12.2444 28.1183,12.1904 27.9943,12.2494 C27.8713,12.3094 27.8183,12.4594 27.8773,12.5854 L28.1063,13.0724 Z" id="Fill-29" fill="#CCCCCC" mask="url(#mask-2)"></path>
            <path d="M24.1219,16.2336 C22.4089,16.2556 21.1699,15.6276 20.3509,14.3156 L27.8439,14.2206 C27.0589,15.5516 25.8359,16.2126 24.1219,16.2336 M28.6469,13.2106 L19.5219,13.3256 C19.1629,13.3306 18.8929,13.7016 19.0399,14.0296 C19.9979,16.1796 21.7459,17.2636 24.1349,17.2336 C26.5229,17.2036 28.2399,16.0756 29.1429,13.9016 C29.2809,13.5706 29.0069,13.2066 28.6469,13.2106" id="Fill-30" fill="#CCCCCC" mask="url(#mask-2)"></path>
            <path d="M22.1424,8.11 L22.5254,7.182 C22.5784,7.054 22.5184,6.907 22.3934,6.853 C22.2674,6.799 22.1224,6.86 22.0704,6.987 L21.6874,7.915 C21.6344,8.043 21.6944,8.191 21.8204,8.245 C21.9454,8.298 22.0894,8.238 22.1424,8.11" id="Fill-31" fill="#CCCCCC" mask="url(#mask-2)"></path>
            <path d="M21.3787,9.9655 L21.7607,9.0375 C21.8137,8.9095 21.7547,8.7625 21.6287,8.7085 C21.5027,8.6545 21.3577,8.7155 21.3057,8.8425 L20.9237,9.7705 C20.8707,9.8985 20.9297,10.0465 21.0557,10.1005 C21.1817,10.1535 21.3257,10.0935 21.3787,9.9655" id="Fill-32" fill="#CCCCCC" mask="url(#mask-2)"></path>
            <path d="M20.6141,11.821 L20.9971,10.893 C21.0501,10.765 20.9901,10.618 20.8641,10.564 C20.7391,10.51 20.5941,10.571 20.5421,10.698 L20.1591,11.626 C20.1061,11.754 20.1661,11.902 20.2921,11.956 C20.4171,12.009 20.5611,11.949 20.6141,11.821" id="Fill-33" fill="#CCCCCC" mask="url(#mask-2)"></path>
            <path d="M20.2323,12.7492 C20.2853,12.6202 20.2263,12.4732 20.1003,12.4192 C19.9743,12.3652 19.8303,12.4262 19.7773,12.5542 L19.5203,13.1782 L20.0493,13.1742 L20.2323,12.7492 Z" id="Fill-34" fill="#CCCCCC" mask="url(#mask-2)"></path>
            <polygon id="Fill-35" fill="#CCCCCC" mask="url(#mask-2)" points="11.857 19.6211 17.482 19.6211 17.482 18.5901 11.857 18.5901"></polygon>
            <polygon id="Fill-36" fill="#CCCCCC" mask="url(#mask-2)" points="12.884 18.1071 16.456 18.1071 16.456 17.0761 12.884 17.0761"></polygon>
            <polygon id="Fill-37" fill="#CCCCCC" mask="url(#mask-2)" points="13.88 16.5951 15.46 16.5951 15.46 15.5641 13.88 15.5641"></polygon>
        </g>
    </g>
</svg>