<?xml version="1.0" encoding="UTF-8"?>
<svg width="68px" height="56px" viewBox="0 0 68 56" version="1.1" xmlns="http://www.w3.org/2000/svg" xmlns:xlink="http://www.w3.org/1999/xlink">
    <!-- Generator: sketchtool 53 (72520) - https://sketchapp.com -->
    <title>EB87E03B-0EE6-4C5E-B506-FA1F950934E8</title>
    <desc>Created with sketchtool.</desc>
    <g id="Page-1" stroke="none" stroke-width="1" fill="none" fill-rule="evenodd">
        <g id="guide-icon" transform="translate(-1143.000000, -1064.000000)" fill="#CCCCCC">
            <g id="icon-/-40*40-/-case" transform="translate(1137.000000, 1050.000000)">
                <path d="M10.1212121,14 C7.85729235,14 6,15.8694314 6,18.1481481 L6,70 L7.03030303,70 L74,70 L74,18.1481481 C74,15.8694314 72.1427078,14 69.8787879,14 L10.1212121,14 Z M10.1212121,16.0740741 L69.8787879,16.0740741 C71.0292922,16.0740741 71.9393939,16.9901241 71.9393939,18.1481481 L71.9393939,30.5925926 L8.06060606,30.5925926 L8.06060606,18.1481481 C8.06060606,16.9901241 8.97070765,16.0740741 10.1212121,16.0740741 Z M15.2727273,19.1851852 C13.0088486,19.1851852 11.1515152,21.0546581 11.1515152,23.3333333 C11.1515152,25.6120086 13.0088486,27.4814815 15.2727273,27.4814815 C16.5061329,27.4814815 17.6061978,26.9150508 18.3636364,26.0413772 C19.121075,26.9150508 20.2211398,27.4814815 21.4545455,27.4814815 C23.7184241,27.4814815 25.5757576,25.6120086 25.5757576,23.3333333 C25.5757576,21.0546581 23.7184241,19.1851852 21.4545455,19.1851852 C20.2211398,19.1851852 19.121075,19.7516159 18.3636364,20.6252895 C17.6061978,19.7516159 16.5061329,19.1851852 15.2727273,19.1851852 Z M28.6666667,19.1851852 L28.6666667,20.2222222 L28.6666667,27.4814815 L68.8484848,27.4814815 L68.8484848,19.1851852 L28.6666667,19.1851852 Z M15.2727273,21.2592593 C16.422972,21.2592593 17.3333333,22.1755707 17.3333333,23.3333333 C17.3333333,24.491096 16.422972,25.4074074 15.2727273,25.4074074 C14.1224825,25.4074074 13.2121212,24.491096 13.2121212,23.3333333 C13.2121212,22.1755707 14.1224825,21.2592593 15.2727273,21.2592593 Z M21.4545455,21.2592593 C22.6047902,21.2592593 23.5151515,22.1755707 23.5151515,23.3333333 C23.5151515,24.491096 22.6047902,25.4074074 21.4545455,25.4074074 C20.3043007,25.4074074 19.3939394,24.491096 19.3939394,23.3333333 C19.3939394,22.1755707 20.3043007,21.2592593 21.4545455,21.2592593 Z M30.7272727,21.2592593 L66.7878788,21.2592593 L66.7878788,25.4074074 L30.7272727,25.4074074 L30.7272727,21.2592593 Z M8.06060606,32.6666667 L71.9393939,32.6666667 L71.9393939,67.9259259 L8.06060606,67.9259259 L8.06060606,32.6666667 Z M25.0606061,37.8518519 C21.9428153,37.8518519 19.3939394,40.4173871 19.3939394,43.5555556 C19.3939394,45.3290144 20.207989,46.9189985 21.4786937,47.9670136 C18.4336413,49.3496567 16.3030303,52.4280079 16.3030303,56 L16.3030303,56.5185185 L18.3636364,56.5185185 L18.3636364,56 C18.3636364,52.2637505 21.3486179,49.2592593 25.0606061,49.2592593 C28.7725942,49.2592593 31.7575758,52.2637505 31.7575758,56 L31.7575758,56.5185185 L33.8181818,56.5185185 L33.8181818,56 C33.8181818,52.4280079 31.6875718,49.3496567 28.6425184,47.9670136 C29.9132231,46.9189985 30.7272727,45.3290144 30.7272727,43.5555556 L30.7272727,42.5185185 L30.5179924,42.5185185 C30.0152488,39.8899511 27.8135953,37.8518519 25.0606061,37.8518519 Z M40,38.8888889 L40,40.962963 L63.6969697,40.962963 L63.6969697,38.8888889 L40,38.8888889 Z M25.0606061,39.9259259 C27.065482,39.9259259 28.6666667,41.5375759 28.6666667,43.5555556 C28.6666667,45.5735353 27.065482,47.1851852 25.0606061,47.1851852 C23.0557301,47.1851852 21.4545455,45.5735353 21.4545455,43.5555556 C21.4545455,41.5375759 23.0557301,39.9259259 25.0606061,39.9259259 Z M40,44.0740741 L40,46.1481481 L59.5757576,46.1481481 L59.5757576,44.0740741 L40,44.0740741 Z M40,49.2592593 L40,51.3333333 L63.6969697,51.3333333 L63.6969697,49.2592593 L40,49.2592593 Z M40,54.4444444 L40,56.5185185 L59.5757576,56.5185185 L59.5757576,54.4444444 L40,54.4444444 Z M13.2121212,61.7037037 C12.6444242,61.7037037 12.1818182,62.1693333 12.1818182,62.7407407 C12.1818182,63.3121481 12.6444242,63.7777778 13.2121212,63.7777778 C13.7798182,63.7777778 14.2424242,63.3121481 14.2424242,62.7407407 C14.2424242,62.1693333 13.7798182,61.7037037 13.2121212,61.7037037 Z M17.3333333,61.7037037 C16.7656364,61.7037037 16.3030303,62.1693333 16.3030303,62.7407407 C16.3030303,63.3121481 16.7656364,63.7777778 17.3333333,63.7777778 C17.9010303,63.7777778 18.3636364,63.3121481 18.3636364,62.7407407 C18.3636364,62.1693333 17.9010303,61.7037037 17.3333333,61.7037037 Z M21.4545455,61.7037037 C20.8868485,61.7037037 20.4242424,62.1693333 20.4242424,62.7407407 C20.4242424,63.3121481 20.8868485,63.7777778 21.4545455,63.7777778 C22.0222424,63.7777778 22.4848485,63.3121481 22.4848485,62.7407407 C22.4848485,62.1693333 22.0222424,61.7037037 21.4545455,61.7037037 Z M25.5757576,61.7037037 C25.0080606,61.7037037 24.5454545,62.1693333 24.5454545,62.7407407 C24.5454545,63.3121481 25.0080606,63.7777778 25.5757576,63.7777778 C26.1434545,63.7777778 26.6060606,63.3121481 26.6060606,62.7407407 C26.6060606,62.1693333 26.1434545,61.7037037 25.5757576,61.7037037 Z M29.6969697,61.7037037 C29.1292727,61.7037037 28.6666667,62.1693333 28.6666667,62.7407407 C28.6666667,63.3121481 29.1292727,63.7777778 29.6969697,63.7777778 C30.2646667,63.7777778 30.7272727,63.3121481 30.7272727,62.7407407 C30.7272727,62.1693333 30.2646667,61.7037037 29.6969697,61.7037037 Z M33.8181818,61.7037037 C33.2504848,61.7037037 32.7878788,62.1693333 32.7878788,62.7407407 C32.7878788,63.3121481 33.2504848,63.7777778 33.8181818,63.7777778 C34.3858788,63.7777778 34.8484848,63.3121481 34.8484848,62.7407407 C34.8484848,62.1693333 34.3858788,61.7037037 33.8181818,61.7037037 Z M37.9393939,61.7037037 C37.371697,61.7037037 36.9090909,62.1693333 36.9090909,62.7407407 C36.9090909,63.3121481 37.371697,63.7777778 37.9393939,63.7777778 C38.5070909,63.7777778 38.969697,63.3121481 38.969697,62.7407407 C38.969697,62.1693333 38.5070909,61.7037037 37.9393939,61.7037037 Z M42.0606061,61.7037037 C41.4929091,61.7037037 41.030303,62.1693333 41.030303,62.7407407 C41.030303,63.3121481 41.4929091,63.7777778 42.0606061,63.7777778 C42.628303,63.7777778 43.0909091,63.3121481 43.0909091,62.7407407 C43.0909091,62.1693333 42.628303,61.7037037 42.0606061,61.7037037 Z M46.1818182,61.7037037 C45.6141212,61.7037037 45.1515152,62.1693333 45.1515152,62.7407407 C45.1515152,63.3121481 45.6141212,63.7777778 46.1818182,63.7777778 C46.7495152,63.7777778 47.2121212,63.3121481 47.2121212,62.7407407 C47.2121212,62.1693333 46.7495152,61.7037037 46.1818182,61.7037037 Z M50.3030303,61.7037037 C49.7353333,61.7037037 49.2727273,62.1693333 49.2727273,62.7407407 C49.2727273,63.3121481 49.7353333,63.7777778 50.3030303,63.7777778 C50.8707273,63.7777778 51.3333333,63.3121481 51.3333333,62.7407407 C51.3333333,62.1693333 50.8707273,61.7037037 50.3030303,61.7037037 Z M54.4242424,61.7037037 C53.8565455,61.7037037 53.3939394,62.1693333 53.3939394,62.7407407 C53.3939394,63.3121481 53.8565455,63.7777778 54.4242424,63.7777778 C54.9919394,63.7777778 55.4545455,63.3121481 55.4545455,62.7407407 C55.4545455,62.1693333 54.9919394,61.7037037 54.4242424,61.7037037 Z M58.5454545,61.7037037 C57.9777576,61.7037037 57.5151515,62.1693333 57.5151515,62.7407407 C57.5151515,63.3121481 57.9777576,63.7777778 58.5454545,63.7777778 C59.1131515,63.7777778 59.5757576,63.3121481 59.5757576,62.7407407 C59.5757576,62.1693333 59.1131515,61.7037037 58.5454545,61.7037037 Z M62.6666667,61.7037037 C62.0989697,61.7037037 61.6363636,62.1693333 61.6363636,62.7407407 C61.6363636,63.3121481 62.0989697,63.7777778 62.6666667,63.7777778 C63.2343636,63.7777778 63.6969697,63.3121481 63.6969697,62.7407407 C63.6969697,62.1693333 63.2343636,61.7037037 62.6666667,61.7037037 Z M66.7878788,61.7037037 C66.2201818,61.7037037 65.7575758,62.1693333 65.7575758,62.7407407 C65.7575758,63.3121481 66.2201818,63.7777778 66.7878788,63.7777778 C67.3555758,63.7777778 67.8181818,63.3121481 67.8181818,62.7407407 C67.8181818,62.1693333 67.3555758,61.7037037 66.7878788,61.7037037 Z" id="Shape"></path>
            </g>
        </g>
    </g>
</svg>