<svg xmlns="http://www.w3.org/2000/svg" xmlns:xlink="http://www.w3.org/1999/xlink" width="38.688" height="40.12" viewBox="0 0 38.688 40.12"><defs><style>.a{fill:none;}.b{clip-path:url(#a);}.c{fill:#b6dcfe;}.d{fill:#4788c7;}.e{fill:#fff;}.f{fill:#98ccfd;}</style><clipPath id="a"><rect class="a" width="38.687" height="40.12"/></clipPath></defs><g class="b" transform="translate(0 0)"><rect class="c" width="28.269" height="33.928" transform="translate(3.265 1.088)"/><path class="d" d="M7.888,24.8H6.8v2.394h0v.979h0V30.35H7.888Z" transform="translate(-4.623 -11.468)"/><path class="d" d="M7.888,12.9,6.8,13.009V15.4h0v.816h0V18.4H7.888Z" transform="translate(-4.623 -6.044)"/><path class="d" d="M6.8.3V6.122H7.888V1.388H36.157V35.317H7.888V26.637H6.8v2.394h0v.979h0v6.448H37.246V.3Z" transform="translate(-4.623 -0.3)"/><path class="d" d="M7.888,36.7H6.8v2.394h0v.979h0V42.25H7.888Z" transform="translate(-4.623 -16.893)"/><path class="d" d="M3.779,13.277a1.119,1.119,0,0,1,1.2-1.088h0V11.1h0a2.177,2.177,0,1,0,0,4.353v-.979A1.208,1.208,0,0,1,3.779,13.277Z" transform="translate(-2.8 -5.223)"/><path class="d" d="M9.943,12.079V12.3A1.323,1.323,0,0,0,11.249,13.6h0A1.323,1.323,0,0,0,12.555,12.3a1.416,1.416,0,0,0-1.415-1.2H8.8v.979Z" transform="translate(-5.535 -5.223)"/><path class="d" d="M6.8,17.3h0v.925h0Z" transform="translate(-4.623 -8.049)"/><path class="d" d="M7.888,12.079V11.1H6.8v1.088Z" transform="translate(-4.623 -5.223)"/><path class="d" d="M3.779,25.177a1.119,1.119,0,0,1,1.2-1.088h0V23h0a2.177,2.177,0,1,0,0,4.353v-.979A1.208,1.208,0,0,1,3.779,25.177Z" transform="translate(-2.8 -10.648)"/><path class="d" d="M9.943,24.306a1.323,1.323,0,0,0,1.306,1.306h0a1.306,1.306,0,0,0,0-2.612H8.8v.979H10A.69.69,0,0,0,9.943,24.306Z" transform="translate(-5.535 -10.648)"/><path class="d" d="M6.8,29.2h0v.979h0Z" transform="translate(-4.623 -13.474)"/><path class="d" d="M7.888,23.979V23H6.8v1.088Z" transform="translate(-4.623 -10.648)"/><path class="d" d="M3.779,37.077a1.119,1.119,0,0,1,1.2-1.088h0V34.9h0a2.177,2.177,0,1,0,0,4.353v-.979A1.208,1.208,0,0,1,3.779,37.077Z" transform="translate(-2.8 -16.072)"/><path class="d" d="M9.943,36.206a1.323,1.323,0,0,0,1.306,1.306h0a1.306,1.306,0,1,0,0-2.612H8.8v.979H10A.69.69,0,0,0,9.943,36.206Z" transform="translate(-5.535 -16.072)"/><path class="d" d="M7.888,35.925V35H6.8v1.034Z" transform="translate(-4.623 -16.118)"/><path class="d" d="M6.8,41.1h0v.979h0Z" transform="translate(-4.623 -18.898)"/><path class="d" d="M3.779,49.077a1.119,1.119,0,0,1,1.2-1.088h0V46.9h0a2.177,2.177,0,1,0,0,4.353v-.979A1.208,1.208,0,0,1,3.779,49.077Z" transform="translate(-2.8 -21.542)"/><path class="d" d="M9.943,48.206a1.323,1.323,0,0,0,1.306,1.306h0a1.306,1.306,0,1,0,0-2.612H8.8v.979H10A.69.69,0,0,0,9.943,48.206Z" transform="translate(-5.535 -21.542)"/><path class="d" d="M6.8,53.1h0v.979h0Z" transform="translate(-4.623 -24.368)"/><path class="d" d="M7.888,47.879V46.9H6.8v1.088Z" transform="translate(-4.623 -21.542)"/><circle class="e" cx="8.852" cy="8.852" r="8.852" transform="translate(20.982 22.415)"/><g transform="translate(22.618 24.164)"><path class="f" d="M51.819,58.887a6.727,6.727,0,1,1,6.727-6.727A6.735,6.735,0,0,1,51.819,58.887Z" transform="translate(-44.696 -45.037)"/><path class="d" d="M51.487,45.5a6.332,6.332,0,1,1-6.331,6.332A6.339,6.339,0,0,1,51.487,45.5m0-.791a7.123,7.123,0,1,0,7.123,7.123,7.122,7.122,0,0,0-7.123-7.123Z" transform="translate(-44.365 -44.706)"/><path class="e" d="M58.1,53.689H54.931V50.523H53.348v3.166H50.182v1.583h3.166v3.166h1.583V55.272H58.1Z" transform="translate(-47.017 -47.358)"/></g><g transform="translate(11.106 6.021)"><rect class="e" width="14.235" height="9.56" transform="translate(0.544 0.544)"/><path class="d" d="M38.533,22.013H23.21V11.364H38.533ZM24.3,20.924H37.445V12.452H24.3Z" transform="translate(-23.21 -11.364)"/></g><g transform="translate(14.352 8.373)"><line class="e" x2="8.279" transform="translate(0.544 0.544)"/><path class="d" d="M38,16.776H29.718a.544.544,0,0,1,0-1.088H38a.544.544,0,0,1,0,1.088Z" transform="translate(-29.174 -15.688)"/></g><g transform="translate(13.403 10.701)"><line class="e" x2="10.178" y2="0.037" transform="translate(0.544 0.544)"/><path class="d" d="M38.152,21.091h0l-10.177-.037a.544.544,0,0,1,0-1.088h0L38.154,20a.544.544,0,0,1,0,1.088Z" transform="translate(-27.43 -19.966)"/></g><g transform="translate(15.469 13.067)"><line class="e" x2="6.044" transform="translate(0.544 0.544)"/><path class="d" d="M37.816,25.4H31.772a.544.544,0,1,1,0-1.088h6.044a.544.544,0,1,1,0,1.088Z" transform="translate(-31.228 -24.313)"/></g></g></svg>