<?xml version="1.0" encoding="UTF-8"?>
<svg width="27px" height="22px" viewBox="0 0 27 22" version="1.1" xmlns="http://www.w3.org/2000/svg" xmlns:xlink="http://www.w3.org/1999/xlink">
    <!-- Generator: sketchtool 53 (72520) - https://sketchapp.com -->
    <title>6E261BC5-27DA-4203-A2C0-88DB2C8565E9</title>
    <desc>Created with sketchtool.</desc>
    <g id="Page-1" stroke="none" stroke-width="1" fill="none" fill-rule="evenodd">
        <g id="Учет---Дело---READ---автомобиль-small" transform="translate(-530.000000, -694.000000)" fill="#CCCCCC">
            <g id="body" transform="translate(400.000000, 300.000000)">
                <g transform="translate(123.000000, 110.000000)" id="Form-element-/-text-field-/-long-line-/-Completed-Copy-11">
                    <g transform="translate(0.000000, 260.000000)">
                        <g id="icon-/-eng" transform="translate(0.000000, 15.000000)">
                            <path d="M30.9539373,15.8693168 C30.8711462,15.5913329 30.5951761,15.3967442 30.291609,15.3967442 L28.9379755,15.3967442 C28.5516173,15.3967442 28.2480502,15.7025265 28.2480502,16.091704 L28.2480502,18.1765834 L27.2898436,18.1765834 L27.2898436,13.8678326 C27.2898436,13.4786551 26.9862765,13.1728728 26.5999183,13.1728728 L22.3775754,13.1728728 L22.3775754,12.1501329 L25.4408438,12.1501329 C25.965187,12.1501329 26.4067392,11.7053586 26.4067392,11.1493908 C26.4067392,10.5934229 25.965187,10.1486486 25.4408438,10.1486486 L15.1471582,10.1486486 C14.622815,10.1486486 14.1812628,10.5934229 14.1812628,11.1493908 C14.1812628,11.7053586 14.622815,12.1501329 15.1471582,12.1501329 L18.2104266,12.1501329 L18.2104266,13.1728728 L13.9328897,13.1728728 C13.6293225,13.1728728 13.3533524,13.3674616 13.2705614,13.6732439 L12.8014122,14.7017844 L11.7895686,14.7017844 C11.6239865,14.7017844 11.4308074,14.7851796 11.2928223,14.8963731 C11.1548373,15.0353651 11.0996433,15.2021554 11.0996433,15.3967442 L11.0996433,18.649156 L10.1238866,18.649156 L10.1238866,15.5357361 C10.1238866,15.0075667 9.68233443,14.5627924 9.13039418,14.5627924 C8.57845394,14.5627924 8.13690174,15.0075667 8.13690174,15.5357361 L8.13690174,25.9045363 C8.13690174,26.4327057 8.57845394,26.87748 9.13039418,26.87748 C9.68233443,26.87748 10.1238866,26.4327057 10.1238866,25.9045363 L10.1238866,22.8189148 L11.0996433,22.8189148 L11.0996433,25.7377459 C11.0996433,26.1269234 11.4032104,26.4327057 11.7895686,26.4327057 L12.6910241,26.4327057 L16.3890238,28.9901578 C16.4994118,29.073553 16.6373969,29.1013514 16.7753819,29.1013514 L25.6616199,29.1013514 C25.854799,29.1013514 26.020381,29.0179562 26.1583661,28.8789642 L27.1242615,27.8782221 C27.2622466,27.7392302 27.3174406,27.5724398 27.3174406,27.4056495 L27.3174406,25.8211411 L28.2756472,25.8211411 L28.2756472,27.9060205 C28.2756472,28.295198 28.5792143,28.6009803 28.9655725,28.6009803 L30.319206,28.6009803 C30.6227731,28.6009803 30.8711462,28.4063916 30.9815343,28.1284076 L32.0854148,24.7926006 C32.1130118,24.7092054 32.1130118,24.6536087 32.1130118,24.5702135 L32.1130118,19.427511 C32.0854148,19.3441158 32.0854148,19.2607206 32.0578177,19.2051239 L30.9539373,15.8693168 Z M33.1170876,18.7835961 C33.1614447,18.8892969 33.1815098,18.9759377 33.2038702,19.0998173 C33.2040594,19.1008655 33.2194072,19.1477859 33.2499135,19.2405783 L33.2499135,24.5702135 C33.2504274,24.6467436 33.248808,24.7152561 33.2407879,24.7960428 C33.2286764,24.9180417 33.2034964,25.0364058 33.1636491,25.1568198 L32.0366819,28.5561125 C31.7550152,29.2654178 31.094048,29.7496289 30.319206,29.7496289 L28.9655725,29.7496289 C28.3945941,29.7496289 27.8871418,29.4895935 27.5528639,29.0793538 L26.9610668,29.6924024 C26.6131851,30.0428226 26.1644363,30.25 25.6616199,30.25 L16.7753819,30.25 C16.3949453,30.25 16.0301558,30.1533023 15.7468457,29.9380159 L12.3391832,27.5813544 L11.7895686,27.5813544 C11.4079982,27.5813544 11.054798,27.4652249 10.762692,27.2657446 C10.3707804,27.7306693 9.78317805,28.0261287 9.13039418,28.0261287 C7.96052529,28.0261287 7,27.0772007 7,25.9045363 L7,15.5357361 C7,14.3630717 7.96052529,13.4141438 9.13039418,13.4141438 C9.69358634,13.4141438 10.208261,13.6340675 10.5906067,13.9930033 C10.9244173,13.7263275 11.3571388,13.5531357 11.7895686,13.5531357 L12.0735267,13.5531357 L12.2080988,13.2581061 C12.3873309,12.7302528 12.7888646,12.3311374 13.2834632,12.1432039 C13.1307596,11.8455274 13.044361,11.5072822 13.044361,11.1493908 C13.044361,9.96758303 13.986462,9 15.1471582,9 L25.4408438,9 C26.6015399,9 27.543641,9.96758303 27.543641,11.1493908 C27.543641,11.5143926 27.4537753,11.8589598 27.2953589,12.160898 C27.9610641,12.4350683 28.4267453,13.0927469 28.4267453,13.8678326 L28.4267453,14.3203137 C28.588803,14.2732711 28.7603141,14.2480955 28.9379755,14.2480955 L30.291609,14.2480955 C31.0792965,14.2480955 31.7988708,14.7546762 32.0362477,15.5174152 L33.1170876,18.7835961 Z" id="Path"></path>
                        </g>
                    </g>
                </g>
            </g>
        </g>
    </g>
</svg>