<?xml version="1.0" encoding="UTF-8"?>
<svg width="60px" height="41px" viewBox="0 0 60 41" version="1.1" xmlns="http://www.w3.org/2000/svg" xmlns:xlink="http://www.w3.org/1999/xlink">
    <!-- Generator: sketchtool 53.2 (72643) - https://sketchapp.com -->
    <title>653063C2-00E2-4F38-B002-41C74577B340-3318-0002CE899CEFC16C</title>
    <desc>Created with sketchtool.</desc>
    <g id="Page-1" stroke="none" stroke-width="1" fill="#CCCCCC" fill-rule="evenodd">
        <g id="guide-icon" transform="translate(-110.000000, -4061.000000)" fill="#CCCCCC">
            <g id="Group-5" transform="translate(100.000000, 308.000000)">
                <g id="10" transform="translate(0.000000, 3731.000000)">
                    <g id="icon-/-40*40-/-mail">
                        <path d="M13.89007,60.540196 C14.4164524,60.8330582 15.0220654,60.9999993 15.666015,60.9999993 L64.332031,60.9999993 C65.0734903,60.9999983 65.7658176,60.7777998 66.3431219,60.3975521 L49.058593,44.9355456 C48.852593,44.7505456 48.835531,44.4364676 49.019531,44.2304676 C49.203531,44.0244676 49.517609,44.0064526 49.724609,44.1894526 L67.0991699,59.7172313 C67.6543478,59.0748429 68,58.2478665 68,57.3339834 L68,27.667968 C67.999999,26.713968 67.625343,25.852218 67.027343,25.199218 L41.419921,46.2812496 C41.328921,46.3572486 41.214562,46.3945306 41.101562,46.3945306 C40.992562,46.3945306 40.885921,46.3610146 40.794921,46.2910146 L13.302734,24.886718 C12.512734,25.559718 12,26.550968 12,27.667968 L12,57.3320304 C11.9999995,58.3364173 12.405644,59.2480222 13.0617645,59.9111978 L30.4926807,44.3167108 C30.5956807,44.2252108 30.7263837,44.1845858 30.8540087,44.1917108 C30.9816337,44.1988358 31.1072117,44.2547258 31.1997117,44.3577258 C31.3837117,44.5637258 31.3646957,44.8778037 31.1586957,45.0628037 L13.89007,60.540196 Z M15.666015,22 L64.332031,22 C67.457031,22 70,24.542968 70,27.667968 L70,57.333984 C70,60.458984 67.457031,63 64.332031,63 L15.666015,63 C12.541015,63 10,60.458984 10,57.333984 L10,27.667968 C9.999999,24.542968 12.541015,22 15.666015,22 Z M15.6660149,24 C15.1420149,24 14.6443589,24.1135 14.1933589,24.3125 L41.09375,45.2558594 L66.242187,24.550781 C65.684187,24.207781 65.034031,24 64.332031,24 L15.6660149,24 Z M33.5,26 C35.429999,26 37,27.57 37,29.5 C37,31.429999 35.429999,33 33.5,33 C31.57,33 30,31.429999 30,29.5 C29.999999,27.57 31.57,26 33.5,26 Z M33.5,27 C32.120999,27 31,28.121 31,29.5 C31,30.879 32.121,32 33.5,32 C34.878999,32 36,30.878999 36,29.5 C35.999999,28.120999 34.878999,27 33.5,27 Z M38.5,27 L50.5,27 C50.776,27 51,27.223999 51,27.5 C51,27.775999 50.776,28 50.5,28 L38.5,28 C38.223999,28 38,27.776 38,27.5 C37.999999,27.224 38.223999,27 38.5,27 Z M38.5,29 L43.5,29 C43.776,29 44,29.223999 44,29.5 C44,29.775999 43.776,30 43.5,30 L38.5,30 C38.223999,30 38,29.776 38,29.5 C37.999999,29.224 38.223999,29 38.5,29 Z" id="Shape"></path>
                    </g>
                </g>
            </g>
        </g>
    </g>
</svg>