<?xml version="1.0" encoding="UTF-8"?>
<svg width="150px" height="150px" viewBox="0 0 150 150" version="1.1" xmlns="http://www.w3.org/2000/svg" xmlns:xlink="http://www.w3.org/1999/xlink">
    <!-- Generator: Sketch 53 (72520) - https://sketchapp.com -->
    <g id="Page-1" stroke="none" stroke-width="1" fill="none" fill-rule="evenodd">
        <g id="Velo_Madi" fill="#fff">
            <path d="M72.8535,123.1172 L104.4565,91.5132 C111.2385,84.7342 115.4365,75.3762 115.4365,65.0572 C115.4365,44.4202 98.6485,27.6322 78.0095,27.6322 C57.3745,27.6322 40.5825,44.4202 40.5825,65.0572 C40.5825,75.3542 44.7785,84.7242 51.4965,91.4422 C52.1745,92.1202 52.6095,93.0492 52.6095,94.0692 C52.6095,96.0732 50.9845,97.7002 48.9785,97.7002 C47.9585,97.7002 47.0565,97.2972 46.3705,96.6172 C38.3275,88.5722 33.3225,77.3782 33.3225,65.0572 C33.3225,40.3772 53.3325,20.3662 78.0095,20.3662 C102.6935,20.3662 122.7015,40.3772 122.7015,65.0572 C122.7015,77.3892 117.7055,88.5522 109.6285,96.6392 L78.0005,128.2652 L72.8535,123.1172 Z M50.4067,58.5488 L52.3457,58.5488 L56.2457,67.9438 L60.3187,58.5488 L62.2587,58.5488 L64.6717,73.1808 L61.8267,73.1808 L60.5347,64.3228 L56.5917,73.3738 L55.8147,73.3738 L52.0447,64.3228 L50.5787,73.1808 L47.7347,73.1808 L50.4067,58.5488 Z M75.7252,70.1639 L69.9292,70.1639 L68.6592,73.1809 L65.6182,73.1809 L71.8462,58.5059 L73.9602,58.5059 L80.0162,73.1809 L76.9992,73.1809 L75.7252,70.1639 Z M92.7721,58.8066 L92.7721,70.7666 L94.2801,70.7666 L94.2801,76.4126 L91.6951,76.4126 L91.6951,73.1816 L82.8571,73.1816 L82.8571,76.4126 L80.2731,76.4126 L80.2731,70.7666 C81.3081,70.8096 82.1281,69.9056 82.5581,68.8276 C82.8371,68.1166 83.0741,67.0386 83.0741,65.0566 L83.0741,58.8066 L92.7721,58.8066 Z M98.9346,58.8076 L98.9346,68.4626 L106.8636,58.4846 L108.8036,58.4846 L108.8036,73.1806 L106.0026,73.1806 L106.0026,63.4826 L98.0716,73.4616 L96.1336,73.4616 L96.1336,58.8076 L98.9346,58.8076 Z M74.9072,67.8799 L72.8832,62.7079 L70.8132,67.8799 L74.9072,67.8799 Z M85.7881,65.0566 C85.7881,67.2766 85.5521,68.3756 85.2941,69.0656 C84.9911,69.8636 84.5831,70.3796 84.1741,70.7666 L89.9691,70.7666 L89.9691,61.2226 L85.7881,61.2226 L85.7881,65.0566 Z" id="Shape"></path>
        </g>
    </g>
</svg>