<?xml version="1.0" encoding="UTF-8"?>
<svg width="26px" height="31px" viewBox="0 0 26 31" version="1.1" xmlns="http://www.w3.org/2000/svg" xmlns:xlink="http://www.w3.org/1999/xlink">
    <!-- Generator: sketchtool 53 (72520) - https://sketchapp.com -->
    <title>687494E1-0D30-44EC-9AB8-6097B5720B3D</title>
    <desc>Created with sketchtool.</desc>
    <g id="Page-1" stroke="none" stroke-width="1" fill="none" fill-rule="evenodd">
        <g id="Учет---Дело---READ---автомобиль-small" transform="translate(-530.000000, -1071.000000)" fill="#CCCCCC">
            <g id="body" transform="translate(400.000000, 300.000000)">
                <g transform="translate(123.000000, 110.000000)" id="Form-element-/-text-field-/-long-line-/-Completed-Copy-14">
                    <g transform="translate(0.000000, 641.000000)">
                        <g id="icon-/-40*40-/-user_M" transform="translate(0.000000, 15.000000)">
                            <path d="M29.5,35 L32,35 L32,33 C32,32.339844 31.5546875,31.642578 30.767578,30.964844 C29.980469,30.2871095 28.886719,29.6601565 27.7871095,29.140625 C26.2734375,28.4257815 24.8027345,27.9296875 24,27.6777345 L24,28.6171875 L23.9472655,28.7246095 C23.9472655,28.7246095 22.767578,31 20,31 C17.232422,31 16.0527345,28.7246095 16.0527345,28.7246095 L16,28.6171875 L16,27.6777345 C15.1972655,27.9296875 13.7265625,28.4257815 12.2128905,29.140625 C11.1132815,29.6601565 10.0195315,30.2871095 9.232422,30.964844 C8.4453125,31.642578 8,32.339844 8,33 L8,35 L24,35 L24,33.5 L29.5,33.5 L29.5,35 Z M19.3632815,5 C21.044922,5 22.201172,5.544922 22.921875,6.105469 C23.423828,6.498047 23.6660155,6.8378905 23.8027345,7.0546875 C24.6503905,7.1152345 25.607422,7.402344 26.421875,8.1171875 C27.328125,8.9160155 28,10.203125 28,12 C28,13.5878905 27.621094,15.845703 27.529297,16.373047 C27.814453,16.6289065 28,16.9902345 28,17.4003905 C28,17.7246095 27.902344,18.001953 27.8222655,18.2734375 C27.783203,18.4101565 27.7441405,18.5371095 27.71875,18.6328125 C27.6933595,18.7285155 27.6875,18.8222655 27.6875,18.75 C27.6875,19.4296875 27.1171875,19.9609375 26.4453125,19.984375 C26.3535155,21.923828 25.419922,23.6347655 24,24.761719 L24,26.625 C24.720703,26.84375 26.451172,27.402344 28.2128905,28.234375 C29.3632815,28.777344 30.5195315,29.4316405 31.419922,30.2070315 C32.3203125,30.982422 33,31.9101565 33,33 L33,36 L7,36 L7,33 C7,31.9101565 7.6796875,30.982422 8.580078,30.2070315 C9.480469,29.4316405 10.636719,28.777344 11.7871095,28.234375 C13.548828,27.402344 15.279297,26.84375 16,26.625 L16,24.7597655 C14.580078,23.6328125 13.6464845,21.921875 13.5546875,19.984375 C12.8828125,19.9609375 12.3125,19.4296875 12.3125,18.75 C12.3125,18.8222655 12.3066405,18.7285155 12.28125,18.6328125 C12.2558595,18.5371095 12.216797,18.4101565 12.1777345,18.2734375 C12.0976565,18.001953 12,17.7246095 12,17.4003905 C12,16.998047 12.1796875,16.638672 12.4589845,16.3847655 C12.3515625,15.90625 12.136719,14.7753905 12.136719,13.375 C12.136719,12.294922 11.7871095,11.7246095 11.4609375,11.390625 C11.1328125,11.0546875 10.859375,10.9785155 10.859375,10.9785155 L10.154297,10.7714845 L10.605469,10.1933595 C10.605469,10.1933595 11.611328,8.9003905 13.189453,7.611328 C14.767578,6.324219 16.9433595,5 19.3632815,5 Z M19.3632815,6 C17.3164065,6 15.308594,7.1757815 13.8222655,8.388672 C12.7285155,9.28125 12.0859375,10.001953 11.7402345,10.408203 C11.921875,10.515625 11.96875,10.4785155 12.1777345,10.6933595 C12.667969,11.1972655 13.136719,12.0664065 13.136719,13.375 C13.136719,14.580078 13.3007815,15.5214845 13.402344,16.0039065 C13.4140625,16.0039065 13.4257815,16 13.4375,16 C13.480469,16 13.4746095,16.011719 13.501953,16.015625 C13.5058595,14.4257815 14.359375,13.2539065 15.3847655,12.5371095 C16.4140625,11.8183595 17.5996095,11.5 18.5,11.5 C20.1445315,11.5 21.3203125,11.142578 22.080078,10.794922 C22.839844,10.4472655 23.154297,10.138672 23.154297,10.138672 L23.373047,9.9296875 L23.658203,10.0253905 C23.658203,10.0253905 24.3945315,10.2753905 25.0976565,10.9570315 C25.8007815,11.638672 26.5,12.7890625 26.5,14.5 L26.5,16.013672 C26.527344,16.0097655 26.5195315,16 26.5625,16 L26.5703125,16 C26.667969,15.4296875 27,13.3945315 27,12 C27,10.4453125 26.4589845,9.484375 25.7597655,8.8691405 C25.0625,8.2539065 24.1660155,8 23.5,8 L23.189453,8 L23.0527345,7.720703 C23.0527345,7.720703 22.8671875,7.3339845 22.3046875,6.8945315 C21.7441405,6.455078 20.8320315,6 19.3632815,6 Z M23.5,11.078125 C23.3222655,11.2226565 23.1503905,11.40625 22.496094,11.705078 C21.6152345,12.107422 20.2910155,12.5 18.5,12.5 C17.855469,12.5 16.792969,12.7734375 15.9570315,13.357422 C15.121094,13.9414065 14.5,14.779297 14.5,16.0253905 L14.5,17.652344 L13.748047,17.2109375 C13.6191405,17.136719 13.5,17.0703125 13.4160155,17.027344 C13.40625,17.0214845 13.402344,17.0214845 13.392578,17.015625 C13.1640625,17.0390625 13,17.199219 13,17.4003905 C13,17.4375 13.058594,17.730469 13.1347655,17.9921875 C13.173828,18.121094 13.2128905,18.251953 13.246094,18.371094 C13.279297,18.4902345 13.3125,18.574219 13.3125,18.75 C13.3125,18.8828125 13.421875,19 13.59375,19 L14.5,19 L14.5,19.683594 C14.5,22.3945315 16.455078,24.6347655 19.029297,25.09375 L19.171875,25.1171875 L19.279297,25.216797 C19.4746095,25.3945315 19.720703,25.5 20,25.5 C20.279297,25.5 20.5253905,25.3945315 20.720703,25.216797 L20.828125,25.1171875 L20.970703,25.09375 C23.544922,24.6347655 25.5,22.3945315 25.5,19.683594 L25.5,19 L26.40625,19 C26.578125,19 26.6875,18.8828125 26.6875,18.75 C26.6875,18.574219 26.720703,18.4902345 26.751953,18.371094 C26.7851565,18.251953 26.824219,18.121094 26.8632815,17.9921875 C26.939453,17.730469 27,17.4375 27,17.4003905 L27,17.3984375 C27,17.199219 26.8359375,17.0390625 26.607422,17.015625 C26.5976565,17.0214845 26.59375,17.0214845 26.5839845,17.027344 C26.5,17.0703125 26.3808595,17.136719 26.251953,17.2109375 L25.5,17.652344 L25.5,14.5 C25.5,13.0527345 24.949219,12.205078 24.402344,11.673828 C23.9375,11.2246095 23.621094,11.125 23.5,11.078125 Z M17.25,17 C17.6640625,17 18,17.3359375 18,17.75 C18,18.1640625 17.6640625,18.5 17.25,18.5 C16.8359375,18.5 16.5,18.1640625 16.5,17.75 C16.5,17.3359375 16.8359375,17 17.25,17 Z M22.75,17 C23.1640625,17 23.5,17.3359375 23.5,17.75 C23.5,18.1640625 23.1640625,18.5 22.75,18.5 C22.3359375,18.5 22,18.1640625 22,17.75 C22,17.3359375 22.3359375,17 22.75,17 Z M17,25.4121095 L17,28.34375 C17.060547,28.464844 17.8515625,30 20,30 C22.1484375,30 22.939453,28.464844 23,28.34375 L23,25.4140625 C22.464844,25.6953125 21.886719,25.9101565 21.2734375,26.03125 C20.921875,26.310547 20.486328,26.5 20,26.5 C19.511719,26.5 19.074219,26.310547 18.720703,26.029297 C18.109375,25.90625 17.533203,25.6914065 17,25.4121095 Z M24.5,34 L24.5,35 L29,35 L29,34 L24.5,34 Z M20,31.5 C20.2753905,31.5 20.5,31.7246095 20.5,32 C20.5,32.2753905 20.2753905,32.5 20,32.5 C19.7246095,32.5 19.5,32.2753905 19.5,32 C19.5,31.7246095 19.7246095,31.5 20,31.5 Z M20,33.5 C20.2753905,33.5 20.5,33.7246095 20.5,34 C20.5,34.2753905 20.2753905,34.5 20,34.5 C19.7246095,34.5 19.5,34.2753905 19.5,34 C19.5,33.7246095 19.7246095,33.5 20,33.5 Z" id="Shape"></path>
                        </g>
                    </g>
                </g>
            </g>
        </g>
    </g>
</svg>