<svg width="20" height="20" 
    xmlns="http://www.w3.org/2000/svg">
    <path d="M19.098 5.825a.415.415 0 0 1-.08.12L6.872 18.085a.413.413 0 0 1-.206.188l-6.03 1.688c-.013.006-.027.007-.041.011l-.02.007-.011.001a.403.403 0 0 1-.247.002c-.01-.003-.018 0-.027-.004l-.009-.006a.41.41 0 0 1-.105-.06c-.016-.013-.034-.024-.049-.038-.014-.015-.025-.032-.037-.05a.414.414 0 0 1-.062-.104l-.005-.009c-.003-.009-.001-.017-.004-.027a.428.428 0 0 1 .002-.247l.001-.01.006-.02c.005-.014.006-.028.012-.041l1.689-6.026a.415.415 0 0 1 .189-.207L13.878 1.18c.018-.02.038-.036.056-.055l.13-.13c.007-.007.015-.01.022-.015A3.48 3.48 0 0 1 16.497 0 3.502 3.502 0 0 1 20 3.5c0 .897-.346 1.707-.902 2.325zm-1.645.483l-1.575-1.575-10.29 10.285c.001.003.006.004.007.008l1.033 2.1L17.453 6.308zM1.09 18.91l1.212-.338-.873-.873-.339 1.211zm.603-2.15L3.24 18.31l2.664-.746s-1.125-2.337-1.127-2.337l-2.34-1.127-.745 2.662zm3.285-2.352l.008.008L15.277 4.133l-1.575-1.575L2.877 13.376l2.1 1.033zM16.484.87c-.776 0-1.468.338-1.954.867l-.003-.003-.224.224 3.752 3.749.229-.23-.003-.002a2.641 2.641 0 0 0 .862-1.947A2.658 2.658 0 0 0 16.483.87z" fill="#53A4D6" fill-rule="evenodd"/>
</svg>
