<?xml version="1.0" encoding="UTF-8"?>
<svg width="20px" height="20px" viewBox="0 0 20 20" version="1.1" xmlns="http://www.w3.org/2000/svg" xmlns:xlink="http://www.w3.org/1999/xlink">
    <!-- Generator: sketchtool 53 (72520) - https://sketchapp.com -->
    <title>A0FF2EB1-2849-4E6A-9FAB-9D453EDDF371</title>
    <desc>Created with sketchtool.</desc>
    <g id="Page-1" stroke="none" stroke-width="1" fill="none" fill-rule="evenodd">
        <g id="Учет---Дело---данные-по-Делу-F" transform="translate(-594.000000, -310.000000)" fill="#53A4D6">
            <g id="body" transform="translate(400.000000, 285.000000)">
                <g id="menu">
                    <g id="menu-/-icon-/-wiki-copy" transform="translate(184.000000, 15.000000)">
                        <g id="Group">
                            <path d="M29.0984903,15.8252985 C29.0784664,15.8683651 29.0540895,15.9096916 29.0188301,15.9453629 L16.8713025,28.0844828 C16.8238546,28.1662658 16.758124,28.2376085 16.6645342,28.2732798 L10.6347358,29.9611416 C10.6221121,29.9672318 10.6077471,29.9681019 10.5938175,29.972452 L10.5733583,29.9785423 C10.5698759,29.9798473 10.5659582,29.9789773 10.562911,29.9802823 C10.5219927,29.9911577 10.4815096,30.0002931 10.4384148,29.999858 C10.3957552,30.0011631 10.3561428,29.9933328 10.3156597,29.9820224 C10.3065184,29.9794123 10.2982476,29.9811524 10.2891063,29.9781072 C10.2856239,29.9768022 10.2834474,29.9737571 10.279965,29.972452 C10.2416584,29.9580965 10.2085755,29.9363457 10.1754926,29.9111148 C10.1585158,29.8989343 10.1406685,29.8880589 10.1263035,29.8737034 C10.1119385,29.8593479 10.101056,29.8415122 10.0888676,29.8245466 C10.0636201,29.7919204 10.0422903,29.7584242 10.02749,29.7201428 C10.0257488,29.7166627 10.023137,29.7144876 10.0218311,29.7110075 C10.018784,29.7023071 10.0205252,29.6936068 10.0179134,29.6844715 C10.0070308,29.64445 9.99919542,29.6044285 10.000066,29.562232 C10.000066,29.5187304 10.0087721,29.4782739 10.0196546,29.4373824 C10.0213958,29.4339023 10.0200899,29.4304222 10.0213958,29.4273771 L10.02749,29.4060613 C10.0322783,29.3930108 10.0331489,29.3786553 10.0388079,29.3656048 L11.7277782,23.3397639 C11.763473,23.2458005 11.8348624,23.1814181 11.9166992,23.1331314 L23.878353,11.1788932 C23.8957651,11.1593175 23.9162242,11.1427869 23.9340716,11.1236462 L24.0642268,10.9935764 C24.0707563,10.9870512 24.0790271,10.9848761 24.0859919,10.9787859 C24.7145675,10.3784639 25.558182,10 26.4971277,10 C28.4316082,10 30,11.5673624 30,13.5005733 C30,14.3971412 29.6539352,15.2067058 29.0984903,15.8252985 Z M27.4534854,16.3077312 L25.8781287,14.7334085 L15.5875979,25.0176204 C15.5893391,25.0211006 15.5936921,25.0224056 15.5954333,25.0258857 L16.6284041,27.1257077 L27.4534854,16.3077312 Z M11.0900613,28.9114481 L12.3023764,28.5725707 L11.4291613,27.7003638 L11.0900613,28.9114481 Z M11.6925188,26.7611643 L13.2413221,28.3093861 L15.9053681,27.5633337 C15.9053681,27.5633337 14.7796781,25.2264281 14.7779369,25.2255581 L12.4386258,24.0988668 L11.6925188,26.7611643 Z M14.9777403,24.4094681 C14.9812227,24.4112082 14.9825286,24.4151233 14.986011,24.4172984 L25.2769772,14.1326515 L23.7016205,12.5583288 L12.8765393,23.3763053 L14.9777403,24.4094681 Z M26.4836333,10.8700319 C25.7079258,10.8700319 25.0157962,11.2076043 24.5295643,11.7374537 L24.5265171,11.7344086 L24.3027721,11.9575717 L28.054637,15.7069742 L28.2840409,15.4772858 L28.2814291,15.4746757 C28.8077088,14.9891979 29.1428911,14.2996976 29.1428911,13.5275443 C29.1428911,12.0598005 27.9523411,10.8700319 26.4836333,10.8700319 Z" id="Shape"></path>
                        </g>
                    </g>
                </g>
            </g>
        </g>
    </g>
</svg>