<svg width="35" height="31" 
    xmlns="http://www.w3.org/2000/svg" 
    xmlns:xlink="http://www.w3.org/1999/xlink">
    <defs>
        <path id="a" d="M0 .16h25.097v24.743H0z"/>
        <path id="c" d="M.601.602h17.912V13.61H.601z"/>
    </defs>
    <g fill="none" fill-rule="evenodd">
        <g transform="translate(-.013 -.131)">
            <mask id="b" fill="#fff">
                <use xlink:href="#a"/>
            </mask>
            <path d="M14.04 1.306c-.212-.213-.425-.213-.638 0L7.434 7.274c-.213.213-.213.426 0 .639.212.213.425.213.638 0l5.969-5.968c.213-.213.213-.533 0-.64zm9.912 9.804c-.214-.213-.427-.213-.64 0l-5.968 5.968c-.213.213-.213.427 0 .64.213.213.426.213.64 0l5.967-5.968c.215-.107.215-.426 0-.64zM1.357 21.447c-.639.64-.639 1.492-.106 2.026l.107.106.107.106c.532.534 1.492.427 1.918-.106l8.631-9.698-1.065-1.066-9.591 8.632zM14.68 2.585L8.82 8.445c0 .108.106.108.106.214a29.384 29.384 0 0 0 3.303 3.943 29.517 29.517 0 0 0 3.944 3.304c.213.107.427.213.745.213l5.435-5.435c0-.213-.105-.533-.212-.746a29.379 29.379 0 0 0-3.305-3.943c-1.17-1.172-2.556-2.238-3.942-3.304 0 0-.107 0-.213-.106zM7.968 8.872c-.426.107-.853-.107-1.173-.426-.532-.533-.532-1.386 0-2.025L12.761.56c.532-.533 1.384-.533 2.024 0 .32.32.427.746.427 1.172.107 0 .213.107.32.213a31.267 31.267 0 0 1 4.05 3.41 31.188 31.188 0 0 1 3.41 4.05l.32.64c.425-.107.959 0 1.385.319.532.533.532 1.386 0 2.025l-5.968 5.968c-.534.532-1.386.532-2.026 0-.319-.32-.532-.852-.319-1.385l-.64-.32-2.877-2.238-8.631 9.698c-.853.959-2.346 1.066-3.304.213l-.107-.106-.106-.107c-.96-.96-.96-2.345 0-3.304l.107-.107 9.697-8.632a14.88 14.88 0 0 1-2.238-2.877l-.32-.32z" fill="#53A4D6" mask="url(#b)"/>
        </g>
        <path d="M30.71 19.509a.233.233 0 1 0-.107-.455.233.233 0 0 0 .106.455M30.031 19.667a.233.233 0 1 0-.107-.455.233.233 0 0 0 .107.455M29.526 19.545a.232.232 0 0 0-.452.107c.018.075.074.122.14.15l.205-.025c.078-.052.13-.135.107-.232M30.763 20.53a.233.233 0 0 0-.2.26.232.232 0 1 0 .459-.056.234.234 0 0 0-.259-.204M30.072 20.615a.232.232 0 0 0-.2.26.232.232 0 0 0 .46-.057.232.232 0 0 0-.26-.203" fill="#53A4D6"/>
        <g transform="translate(16.487 16.985)">
            <mask id="d" fill="#fff">
                <use xlink:href="#c"/>
            </mask>
            <path d="M16.906 11.227l-.014-1.17-.007-.478-.023-1.918-.002-.169.02.156.226 1.878.058.466.144 1.186-.402.05zm-.443 1.72l-10.958.136-1.66.02-1.181.016-.988.012-.5.006-.057-4.593-.028-2.156-.02-1.66.05-.001h.06l1.968-.024.37-.005.283-.003.435-.006.328-.004.265-.004.413-.005.212-.002.39-.006.37-.004.3-.003.433-.005.245-.003.439-.007.294-.003.376-.005.218-.002.114-.002h.034l.224-.003.067-.001.096-.001 1.46-.018 3.925-.048.371-.006 1.214-.015.28-.003.055-.001v.08l.002.194.005.37.005.437.004.265.005.392.018 1.434V7.78l.002.064.004.447.005.361.004.314.005.425.005.294.005.479.015 1.12.005.469.014 1.195zM8.553 2.89l7.49-1.75.29 1.24-3.4.412-.205.026-.39.048a.234.234 0 0 0 .024-.147.234.234 0 0 0-.279-.175.233.233 0 0 0-.173.282c.008.035.038.056.06.085l-.297.035c.002-.024.017-.044.011-.069a.235.235 0 0 0-.28-.175.234.234 0 0 0-.172.28c.002.008.01.01.011.016l-.243.03a.23.23 0 0 0-.273-.167c-.103.024-.158.119-.163.22l-.291.036c-.055-.07-.133-.119-.224-.098-.075.018-.123.075-.15.143l-.362.044c-.05-.027-.107-.042-.165-.027-.034.007-.054.036-.08.056l-.688.084-3.942.48 3.89-.91zm7.24 1.213l-2.77.035c.082-.044.143-.122.131-.22a.235.235 0 0 0-.258-.203.233.233 0 0 0-.203.26c.009.077.06.129.123.165l-.393.005a.228.228 0 0 0 .04-.143.234.234 0 0 0-.258-.204.235.235 0 0 0-.204.26c.006.039.033.062.052.091l-.3.004c.004-.023.022-.042.02-.067a.234.234 0 0 0-.26-.204.233.233 0 0 0-.202.26c0 .007.008.01.009.016l-.244.004a.233.233 0 0 0-.254-.196c-.104.013-.17.1-.185.2l-.294.005c-.046-.075-.12-.132-.211-.12-.078.008-.131.06-.166.124l-.364.005a.226.226 0 0 0-.161-.046c-.035.005-.058.03-.086.05l-.693.007-1.81.023-.25.003-.333.004-.435.007-.276.002-.376.005-.49.006.566-.069.21-.026.387-.047.368-.044.297-.037.43-.052.244-.03.435-.053.291-.034.373-.046.331-.04.034-.004.221-.027 5.508-.67.37-.045 1.536-.186.155 1.265-.239.002-.416.005zm2.162 5.226l-.393.091-.452-3.707.845 3.616zm-.337.56l.895-.21L16.394.602 8.451 2.457.601 4.29l.116 9.32 16.217-.202-.021-1.712.911-.11-.206-1.699z" fill="#53A4D6" mask="url(#d)"/>
        </g>
        <path d="M19.544 22.576c.02.012.04.02.062.025.018.004.03.021.05.021.004-.001.006-.004.01-.004a.233.233 0 0 0 .22-.234c-.001-.015-.016-.026-.018-.041-.003-.015-.012-.029-.019-.043-.036-.082-.103-.147-.198-.145-.035 0-.058.023-.087.038-.081.038-.143.103-.142.198.001.084.055.145.122.185M23.136 22.578a.233.233 0 0 0 .23-.237.234.234 0 0 0-.236-.23.234.234 0 0 0-.23.237.234.234 0 0 0 .236.23M20.352 22.613a.233.233 0 0 0 .23-.237.227.227 0 0 0-.064-.147.22.22 0 0 0-.17-.083c-.024 0-.039.018-.06.025-.095.03-.172.106-.17.21a.233.233 0 0 0 .234.232M22.67 22.35a.233.233 0 0 0-.235-.23.232.232 0 0 0-.229.236.233.233 0 0 0 .234.232.234.234 0 0 0 .23-.238M24.498 22.55c.012 0 .019.01.03.01a.233.233 0 0 0 .229-.236c0-.004-.004-.006-.004-.01a.231.231 0 0 0-.23-.221.234.234 0 0 0-.229.238c.001.116.093.203.204.218M25.198 22.552a.23.23 0 0 0 .157-.067c.034-.033.044-.078.055-.124l.001-.002c.003-.016.017-.026.017-.043a.233.233 0 0 0-.235-.23.233.233 0 0 0-.23.236c0 .051.028.092.056.13.043.059.103.101.18.1M23.833 22.57c.043-.001.077-.026.112-.05.029-.041.06-.08.089-.12.008-.024.028-.04.028-.068a.232.232 0 1 0-.465.006.234.234 0 0 0 .236.232M23.218 29.118a.235.235 0 0 0-.23.238c0 .04.026.069.044.101.003.005.003.01.006.014.042.065.103.115.185.114.1 0 .168-.072.2-.161.008-.022.024-.039.025-.063 0-.004.005-.006.005-.011a.234.234 0 0 0-.235-.232M21.974 22.36a.235.235 0 0 0-.236-.232.234.234 0 0 0-.228.237.233.233 0 0 0 .235.23.234.234 0 0 0 .229-.236M22.522 29.127a.233.233 0 0 0-.23.237c.002.083.053.141.118.182a.209.209 0 0 0 .089.037c.01.002.018.011.028.011.037 0 .062-.024.093-.04.026-.013.055-.018.075-.042a.234.234 0 0 0 .062-.153.234.234 0 0 0-.235-.232M21.826 29.136c-.103.002-.174.077-.204.171-.007.024-.026.04-.026.066a.233.233 0 0 0 .465-.006.236.236 0 0 0-.063-.148.228.228 0 0 0-.172-.083M21.049 22.605a.234.234 0 0 0 .229-.238.233.233 0 0 0-.465.006.235.235 0 0 0 .236.232M19.21 23.124c.02.112.107.202.223.201l.006-.002a.224.224 0 0 0 .121-.052c.014-.012.031-.017.042-.032.015-.016.016-.04.023-.059.015-.03.039-.056.038-.09 0-.014-.013-.023-.015-.034l-.001-.003-.001-.002c-.021-.108-.106-.195-.219-.193-.014 0-.02.013-.033.015-.007 0-.01.005-.016.007-.012.003-.021.008-.032.013a.227.227 0 0 0-.095.069.238.238 0 0 0-.04.102c-.003.012-.013.02-.013.03 0 .006.005.008.005.012.001.006.007.01.007.018M19.976 25.685a.458.458 0 0 1 .411-.269c.012 0 .022.005.035.006.019.001.037.008.054.01a.455.455 0 0 1 .38.436l.002.01c0 .027-.01.051-.015.077a.448.448 0 0 1-.35.375c-.031.007-.06.02-.094.02a.462.462 0 0 1-.423-.665m-.51.21c0 .04.018.076.024.117a.92.92 0 0 0 .123.346.918.918 0 0 0 .791.46.918.918 0 0 0 .764-.453.924.924 0 0 0 .133-.386c.005-.037.02-.069.02-.108 0-.061-.025-.115-.037-.172-.013-.059-.015-.122-.038-.175a.916.916 0 0 0-.393-.433c-.025-.014-.044-.034-.07-.046a.905.905 0 0 0-.39-.094l-.01-.002a.892.892 0 0 0-.286.06.93.93 0 0 0-.632.885M24.093 29.21c-.043-.058-.102-.101-.18-.1-.11 0-.19.087-.21.191-.004.017-.019.028-.019.045 0 .017.016.028.019.044.024.104.106.189.217.188a.234.234 0 0 0 .229-.237l-.002-.005a.234.234 0 0 0-.054-.126M21.204 29.174c-.02-.009-.04-.009-.056-.021-.007 0-.011-.008-.018-.008a.233.233 0 0 0-.23.236c.001.033.023.057.038.087.037.08.104.145.198.144a.234.234 0 0 0 .228-.238c0-.002-.003-.004-.003-.005-.004-.096-.071-.164-.157-.195M24.61 29.1c-.116.003-.2.094-.217.206-.001.012-.013.02-.013.033a.233.233 0 0 0 .465-.006c0-.031-.023-.051-.034-.078-.035-.086-.104-.155-.201-.154M25.258 29.094c-.087 0-.149.058-.188.13-.017.033-.043.066-.043.106a.234.234 0 0 0 .236.23.233.233 0 0 0 .23-.236.227.227 0 0 0-.062-.144.22.22 0 0 0-.173-.086M18.317 27.54c.003 0 .005.004.01.004.091-.001.155-.065.19-.145.015-.03.038-.055.038-.092a.222.222 0 0 0-.099-.176.228.228 0 0 0-.136-.054c-.023.001-.036.018-.057.024-.097.03-.173.107-.172.213a.233.233 0 0 0 .226.227M18.228 26.808c.03.013.054.035.089.035.025 0 .042-.02.065-.027.092-.032.166-.106.164-.208a.233.233 0 0 0-.234-.232c-.012 0-.02.012-.03.013a.208.208 0 0 0-.1.044c-.058.043-.1.101-.1.179.001.094.066.16.146.196M18.3 25.442c.099-.001.168-.074.2-.163.009-.026.03-.045.029-.074a.225.225 0 0 0-.086-.17.225.225 0 0 0-.149-.06.233.233 0 0 0 .005.467M18.216 26.105c.03.015.057.038.093.038a.233.233 0 1 0-.006-.467.222.222 0 0 0-.168.082c-.016.019-.018.045-.027.067-.012.029-.035.053-.035.087a.232.232 0 0 0 .064.148c.02.023.05.032.079.045M18.346 27.785c-.007 0-.011-.007-.017-.007a.232.232 0 0 0-.229.236.232.232 0 0 0 .234.23c.026 0 .042-.02.065-.027.092-.032.166-.105.164-.209a.23.23 0 0 0-.217-.223M18.975 23.798a.231.231 0 0 0 .226-.23c0-.003.003-.004.003-.007a.229.229 0 0 0-.215-.222c-.008 0-.012-.008-.02-.008-.007 0-.012.007-.017.008a.23.23 0 0 0-.212.228c0 .005.005.007.005.012.002.025.02.044.03.066.008.023.01.047.026.065a.22.22 0 0 0 .174.088M19.732 28.695a.233.233 0 0 0-.235-.231c-.109 0-.186.085-.21.188-.003.018-.02.03-.018.048 0 .062.027.116.066.157a.227.227 0 0 0 .167.075.233.233 0 0 0 .23-.237M20.434 29.153c-.007 0-.011.007-.019.008a.23.23 0 0 0-.21.23c0 .104.08.179.177.207.02.005.035.022.057.022a.236.236 0 0 0 .23-.236c0-.036-.025-.062-.04-.093-.039-.077-.104-.139-.195-.138M19.738 29.162a.233.233 0 0 0-.23.237.234.234 0 0 0 .236.23.234.234 0 0 0 .23-.236.234.234 0 0 0-.236-.23M18.291 24.741c.03 0 .05-.022.075-.032a.216.216 0 0 0 .138-.163c.002-.015.016-.026.016-.042 0-.077-.045-.134-.103-.177-.039-.027-.08-.054-.132-.053-.007 0-.012.008-.018.009a.23.23 0 0 0-.211.227.235.235 0 0 0 .235.231M19.147 28.05l-.02-.007c-.032-.016-.06-.041-.1-.04-.028 0-.045.022-.07.03-.09.035-.16.106-.159.206a.234.234 0 0 0 .236.23c.083 0 .142-.053.182-.12.022-.036.046-.07.046-.116 0-.082-.05-.141-.115-.182M18.202 24.008c.027.01.05.033.08.032.102-.001.174-.077.204-.17.006-.023.026-.04.025-.066-.001-.103-.076-.175-.17-.205-.023-.006-.04-.026-.064-.026a.23.23 0 0 0-.16.069.232.232 0 0 0-.07.168c.002.097.07.165.155.198M30.77 22.483a.22.22 0 0 0 .152-.066.227.227 0 0 0 .077-.17.233.233 0 0 0-.236-.231.235.235 0 0 0-.23.237c.002.069.035.125.083.167a.22.22 0 0 0 .153.063M27.29 22.527a.222.222 0 0 0 .172-.093.23.23 0 0 0 .058-.145.233.233 0 0 0-.236-.229c-.078.001-.137.047-.178.108-.025.037-.052.078-.051.128a.235.235 0 0 0 .235.23M29.955 22.444c.035.022.072.048.119.048a.233.233 0 1 0-.006-.467.231.231 0 0 0-.228.236c0 .082.05.142.115.183M28.103 22.468c.064-.043.113-.104.112-.187a.233.233 0 0 0-.234-.23.222.222 0 0 0-.169.084.23.23 0 0 0-.06.153.233.233 0 0 0 .234.23c.046 0 .081-.027.117-.05M25.898 22.544c.095 0 .16-.068.196-.153.011-.028.034-.05.033-.084a.232.232 0 1 0-.464.006c0 .019.016.031.021.048.025.103.105.184.214.183M26.594 22.535c.003 0 .004-.003.007-.003a.231.231 0 0 0 .222-.234.233.233 0 0 0-.235-.23.234.234 0 0 0-.23.237c.001.06.03.114.067.155a.225.225 0 0 0 .169.075M27.371 29.067a.234.234 0 0 0-.23.237.235.235 0 0 0 .057.132c.044.056.103.1.18.098.091 0 .154-.065.19-.143.016-.032.039-.057.039-.092a.234.234 0 0 0-.236-.232M28.91 22.273a.234.234 0 0 0-.235-.231.234.234 0 0 0 .006.468.234.234 0 0 0 .23-.237M28.067 29.058a.234.234 0 0 0-.229.238c0 .023.019.037.026.058.03.097.104.173.21.17a.23.23 0 0 0 .224-.222c0-.004.005-.007.005-.013a.235.235 0 0 0-.236-.231M28.764 29.05a.23.23 0 0 0-.224.223c0 .005-.006.008-.006.013a.233.233 0 0 0 .235.23.233.233 0 0 0 .23-.235c0-.025-.02-.04-.027-.062-.03-.095-.104-.17-.208-.17M29.378 22.5a.234.234 0 0 0-.006-.467.234.234 0 0 0-.23.237.234.234 0 0 0 .236.23M30.776 22.95a.234.234 0 0 0 .235.232.227.227 0 0 0 .14-.062.223.223 0 0 0 .088-.175c0-.006-.006-.01-.006-.016a.23.23 0 0 0-.228-.215.233.233 0 0 0-.23.236M30.12 26.229a.46.46 0 0 1-.469-.46.46.46 0 0 1 .458-.474.46.46 0 0 1 .469.462.461.461 0 0 1-.458.472m.793-.022a.908.908 0 0 0 .13-.456.919.919 0 0 0-.216-.562.908.908 0 0 0-.725-.36.876.876 0 0 0-.294.063.93.93 0 0 0-.622.882.92.92 0 0 0 .44.76c.023.011.039.023.059.04a.9.9 0 0 0 .336.103c.035.003.068.02.106.019a.876.876 0 0 0 .299-.065.89.89 0 0 0 .25-.146.92.92 0 0 0 .237-.278M26.676 29.075a.234.234 0 0 0-.23.238c.002.094.069.161.151.196.028.012.052.034.084.033a.223.223 0 0 0 .144-.06.227.227 0 0 0 .085-.175.233.233 0 0 0-.234-.232M29.459 29.04c-.091.003-.155.066-.192.144-.013.031-.037.057-.037.094a.233.233 0 0 0 .464-.006.235.235 0 0 0-.056-.133c-.043-.057-.103-.1-.18-.098M26.034 29.106c-.02-.005-.033-.022-.055-.022-.035 0-.061.025-.092.04-.077.04-.137.105-.137.197a.234.234 0 0 0 .236.231.235.235 0 0 0 .229-.237c-.002-.107-.082-.183-.181-.209M26.105 27.733a2.128 2.128 0 0 1-.518.15c-.039.005-.077.011-.116.015-.048.006-.094.02-.144.02-.016.001-.031.006-.047.007-.016 0-.031-.005-.047-.005-.071 0-.139-.016-.208-.025a2.084 2.084 0 0 1-1.35-3.42 2.062 2.062 0 0 1 1.507-.748c.015 0 .03-.005.046-.006.016 0 .03.004.047.004a2.08 2.08 0 0 1 2.035 1.893c.007.06.02.117.02.178.002.13-.011.257-.031.38l-.017.085a2.09 2.09 0 0 1-.444.905l-.03.04a2.01 2.01 0 0 1-.232.22 2.152 2.152 0 0 1-.471.307m1.605-2.537a2.554 2.554 0 0 0-2.441-1.937v-.003c-.013 0-.023-.003-.037-.003l-.01.001h-.01c-.013 0-.025.003-.037.004v.002a2.498 2.498 0 0 0-1.02.26c-.058.027-.111.063-.166.095a2.55 2.55 0 0 0-.485.365 2.579 2.579 0 0 0-.264.301 2.545 2.545 0 0 0-.527 1.573 2.562 2.562 0 0 0 1.208 2.14c.11.067.22.134.339.185a2.529 2.529 0 0 0 .49.154 2.6 2.6 0 0 0 .488.054v.002h.004c.011 0 .022.004.033.004l.01-.002.012.002c.012-.002.023-.005.036-.005v-.003c.097-.003.19-.024.283-.037.091-.015.184-.027.273-.049.1-.026.195-.063.292-.101a2.545 2.545 0 0 0 1.514-1.706c.06-.22.1-.45.098-.69l.001-.01a2.635 2.635 0 0 0-.058-.517c-.006-.027-.018-.052-.026-.079M32.128 27.333c.032.016.059.039.095.038a.217.217 0 0 0 .174-.1c.03-.04.056-.084.055-.136a.234.234 0 0 0-.235-.231.235.235 0 0 0-.23.237c.002.092.065.156.141.192M32.214 26.67a.227.227 0 0 0 .161-.07.233.233 0 0 0 .068-.166.234.234 0 0 0-.067-.155.223.223 0 0 0-.168-.075c-.046 0-.08.026-.116.05a.192.192 0 0 0-.065.065c-.023.037-.05.074-.048.12a.234.234 0 0 0 .235.232M32.127 25.241c.024.009.042.028.07.028.078-.001.135-.048.176-.107.028-.039.053-.079.053-.129a.234.234 0 0 0-.235-.231.233.233 0 0 0-.23.236c.002.102.075.173.166.203M32.118 25.935c.03.013.053.035.087.035a.233.233 0 0 0 .15-.065.233.233 0 0 0 .08-.171c0-.055-.029-.101-.06-.14a.222.222 0 0 0-.176-.09c-.016 0-.024.013-.04.016-.106.023-.19.106-.19.219.002.095.068.16.15.196M32.225 27.605a.233.233 0 0 0-.229.237.234.234 0 0 0 .236.23.234.234 0 0 0 .229-.237.234.234 0 0 0-.236-.23M31.48 23.642a.233.233 0 0 0 .23-.236c-.002-.077-.045-.134-.103-.177a.224.224 0 0 0-.133-.054.234.234 0 0 0-.23.237.222.222 0 0 0 .097.174c.04.031.085.057.14.056M31.074 28.32c-.113.002-.196.09-.214.2-.003.013-.015.023-.015.037a.233.233 0 0 0 .465-.006c0-.032-.023-.054-.036-.082-.037-.084-.104-.15-.2-.15M30.239 29.066c-.028-.012-.051-.033-.084-.033a.225.225 0 0 0-.14.06.226.226 0 0 0-.09.175.234.234 0 0 0 .236.232.234.234 0 0 0 .23-.237c-.001-.095-.07-.162-.152-.197M30.851 29.024a.233.233 0 0 0-.229.237.233.233 0 0 0 .234.23.233.233 0 1 0-.005-.467M32.188 24.569a.234.234 0 0 0 .229-.238.233.233 0 0 0-.465.006.235.235 0 0 0 .236.232M31.532 27.847c-.022 0-.035.018-.055.023-.098.03-.175.107-.174.214a.234.234 0 0 0 .235.23.233.233 0 0 0 .23-.236.232.232 0 0 0-.064-.149.222.222 0 0 0-.172-.082M32.18 23.867a.234.234 0 0 0 .229-.236c-.001-.027-.021-.044-.03-.067-.035-.025-.052-.067-.07-.11a.225.225 0 0 0-.136-.054.233.233 0 0 0 .006.467" fill="#53A4D6"/>
    </g>
</svg>
