<?xml version="1.0" encoding="UTF-8"?>
<svg width="52px" height="66px" viewBox="0 0 52 66" version="1.1" xmlns="http://www.w3.org/2000/svg" xmlns:xlink="http://www.w3.org/1999/xlink">
    <!-- Generator: sketchtool 53 (72520) - https://sketchapp.com -->
    <title>C2E464A8-4D35-4631-A0D5-6132980904B5</title>
    <desc>Created with sketchtool.</desc>
    <g id="Page-1" stroke="none" stroke-width="1" fill="none" fill-rule="evenodd">
        <g id="guide-icon" transform="translate(-1151.000000, -668.000000)" fill="#CCCCCC">
            <g id="icon-/-40*40-/-police" transform="translate(1137.000000, 660.000000)">
                <path d="M40.0742196,8.00000012 C36.1718755,8.00000012 33.2109385,10.4804682 30.0664064,12.9804682 C26.9218754,15.4804682 23.5507814,18.0898433 18.8085943,19.0195313 C18.3398443,19.1093753 18.0000003,19.5195313 18.0000003,20.0000003 C18.0000003,22.5156253 19.8164063,24.2734374 21.4414063,25.3671874 C22.7304693,26.2265624 23.5195314,26.4687504 24.0000004,26.6484374 L24.0000004,37.0390626 L24.0156254,37.0390626 C24.0468754,37.6015626 24.2109384,38.0976566 24.3554694,38.5859376 C24.4335944,38.8593756 24.5117194,39.1132816 24.5625004,39.3046876 C24.6132814,39.4960936 24.6250004,39.6835936 24.6250004,39.5390626 C24.6250004,40.8984376 25.7656254,41.9609376 27.1093754,42.0078126 C27.3125004,46.3242187 29.6015634,50.0703127 33.0000005,52.2734378 L33.0000005,52.5078128 L29.0156254,55.1875008 C26.7500004,56.1757818 23.1484383,57.7773439 20.0312503,59.7460939 C18.4531253,60.7421879 17.0000003,61.8242189 15.8984382,63.0117189 C14.7968752,64.199219 14.0000002,65.539063 14.0000002,67.039063 L14.0000002,73.0390631 L66.000001,73.0390631 L66.000001,67.039063 C66.000001,65.539063 65.203126,64.199219 64.101564,63.0117189 C63.0000009,61.8242189 61.5468759,60.7421879 59.9687509,59.7460939 C56.8515638,57.7773439 53.2500008,56.1757818 50.9843758,55.1875008 L47.0000007,52.5078128 L47.0000007,52.2773438 C50.3984388,50.0742187 52.6875008,46.3242187 52.8906258,42.0078126 C54.2343758,41.9609376 55.3750008,40.8984376 55.3750008,39.5390626 C55.3750008,39.6835936 55.3867198,39.4960936 55.4375008,39.3046876 C55.4882818,39.1132816 55.5664068,38.8593756 55.6445318,38.5859376 C55.7890638,38.0976566 55.9531258,37.6015626 55.9843758,37.0390626 L56.0000008,37.0390626 L56.0000008,26.6484374 C56.4804698,26.4687504 57.2695319,26.2265624 58.5585949,25.3671874 C60.1835949,24.2734374 62.0000009,22.5156253 62.0000009,20.0000003 C62.0000009,19.4843753 61.6093759,19.0546873 61.0937509,19.0039063 C56.4140638,18.5546873 53.1250008,15.9882812 50.0312507,13.3750002 C46.9335947,10.7617182 44.0195317,8.00000012 40.0742196,8.00000012 Z M40.0742196,10.0000001 C43.0546886,10.0000001 45.6015637,12.2578122 48.7382817,14.9023432 C51.6250008,17.3398433 55.0625008,19.9335933 59.7265639,20.7421873 C59.4062509,21.9140623 58.5703139,22.9492183 57.4414069,23.7031254 C56.0703138,24.6210934 54.6835948,25.0898434 54.6835948,25.0898434 C54.2734388,25.2265624 54.0000008,25.6093754 54.0000008,26.0390624 L54.0000008,28.5234374 C53.8242198,28.6914064 52.9687508,29.5507814 50.7773448,30.6445315 C48.3789067,31.8320315 44.7695317,33.0390625 39.9257816,33.0390625 C35.0859385,33.0390625 31.5156255,31.8359375 29.1562504,30.6484375 C26.9960944,29.5585934 26.1679694,28.6953124 26.0000004,28.5312504 L26.0000004,26.0390624 C26.0000004,25.6093754 25.7265634,25.2265624 25.3164064,25.0898434 C25.3164064,25.0898434 23.9296884,24.6210934 22.5585943,23.7031254 C21.4062503,22.9335933 20.5429693,21.8750003 20.2460943,20.6679683 C24.9257814,19.4726563 28.3789064,16.8750003 31.3125005,14.5468752 C34.4687505,12.0351562 37.0429696,10.0000001 40.0742196,10.0000001 Z M38.0000006,16.0390622 L38.0000006,19.0390623 C38.0000006,20.0390623 40.0000006,21.0390623 40.0000006,21.0390623 C40.0000006,21.0390623 42.0000006,20.0390623 42.0000006,19.0390623 L42.0000006,16.0390622 L38.0000006,16.0390622 Z M28.0000004,25.0390624 C27.4492194,25.0390624 27.0000004,25.4882814 27.0000004,26.0390624 C27.0000004,26.5898434 27.4492194,27.0390624 28.0000004,27.0390624 C28.5507814,27.0390624 29.0000004,26.5898434 29.0000004,26.0390624 C29.0000004,25.4882814 28.5507814,25.0390624 28.0000004,25.0390624 Z M32.0000005,25.0390624 C31.4492195,25.0390624 31.0000005,25.4882814 31.0000005,26.0390624 C31.0000005,26.5898434 31.4492195,27.0390624 32.0000005,27.0390624 C32.5507815,27.0390624 33.0000005,26.5898434 33.0000005,26.0390624 C33.0000005,25.4882814 32.5507815,25.0390624 32.0000005,25.0390624 Z M36.0000005,25.0390624 C35.4492195,25.0390624 35.0000005,25.4882814 35.0000005,26.0390624 C35.0000005,26.5898434 35.4492195,27.0390624 36.0000005,27.0390624 C36.5507815,27.0390624 37.0000006,26.5898434 37.0000006,26.0390624 C37.0000006,25.4882814 36.5507815,25.0390624 36.0000005,25.0390624 Z M40.0000006,25.0390624 C39.4492196,25.0390624 39.0000006,25.4882814 39.0000006,26.0390624 C39.0000006,26.5898434 39.4492196,27.0390624 40.0000006,27.0390624 C40.5507816,27.0390624 41.0000006,26.5898434 41.0000006,26.0390624 C41.0000006,25.4882814 40.5507816,25.0390624 40.0000006,25.0390624 Z M44.0000007,25.0390624 C43.4492196,25.0390624 43.0000006,25.4882814 43.0000006,26.0390624 C43.0000006,26.5898434 43.4492196,27.0390624 44.0000007,27.0390624 C44.5507817,27.0390624 45.0000007,26.5898434 45.0000007,26.0390624 C45.0000007,25.4882814 44.5507817,25.0390624 44.0000007,25.0390624 Z M48.0000007,25.0390624 C47.4492197,25.0390624 47.0000007,25.4882814 47.0000007,26.0390624 C47.0000007,26.5898434 47.4492197,27.0390624 48.0000007,27.0390624 C48.5507817,27.0390624 49.0000007,26.5898434 49.0000007,26.0390624 C49.0000007,25.4882814 48.5507817,25.0390624 48.0000007,25.0390624 Z M52.0000008,25.0390624 C51.4492198,25.0390624 51.0000008,25.4882814 51.0000008,26.0390624 C51.0000008,26.5898434 51.4492198,27.0390624 52.0000008,27.0390624 C52.5507818,27.0390624 53.0000008,26.5898434 53.0000008,26.0390624 C53.0000008,25.4882814 52.5507818,25.0390624 52.0000008,25.0390624 Z M54.0000008,31.0585935 L54.0000008,34.1875005 C53.7226568,34.0976565 53.4296888,34.0390625 53.1250008,34.0390625 C53.0390638,34.0390625 53.0546888,34.0585935 53.0000008,34.0664065 L53.0000008,34.0390625 C53.0000008,33.1953125 52.8593758,32.5156255 52.6601568,31.9062505 C53.1953138,31.6054685 53.6054698,31.3281255 54.0000008,31.0585935 Z M26.0000004,31.0859375 C26.3867194,31.3515625 26.7773444,31.6171875 27.2929694,31.9140625 C27.1132814,32.5859375 27.0078134,33.3007815 27.0039064,34.0703125 C26.9492194,34.0625005 26.9648444,34.0390625 26.8750004,34.0390625 C26.5703134,34.0390625 26.2773444,34.0976565 26.0000004,34.1875005 L26.0000004,31.0859375 Z M50.8632818,32.8085935 C50.9492198,33.1523435 51.0000008,33.5273435 51.0000008,34.0390625 L51.0000008,37.3437506 L52.5039068,36.4609375 C52.7617198,36.3125005 53.0000008,36.1796875 53.1679698,36.0937505 C53.1875008,36.0820315 53.1953138,36.0820315 53.2148448,36.0703125 C53.6718758,36.1171875 54.0000008,36.4375005 54.0000008,36.8398435 C54.0000008,36.9140626 53.8828138,37.5000006 53.7304698,38.0234376 C53.6523448,38.2812506 53.5742198,38.5429686 53.5078138,38.7812506 C53.4414068,39.0195316 53.3750008,39.1875006 53.3750008,39.5390626 C53.3750008,39.8046876 53.1562508,40.0390626 52.8125008,40.0390626 L51.0000008,40.0390626 L51.0000008,41.4062506 C51.0000008,46.8281257 47.0898447,51.3085938 41.9414066,52.2265628 L41.6562506,52.2734378 L41.4414066,52.4726568 C41.0507816,52.8281258 40.5585946,53.0390628 40.0000006,53.0390628 C39.4414066,53.0390628 38.9492196,52.8281258 38.5585946,52.4726568 L38.3437506,52.2734378 L38.0585946,52.2265628 C32.9101565,51.3085938 29.0000004,46.8281257 29.0000004,41.4062506 L29.0000004,40.0390626 L27.1875004,40.0390626 C26.8437504,40.0390626 26.6250004,39.8046876 26.6250004,39.5390626 C26.6250004,39.1875006 26.5585944,39.0195316 26.4921884,38.7812506 C26.4257814,38.5429686 26.3476564,38.2812506 26.2695314,38.0234376 C26.1171884,37.5000006 26.0000004,36.9140626 26.0000004,36.8398435 C26.0000004,36.4375005 26.3281254,36.1171875 26.7851564,36.0703125 C26.8046884,36.0820315 26.8125004,36.0820315 26.8320314,36.0937505 C27.0000004,36.1796875 27.2382814,36.3125005 27.4960944,36.4609375 L29.0000004,37.3437506 L29.0000004,34.0898435 C29.0000004,33.6445315 29.0468754,33.2304685 29.1210944,32.8398435 C31.6914065,34.0000005 35.2929695,35.0390625 39.9257816,35.0390625 C44.6093757,35.0390625 48.2578137,33.9804685 50.8632818,32.8085935 Z M34.5000005,36.0390625 C33.6718755,36.0390625 33.0000005,36.7109375 33.0000005,37.5390626 C33.0000005,38.3671876 33.6718755,39.0390626 34.5000005,39.0390626 C35.3281255,39.0390626 36.0000005,38.3671876 36.0000005,37.5390626 C36.0000005,36.7109375 35.3281255,36.0390625 34.5000005,36.0390625 Z M45.5000007,36.0390625 C44.6718757,36.0390625 44.0000007,36.7109375 44.0000007,37.5390626 C44.0000007,38.3671876 44.6718757,39.0390626 45.5000007,39.0390626 C46.3281257,39.0390626 47.0000007,38.3671876 47.0000007,37.5390626 C47.0000007,36.7109375 46.3281257,36.0390625 45.5000007,36.0390625 Z M35.0000005,53.3359378 C35.7773445,53.6640628 36.5937505,53.9257818 37.4414066,54.0976568 C38.1484386,54.6601568 39.0234386,55.0390628 40.0000006,55.0390628 C40.9726566,55.0390628 41.8437506,54.6601568 42.5468756,54.1015628 C43.3984386,53.9335938 44.2187507,53.6679688 45.0000007,53.3398438 L45.0000007,55.3242188 C44.8828137,55.5625008 43.1523446,59.0390629 40.0000006,59.0390629 C36.8476565,59.0390629 35.1171885,55.5625008 35.0000005,55.3242188 L35.0000005,53.3359378 Z M33.0000005,54.9179688 L33.0000005,55.8242188 L33.0898445,56.0234378 C33.0898445,56.0234378 34.2500005,58.6796879 36.7070315,60.1289069 L32.2304695,62.5156259 L31.0468755,56.2304688 L33.0000005,54.9179688 Z M47.0000007,54.9179688 L49.3945317,56.5273438 L48.2617197,62.5546879 L43.3437506,60.0937509 C45.7656257,58.6406259 46.9101567,56.0234378 46.9101567,56.0234378 L47.0000007,55.8242188 L47.0000007,54.9179688 Z M29.2148444,57.2890629 L30.7695315,65.562501 L39.3320316,60.9960939 C39.5507816,61.0195319 39.7695316,61.0390629 40.0000006,61.0390629 C40.2304696,61.0390629 40.4531256,61.0156259 40.6718756,60.9921879 L49.7382817,65.523438 L51.2500008,57.4921879 C53.4609388,58.4765629 56.3789068,59.8437509 58.9062509,61.4375009 C60.3906259,62.3750009 61.7187509,63.3867189 62.6328139,64.371094 C63.5468759,65.355469 64.000001,66.277344 64.000001,67.039063 L64.000001,71.0390631 L41.0000006,71.0390631 C41.0000006,70.4882821 40.5507816,70.039063 40.0000006,70.039063 C39.4492196,70.039063 39.0000006,70.4882821 39.0000006,71.0390631 L16.0000002,71.0390631 L16.0000002,67.039063 C16.0000002,66.277344 16.4531252,65.355469 17.3671883,64.371094 C18.2812503,63.3867189 19.6093753,62.3750009 21.0937503,61.4375009 C23.8007814,59.7304689 26.9648444,58.2773439 29.2148444,57.2890629 Z M40.0000006,62.0390629 C39.4492196,62.0390629 39.0000006,62.4882819 39.0000006,63.0390629 C39.0000006,63.5898439 39.4492196,64.039063 40.0000006,64.039063 C40.5507816,64.039063 41.0000006,63.5898439 41.0000006,63.0390629 C41.0000006,62.4882819 40.5507816,62.0390629 40.0000006,62.0390629 Z M40.0000006,66.039063 C39.4492196,66.039063 39.0000006,66.488282 39.0000006,67.039063 C39.0000006,67.589844 39.4492196,68.039063 40.0000006,68.039063 C40.5507816,68.039063 41.0000006,67.589844 41.0000006,67.039063 C41.0000006,66.488282 40.5507816,66.039063 40.0000006,66.039063 Z M20.0000003,67.039063 C19.4492193,67.039063 19.0000003,67.488282 19.0000003,68.039063 C19.0000003,68.589844 19.4492193,69.039063 20.0000003,69.039063 C20.5507813,69.039063 21.0000003,68.589844 21.0000003,68.039063 C21.0000003,67.488282 20.5507813,67.039063 20.0000003,67.039063 Z M24.0000004,67.039063 C23.4492193,67.039063 23.0000003,67.488282 23.0000003,68.039063 C23.0000003,68.589844 23.4492193,69.039063 24.0000004,69.039063 C24.5507814,69.039063 25.0000004,68.589844 25.0000004,68.039063 C25.0000004,67.488282 24.5507814,67.039063 24.0000004,67.039063 Z M28.0000004,67.039063 C27.4492194,67.039063 27.0000004,67.488282 27.0000004,68.039063 C27.0000004,68.589844 27.4492194,69.039063 28.0000004,69.039063 C28.5507814,69.039063 29.0000004,68.589844 29.0000004,68.039063 C29.0000004,67.488282 28.5507814,67.039063 28.0000004,67.039063 Z M52.0000008,67.039063 C51.4492198,67.039063 51.0000008,67.488282 51.0000008,68.039063 C51.0000008,68.589844 51.4492198,69.039063 52.0000008,69.039063 C52.5507818,69.039063 53.0000008,68.589844 53.0000008,68.039063 C53.0000008,67.488282 52.5507818,67.039063 52.0000008,67.039063 Z M56.0000008,67.039063 C55.4492198,67.039063 55.0000008,67.488282 55.0000008,68.039063 C55.0000008,68.589844 55.4492198,69.039063 56.0000008,69.039063 C56.5507818,69.039063 57.0000008,68.589844 57.0000008,68.039063 C57.0000008,67.488282 56.5507818,67.039063 56.0000008,67.039063 Z M60.0000009,67.039063 C59.4492199,67.039063 59.0000009,67.488282 59.0000009,68.039063 C59.0000009,68.589844 59.4492199,69.039063 60.0000009,69.039063 C60.5507819,69.039063 61.0000009,68.589844 61.0000009,68.039063 C61.0000009,67.488282 60.5507819,67.039063 60.0000009,67.039063 Z" id="Shape"></path>
            </g>
        </g>
    </g>
</svg>