<svg data-name="Layer 1" xmlns="http://www.w3.org/2000/svg" xmlns:xlink="http://www.w3.org/1999/xlink" viewBox="0 0 72 72"><defs><symbol id="a" data-name="tablet" viewBox="0 0 56.393 70.931"><path d="M2.564 69.991A1.645 1.645 0 0 1 .94 68.328V6.363a1.645 1.645 0 0 1 1.624-1.664h19.128a5.897 5.897 0 0 0-.075.94 6.58 6.58 0 0 0 13.159 0 5.909 5.909 0 0 0-.076-.94H53.83a1.645 1.645 0 0 1 1.624 1.664v61.965a1.647 1.647 0 0 1-1.624 1.663z" fill="#b6dcfe"/><path d="M53.829 5.64a.706.706 0 0 1 .684.723V68.33a.705.705 0 0 1-.684.722H2.564a.706.706 0 0 1-.684-.724V6.363a.706.706 0 0 1 .684-.724h18.113a7.52 7.52 0 0 0 15.039 0h18.113m0-1.88H33.49a5.568 5.568 0 0 1 .346 1.88 5.64 5.64 0 0 1-11.279 0 5.566 5.566 0 0 1 .346-1.88H2.564A2.584 2.584 0 0 0 0 6.363V68.33a2.584 2.584 0 0 0 2.564 2.602h51.267a2.584 2.584 0 0 0 2.562-2.604V6.363a2.584 2.584 0 0 0-2.564-2.603z" fill="#4788c7"/><path fill="#fff" d="M7.519 11.279h41.355v52.133H7.519z"/><path d="M17.998 14.098a2.823 2.823 0 0 1-2.82-2.82V4.7h7.586l.074-.2a4.645 4.645 0 0 0-.141 1.14 4.7 4.7 0 0 0 9.399 0 4.65 4.65 0 0 0-.141-1.14l.073.2h7.587v6.58a2.823 2.823 0 0 1-2.82 2.82zM27.39.94z" fill="#98ccfd"/><path d="M38.675 5.64v5.639a1.883 1.883 0 0 1-1.88 1.88H17.998a1.883 1.883 0 0 1-1.88-1.88v-5.64h5.639a5.64 5.64 0 0 0 11.279 0h5.639M27.397 0a5.621 5.621 0 0 0-5.294 3.76h-7.865v7.52a3.759 3.759 0 0 0 3.76 3.759h18.797a3.759 3.759 0 0 0 3.76-3.76V3.76H32.69A5.621 5.621 0 0 0 27.397 0zm0 9.399a3.76 3.76 0 1 1 3.759-3.76 3.763 3.763 0 0 1-3.76 3.76z" fill="#4788c7"/></symbol></defs><use width="56.393" height="70.931" transform="translate(10.17 .367)" xlink:href="#a"/><path data-name="&lt;Контур&gt;" d="M55.784 56.507c-1.125-.4-1.928.904-2.617.66s-.127-2.428-1.013-2.743c0 0-1.222 3.538-3.368 2.777-1.029-.365-1.533-2.397-.614-4.984.451-1.272 1.162-1.97 1.81-1.741s.73 1.298.294 2.527c-.686 1.934-4.034 5.678-5.768 5.062-2.293-.814-2.13-5.19-1.274-7.601.897-2.528 2.024-3.254 2.663-3.027s1.066 1.47.159 4.028c-1.11 3.128-5.827 7.464-5.827 7.464" fill="none" stroke="#4788c7" stroke-linecap="round" stroke-miterlimit="10" stroke-width=".75"/><path d="M23.115 53.882a.619.619 0 0 1-.618-.617V35.037a3.111 3.111 0 0 1 .904-2.184l2.802-2.8v-7.049h3.705v7.05l2.801 2.8a3.11 3.11 0 0 1 .904 2.184v18.227a.619.619 0 0 1-.617.617z" fill="#b6dcfe"/><path d="M29.29 23.622v6.687l.362.362 2.62 2.62a2.454 2.454 0 0 1 .724 1.748v18.226h-9.881V35.038a2.453 2.453 0 0 1 .724-1.746l2.62-2.62.362-.363v-6.687h2.47m1.235-1.235h-4.94v7.41l-2.62 2.62a3.706 3.706 0 0 0-1.086 2.621v18.227a1.236 1.236 0 0 0 1.235 1.235h9.88a1.236 1.236 0 0 0 1.236-1.235V35.038a3.7 3.7 0 0 0-1.086-2.62l-2.62-2.62v-7.411z" fill="#4788c7"/><path d="M26.203 27.945v-6.793a.619.619 0 0 1 .617-.618h2.47a.619.619 0 0 1 .618.618v6.793z" fill="#98ccfd"/><path d="M29.29 21.152v6.175h-2.47v-6.175h2.47m0-1.235h-2.47a1.236 1.236 0 0 0-1.235 1.235v7.41h4.94v-7.41a1.236 1.236 0 0 0-1.235-1.235z" fill="#4788c7"/><path fill="#fff" d="M24.35 37.208h7.411v2.47H24.35zM24.35 42.149h7.411v7.411H24.35z"/><path fill="#fff" stroke="#4788c7" stroke-linecap="round" stroke-linejoin="round" stroke-width="1.27" d="M39.833 23.775H54.45M39.833 27.3H54.45M39.833 30.825H54.45M39.833 34.35H54.45M39.833 37.875H54.45M39.833 41.4H54.45"/></svg>