<?xml version="1.0" encoding="UTF-8"?>
<svg width="26px" height="26px" viewBox="0 0 26 26" version="1.1" xmlns="http://www.w3.org/2000/svg" xmlns:xlink="http://www.w3.org/1999/xlink">
    <!-- Generator: Sketch 53 (72520) - https://sketchapp.com -->
    <title>penalty decision 2</title>
    <desc>Created with Sketch.</desc>
    <defs>
        <polygon id="path-1" points="0.0004 0.495 25.5044 0.495 25.5044 25.9997 0.0004 25.9997"></polygon>
    </defs>
    <g id="Page-1" stroke="none" stroke-width="1" fill="none" fill-rule="evenodd">
        <g id="penalty-decision-2" transform="translate(0.000000, -1.000000)">
            <g id="Group-3" transform="translate(0.000000, 0.505400)">
                <mask id="mask-2" fill="white">
                    <use xlink:href="#path-1"></use>
                </mask>
                <g id="Clip-2"></g>
                <path d="M12.7524,1.5737 C6.3154,1.5737 1.0794,6.8107 1.0794,13.2467 C1.0794,19.6837 6.3154,24.9197 12.7524,24.9197 C19.1884,24.9197 24.4244,19.6837 24.4244,13.2467 C24.4244,6.8107 19.1884,1.5737 12.7524,1.5737 M12.7524,25.9997 C5.7204,25.9997 0.0004,20.2797 0.0004,13.2467 C0.0004,6.2157 5.7204,0.4947 12.7524,0.4947 C19.7844,0.4947 25.5044,6.2157 25.5044,13.2467 C25.5044,20.2797 19.7844,25.9997 12.7524,25.9997" id="Fill-1" fill="#53A4D6" mask="url(#mask-2)"></path>
            </g>
            <path d="M10.6006,13.6949 L15.2966,13.6949 C16.7826,13.6949 17.9906,12.4869 17.9906,11.0019 L17.9906,10.7239 C17.9906,9.2389 16.7826,8.0299 15.2966,8.0299 L10.6006,8.0299 L10.6006,13.6949 Z M9.2276,21.8239 L9.2276,18.0909 L8.1316,18.0909 L8.1316,16.7179 L9.2276,16.7179 L9.2276,15.0679 L8.1316,15.0679 L8.1316,13.6949 L9.2276,13.6949 L9.2276,6.6579 L15.2966,6.6579 C17.5386,6.6579 19.3636,8.4819 19.3636,10.7239 L19.3636,11.0019 C19.3636,13.2439 17.5386,15.0679 15.2966,15.0679 L10.6006,15.0679 L10.6006,16.7179 L16.5406,16.7179 L16.5406,18.0909 L10.6006,18.0909 L10.6006,21.8239 L9.2276,21.8239 Z" id="Fill-4" fill="#53A4D6"></path>
        </g>
    </g>
</svg>