<svg width="26" height="26" 
    xmlns="http://www.w3.org/2000/svg" 
    xmlns:xlink="http://www.w3.org/1999/xlink">
    <defs>
        <path id="a" d="M0 .495h25.504V26H0z"/>
    </defs>
    <g fill="none" fill-rule="evenodd">
        <g transform="translate(0 -.495)">
            <mask id="b" fill="#fff">
                <use xlink:href="#a"/>
            </mask>
            <path d="M12.752 1.574C6.315 1.574 1.08 6.81 1.08 13.247c0 6.437 5.236 11.673 11.673 11.673 6.436 0 11.672-5.236 11.672-11.673 0-6.436-5.236-11.673-11.672-11.673m0 24.426C5.72 26 0 20.28 0 13.247 0 6.216 5.72.495 12.752.495c7.032 0 12.752 5.72 12.752 12.752C25.504 20.28 19.784 26 12.752 26" fill="#53A4D6" mask="url(#b)"/>
        </g>
        <path d="M10.6 12.695h4.697a2.696 2.696 0 0 0 2.694-2.693v-.278a2.697 2.697 0 0 0-2.694-2.694H10.6v5.665zm-1.372 8.129V17.09H8.132v-1.373h1.096v-1.65H8.132v-1.373h1.096V5.658h6.069a4.071 4.071 0 0 1 4.067 4.066v.278a4.071 4.071 0 0 1-4.067 4.066H10.6v1.65h5.94v1.373H10.6v3.733H9.228z" fill="#53A4D6"/>
    </g>
</svg>
