<?xml version="1.0" encoding="UTF-8"?>
<svg width="33px" height="34px" viewBox="0 0 33 34" version="1.1" xmlns="http://www.w3.org/2000/svg" xmlns:xlink="http://www.w3.org/1999/xlink">
    <!-- Generator: sketchtool 53 (72520) - https://sketchapp.com -->
    <title>29D050EC-2DF6-4C4E-AC26-C92D4FF0E7FC</title>
    <desc>Created with sketchtool.</desc>
    <g id="Page-1" stroke="none" stroke-width="1" fill="none" fill-rule="evenodd">
        <g id="заведение-нового-дела---выбор-способа" transform="translate(-466.000000, -691.000000)" fill="#CCCCCC">
            <g id="Group-4" transform="translate(355.000000, 665.000000)">
                <g id="icon-/-40*40-/-car2-copy-2" transform="translate(108.000000, 20.000000)">
                    <path d="M13.0000002,6.5000001 C10.5234377,6.5000001 8.50000013,8.52343763 8.50000013,11.0000002 C8.50000013,13.4765627 10.5234377,15.5000002 13.0000002,15.5000002 C13.2460942,15.5000002 13.4765627,15.4550782 13.7109377,15.4160157 L15.7929692,17.5000003 L13.2929692,20.0000003 L3.50000005,20.0000003 L3.50000005,38.0000006 L35.5000005,38.0000006 L35.5000005,20.0000003 L25.7070319,20.0000003 L23.2070318,17.5000003 L25.2890629,15.4160157 C25.5234379,15.4550782 25.7539069,15.5000002 26.0000004,15.5000002 C28.4765629,15.5000002 30.5000005,13.4765627 30.5000005,11.0000002 C30.5000005,8.52343763 28.4765629,6.5000001 26.0000004,6.5000001 C23.5234379,6.5000001 21.5000003,8.52343763 21.5000003,11.0000002 C21.5000003,11.2460942 21.5449223,11.4765627 21.5839848,11.7109377 L19.5000003,13.7929692 L17.4160158,11.7109377 C17.4550783,11.4765627 17.5000003,11.2460942 17.5000003,11.0000002 C17.5000003,8.52343763 15.4765627,6.5000001 13.0000002,6.5000001 Z M13.0000002,7.50000011 C14.9335942,7.50000011 16.5000002,9.06640664 16.5000002,11.0000002 C16.5000002,11.2656252 16.4667972,11.5273442 16.4082032,11.7832032 L16.3457032,12.0546877 L27.6816409,23.3886723 C28.5253909,24.2324224 29.0000004,25.3769534 29.0000004,26.5703129 L29.0000004,29.2929694 L14.0546877,14.3457032 L13.7832032,14.4082032 C13.5273442,14.4667972 13.2656252,14.5000002 13.0000002,14.5000002 C11.0664067,14.5000002 9.50000014,12.9335942 9.50000014,11.0000002 C9.50000014,9.06640664 11.0664067,7.50000011 13.0000002,7.50000011 Z M26.0000004,7.50000011 C27.9335944,7.50000011 29.5000004,9.06640664 29.5000004,11.0000002 C29.5000004,12.9335942 27.9335944,14.5000002 26.0000004,14.5000002 C25.7343754,14.5000002 25.4726569,14.4667972 25.2167974,14.4082032 L24.9453129,14.3457032 L22.5000003,16.7929693 L20.2070318,14.5000002 L22.6542973,12.0546877 L22.5917973,11.7832032 C22.5332033,11.5273442 22.5000003,11.2656252 22.5000003,11.0000002 C22.5000003,9.06640664 24.0664069,7.50000011 26.0000004,7.50000011 Z M13.0000002,8.50000013 C11.6250002,8.50000013 10.5000002,9.62500014 10.5000002,11.0000002 C10.5000002,12.3750002 11.6250002,13.5000002 13.0000002,13.5000002 C14.3750002,13.5000002 15.5000002,12.3750002 15.5000002,11.0000002 C15.5000002,9.62500014 14.3750002,8.50000013 13.0000002,8.50000013 Z M26.0000004,8.50000013 C24.6250004,8.50000013 23.5000004,9.62500014 23.5000004,11.0000002 C23.5000004,12.3750002 24.6250004,13.5000002 26.0000004,13.5000002 C27.3750004,13.5000002 28.5000004,12.3750002 28.5000004,11.0000002 C28.5000004,9.62500014 27.3750004,8.50000013 26.0000004,8.50000013 Z M13.0000002,9.50000014 C13.8339847,9.50000014 14.5000002,10.1660157 14.5000002,11.0000002 C14.5000002,11.8339847 13.8339847,12.5000002 13.0000002,12.5000002 C12.1660157,12.5000002 11.5000002,11.8339847 11.5000002,11.0000002 C11.5000002,10.1660157 12.1660157,9.50000014 13.0000002,9.50000014 Z M26.0000004,9.50000014 C26.8339849,9.50000014 27.5000004,10.1660157 27.5000004,11.0000002 C27.5000004,11.8339847 26.8339849,12.5000002 26.0000004,12.5000002 C25.1660159,12.5000002 24.5000004,11.8339847 24.5000004,11.0000002 C24.5000004,10.1660157 25.1660159,9.50000014 26.0000004,9.50000014 Z M19.5000003,16.5000002 C19.2246098,16.5000002 19.0000003,16.7246097 19.0000003,17.0000003 C19.0000003,17.2753908 19.2246098,17.5000003 19.5000003,17.5000003 C19.7753908,17.5000003 20.0000003,17.2753908 20.0000003,17.0000003 C20.0000003,16.7246097 19.7753908,16.5000002 19.5000003,16.5000002 Z M16.5000002,18.2070318 L18.2929693,20.0000003 L14.7070317,20.0000003 L16.5000002,18.2070318 Z M4.50000007,21.0000003 L19.161303,21.0000003 L30.0000004,31.707032 L30.0000004,26.5703129 C30.0000004,25.1132819 29.4199224,23.7128909 28.3886724,22.6816408 L26.7070319,21.0000003 L34.5000005,21.0000003 L34.5000005,37.0000006 L4.50000007,37.0000006 L4.50000007,21.0000003 Z M9.00000013,22.0000003 C8.72460963,22.0000003 8.50000013,22.2246098 8.50000013,22.5000003 C8.50000013,22.7753908 8.72460963,23.0000003 9.00000013,23.0000003 C9.27539064,23.0000003 9.50000014,22.7753908 9.50000014,22.5000003 C9.50000014,22.2246098 9.27539064,22.0000003 9.00000013,22.0000003 Z M30.0000004,22.0000003 C29.7246099,22.0000003 29.5000004,22.2246098 29.5000004,22.5000003 C29.5000004,22.7753908 29.7246099,23.0000003 30.0000004,23.0000003 C30.275391,23.0000003 30.5000005,22.7753908 30.5000005,22.5000003 C30.5000005,22.2246098 30.275391,22.0000003 30.0000004,22.0000003 Z M19.5000003,22.5000003 C19.2246098,22.5000003 19.0000003,22.7246098 19.0000003,23.0000003 C19.0000003,23.2753908 19.2246098,23.5000004 19.5000003,23.5000004 C19.7753908,23.5000004 20.0000003,23.2753908 20.0000003,23.0000003 C20.0000003,22.7246098 19.7753908,22.5000003 19.5000003,22.5000003 Z M19.5000003,20.5000003 C19.2246098,20.5000003 19.0000003,20.7246098 19.0000003,21.0000003 C19.0000003,21.2753908 19.2246098,21.5000003 19.5000003,21.5000003 C19.7753908,21.5000003 20.0000003,21.2753908 20.0000003,21.0000003 C20.0000003,20.7246098 19.7753908,20.5000003 19.5000003,20.5000003 Z M8.50000013,23.5000004 C8.22460962,23.5000004 8.00000012,23.7246099 8.00000012,24.0000004 C8.00000012,24.2753909 8.22460962,24.5000004 8.50000013,24.5000004 C8.77539063,24.5000004 9.00000013,24.2753909 9.00000013,24.0000004 C9.00000013,23.7246099 8.77539063,23.5000004 8.50000013,23.5000004 Z M30.5000005,23.5000004 C30.22461,23.5000004 30.0000004,23.7246099 30.0000004,24.0000004 C30.0000004,24.2753909 30.22461,24.5000004 30.5000005,24.5000004 C30.775391,24.5000004 31.0000005,24.2753909 31.0000005,24.0000004 C31.0000005,23.7246099 30.775391,23.5000004 30.5000005,23.5000004 Z M19.5000003,23.5000004 C16.7441407,23.5000004 14.5000002,25.9685549 14.5000002,29.0000004 C14.5000002,32.0314459 16.7441407,34.5000005 19.5000003,34.5000005 C19.5156253,34.5000005 19.5312503,34.4978522 19.5468753,34.4978522 C22.2812503,34.4677738 24.5000004,32.0142584 24.5000004,29.0000004 C24.5000004,25.9685549 22.2558598,23.5000004 19.5000003,23.5000004 Z M7.50000011,24.5000004 C7.22460961,24.5000004 7.0000001,24.7246099 7.0000001,25.0000004 C7.0000001,25.2753909 7.22460961,25.5000004 7.50000011,25.5000004 C7.77539062,25.5000004 8.00000012,25.2753909 8.00000012,25.0000004 C8.00000012,24.7246099 7.77539062,24.5000004 7.50000011,24.5000004 Z M31.5000005,24.5000004 C31.22461,24.5000004 31.0000005,24.7246099 31.0000005,25.0000004 C31.0000005,25.2753909 31.22461,25.5000004 31.5000005,25.5000004 C31.775391,25.5000004 32.0000005,25.2753909 32.0000005,25.0000004 C32.0000005,24.7246099 31.775391,24.5000004 31.5000005,24.5000004 Z M6.00000009,25.0000004 C5.72460959,25.0000004 5.50000008,25.2246099 5.50000008,25.5000004 C5.50000008,25.7753909 5.72460959,26.0000004 6.00000009,26.0000004 C6.27539059,26.0000004 6.5000001,25.7753909 6.5000001,25.5000004 C6.5000001,25.2246099 6.27539059,25.0000004 6.00000009,25.0000004 Z M19.5000003,24.5000004 C21.7148443,24.5000004 23.5000004,26.5083015 23.5000004,29.0000004 C23.5000004,31.4917 21.7148443,33.5000005 19.5000003,33.5000005 C17.2851568,33.5000005 15.5000002,31.4917 15.5000002,29.0000004 C15.5000002,26.5083015 17.2851568,24.5000004 19.5000003,24.5000004 Z M33.0000005,25.0000004 C32.72461,25.0000004 32.5000005,25.2246099 32.5000005,25.5000004 C32.5000005,25.7753909 32.72461,26.0000004 33.0000005,26.0000004 C33.275391,26.0000004 33.5000005,25.7753909 33.5000005,25.5000004 C33.5000005,25.2246099 33.275391,25.0000004 33.0000005,25.0000004 Z M19.5000003,24.5000004 C19.2246098,24.5000004 19.0000003,24.7246099 19.0000003,25.0000004 C19.0000003,25.2753909 19.2246098,25.5000004 19.5000003,25.5000004 C19.7753908,25.5000004 20.0000003,25.2753909 20.0000003,25.0000004 C20.0000003,24.7246099 19.7753908,24.5000004 19.5000003,24.5000004 Z M11.5000002,27.0000004 C10.4003907,27.0000004 9.50000014,27.9003909 9.50000014,29.0000004 C9.50000014,30.0996099 10.4003907,31.0000005 11.5000002,31.0000005 C12.5996097,31.0000005 13.5000002,30.0996099 13.5000002,29.0000004 C13.5000002,27.9003909 12.5996097,27.0000004 11.5000002,27.0000004 Z M19.5000003,26.5000004 C19.2246098,26.5000004 19.0000003,26.7246099 19.0000003,27.0000004 C19.0000003,27.2753909 19.2246098,27.5000004 19.5000003,27.5000004 C19.7753908,27.5000004 20.0000003,27.2753909 20.0000003,27.0000004 C20.0000003,26.7246099 19.7753908,26.5000004 19.5000003,26.5000004 Z M11.5000002,28.0000004 C12.0585942,28.0000004 12.5000002,28.4414069 12.5000002,29.0000004 C12.5000002,29.5585944 12.0585942,30.0000004 11.5000002,30.0000004 C10.9414067,30.0000004 10.5000002,29.5585944 10.5000002,29.0000004 C10.5000002,28.4414069 10.9414067,28.0000004 11.5000002,28.0000004 Z M8.50000013,27.0000004 C7.40039061,27.0000004 6.5000001,27.9003909 6.5000001,29.0000004 C6.5000001,30.0996099 7.40039061,31.0000005 8.50000013,31.0000005 C9.59960964,31.0000005 10.5000002,30.0996099 10.5000002,29.0000004 C10.5000002,27.9003909 9.59960964,27.0000004 8.50000013,27.0000004 Z M8.50000013,28.0000004 C9.05859413,28.0000004 9.50000014,28.4414069 9.50000014,29.0000004 C9.50000014,29.5585944 9.05859413,30.0000004 8.50000013,30.0000004 C7.94140662,30.0000004 7.50000011,29.5585944 7.50000011,29.0000004 C7.50000011,28.4414069 7.94140662,28.0000004 8.50000013,28.0000004 Z M19.5000003,28.5000004 C19.2246098,28.5000004 19.0000003,28.7246099 19.0000003,29.0000004 C19.0000003,29.2753909 19.2246098,29.5000004 19.5000003,29.5000004 C19.7753908,29.5000004 20.0000003,29.2753909 20.0000003,29.0000004 C20.0000003,28.7246099 19.7753908,28.5000004 19.5000003,28.5000004 Z M19.5000003,30.5000005 C19.2246098,30.5000005 19.0000003,30.72461 19.0000003,31.0000005 C19.0000003,31.275391 19.2246098,31.5000005 19.5000003,31.5000005 C19.7753908,31.5000005 20.0000003,31.275391 20.0000003,31.0000005 C20.0000003,30.72461 19.7753908,30.5000005 19.5000003,30.5000005 Z M19.5000003,32.5000005 C19.2246098,32.5000005 19.0000003,32.72461 19.0000003,33.0000005 C19.0000003,33.275391 19.2246098,33.5000005 19.5000003,33.5000005 C19.7753908,33.5000005 20.0000003,33.275391 20.0000003,33.0000005 C20.0000003,32.72461 19.7753908,32.5000005 19.5000003,32.5000005 Z M19.5000003,34.5000005 C19.2246098,34.5000005 19.0000003,34.72461 19.0000003,35.0000005 C19.0000003,35.275391 19.2246098,35.5000005 19.5000003,35.5000005 C19.7753908,35.5000005 20.0000003,35.275391 20.0000003,35.0000005 C20.0000003,34.72461 19.7753908,34.5000005 19.5000003,34.5000005 Z M19.5000003,36.5000005 C19.2246098,36.5000005 19.0000003,36.72461 19.0000003,37.0000006 C19.0000003,37.2753911 19.2246098,37.5000006 19.5000003,37.5000006 C19.7753908,37.5000006 20.0000003,37.2753911 20.0000003,37.0000006 C20.0000003,36.72461 19.7753908,36.5000005 19.5000003,36.5000005 Z M19.5000003,38.5000006 C19.2246098,38.5000006 19.0000003,38.7246101 19.0000003,39.0000006 C19.0000003,39.2753911 19.2246098,39.5000006 19.5000003,39.5000006 C19.7753908,39.5000006 20.0000003,39.2753911 20.0000003,39.0000006 C20.0000003,38.7246101 19.7753908,38.5000006 19.5000003,38.5000006 Z" id="Shape"></path>
                </g>
            </g>
        </g>
    </g>
</svg>