<?xml version="1.0" encoding="UTF-8"?>
<svg width="30px" height="21px" viewBox="0 0 30 21" version="1.1" xmlns="http://www.w3.org/2000/svg" xmlns:xlink="http://www.w3.org/1999/xlink">
    <!-- Generator: Sketch 53 (72520) - https://sketchapp.com -->
    <title>vehicle passport</title>
    <desc>Created with Sketch.</desc>
    <g id="Page-1" stroke="none" stroke-width="1" fill="#cccccc" fill-rule="evenodd">
        <g id="vehicle-passport" fill="#cccccc" fill-rule="nonzero">
            <path d="M15,8 L22,8 C22.3,8 22.5,8.2 22.5,8.5 C22.5,8.8 22.3,9 22,9 L15,9 C14.7,9 14.5,8.8 14.5,8.5 C14.5,8.2 14.7,8 15,8 L15,8 Z M22,13 L27,13 C27.3,13 27.5,13.2 27.5,13.5 C27.5,13.8 27.3,14 27,14 L22,14 C21.7,14 21.5,13.8 21.5,13.5 C21.5,13.2 21.7,13 22,13 L22,13 Z M15,13 L20,13 C20.3,13 20.5,13.2 20.5,13.5 C20.5,13.8 20.3,14 20,14 L15,14 C14.7,14 14.5,13.8 14.5,13.5 C14.5,13.2 14.7,13 15,13 L15,13 Z M15,10.5 L22,10.5 C22.3,10.5 22.5,10.7 22.5,11 C22.5,11.3 22.3,11.5 22,11.5 L15,11.5 C14.7,11.5 14.5,11.3 14.5,11 C14.5,10.7 14.7,10.5 15,10.5 L15,10.5 Z M15,4 L25.5,4 C25.8,4 26,4.2 26,4.5 C26,4.8 25.8,5 25.5,5 L15,5 C14.7,5 14.5,4.8 14.5,4.5 C14.5,4.2 14.7,4 15,4 L15,4 Z M27,19 C26.4,19 26,18.6 26,18 C26,17.4 26.4,17 27,17 C27.6,17 28,17.4 28,18 C28,18.6 27.6,19 27,19 L27,19 Z M24.5,19 C23.9,19 23.5,18.6 23.5,18 C23.5,17.4 23.9,17 24.5,17 C25.1,17 25.5,17.4 25.5,18 C25.5,18.6 25.1,19 24.5,19 L24.5,19 Z M22,19 C21.4,19 21,18.6 21,18 C21,17.4 21.4,17 22,17 C22.6,17 23,17.4 23,18 C23,18.6 22.6,19 22,19 L22,19 Z M19.5,19 C18.9,19 18.5,18.6 18.5,18 C18.5,17.4 18.9,17 19.5,17 C20.1,17 20.5,17.4 20.5,18 C20.5,18.6 20.1,19 19.5,19 L19.5,19 Z M17,19 C16.4,19 16,18.6 16,18 C16,17.4 16.4,17 17,17 C17.6,17 18,17.4 18,18 C18,18.6 17.6,19 17,19 L17,19 Z M10.5,19 C9.9,19 9.5,18.6 9.5,18 C9.5,17.4 9.9,17 10.5,17 C11.1,17 11.5,17.4 11.5,18 C11.5,18.6 11.1,19 10.5,19 L10.5,19 Z M8,19 C7.4,19 7,18.6 7,18 C7,17.4 7.4,17 8,17 C8.6,17 9,17.4 9,18 C9,18.6 8.6,19 8,19 L8,19 Z M5.5,19 C4.9,19 4.5,18.6 4.5,18 C4.5,17.4 4.9,17 5.5,17 C6.1,17 6.5,17.4 6.5,18 C6.5,18.6 6.1,19 5.5,19 L5.5,19 Z M3,19 C2.4,19 2,18.6 2,18 C2,17.4 2.4,17 3,17 C3.6,17 4,17.4 4,18 C4,18.6 3.6,19 3,19 L3,19 Z M2.5,0 L27.5,0 C28.9,0 30,1.1 30,2.5 L30,18.5 C30,19.9 28.9,21 27.5,21 L2.5,21 C1.1,21 0,19.9 0,18.5 L0,2.5 C0,1.1 1.1,0 2.5,0 L2.5,0 Z M1,16 L1,18.5 C1,19.3 1.7,20 2.5,20 L27.5,20 C28.3,20 29,19.3 29,18.5 L29,16 L1,16 Z M1,15.5 L29,15.5 L29,2.5 C29,1.7 28.3,1 27.5,1 L2.5,1 C1.7,1 1,1.7 1,2.5 L1,15.5 Z" id="Fill-1"></path>
            <path d="M2.88999877,7.15610562 C2.61610728,7.15610562 2.39488723,6.93488557 2.39488723,6.66099408 C2.39488723,6.38710259 2.61610728,6.16588255 2.88999877,6.16588255 C3.16389025,6.16588255 3.3851103,6.38710259 3.3851103,6.66099408 C3.3851103,6.93488557 3.16389025,7.15610562 2.88999877,7.15610562 L2.88999877,7.15610562 Z M12.5962917,7.15610562 C12.3234536,7.15610562 12.1011802,6.93488557 12.1011802,6.66099408 C12.1011802,6.38710259 12.3234536,6.16588255 12.5962917,6.16588255 C12.8701832,6.16588255 13.0924567,6.38710259 13.0924567,6.66099408 C13.0924567,6.93488557 12.8701832,7.15610562 12.5962917,7.15610562 L12.5962917,7.15610562 Z M5.97338486,8.34542673 L9.55714963,8.34542673 C9.66670622,8.34542673 9.75519424,8.43391475 9.75519424,8.54347134 C9.75519424,8.55927277 9.75414081,8.57402078 9.7499271,8.58876878 L9.54345505,9.47154211 C9.48024932,9.74016646 9.24006756,9.93083707 8.96512264,9.93083707 L6.56541184,9.93083707 C6.2894135,9.93083707 6.05028516,9.74016646 5.98707943,9.47154211 L5.78060739,8.58876878 C5.7553251,8.48237247 5.82169111,8.37492273 5.92808742,8.35069387 C5.94283542,8.34648016 5.95758342,8.34542673 5.97338486,8.34542673 L5.97338486,8.34542673 Z M11.2321014,9.3356498 C10.8497068,9.3356498 10.5389453,9.0248883 10.5389453,8.64249365 C10.5389453,8.25904557 10.8497068,7.94828407 11.2321014,7.94828407 C11.6155495,7.94828407 11.926311,8.25904557 11.926311,8.64249365 C11.926311,9.0248883 11.6155495,9.3356498 11.2321014,9.3356498 L11.2321014,9.3356498 Z M4.29737964,9.3356498 C3.91498499,9.3356498 3.60422349,9.0248883 3.60422349,8.64249365 C3.60422349,8.25904557 3.91498499,7.94828407 4.29737964,7.94828407 C4.68082772,7.94828407 4.99158922,8.25904557 4.99158922,8.64249365 C4.99158922,9.0248883 4.68082772,9.3356498 4.29737964,9.3356498 L4.29737964,9.3356498 Z M8.73231488,10.7788473 L10.9297673,10.7788473 L11.0319499,11.4224922 C11.0509117,11.5436366 11.1562545,11.633178 11.2805591,11.633178 L12.1780805,11.633178 C12.3087056,11.633178 12.4182622,11.5331023 12.4287965,11.4035305 L12.5467806,9.91187535 L12.5541546,9.8697382 C12.6120931,9.68854844 12.628948,9.49261069 12.6036657,9.28613864 L12.5004297,8.34858701 C12.4540788,7.9019332 12.2296985,7.4847754 11.8904944,7.19508248 L11.8557313,7.16453305 L11.837823,7.12239589 C11.7598692,6.93699243 11.6808621,6.73684095 11.5934275,6.50614005 C11.5470766,6.38604916 11.4996723,6.26174457 11.4406803,6.10267682 C11.4322529,6.08055481 11.3258566,5.79402218 11.2953071,5.71185473 C11.1804834,5.40530695 11.0993694,5.19883491 11.0235225,5.0155383 C10.8623479,4.62892993 10.5547467,4.41613731 10.0090706,4.3718933 C9.12524382,4.30131357 8.4257671,4.26444357 7.75683981,4.26444357 C7.07948509,4.26444357 6.40423723,4.29920672 5.43086903,4.3718933 C4.94418492,4.40981674 4.64185086,4.62892993 4.48067625,5.0155383 C4.40166909,5.20515548 4.31634136,5.42848239 4.20151762,5.74451103 C4.18571619,5.78664818 3.96449614,6.4018506 3.89602327,6.58725406 C3.82333668,6.78635211 3.75697067,6.96016786 3.69271151,7.12344932 L3.67585665,7.16769333 L3.63898664,7.1992962 C3.30294285,7.48898912 3.08172281,7.90404006 3.03537194,8.34964044 L2.93213592,9.28929893 C2.91106734,9.45784754 2.91949477,9.62218243 2.95531135,9.77703646 L2.95952507,9.8075859 L2.95952507,9.81179961 L3.08593652,11.4035305 C3.09647081,11.5331023 3.20497398,11.633178 3.33665258,11.633178 L4.23417391,11.633178 C4.35847851,11.633178 4.46382139,11.5436366 4.48278311,11.4224922 L4.58391227,10.7788473 L6.7982196,10.7788473 C6.80770046,10.6018712 6.85089104,10.4701926 6.90356248,10.4701926 L8.626972,10.4701926 C8.67964344,10.4701926 8.72283402,10.6018712 8.73231488,10.7788473 L8.73231488,10.7788473 Z M8.71229973,11.2381422 C8.69333801,11.2876534 8.67016258,11.3171494 8.64593372,11.3171494 L6.88460077,11.3171494 C6.85931847,11.3171494 6.83719647,11.2876534 6.81823475,11.2381422 L4.85675033,11.2381422 L4.80618575,11.5604914 C4.75562117,11.8765201 4.48067625,12.1103813 4.15727361,12.1103813 L3.24079056,12.1103813 C2.89737277,12.1103813 2.61189356,11.8491309 2.58555784,11.5099268 L2.45703953,9.89080677 C2.41279552,9.69170873 2.40331466,9.48312983 2.42965038,9.2734975 L2.53499326,8.31698415 C2.58977156,7.77868203 2.8510219,7.27724993 3.24816456,6.91697728 C3.30715657,6.76633696 3.36825544,6.60516235 3.43567488,6.42186574 C3.50414775,6.23435542 3.73063495,5.60651185 3.74643638,5.56121442 C3.86652726,5.23359806 3.95501528,5.0007903 4.03823616,4.7995854 C4.26050963,4.26760385 4.69978944,3.9473615 5.34764815,3.89890377 C6.35156579,3.8230569 7.04998909,3.78829375 7.75367952,3.78829375 C8.44999596,3.78829375 9.17370154,3.82516376 10.0870243,3.89890377 C10.7907147,3.95578893 11.2363151,4.26339014 11.459642,4.7995854 C11.5397026,4.99236287 11.6229235,5.20726234 11.741961,5.52539784 C11.7735638,5.60967214 11.8831204,5.90252535 11.8915478,5.92570078 C11.9515933,6.08687539 11.9989976,6.21223341 12.0453484,6.33443115 C12.1275159,6.5482772 12.2012559,6.73684095 12.2739425,6.91065671 C12.6763523,7.26987593 12.9397095,7.77446832 12.9955412,8.31593072 L13.1008841,9.27033721 C13.132487,9.52526698 13.1114184,9.77387618 13.0429455,10.0077374 L12.9239081,11.5099268 C12.8975723,11.8491309 12.6120931,12.1103813 12.2686753,12.1103813 L11.3521923,12.1103813 C11.0287897,12.1103813 10.7527913,11.8765201 10.7032802,11.5604914 L10.6527156,11.2381422 L8.71229973,11.2381422 Z" id="Fill-3"></path>
        </g>
    </g>
</svg>