<?xml version="1.0" encoding="UTF-8"?>
<svg width="30px" height="30px" viewBox="0 0 30 30" version="1.1" xmlns="http://www.w3.org/2000/svg" xmlns:xlink="http://www.w3.org/1999/xlink">
    <!-- Generator: sketchtool 53 (72520) - https://sketchapp.com -->
    <title>46C0B3AC-D2FB-4E58-82ED-D1E1C276A59E</title>
    <desc>Created with sketchtool.</desc>
    <g id="Page-1" stroke="none" stroke-width="1" fill="none" fill-rule="evenodd">
        <g id="администранивный-учет---Дело---список-документов-открытая-форма" transform="translate(-1205.000000, -305.000000)">
            <g id="menu" transform="translate(400.000000, 285.000000)">
                <g id="menu-/-icon-/-wiki" transform="translate(800.000000, 15.000000)">
                    <path d="M20,35 C11.7157288,35 5,28.2842712 5,20 C5,11.7157288 11.7157288,5 20,5 C28.2842712,5 35,11.7157288 35,20 C35,28.2842712 28.2842712,35 20,35 Z" id="Path" fill="#CCCCCC"></path>
                    <path d="M20,34 C27.7319865,34 34,27.7319865 34,20 C34,12.2680135 27.7319865,6 20,6 C12.2680135,6 6,12.2680135 6,20 C6,27.7319865 12.2680135,34 20,34 Z" id="Path" fill="#FFFFFF"></path>
                    <path d="M19.3867188,25.2773438 L19.3867188,24.6445312 C19.3867188,23.7304642 19.5273423,22.9785186 19.8085938,22.3886719 C20.0898452,21.7988252 20.6132774,21.1757845 21.3789062,20.5195312 C22.4414116,19.6210893 23.1113267,18.9453148 23.3886719,18.4921875 C23.666017,18.0390602 23.8046875,17.4921907 23.8046875,16.8515625 C23.8046875,16.0546835 23.5488307,15.4394553 23.0371094,15.0058594 C22.5253881,14.5722635 21.7890673,14.3554688 20.828125,14.3554688 C20.2109344,14.3554688 19.6093779,14.4277337 19.0234375,14.5722656 C18.4374971,14.7167976 17.7656288,14.9804668 17.0078125,15.3632812 L16.3164062,13.78125 C17.7929761,13.0078086 19.3359295,12.6210938 20.9453125,12.6210938 C22.4375075,12.6210938 23.5976521,12.9882776 24.4257812,13.7226562 C25.2539104,14.4570349 25.6679688,15.4921808 25.6679688,16.828125 C25.6679688,17.3984404 25.5917976,17.9003885 25.4394531,18.3339844 C25.2871086,18.7675803 25.0625015,19.1777324 24.765625,19.5644531 C24.4687485,19.9511738 23.8281299,20.5742145 22.84375,21.4335938 C22.0546836,22.1054721 21.5332044,22.6640603 21.2792969,23.109375 C21.0253894,23.5546897 20.8984375,24.1484338 20.8984375,24.890625 L20.8984375,25.2773438 L19.3867188,25.2773438 Z" id="?" fill="#CCCCCC"></path>
                    <circle id="Oval" fill="#CCCCCC" cx="20" cy="28" r="1"></circle>
                </g>
            </g>
        </g>
    </g>
</svg>