<?xml version="1.0" standalone="no"?>
<!DOCTYPE svg PUBLIC "-//W3C//DTD SVG 20010904//EN"
 "http://www.w3.org/TR/2001/REC-SVG-20010904/DTD/svg10.dtd">
<svg version="1.0" xmlns="http://www.w3.org/2000/svg"
 width="700.000000pt" height="700.000000pt" viewBox="0 0 700.000000 700.000000"
 preserveAspectRatio="xMidYMid meet">
<metadata>
Created by potrace 1.11, written by Peter Selinger 2001-2013
</metadata>
<g transform="translate(0.000000,700.000000) scale(0.100000,-0.100000)"
fill="#000000" stroke="none">
<path d="M3479 6046 c-2 -2 -34 -6 -71 -10 -37 -3 -89 -11 -115 -16 -54 -11
-94 -19 -138 -26 -16 -3 -88 -25 -160 -49 -561 -186 -1002 -579 -1249 -1115
-64 -140 -62 -134 -90 -225 -87 -278 -118 -558 -92 -828 8 -87 11 -106 32
-227 3 -14 17 -70 31 -125 83 -320 266 -647 500 -892 53 -56 78 -74 112 -83
113 -30 215 50 213 166 -2 57 -11 74 -92 164 -82 93 -161 194 -187 240 -11 19
-35 59 -52 89 -65 109 -136 285 -170 419 -21 81 -22 89 -42 217 -18 124 -15
366 6 476 3 13 7 41 11 64 3 22 14 72 24 110 114 441 390 813 780 1056 84 52
259 139 279 139 7 0 25 7 40 15 28 14 200 63 251 71 14 2 54 9 90 16 74 14
364 17 458 5 391 -48 747 -222 1022 -499 225 -225 374 -481 455 -782 23 -87
27 -105 40 -186 19 -123 24 -333 11 -445 -3 -22 -8 -62 -12 -90 -23 -187 -125
-466 -235 -641 -102 -163 -178 -244 -945 -1014 l-784 -785 120 -120 120 -120
793 795 c496 497 817 826 856 878 222 296 351 596 416 967 18 108 25 393 11
510 -22 192 -44 298 -95 452 -47 140 -121 301 -193 416 -26 43 -48 80 -48 82
0 2 -36 50 -79 107 -140 183 -308 342 -486 464 -259 175 -587 305 -860 339
-27 4 -61 9 -75 12 -28 5 -396 14 -401 9z"/>
<path d="M2350 4263 c0 -4 -9 -57 -20 -118 -12 -60 -23 -126 -26 -145 -3 -19
-7 -42 -9 -50 -2 -8 -7 -31 -10 -50 -3 -19 -17 -95 -30 -168 -14 -73 -25 -137
-25 -141 0 -4 28 -7 61 -6 52 0 63 3 69 20 7 19 63 347 63 373 1 24 13 -2 97
-200 58 -138 90 -202 102 -204 17 -2 16 -5 139 276 l63 145 7 -40 c4 -22 10
-62 13 -90 4 -27 11 -75 16 -105 5 -30 12 -80 15 -110 4 -30 8 -57 10 -60 6
-10 130 -5 129 5 -1 6 -5 33 -8 60 -3 28 -8 61 -11 75 -6 37 -63 378 -71 425
-17 112 -15 110 -67 113 -26 1 -47 -2 -47 -7 0 -5 -16 -45 -35 -88 -20 -43
-40 -87 -45 -98 -5 -11 -29 -66 -53 -123 -24 -57 -48 -103 -52 -103 -4 0 -47
93 -95 208 l-86 208 -47 3 c-26 2 -47 -1 -47 -5z"/>
<path d="M3225 3968 c-70 -167 -136 -321 -147 -342 -10 -22 -18 -40 -18 -41 0
-1 134 2 141 4 4 0 17 27 29 59 13 31 27 62 32 67 5 6 66 10 140 11 l130 0 24
-55 c37 -88 34 -85 107 -86 37 -1 67 2 67 6 0 5 -7 25 -16 46 -9 21 -21 47
-25 58 -59 136 -222 535 -226 553 -5 19 -12 22 -58 22 l-52 0 -128 -302z m223
-15 c23 -60 42 -111 42 -115 0 -9 -180 -10 -180 -1 0 14 85 223 91 223 3 0 24
-48 47 -107z"/>
<path d="M4965 4243 c-11 -15 -32 -41 -46 -58 -14 -16 -87 -108 -162 -203 -75
-95 -137 -172 -138 -170 0 2 -1 102 -2 223 l-2 220 -62 0 c-50 1 -63 -2 -64
-15 -1 -8 -2 -162 -3 -342 l-1 -328 45 0 45 0 180 226 c99 124 183 228 186
230 3 2 6 -88 7 -199 0 -111 1 -211 1 -222 1 -19 7 -21 64 -20 l62 0 1 343 1
342 -46 0 c-39 0 -50 -4 -66 -27z"/>
<path d="M3879 4250 c0 -3 -2 -93 -3 -200 -2 -107 -6 -206 -10 -220 -18 -62
-58 -120 -82 -120 -32 0 -39 -26 -39 -151 l1 -124 57 -1 c65 -2 68 3 64 89 -2
36 1 51 13 56 8 4 101 7 205 7 l190 -1 3 -76 3 -76 59 1 60 0 0 134 c0 131 0
134 -21 129 -49 -13 -49 -14 -49 282 l0 277 -225 -1 c-124 0 -225 -2 -226 -5z
m302 -109 c14 -1 16 -26 17 -221 0 -198 -2 -220 -16 -221 -28 -1 -185 -1 -221
0 l-34 1 20 23 c36 38 53 121 56 273 1 76 5 141 8 144 6 4 82 4 170 1z"/>
</g>
</svg>
