<?xml version="1.0" standalone="no"?>
<!DOCTYPE svg PUBLIC "-//W3C//DTD SVG 1.1//EN" "http://www.w3.org/Graphics/SVG/1.1/DTD/svg11.dtd" >
<svg xmlns="http://www.w3.org/2000/svg" xmlns:xlink="http://www.w3.org/1999/xlink" version="1.1">
<metadata></metadata>
<defs>
<font id="open_sansregular" horiz-adv-x="1135" >
<font-face units-per-em="2048" ascent="1638" descent="-410" />
<missing-glyph horiz-adv-x="516" />
<glyph horiz-adv-x="0" />
<glyph unicode="&#xd;" horiz-adv-x="1012" />
<glyph unicode=" "  horiz-adv-x="516" />
<glyph unicode="&#x09;" horiz-adv-x="516" />
<glyph unicode="&#xa0;" horiz-adv-x="516" />
<glyph unicode="!" horiz-adv-x="530" d="M147 103q0 132 117 132q56 0 86.5 -34t30.5 -98q0 -62 -31 -96.5t-86 -34.5q-51 0 -84 30.5t-33 100.5zM165 1418h201l-50 -1027h-102z" />
<glyph unicode="&#x22;" horiz-adv-x="796" d="M129 1418h180l-38 -512h-102zM487 1418h180l-39 -512h-101z" />
<glyph unicode="#" horiz-adv-x="1283" d="M49 417v125h279l66 330h-269v123h290l80 423h135l-80 -423h296l81 423h130l-81 -423h256v-123h-280l-64 -330h274v-125h-298l-81 -417h-133l81 417h-294l-79 -417h-132l78 417h-255zM461 542h294l64 330h-294z" />
<glyph unicode="$" d="M127 165v151q81 -36 186 -58.5t191 -22.5v427q-198 63 -278 146t-80 215q0 127 98 208.5t260 99.5v176h126v-174q178 -5 344 -72l-51 -127q-144 57 -293 68v-421q152 -49 227.5 -95t111.5 -105.5t36 -144.5q0 -132 -99 -218t-276 -108v-225h-126v216q-108 0 -210 17 t-167 47zM309 1025q0 -73 44 -118t151 -84v375q-96 -16 -145.5 -61t-49.5 -112zM630 244q210 30 210 179q0 70 -43 113t-167 86v-378z" />
<glyph unicode="%" horiz-adv-x="1635" d="M101 995q0 220 72 332t214 112q141 0 216.5 -115.5t75.5 -328.5q0 -221 -74 -334t-218 -113q-136 0 -211 115.5t-75 331.5zM235 995q0 -165 36 -247.5t116 -82.5q159 0 159 330q0 328 -159 328q-80 0 -116 -81.5t-36 -246.5zM354 0l787 1418h142l-786 -1418h-143z M955 427q0 220 72.5 331.5t214.5 111.5q137 0 214.5 -114t77.5 -329q0 -220 -74.5 -333t-217.5 -113q-138 0 -212.5 115t-74.5 331zM1088 427q0 -166 36 -248t118 -82q81 0 120 81t39 249q0 166 -39 246t-120 80q-82 0 -118 -80t-36 -246z" />
<glyph unicode="&#x26;" horiz-adv-x="1450" d="M110 368q0 126 67 223t242 196q-82 92 -112 139.5t-47.5 99t-17.5 106.5q0 145 95.5 226.5t264.5 81.5q158 0 248 -81t90 -225q0 -104 -66 -191.5t-218 -178.5l395 -379q54 60 86.5 141t54.5 177h163q-66 -277 -199 -421l290 -282h-222l-179 173q-115 -103 -233 -147.5 t-264 -44.5q-208 0 -323 102.5t-115 284.5zM276 372q0 -114 75.5 -180.5t200.5 -66.5q234 0 388 150l-424 411q-108 -66 -152.5 -109t-66 -92.5t-21.5 -112.5zM402 1136q0 -67 34.5 -127.5t119.5 -146.5q125 73 174 134.5t49 142.5q0 74 -50 121.5t-133 47.5 q-87 0 -140.5 -47t-53.5 -125z" />
<glyph unicode="'" horiz-adv-x="439" d="M129 1418h180l-38 -512h-102z" />
<glyph unicode="(" horiz-adv-x="587" d="M80 544q0 257 75 481t217 393h157q-140 -187 -210.5 -411t-70.5 -461q0 -233 72 -455t207 -405h-155q-143 165 -217.5 385t-74.5 473z" />
<glyph unicode=")" horiz-adv-x="587" d="M59 1418h157q143 -170 217.5 -394.5t74.5 -479.5t-75 -475t-217 -383h-155q135 182 207 404.5t72 455.5q0 237 -70.5 461t-210.5 411z" />
<glyph unicode="*" horiz-adv-x="1096" d="M83 1057l29 177l379 -108l-42 383h188l-41 -383l386 108l25 -177l-370 -30l241 -316l-167 -91l-171 351l-155 -351l-171 91l235 316z" />
<glyph unicode="+" d="M101 633v134h398v415h134v-415h400v-134h-400v-413h-134v413h-398z" />
<glyph unicode="," horiz-adv-x="486" d="M61 -256q26 101 57.5 249.5t44.5 237.5h177l14 -22q-25 -97 -72.5 -226t-99.5 -239h-121z" />
<glyph unicode="-" horiz-adv-x="639" d="M81 459v147h477v-147h-477z" />
<glyph unicode="." horiz-adv-x="528" d="M147 103q0 65 30 98.5t85 33.5q56 0 87.5 -33.5t31.5 -98.5q0 -63 -32 -97t-87 -34q-50 0 -82.5 30.5t-32.5 100.5z" />
<glyph unicode="/" horiz-adv-x="729" d="M19 0l529 1418h161l-529 -1418h-161z" />
<glyph unicode="0" d="M99 711q0 371 115.5 550t351.5 179q231 0 351 -187t120 -542q0 -368 -116 -549t-355 -181q-228 0 -347.5 185.5t-119.5 544.5zM262 711q0 -309 72.5 -450.5t231.5 -141.5q162 0 234 143t72 449t-72 448t-234 142q-159 0 -231.5 -140.5t-72.5 -449.5z" />
<glyph unicode="1" d="M182 1128l376 290h136v-1418h-158v1011q0 126 8 238q-20 -20 -45.5 -42.5t-230.5 -188.5z" />
<glyph unicode="2" d="M97 0v139l373 375q171 173 225.5 246.5t81.5 143.5t27 150q0 114 -69 180.5t-191 66.5q-88 0 -167 -29t-176 -106l-86 110q196 163 427 163q200 0 313.5 -102.5t113.5 -275.5q0 -135 -75.5 -266.5t-283.5 -333.5l-310 -304v-8h729v-149h-932z" />
<glyph unicode="3" d="M91 57v153q92 -45 196.5 -69t197.5 -24q368 0 368 288q0 258 -406 258h-140v139h142q166 0 263 73.5t97 203.5q0 103 -71.5 162.5t-193.5 59.5q-93 0 -175.5 -25.5t-188.5 -93.5l-81 109q87 69 201 108.5t240 39.5q207 0 321.5 -95t114.5 -260q0 -135 -76 -221.5 t-216 -115.5v-8q171 -21 253 -108.5t82 -228.5q0 -203 -140.5 -312t-399.5 -109q-112 0 -206 17t-182 59z" />
<glyph unicode="4" d="M42 326v141l673 959h171v-954h210v-146h-210v-326h-155v326h-689zM203 472h528v472q0 139 10 313h-8q-46 -93 -87 -154z" />
<glyph unicode="5" d="M129 57v155q68 -43 169 -68t199 -25q170 0 265 80.5t95 233.5q0 296 -364 296q-92 0 -247 -28l-83 54l53 663h706v-148h-568l-36 -426q112 22 222 22q224 0 352.5 -111t128.5 -304q0 -220 -140 -345t-386 -125q-240 0 -366 76z" />
<glyph unicode="6" d="M113 606q0 418 162.5 625.5t481.5 207.5q109 0 172 -19v-139q-74 25 -170 25q-228 0 -348.5 -142.5t-132.5 -446.5h12q107 167 338 167q191 0 301 -115.5t110 -313.5q0 -221 -121 -347.5t-326 -126.5q-220 0 -349.5 165t-129.5 460zM278 491q0 -100 39 -186.5t110.5 -137 t162.5 -50.5q138 0 214 87t76 251q0 141 -71 221.5t-211 80.5q-88 0 -160.5 -36t-116 -99t-43.5 -131z" />
<glyph unicode="7" d="M91 1270v148h944v-129l-580 -1289h-179l588 1270h-773z" />
<glyph unicode="8" d="M101 362q0 243 297 379q-134 76 -192.5 163.5t-58.5 196.5q0 154 114 246t305 92q194 0 307.5 -90.5t113.5 -249.5q0 -105 -65 -191t-207 -157q173 -83 245.5 -173.5t72.5 -209.5q0 -177 -123 -282t-338 -105q-227 0 -349 99t-122 282zM260 358q0 -116 81 -181t227 -65 q145 0 225.5 67.5t80.5 186.5q0 94 -75.5 167t-264.5 142q-144 -62 -209 -137t-65 -180zM306 1094q0 -89 57 -153t211 -128q139 58 196.5 125t57.5 156q0 98 -70 156t-193 58q-122 0 -190.5 -58.5t-68.5 -155.5z" />
<glyph unicode="9" d="M103 961q0 221 123.5 349.5t325.5 128.5q144 0 252.5 -74.5t166.5 -216.5t58 -335q0 -832 -644 -832q-112 0 -178 19v139q77 -26 176 -26q233 0 352 144.5t129 441.5h-11q-54 -80 -142 -122.5t-199 -42.5q-188 0 -298.5 113t-110.5 314zM262 963q0 -139 70 -219.5 t212 -80.5q88 0 162.5 36t117 98t42.5 130q0 102 -39.5 188.5t-111 136t-163.5 49.5q-139 0 -214.5 -89.5t-75.5 -248.5z" />
<glyph unicode=":" horiz-adv-x="528" d="M147 103q0 65 30 98.5t85 33.5q56 0 87.5 -33.5t31.5 -98.5q0 -63 -32 -97t-87 -34q-50 0 -82.5 30.5t-32.5 100.5zM147 959q0 131 115 131q119 0 119 -131q0 -63 -32 -97t-87 -34q-50 0 -82.5 30.5t-32.5 100.5z" />
<glyph unicode=";" horiz-adv-x="528" d="M61 -256q26 101 57.5 249.5t44.5 237.5h177l14 -22q-25 -97 -72.5 -226t-99.5 -239h-121zM143 959q0 131 115 131q119 0 119 -131q0 -63 -32 -97t-87 -34q-56 0 -85.5 34t-29.5 97z" />
<glyph unicode="&#x3c;" d="M101 644v95l932 465v-145l-758 -360l758 -318v-146z" />
<glyph unicode="=" d="M115 436v132h903v-132h-903zM115 832v133h903v-133h-903z" />
<glyph unicode="&#x3e;" d="M101 235v146l759 316l-759 362v145l932 -465v-95z" />
<glyph unicode="?" horiz-adv-x="852" d="M26 1342q184 97 383 97q186 0 288.5 -91.5t102.5 -257.5q0 -71 -19 -124.5t-55.5 -101.5t-159.5 -155q-97 -83 -129 -138.5t-32 -147.5v-32h-125v52q0 114 35 187t130 155q132 111 166.5 167.5t34.5 135.5q0 99 -63.5 153t-182.5 54q-77 0 -149.5 -18t-167.5 -65z M233 103q0 132 116 132q56 0 87 -34t31 -98q0 -62 -31.5 -96.5t-86.5 -34.5q-50 0 -83 30.5t-33 100.5z" />
<glyph unicode="@" horiz-adv-x="1785" d="M117 554q0 252 104 449t296 305t440 108q209 0 371.5 -87.5t251 -249t88.5 -372.5q0 -138 -42.5 -252.5t-120 -177.5t-178.5 -63q-83 0 -140.5 50.5t-68.5 129.5h-7q-39 -85 -111.5 -132.5t-171.5 -47.5q-145 0 -227 99.5t-82 270.5q0 198 114.5 321.5t300.5 123.5 q66 0 149.5 -12t150.5 -33l-24 -456v-22q0 -172 129 -172q88 0 143 104t55 271q0 176 -71.5 307.5t-204 203t-304.5 71.5q-216 0 -376 -89.5t-244.5 -256t-84.5 -384.5q0 -296 156.5 -455t449.5 -159q204 0 423 83v-129q-186 -81 -423 -81q-352 0 -546.5 193.5t-194.5 540.5 zM665 580q0 -246 190 -246q200 0 218 303l13 253q-69 20 -152 20q-126 0 -197.5 -87.5t-71.5 -242.5z" />
<glyph unicode="A" horiz-adv-x="1257" d="M0 0l561 1424h138l558 -1424h-171l-176 451h-569l-174 -451h-167zM400 599h458l-164 440q-32 83 -66 205q-22 -94 -62 -205z" />
<glyph unicode="B" horiz-adv-x="1287" d="M195 0v1418h401q282 0 408 -84.5t126 -266.5q0 -126 -70.5 -208t-204.5 -106v-10q323 -55 323 -339q0 -191 -128.5 -297.5t-359.5 -106.5h-495zM360 141h296q171 0 258 66.5t87 207.5q0 132 -88.5 194t-270.5 62h-282v-530zM360 811h271q175 0 251.5 55t76.5 185 q0 119 -85 172t-272 53h-242v-465z" />
<glyph unicode="C" horiz-adv-x="1253" d="M121 711q0 219 82 384t237 254.5t364 89.5q223 0 390 -82l-70 -142q-161 76 -322 76q-234 0 -369 -155.5t-135 -426.5q0 -278 130.5 -430t371.5 -152q149 0 339 53v-144q-148 -55 -364 -55q-313 0 -483.5 190t-170.5 540z" />
<glyph unicode="D" horiz-adv-x="1448" d="M195 0v1418h435q330 0 513.5 -183.5t183.5 -511.5q0 -351 -190.5 -537t-548.5 -186h-393zM360 143h201q295 0 443 145t148 429q0 277 -139 418t-414 141h-239v-1133z" />
<glyph unicode="E" horiz-adv-x="1104" d="M195 0v1418h791v-146h-626v-457h588v-146h-588v-522h626v-147h-791z" />
<glyph unicode="F" horiz-adv-x="1025" d="M195 0v1418h791v-146h-626v-519h588v-147h-588v-606h-165z" />
<glyph unicode="G" horiz-adv-x="1446" d="M121 709q0 221 89 387.5t255.5 254.5t391.5 88q226 0 422 -84l-64 -145q-192 81 -369 81q-259 0 -404.5 -154t-145.5 -428q0 -287 140 -435.5t412 -148.5q147 0 288 34v437h-317v147h482v-690q-113 -36 -229.5 -54t-269.5 -18q-322 0 -501.5 191.5t-179.5 536.5z" />
<glyph unicode="H" horiz-adv-x="1465" d="M195 0v1418h165v-603h747v603h165v-1418h-165v667h-747v-667h-165z" />
<glyph unicode="I" horiz-adv-x="553" d="M195 0v1418h165v-1418h-165z" />
<glyph unicode="J" horiz-adv-x="530" d="M-155 -207q69 -19 143 -19q96 0 146 58t50 168v1418h165v-1404q0 -185 -93 -286t-268 -101q-91 0 -143 26v140z" />
<glyph unicode="K" horiz-adv-x="1219" d="M195 0v1418h165v-703l643 703h195l-570 -616l591 -802h-194l-517 688l-148 -132v-556h-165z" />
<glyph unicode="L" horiz-adv-x="1031" d="M195 0v1418h165v-1269h626v-149h-791z" />
<glyph unicode="M" horiz-adv-x="1793" d="M195 0v1418h248l449 -1170h8l453 1170h247v-1418h-165v914q0 157 13 341h-8l-485 -1255h-132l-482 1257h-7q13 -149 13 -355v-902h-152z" />
<glyph unicode="N" horiz-adv-x="1497" d="M195 0v1418h186l773 -1185h8q-2 26 -8 168q-6 123 -6 185v18v814h155v-1418h-188l-775 1190h-8q15 -209 15 -384v-806h-152z" />
<glyph unicode="O" horiz-adv-x="1547" d="M121 713q0 346 171 536.5t485 190.5q306 0 477.5 -194t171.5 -535q0 -340 -172 -535t-479 -195q-313 0 -483.5 191.5t-170.5 540.5zM296 711q0 -288 122.5 -437t356.5 -149q236 0 356 148.5t120 437.5q0 286 -119.5 434t-354.5 148q-236 0 -358.5 -149t-122.5 -433z" />
<glyph unicode="P" horiz-adv-x="1196" d="M195 0v1418h368q531 0 531 -413q0 -215 -147 -331t-420 -116h-167v-558h-165zM360 699h148q220 0 317.5 71t97.5 227q0 141 -92 210t-287 69h-184v-577z" />
<glyph unicode="Q" horiz-adv-x="1547" d="M121 713q0 346 171 536.5t485 190.5q306 0 477.5 -194t171.5 -535q0 -273 -109.5 -453t-309.5 -244l337 -352h-239l-277 321l-53 -2q-313 0 -483.5 191.5t-170.5 540.5zM296 711q0 -288 122.5 -437t356.5 -149q236 0 356 148.5t120 437.5q0 286 -119.5 434t-354.5 148 q-236 0 -358.5 -149t-122.5 -433z" />
<glyph unicode="R" horiz-adv-x="1228" d="M195 0v1418h389q261 0 385.5 -100t124.5 -300q0 -282 -285 -381l385 -637h-195l-343 590h-296v-590h-165zM360 731h226q174 0 255.5 69.5t81.5 208.5q0 140 -82.5 202.5t-266.5 62.5h-214v-543z" />
<glyph unicode="S" horiz-adv-x="1090" d="M103 46v159q87 -37 190 -58.5t204 -21.5q165 0 248 62.5t83 174.5q0 74 -29.5 121t-99 86.5t-210.5 90.5q-198 70 -283 167t-85 254q0 164 123.5 261t325.5 97q212 0 389 -78l-51 -144q-176 74 -342 74q-130 0 -204 -56t-74 -156q0 -74 27 -121t91.5 -86.5t197.5 -86.5 q223 -80 307 -171t84 -237q0 -187 -135.5 -291.5t-368.5 -104.5q-252 0 -388 65z" />
<glyph unicode="T" horiz-adv-x="1099" d="M17 1272v146h1064v-146h-450v-1272h-164v1272h-450z" />
<glyph unicode="U" horiz-adv-x="1446" d="M180 504v914h165v-925q0 -178 97 -273t286 -95q179 0 276 95.5t97 274.5v923h165v-917q0 -243 -146.5 -381.5t-402.5 -138.5t-396.5 139.5t-140.5 383.5z" />
<glyph unicode="V" horiz-adv-x="1182" d="M0 1418h175l326 -917q56 -159 89 -308q35 157 91 313l324 912h177l-511 -1418h-163z" />
<glyph unicode="W" horiz-adv-x="1839" d="M26 1418h175l224 -876q46 -184 68 -333q26 177 77 347l254 862h175l267 -870q46 -150 78 -339q19 137 70 335l223 874h175l-379 -1418h-163l-286 950q-21 63 -46 159t-26 115q-22 -128 -68 -280l-278 -944h-162z" />
<glyph unicode="X" horiz-adv-x="1146" d="M8 0l471 741l-439 677h182l352 -561l355 561h176l-440 -671l474 -747h-187l-382 624l-388 -624h-174z" />
<glyph unicode="Y" horiz-adv-x="1112" d="M0 1418h180l376 -709l378 709h179l-474 -868v-550h-167v542z" />
<glyph unicode="Z" horiz-adv-x="1133" d="M80 0v129l752 1141h-729v148h930v-129l-753 -1140h774v-149h-974z" />
<glyph unicode="[" horiz-adv-x="653" d="M161 -314v1732h443v-137h-280v-1458h280v-137h-443z" />
<glyph unicode="\" horiz-adv-x="729" d="M22 1418h158l531 -1418h-161z" />
<glyph unicode="]" horiz-adv-x="653" d="M49 -177h281v1458h-281v137h444v-1732h-444v137z" />
<glyph unicode="^" horiz-adv-x="1076" d="M48 534l421 895h96l462 -895h-147l-361 723l-324 -723h-147z" />
<glyph unicode="_" horiz-adv-x="890" d="M-4 -178h898v-128h-898v128z" />
<glyph unicode="`" horiz-adv-x="1146" d="M381 1502v20h197q31 -67 86.5 -155t97.5 -139v-24h-106q-63 50 -149.5 143t-125.5 155z" />
<glyph unicode="a" horiz-adv-x="1104" d="M91 294q0 322 515 337l181 6v66q0 125 -54 185t-172 60q-133 0 -301 -82l-50 123q79 43 172.5 67.5t187.5 24.5q190 0 282 -84.5t92 -270.5v-726h-120l-32 151h-7q-80 -100 -159 -135t-197 -35q-158 0 -248 81.5t-90 231.5zM260 292q0 -87 53 -133t148 -46 q150 0 236 82.5t86 231.5v96l-161 -7q-192 -7 -277 -59.5t-85 -164.5z" />
<glyph unicode="b" horiz-adv-x="1217" d="M171 0v1509h161v-366q0 -124 -8 -221h8q112 159 333 159q210 0 326 -143.5t116 -404.5q0 -262 -117 -407t-325 -145q-103 0 -189 38t-144 118h-12l-34 -137h-115zM332 533q0 -225 74.5 -321.5t239.5 -96.5q148 0 221 108.5t73 310.5q0 208 -73 310t-225 102 q-165 0 -237.5 -94.5t-72.5 -318.5z" />
<glyph unicode="c" horiz-adv-x="945" d="M112 525q0 267 128.5 412.5t365.5 145.5q77 0 153.5 -16.5t120.5 -39.5l-50 -137q-53 22 -116 36t-112 14q-324 0 -324 -413q0 -196 79 -301t235 -105q133 0 272 57v-142q-106 -55 -268 -55q-231 0 -357.5 142t-126.5 402z" />
<glyph unicode="d" horiz-adv-x="1217" d="M112 529q0 263 116 408.5t324 145.5q216 0 332 -158h12l-7 77l-3 75v432h161v-1509h-131l-22 143h-8q-112 -162 -334 -162q-209 0 -324.5 142.5t-115.5 405.5zM278 527q0 -204 75 -308t219 -104q165 0 239.5 90t74.5 290v34q0 226 -75.5 322.5t-240.5 96.5 q-141 0 -216.5 -110t-75.5 -311z" />
<glyph unicode="e" horiz-adv-x="1114" d="M112 523q0 257 126.5 408.5t339.5 151.5q200 0 316.5 -131.5t116.5 -347.5v-102h-733q5 -187 95 -284t253 -97q171 0 339 72v-144q-85 -36 -161 -52t-184 -16q-236 0 -372 143.5t-136 398.5zM282 633h556q0 153 -68 234t-194 81q-128 0 -204 -83.5t-90 -231.5z" />
<glyph unicode="f" horiz-adv-x="673" d="M28 938v73l190 58v59q0 392 343 392q84 0 198 -34l-42 -129q-93 30 -159 30q-91 0 -135 -60.5t-44 -194.5v-69h271v-125h-271v-938h-161v938h-190z" />
<glyph unicode="g" horiz-adv-x="1088" d="M38 -180q0 97 62 167.5t175 95.5q-41 19 -69 57.5t-28 90.5q0 58 31.5 101.5t97.5 84.5q-82 34 -134 115.5t-52 186.5q0 174 105 269t297 95q83 0 150 -20h368v-102l-197 -23q27 -34 48.5 -89t21.5 -123q0 -157 -107 -250t-293 -93q-47 0 -89 8q-103 -54 -103 -137 q0 -44 36 -64.5t123 -20.5h188q173 0 265.5 -73t92.5 -211q0 -177 -141.5 -269.5t-413.5 -92.5q-208 0 -321 77.5t-113 219.5zM193 -178q0 -87 73 -131.5t208 -44.5q203 0 300.5 60.5t97.5 164.5q0 86 -53.5 119.5t-200.5 33.5h-193q-110 0 -171 -52.5t-61 -149.5zM280 723 q0 -112 63 -169t176 -57q236 0 236 229q0 239 -239 239q-113 0 -174.5 -61t-61.5 -181z" />
<glyph unicode="h" horiz-adv-x="1219" d="M171 0v1509h161v-457q0 -82 -8 -136h10q47 76 135 120.5t200 44.5q195 0 292.5 -93t97.5 -294v-694h-161v688q0 130 -59 194t-185 64q-168 0 -245 -91.5t-77 -298.5v-556h-161z" />
<glyph unicode="i" horiz-adv-x="502" d="M157 1351q0 55 27 81t68 26q39 0 67 -26t28 -81q0 -54 -28 -80.5t-67 -26.5q-41 0 -68 26.5t-27 80.5zM171 0v1063h161v-1063h-161z" />
<glyph unicode="j" horiz-adv-x="502" d="M-108 -322q67 -19 132 -19q76 0 111.5 41t35.5 125v1238h161v-1226q0 -314 -290 -314q-92 0 -150 24v131zM157 1351q0 55 27 81t68 26q39 0 67 -26t28 -81q0 -54 -28 -80.5t-67 -26.5q-41 0 -68 26.5t-27 80.5z" />
<glyph unicode="k" horiz-adv-x="1042" d="M171 0v1509h159v-800q0 -53 -8 -165h8q42 59 127 155l343 364h191l-430 -453l460 -610h-195l-375 502l-121 -104v-398h-159z" />
<glyph unicode="l" horiz-adv-x="502" d="M171 0v1509h161v-1509h-161z" />
<glyph unicode="m" horiz-adv-x="1847" d="M171 0v1063h131l26 -145h8q45 77 128 121t186 44q249 0 326 -181h8q47 84 137.5 132.5t205.5 48.5q180 0 270 -93t90 -296v-694h-161v692q0 127 -54.5 190.5t-168.5 63.5q-151 0 -222.5 -86.5t-71.5 -265.5v-594h-161v692q0 127 -54.5 190.5t-169.5 63.5q-152 0 -222 -91 t-70 -297v-558h-161z" />
<glyph unicode="n" horiz-adv-x="1219" d="M171 0v1063h131l26 -145h8q49 78 138.5 121.5t198.5 43.5q192 0 289 -93t97 -296v-694h-161v688q0 130 -59 194t-185 64q-167 0 -244.5 -90.5t-77.5 -297.5v-558h-161z" />
<glyph unicode="o" horiz-adv-x="1199" d="M112 533q0 259 130 404.5t360 145.5q223 0 354.5 -148.5t131.5 -401.5q0 -260 -131 -406t-361 -146q-143 0 -253.5 66.5t-170.5 192t-60 293.5zM278 533q0 -204 81.5 -311t239.5 -107q159 0 241 106.5t82 311.5q0 202 -82 307.5t-242 105.5q-159 0 -239.5 -104 t-80.5 -309z" />
<glyph unicode="p" horiz-adv-x="1217" d="M171 -477v1540h131l22 -145h8q62 87 144.5 126t188.5 39q212 0 327 -145t115 -405q0 -262 -117 -407t-325 -145q-103 0 -189 38t-144 118h-12q12 -93 12 -177v-437h-161zM332 533q0 -225 74.5 -321.5t239.5 -96.5q138 0 216 112t78 307q0 199 -78 305.5t-220 106.5 q-163 0 -235.5 -90.5t-74.5 -287.5v-35z" />
<glyph unicode="q" horiz-adv-x="1217" d="M112 529q0 261 116 407.5t324 146.5q218 0 336 -165h8l24 145h127v-1540h-161v455q0 97 10 165h-12q-112 -162 -336 -162q-206 0 -321 144.5t-115 403.5zM278 527q0 -201 74.5 -306.5t219.5 -105.5q161 0 235 86.5t79 291.5v36q0 223 -76 321t-240 98q-141 0 -216.5 -110 t-75.5 -311z" />
<glyph unicode="r" horiz-adv-x="810" d="M171 0v1063h133l18 -197h8q59 104 142.5 160.5t183.5 56.5q71 0 127 -12l-23 -149q-65 14 -116 14q-129 0 -220.5 -104.5t-91.5 -261.5v-570h-161z" />
<glyph unicode="s" horiz-adv-x="947" d="M103 802q0 130 105.5 205.5t290.5 75.5q171 0 335 -70l-57 -131q-160 66 -290 66q-115 0 -173 -36t-58 -99q0 -43 22 -73t70.5 -57t185.5 -79q190 -69 256.5 -138.5t66.5 -175.5q0 -148 -111 -228.5t-310 -80.5q-212 0 -330 67v149q76 -39 164 -61.5t169 -22.5 q127 0 194.5 40.5t67.5 122.5q0 63 -53.5 107t-210.5 104q-148 55 -210.5 96.5t-93 93.5t-30.5 125z" />
<glyph unicode="t" horiz-adv-x="701" d="M30 938v78l152 67l68 227h93v-247h309v-125h-309v-626q0 -96 46 -147.5t125 -51.5q43 0 82.5 6.5t63.5 13.5v-123q-27 -13 -77.5 -21t-91.5 -8q-309 0 -309 325v632h-152z" />
<glyph unicode="u" horiz-adv-x="1219" d="M159 368v695h163v-690q0 -130 59 -194t185 -64q167 0 244.5 91.5t77.5 297.5v559h161v-1063h-133l-24 143h-8q-50 -79 -137.5 -120.5t-200.5 -41.5q-194 0 -290.5 92t-96.5 295z" />
<glyph unicode="v" horiz-adv-x="995" d="M0 1063h173l229 -630q77 -222 91 -287h8q10 51 67 212.5t255 704.5h172l-403 -1063h-188z" />
<glyph unicode="w" horiz-adv-x="1545" d="M22 1063h169q103 -400 157 -610t61 -282h8q11 55 34.5 143t41.5 139l195 610h174l190 -610q55 -167 74 -280h8q4 35 21 107.5t202 782.5h167l-294 -1063h-191l-195 624q-19 57 -69 260h-8q-39 -170 -68 -262l-200 -622h-187z" />
<glyph unicode="x" horiz-adv-x="1040" d="M38 0l389 544l-370 519h184l280 -407l279 407h182l-370 -519l389 -544h-182l-298 431l-301 -431h-182z" />
<glyph unicode="y" horiz-adv-x="1001" d="M2 1063h173l232 -606q77 -208 95 -300h8q13 50 53 169.5t263 736.5h173l-457 -1210q-68 -180 -158.5 -255t-222.5 -75q-74 0 -145 16v129q53 -11 119 -11q166 0 237 186l59 151z" />
<glyph unicode="z" horiz-adv-x="929" d="M80 0v110l580 828h-545v125h721v-125l-572 -813h587v-125h-771z" />
<glyph unicode="{" horiz-adv-x="752" d="M59 483v137q126 2 182.5 46.5t56.5 137.5v297q0 150 104.5 233.5t281.5 83.5v-135q-223 -6 -223 -193v-286q0 -208 -217 -246v-12q217 -38 217 -246v-288q0 -99 56.5 -144t166.5 -46v-136q-184 2 -285 84.5t-101 231.5v294q0 101 -61 144t-178 43z" />
<glyph unicode="|" horiz-adv-x="1094" d="M479 -481v1990h137v-1990h-137z" />
<glyph unicode="}" horiz-adv-x="752" d="M70 -178q108 1 164 46t56 144v288q0 110 53.5 168.5t162.5 77.5v12q-216 38 -216 246v286q0 187 -220 193v135q178 0 280.5 -84.5t102.5 -232.5v-297q0 -94 57 -138t184 -46v-137q-119 0 -180 -43t-61 -144v-294q0 -148 -99.5 -231t-283.5 -85v136z" />
<glyph unicode="~" d="M101 574v147q97 105 237 105q66 0 120.5 -13.5t140.5 -50.5q64 -27 112 -40t93 -13q53 0 115 31t114 86v-145q-99 -107 -237 -107q-69 0 -130.5 16t-131.5 47q-72 31 -116 43t-90 12q-52 0 -113.5 -32.5t-113.5 -85.5z" />
<glyph unicode="&#xa2;" d="M184 719q0 493 384 553v167h131v-160q73 -2 142 -18t116 -39l-47 -136q-129 50 -235 50q-167 0 -245.5 -102.5t-78.5 -312.5q0 -206 77 -304.5t239 -98.5q137 0 275 57v-142q-102 -53 -245 -58v-194h-129v199q-196 31 -290 163.5t-94 375.5z" />
<glyph unicode="&#xa3;" d="M61 0v137q199 45 199 282v216h-192v124h192v306q0 173 108.5 272.5t293.5 99.5q184 0 349 -82l-59 -129q-150 75 -289 75q-119 0 -179.5 -60.5t-60.5 -195.5v-286h409v-124h-409v-214q0 -97 -31.5 -163t-103.5 -109h771v-149h-998z" />
<glyph unicode="&#xa5;" d="M30 1418h173l363 -705l368 705h169l-404 -747h255v-123h-308v-165h308v-123h-308v-260h-159v260h-307v123h307v165h-307v123h249z" />
<glyph unicode="&#xa8;" horiz-adv-x="1146" d="M300 1351q0 51 25.5 73t61.5 22q37 0 63.5 -22t26.5 -73q0 -48 -26.5 -72t-63.5 -24q-36 0 -61.5 24t-25.5 72zM669 1351q0 51 26 73t62 22q35 0 62 -22t27 -73q0 -48 -27 -72t-62 -24q-36 0 -62 24t-26 72z" />
<glyph unicode="&#xa9;" horiz-adv-x="1652" d="M97 709q0 194 97 364t266.5 268t365.5 98q194 0 364 -97t268 -267t98 -366q0 -191 -94 -359t-264 -268.5t-372 -100.5q-200 0 -370 100t-264.5 268t-94.5 360zM199 709q0 -168 84.5 -314t230.5 -230t312 -84q169 0 313.5 84.5t229.5 228.5t85 315q0 169 -84.5 313.5 t-228.5 229.5t-315 85q-168 0 -312.5 -84.5t-229.5 -228.5t-85 -315zM467 709q0 203 107 322t292 119q124 0 239 -58l-56 -114q-105 49 -183 49q-121 0 -186.5 -84.5t-65.5 -233.5q0 -163 61.5 -241.5t188.5 -78.5q84 0 205 44v-121q-47 -19 -96 -32.5t-116 -13.5 q-189 0 -289.5 117t-100.5 326z" />
<glyph unicode="&#xab;" horiz-adv-x="987" d="M80 508v26l331 395l116 -67l-281 -339l281 -341l-116 -69zM463 508v26l333 395l114 -67l-279 -339l279 -341l-114 -69z" />
<glyph unicode="&#xad;" horiz-adv-x="639" d="M81 459v147h477v-147h-477z" />
<glyph unicode="&#xae;" horiz-adv-x="1652" d="M97 709q0 194 97 364t266.5 268t365.5 98q194 0 364 -97t268 -267t98 -366q0 -191 -94 -359t-264 -268.5t-372 -100.5q-200 0 -370 100t-264.5 268t-94.5 360zM199 709q0 -168 84.5 -314t230.5 -230t312 -84q169 0 313.5 84.5t229.5 228.5t85 315q0 169 -84.5 313.5 t-228.5 229.5t-315 85q-168 0 -312.5 -84.5t-229.5 -228.5t-85 -315zM558 276v865h253q161 0 236 -63t75 -192q0 -78 -41 -137.5t-116 -88.5l231 -384h-163l-201 344h-131v-344h-143zM701 739h105q78 0 125 40.5t47 102.5q0 72 -42 104t-132 32h-103v-279z" />
<glyph unicode="&#xb4;" horiz-adv-x="1146" d="M381 1204v24q47 60 100.5 145.5t84.5 148.5h196v-20q-42 -63 -126.5 -155.5t-146.5 -142.5h-108z" />
<glyph unicode="&#xb8;" horiz-adv-x="451" d="M36 -366q44 -7 101 -7q76 0 115.5 19t39.5 72q0 41 -38.5 67t-143.5 42l85 173h107l-54 -112q175 -37 175 -168q0 -94 -74 -145.5t-220 -51.5q-49 0 -93 8v103z" />
<glyph unicode="&#xbb;" horiz-adv-x="987" d="M78 182l278 341l-278 339l113 67l334 -395v-26l-334 -395zM461 182l278 341l-278 339l113 67l334 -395v-26l-334 -395z" />
<glyph unicode="&#x2c6;" horiz-adv-x="1175" d="M260 1204v22q123 132 172.5 194t71.5 102h161q22 -41 74.5 -105.5t174.5 -190.5v-22h-116q-85 53 -214 180q-132 -130 -212 -180h-112z" />
<glyph unicode="&#x2da;" horiz-adv-x="1146" d="M356 1412q0 95 58.5 151t155.5 56q98 0 158.5 -57.5t60.5 -147.5q0 -95 -60 -152.5t-159 -57.5q-98 0 -156 56.5t-58 151.5zM457 1412q0 -54 29 -83.5t84 -29.5q51 0 82.5 29.5t31.5 83.5q0 55 -32 84.5t-82 29.5q-49 0 -81 -29.5t-32 -84.5z" />
<glyph unicode="&#x2dc;" horiz-adv-x="1175" d="M256 1204q13 117 68.5 183.5t144.5 66.5q44 0 86 -18t79.5 -40t72.5 -39.5t66 -17.5q48 0 71 28.5t38 88.5h96q-13 -117 -67.5 -183.5t-146.5 -66.5q-41 0 -81 18t-78.5 39.5t-73.5 39.5t-68 18q-49 0 -73.5 -29t-38.5 -88h-95z" />
<glyph unicode="&#x400;" horiz-adv-x="1104" d="M195 0v1418h791v-146h-626v-457h588v-146h-588v-522h626v-147h-791zM342 1830v20h197q31 -67 86.5 -155t97.5 -139v-24h-106q-63 50 -149.5 143t-125.5 155z" />
<glyph unicode="&#x401;" horiz-adv-x="1104" d="M195 0v1418h791v-146h-626v-457h588v-146h-588v-522h626v-147h-791zM338 1679q0 51 25.5 73t61.5 22q37 0 63.5 -22t26.5 -73q0 -48 -26.5 -72t-63.5 -24q-36 0 -61.5 24t-25.5 72zM707 1679q0 51 26 73t62 22q35 0 62 -22t27 -73q0 -48 -27 -72t-62 -24q-36 0 -62 24 t-26 72z" />
<glyph unicode="&#x402;" horiz-adv-x="1457" d="M17 1272v146h923v-146h-432v-406h384q199 0 306.5 -92.5t107.5 -265.5v-138q0 -185 -95 -287t-265 -102q-93 0 -146 21v145q54 -18 142 -18q98 0 148.5 60t50.5 169v127q0 124 -63.5 179t-199.5 55h-370v-719h-165v1272h-326z" />
<glyph unicode="&#x403;" horiz-adv-x="1033" d="M195 0v1418h791v-148h-626v-1270h-165zM468 1532v24q47 60 100.5 145.5t84.5 148.5h196v-20q-42 -63 -126.5 -155.5t-146.5 -142.5h-108z" />
<glyph unicode="&#x404;" horiz-adv-x="1269" d="M121 711q0 340 183 534.5t507 194.5q230 0 402 -85l-68 -143q-164 79 -336 79q-219 0 -349.5 -121t-159.5 -355h701v-146h-705q10 -265 139.5 -403.5t370.5 -138.5q157 0 352 53v-144q-156 -55 -375 -55q-322 0 -492 188t-170 542z" />
<glyph unicode="&#x405;" horiz-adv-x="1090" d="M103 46v159q87 -37 190 -58.5t204 -21.5q165 0 248 62.5t83 174.5q0 74 -29.5 121t-99 86.5t-210.5 90.5q-198 70 -283 167t-85 254q0 164 123.5 261t325.5 97q212 0 389 -78l-51 -144q-176 74 -342 74q-130 0 -204 -56t-74 -156q0 -74 27 -121t91.5 -86.5t197.5 -86.5 q223 -80 307 -171t84 -237q0 -187 -135.5 -291.5t-368.5 -104.5q-252 0 -388 65z" />
<glyph unicode="&#x406;" horiz-adv-x="553" d="M195 0v1418h165v-1418h-165z" />
<glyph unicode="&#x407;" horiz-adv-x="553" d="M5 1679q0 51 25.5 73t61.5 22q37 0 63.5 -22t26.5 -73q0 -48 -26.5 -72t-63.5 -24q-36 0 -61.5 24t-25.5 72zM195 0v1418h165v-1418h-165zM374 1679q0 51 26 73t62 22q35 0 62 -22t27 -73q0 -48 -27 -72t-62 -24q-36 0 -62 24t-26 72z" />
<glyph unicode="&#x408;" horiz-adv-x="530" d="M-155 -207q69 -19 143 -19q96 0 146 58t50 168v1418h165v-1404q0 -185 -93 -286t-268 -101q-91 0 -143 26v140z" />
<glyph unicode="&#x409;" horiz-adv-x="1845" d="M0 2v139q48 -26 110 -26q46 0 77.5 30.5t52.5 80t47.5 171t59.5 338t96 683.5h658v-605h118q553 0 553 -400q0 -200 -133.5 -306.5t-385.5 -106.5h-317v1272h-354q-55 -427 -96 -680t-79.5 -375t-106 -180.5t-171.5 -58.5q-67 0 -129 24zM1101 143h129q192 0 281 67 t89 203q0 134 -93.5 194t-306.5 60h-99v-524z" />
<glyph unicode="&#x40a;" horiz-adv-x="1893" d="M195 0v1418h165v-603h624v603h166v-605h118q552 0 552 -400q0 -200 -132 -306.5t-385 -106.5h-319v667h-624v-667h-165zM1150 143h129q191 0 280.5 67t89.5 203q0 133 -93.5 193.5t-306.5 60.5h-99v-524z" />
<glyph unicode="&#x40b;" horiz-adv-x="1457" d="M17 1272v146h984v-146h-493v-406h388q199 0 304.5 -91t105.5 -267v-508h-165v487q0 122 -61 177t-196 55h-376v-719h-165v1272h-326z" />
<glyph unicode="&#x40c;" horiz-adv-x="1215" d="M195 0v1418h165v-687l639 687h189l-627 -689l654 -729h-199l-656 719v-719h-165zM538 1532v24q47 60 100.5 145.5t84.5 148.5h196v-20q-42 -63 -126.5 -155.5t-146.5 -142.5h-108z" />
<glyph unicode="&#x40d;" horiz-adv-x="1514" d="M197 0v1418h154v-788q0 -219 -13 -395h7l796 1183h180v-1418h-155v781q0 195 16 409h-8l-797 -1190h-180zM482 1830v20h197q31 -67 86.5 -155t97.5 -139v-24h-106q-63 50 -149.5 143t-125.5 155z" />
<glyph unicode="&#x40e;" horiz-adv-x="1233" d="M26 1418h183l419 -806q24 -47 37 -93h8q27 81 38 103l348 796h175l-453 -1014q-82 -182 -147.5 -264.5t-147.5 -120.5t-202 -38q-107 0 -189 29v161q90 -42 183 -42q107 0 171.5 49t128.5 184zM278 1830h152q8 -101 52.5 -141t153.5 -40q100 0 148 42.5t59 138.5h152 q-11 -154 -97.5 -226t-265.5 -72t-261.5 69t-92.5 229z" />
<glyph unicode="&#x40f;" horiz-adv-x="1448" d="M195 0v1418h165v-1269h728v1269h165v-1418h-451v-370h-171v370h-436z" />
<glyph unicode="&#x410;" horiz-adv-x="1257" d="M0 0l561 1424h138l558 -1424h-171l-176 451h-569l-174 -451h-167zM400 599h458l-164 440q-32 83 -66 205q-22 -94 -62 -205z" />
<glyph unicode="&#x411;" horiz-adv-x="1217" d="M195 0v1418h836v-146h-671v-459h220q187 0 304.5 -43t174 -127.5t56.5 -229.5q0 -211 -126 -312t-379 -101h-415zM360 143h232q184 0 268 63t84 207q0 138 -85.5 196t-297.5 58h-201v-524z" />
<glyph unicode="&#x412;" horiz-adv-x="1287" d="M195 0v1418h401q282 0 408 -84.5t126 -266.5q0 -126 -70.5 -208t-204.5 -106v-10q323 -55 323 -339q0 -191 -128.5 -297.5t-359.5 -106.5h-495zM360 141h296q171 0 258 66.5t87 207.5q0 132 -88.5 194t-270.5 62h-282v-530zM360 811h271q175 0 251.5 55t76.5 185 q0 119 -85 172t-272 53h-242v-465z" />
<glyph unicode="&#x413;" horiz-adv-x="1033" d="M195 0v1418h791v-148h-626v-1270h-165z" />
<glyph unicode="&#x414;" horiz-adv-x="1357" d="M14 149h109q150 252 256 611.5t118 657.5h637v-1269h179v-519h-157v370h-985v-370h-157v519zM296 149h673v1121h-323q-17 -235 -117 -564.5t-233 -556.5z" />
<glyph unicode="&#x415;" horiz-adv-x="1104" d="M195 0v1418h791v-146h-626v-457h588v-146h-588v-522h626v-147h-791z" />
<glyph unicode="&#x416;" horiz-adv-x="1677" d="M2 0l578 729l-558 689h185l552 -687v687h159v-687l553 687h184l-559 -687l576 -731h-190l-564 719v-719h-159v719l-564 -719h-193z" />
<glyph unicode="&#x417;" horiz-adv-x="1154" d="M72 57v153q93 -44 201 -68.5t208 -24.5q192 0 290.5 73t98.5 210q0 130 -109 196.5t-325 66.5h-212v139h203q199 0 308 71.5t109 199.5q0 104 -78.5 166t-211.5 62q-107 0 -193 -24.5t-200 -96.5l-81 111q98 73 219.5 110.5t252.5 37.5q218 0 342 -96t124 -257 q0 -139 -89 -226.5t-245 -110.5v-8q177 -24 269 -111.5t92 -227.5q0 -199 -148.5 -310t-419.5 -111q-247 0 -405 76z" />
<glyph unicode="&#x418;" horiz-adv-x="1514" d="M197 0v1418h154v-788q0 -219 -13 -395h7l796 1183h180v-1418h-155v781q0 195 16 409h-8l-797 -1190h-180z" />
<glyph unicode="&#x419;" horiz-adv-x="1514" d="M197 0v1418h154v-788q0 -219 -13 -395h7l796 1183h180v-1418h-155v781q0 195 16 409h-8l-797 -1190h-180zM430 1830h152q8 -101 52.5 -141t153.5 -40q100 0 148 42.5t59 138.5h152q-11 -154 -97.5 -226t-265.5 -72t-261.5 69t-92.5 229z" />
<glyph unicode="&#x41a;" horiz-adv-x="1215" d="M195 0v1418h165v-687l639 687h189l-627 -689l654 -729h-199l-656 719v-719h-165z" />
<glyph unicode="&#x41b;" horiz-adv-x="1398" d="M0 2v139q52 -26 110 -26q51 0 89.5 42.5t68 146.5t74.5 395.5t99 718.5h763v-1418h-165v1272h-461l-30 -233q-59 -465 -104 -679.5t-119 -299t-196 -82.5q-72 0 -129 24z" />
<glyph unicode="&#x41c;" horiz-adv-x="1793" d="M195 0v1418h248l449 -1170h8l453 1170h247v-1418h-165v914q0 157 13 341h-8l-485 -1255h-132l-482 1257h-7q13 -149 13 -355v-902h-152z" />
<glyph unicode="&#x41d;" horiz-adv-x="1465" d="M195 0v1418h165v-603h747v603h165v-1418h-165v667h-747v-667h-165z" />
<glyph unicode="&#x41e;" horiz-adv-x="1547" d="M121 713q0 346 171 536.5t485 190.5q306 0 477.5 -194t171.5 -535q0 -340 -172 -535t-479 -195q-313 0 -483.5 191.5t-170.5 540.5zM296 711q0 -288 122.5 -437t356.5 -149q236 0 356 148.5t120 437.5q0 286 -119.5 434t-354.5 148q-236 0 -358.5 -149t-122.5 -433z" />
<glyph unicode="&#x41f;" horiz-adv-x="1448" d="M195 0v1418h1058v-1418h-165v1272h-728v-1272h-165z" />
<glyph unicode="&#x420;" horiz-adv-x="1196" d="M195 0v1418h368q531 0 531 -413q0 -215 -147 -331t-420 -116h-167v-558h-165zM360 699h148q220 0 317.5 71t97.5 227q0 141 -92 210t-287 69h-184v-577z" />
<glyph unicode="&#x421;" horiz-adv-x="1253" d="M121 711q0 219 82 384t237 254.5t364 89.5q223 0 390 -82l-70 -142q-161 76 -322 76q-234 0 -369 -155.5t-135 -426.5q0 -278 130.5 -430t371.5 -152q149 0 339 53v-144q-148 -55 -364 -55q-313 0 -483.5 190t-170.5 540z" />
<glyph unicode="&#x422;" horiz-adv-x="1099" d="M17 1272v146h1064v-146h-450v-1272h-164v1272h-450z" />
<glyph unicode="&#x423;" horiz-adv-x="1233" d="M26 1418h183l419 -806q24 -47 37 -93h8q27 81 38 103l348 796h175l-453 -1014q-82 -182 -147.5 -264.5t-147.5 -120.5t-202 -38q-107 0 -189 29v161q90 -42 183 -42q107 0 171.5 49t128.5 184z" />
<glyph unicode="&#x424;" horiz-adv-x="1584" d="M103 735q0 154 65.5 274t187.5 187.5t288 67.5h65v175h167v-175h68q166 0 287.5 -66t186 -186.5t64.5 -274.5q0 -161 -72 -286.5t-198 -188.5t-296 -63h-40v-218h-167v218h-44q-170 0 -295.5 64t-196 190t-70.5 282zM275 739q0 -191 107.5 -296t303.5 -105h23v784h-55 q-177 0 -278 -102.5t-101 -280.5zM876 338h24q195 0 303 106t108 295q0 180 -99.5 281.5t-279.5 101.5h-56v-784z" />
<glyph unicode="&#x425;" horiz-adv-x="1146" d="M8 0l471 741l-439 677h182l352 -561l355 561h176l-440 -671l474 -747h-187l-382 624l-388 -624h-174z" />
<glyph unicode="&#x426;" horiz-adv-x="1463" d="M195 0v1418h165v-1269h728v1269h165v-1269h167v-519h-156v370h-1069z" />
<glyph unicode="&#x427;" horiz-adv-x="1380" d="M165 855v563h165v-544q0 -117 61.5 -173.5t200.5 -56.5q94 0 179.5 14t249.5 68v692h165v-1418h-165v586q-144 -52 -240 -70.5t-199 -18.5q-201 0 -309 92t-108 266z" />
<glyph unicode="&#x428;" horiz-adv-x="2050" d="M195 0v1418h165v-1269h582v1269h165v-1269h582v1269h167v-1418h-1661z" />
<glyph unicode="&#x429;" horiz-adv-x="2052" d="M195 0v1418h165v-1269h565v1269h167v-1269h567v1269h165v-1269h166v-519h-157v370h-1638z" />
<glyph unicode="&#x42a;" horiz-adv-x="1366" d="M17 1272v146h491v-605h237q253 0 386 -99.5t133 -300.5q0 -200 -125.5 -306.5t-367.5 -106.5h-428v1272h-326zM508 143h245q175 0 257 67t82 203q0 132 -85 193t-281 61h-218v-524z" />
<glyph unicode="&#x42b;" horiz-adv-x="1694" d="M195 0v1418h165v-605h232q253 0 386 -99.5t133 -300.5q0 -200 -126 -306.5t-367 -106.5h-423zM360 141h239q176 0 258.5 68t82.5 204q0 133 -87 192.5t-281 59.5h-212v-524zM1335 0v1418h165v-1418h-165z" />
<glyph unicode="&#x42c;" horiz-adv-x="1277" d="M195 0v1418h165v-605h282q259 0 395.5 -102.5t136.5 -297.5q0 -197 -131.5 -305t-375.5 -108h-472zM360 143h290q353 0 353 270q0 131 -90.5 192.5t-290.5 61.5h-262v-524z" />
<glyph unicode="&#x42d;" horiz-adv-x="1251" d="M59 1357q167 82 396 82q210 0 362 -85.5t230.5 -243.5t78.5 -373q0 -365 -176.5 -560.5t-508.5 -195.5q-220 0 -371 55v144q80 -20 163.5 -36.5t179.5 -16.5q263 0 397 140t142 404h-698v148h696q-22 222 -153.5 347t-343.5 125q-167 0 -324 -74z" />
<glyph unicode="&#x42e;" horiz-adv-x="2085" d="M195 0v1418h165v-603h345q23 301 186 463t442 162q298 0 463.5 -194.5t165.5 -534.5q0 -343 -165 -536.5t-460 -193.5q-292 0 -457.5 178t-176.5 508h-343v-667h-165zM876 711q0 -287 115.5 -436.5t339.5 -149.5q227 0 342 148.5t115 437.5t-114 435.5t-339 146.5 q-226 0 -342.5 -148t-116.5 -434z" />
<glyph unicode="&#x42f;" horiz-adv-x="1263" d="M49 0l398 620q-156 49 -227 149.5t-71 253.5q0 190 131.5 292.5t398.5 102.5h390v-1418h-165v592h-288l-372 -592h-195zM322 1016q0 -283 368 -283h214v543h-220q-178 0 -270 -61.5t-92 -198.5z" />
<glyph unicode="&#x430;" horiz-adv-x="1104" d="M91 294q0 322 515 337l181 6v66q0 125 -54 185t-172 60q-133 0 -301 -82l-50 123q79 43 172.5 67.5t187.5 24.5q190 0 282 -84.5t92 -270.5v-726h-120l-32 151h-7q-80 -100 -159 -135t-197 -35q-158 0 -248 81.5t-90 231.5zM260 292q0 -87 53 -133t148 -46 q150 0 236 82.5t86 231.5v96l-161 -7q-192 -7 -277 -59.5t-85 -164.5z" />
<glyph unicode="&#x431;" horiz-adv-x="1184" d="M115 637q0 349 103 544.5t326 244.5q278 59 489 96l30 -142q-336 -56 -481 -89q-141 -32 -211 -151.5t-77 -324.5h12q60 81 155 127.5t199 46.5q196 0 305.5 -127t109.5 -352q0 -249 -127 -389t-354 -140q-224 0 -351.5 171.5t-127.5 484.5zM280 637q0 -255 80.5 -388.5 t247.5 -133.5q296 0 296 378q0 360 -269 360q-73 0 -141.5 -30.5t-125.5 -81t-88 -104.5z" />
<glyph unicode="&#x432;" horiz-adv-x="1130" d="M171 0v1063h466q396 0 396 -267q0 -103 -59.5 -157t-167.5 -73v-8q136 -19 198.5 -80t62.5 -169q0 -148 -109 -228.5t-319 -80.5h-468zM332 135h296q278 0 278 185q0 86 -65.5 125.5t-216.5 39.5h-292v-350zM332 624h272q150 0 211 36.5t61 120.5q0 77 -59.5 109.5 t-181.5 32.5h-303v-299z" />
<glyph unicode="&#x433;" horiz-adv-x="850" d="M171 0v1063h640v-138h-479v-925h-161z" />
<glyph unicode="&#x434;" d="M40 139h83q130 176 204 414t77 510h538v-924h152v-507h-156v368h-743v-368h-155v507zM290 139h497v797h-239q-13 -215 -83 -436t-175 -361z" />
<glyph unicode="&#x435;" horiz-adv-x="1114" d="M112 523q0 257 126.5 408.5t339.5 151.5q200 0 316.5 -131.5t116.5 -347.5v-102h-733q5 -187 95 -284t253 -97q171 0 339 72v-144q-85 -36 -161 -52t-184 -16q-236 0 -372 143.5t-136 398.5zM282 633h556q0 153 -68 234t-194 81q-128 0 -204 -83.5t-90 -231.5z" />
<glyph unicode="&#x436;" horiz-adv-x="1461" d="M4 0l481 546l-443 515h176l438 -515v515h148v-515l440 515h176l-444 -515l482 -546h-186l-468 538v-538h-148v538l-467 -538h-185z" />
<glyph unicode="&#x437;" horiz-adv-x="959" d="M66 49v148q177 -84 359 -84q140 0 211 48.5t71 138.5q0 185 -302 185h-147v137h115q302 0 302 167q0 157 -244 157q-75 0 -136 -13.5t-160 -54.5l-57 131q164 74 359 74q184 0 289.5 -75.5t105.5 -205.5q0 -178 -199 -234v-7q123 -36 179 -102.5t56 -166.5 q0 -147 -119 -229t-328 -82q-230 0 -355 68z" />
<glyph unicode="&#x438;" horiz-adv-x="1259" d="M171 0v1063h151v-674l-7 -177l-3 -55l576 906h200v-1063h-150v650l3 128l5 126l-574 -904h-201z" />
<glyph unicode="&#x439;" horiz-adv-x="1259" d="M171 0v1063h151v-674l-7 -177l-3 -55l576 906h200v-1063h-150v650l3 128l5 126l-574 -904h-201zM271 1502h152q8 -101 52.5 -141t153.5 -40q100 0 148 42.5t59 138.5h152q-11 -154 -97.5 -226t-265.5 -72t-261.5 69t-92.5 229z" />
<glyph unicode="&#x43a;" horiz-adv-x="1031" d="M171 0v1063h161v-517l459 517h176l-459 -513l497 -550h-188l-485 538v-538h-161z" />
<glyph unicode="&#x43b;" horiz-adv-x="1133" d="M16 -2v119q21 -5 48 -5q112 0 177.5 235.5t99.5 715.5h622v-1063h-163v925h-319q-26 -345 -72.5 -547.5t-121 -297t-188.5 -94.5q-52 0 -83 12z" />
<glyph unicode="&#x43c;" horiz-adv-x="1459" d="M171 0v1061h197l278 -674q42 -107 77 -232l30 90l41 115l289 701h204v-1061h-142v878l-20 -56l-56 -149l-275 -673h-134l-275 675q-51 130 -71 203v-878h-143z" />
<glyph unicode="&#x43d;" horiz-adv-x="1259" d="M171 0v1063h161v-445h595v445h161v-1063h-161v479h-595v-479h-161z" />
<glyph unicode="&#x43e;" horiz-adv-x="1199" d="M112 533q0 259 130 404.5t360 145.5q223 0 354.5 -148.5t131.5 -401.5q0 -260 -131 -406t-361 -146q-143 0 -253.5 66.5t-170.5 192t-60 293.5zM278 533q0 -204 81.5 -311t239.5 -107q159 0 241 106.5t82 311.5q0 202 -82 307.5t-242 105.5q-159 0 -239.5 -104 t-80.5 -309z" />
<glyph unicode="&#x43f;" horiz-adv-x="1233" d="M171 0v1063h892v-1063h-163v923h-568v-923h-161z" />
<glyph unicode="&#x440;" horiz-adv-x="1217" d="M171 -477v1540h131l22 -145h8q62 87 144.5 126t188.5 39q212 0 327 -145t115 -405q0 -262 -117 -407t-325 -145q-103 0 -189 38t-144 118h-12q12 -93 12 -177v-437h-161zM332 533q0 -225 74.5 -321.5t239.5 -96.5q138 0 216 112t78 307q0 199 -78 305.5t-220 106.5 q-163 0 -235.5 -90.5t-74.5 -287.5v-35z" />
<glyph unicode="&#x441;" horiz-adv-x="945" d="M112 525q0 267 128.5 412.5t365.5 145.5q77 0 153.5 -16.5t120.5 -39.5l-50 -137q-53 22 -116 36t-112 14q-324 0 -324 -413q0 -196 79 -301t235 -105q133 0 272 57v-142q-106 -55 -268 -55q-231 0 -357.5 142t-126.5 402z" />
<glyph unicode="&#x442;" horiz-adv-x="927" d="M40 925v138h848v-138h-346v-925h-161v925h-341z" />
<glyph unicode="&#x443;" horiz-adv-x="1001" d="M2 1063h173l232 -606q77 -208 95 -300h8q13 50 53 169.5t263 736.5h173l-457 -1210q-68 -180 -158.5 -255t-222.5 -75q-74 0 -145 16v129q53 -11 119 -11q166 0 237 186l59 151z" />
<glyph unicode="&#x444;" horiz-adv-x="1420" d="M110 533q0 241 139 383.5t386 162.5v430h154v-430q243 -23 382 -168.5t139 -377.5q0 -242 -137.5 -385t-383.5 -164v-461h-159v461q-241 19 -380.5 165.5t-139.5 383.5zM278 533q0 -187 85.5 -292.5t271.5 -123.5v827q-179 -17 -268 -117t-89 -294zM789 117 q184 19 269 124.5t85 291.5q0 371 -354 409v-825z" />
<glyph unicode="&#x445;" horiz-adv-x="1040" d="M38 0l389 544l-370 519h184l280 -407l279 407h182l-370 -519l389 -544h-182l-298 431l-301 -431h-182z" />
<glyph unicode="&#x446;" horiz-adv-x="1243" d="M171 0v1063h161v-924h564v924h161v-924h151v-507h-161v368h-876z" />
<glyph unicode="&#x447;" horiz-adv-x="1207" d="M151 663v400h161v-388q0 -186 213 -186q88 0 168.5 27t182.5 92v455h161v-1063h-161v481q-102 -70 -189 -98.5t-196 -28.5q-159 0 -249.5 83.5t-90.5 225.5z" />
<glyph unicode="&#x448;" horiz-adv-x="1768" d="M171 0v1063h161v-924h470v924h161v-924h472v924h163v-1063h-1427z" />
<glyph unicode="&#x449;" horiz-adv-x="1781" d="M171 0v1061h161v-922h470v922h161v-922h472v922h161v-922h152v-505h-163v366h-1414z" />
<glyph unicode="&#x44a;" horiz-adv-x="1380" d="M40 925v138h500v-439h304q217 0 321.5 -75t104.5 -225q0 -161 -108.5 -242.5t-321.5 -81.5h-461v925h-339zM540 135h304q267 0 267 179q0 90 -60.5 130.5t-212.5 40.5h-298v-350z" />
<glyph unicode="&#x44b;" horiz-adv-x="1529" d="M171 0v1063h161v-439h290q202 0 299.5 -75.5t97.5 -224.5q0 -160 -103 -242t-304 -82h-441zM332 135h272q256 0 256 179q0 90 -59 130.5t-202 40.5h-267v-350zM1198 0v1063h161v-1063h-161z" />
<glyph unicode="&#x44c;" horiz-adv-x="1175" d="M171 0v1063h161v-439h328q407 0 407 -300q0 -157 -106 -240.5t-311 -83.5h-479zM332 135h310q128 0 196 44.5t68 134.5q0 89 -62.5 130t-206.5 41h-305v-350z" />
<glyph unicode="&#x44d;" horiz-adv-x="977" d="M55 36v142q58 -22 126 -39.5t157 -17.5q168 0 260 90.5t101 269.5h-538v137h536q-15 167 -97 244.5t-238 77.5q-100 0 -247 -52l-45 135q53 26 132.5 43t157.5 17q248 0 377 -142.5t129 -409.5q0 -261 -140 -405.5t-394 -144.5q-162 0 -277 55z" />
<glyph unicode="&#x44e;" horiz-adv-x="1650" d="M171 0v1063h161v-445h280q19 221 141.5 343t323.5 122q213 0 337.5 -148t124.5 -402q0 -261 -124.5 -406.5t-341.5 -145.5q-207 0 -328 129.5t-135 368.5h-278v-479h-161zM777 533q0 -205 71 -311.5t227 -106.5q153 0 225.5 103.5t72.5 314.5q0 203 -71 308t-227 105 t-227 -105t-71 -308z" />
<glyph unicode="&#x44f;" horiz-adv-x="1102" d="M36 0l305 449q-123 27 -188.5 105t-65.5 197q0 145 98 228.5t274 83.5h473v-1063h-161v425h-269l-278 -425h-188zM244 749q0 -184 268 -184h259v358h-292q-235 0 -235 -174z" />
<glyph unicode="&#x450;" horiz-adv-x="1114" d="M112 523q0 257 126.5 408.5t339.5 151.5q200 0 316.5 -131.5t116.5 -347.5v-102h-733q5 -187 95 -284t253 -97q171 0 339 72v-144q-85 -36 -161 -52t-184 -16q-236 0 -372 143.5t-136 398.5zM282 633h556q0 153 -68 234t-194 81q-128 0 -204 -83.5t-90 -231.5zM310 1502 v20h197q31 -67 86.5 -155t97.5 -139v-24h-106q-63 50 -149.5 143t-125.5 155z" />
<glyph unicode="&#x451;" horiz-adv-x="1114" d="M112 523q0 257 126.5 408.5t339.5 151.5q200 0 316.5 -131.5t116.5 -347.5v-102h-733q5 -187 95 -284t253 -97q171 0 339 72v-144q-85 -36 -161 -52t-184 -16q-236 0 -372 143.5t-136 398.5zM282 633h556q0 153 -68 234t-194 81q-128 0 -204 -83.5t-90 -231.5zM308 1351 q0 51 25.5 73t61.5 22q37 0 63.5 -22t26.5 -73q0 -48 -26.5 -72t-63.5 -24q-36 0 -61.5 24t-25.5 72zM677 1351q0 51 26 73t62 22q35 0 62 -22t27 -73q0 -48 -27 -72t-62 -24q-36 0 -62 24t-26 72z" />
<glyph unicode="&#x452;" horiz-adv-x="1219" d="M19 1206v123h152v180h161v-180h389v-123h-389v-190q0 -82 -8 -136h10q47 76 135 120.5t200 44.5q195 0 292.5 -93t97.5 -296v-817q0 -151 -66.5 -233.5t-201.5 -82.5q-77 0 -128 24v133q57 -20 110 -20q125 0 125 165v825q0 130 -59 194t-185 64q-168 0 -244 -91 t-76 -296v-521h-163v1206h-152z" />
<glyph unicode="&#x453;" horiz-adv-x="850" d="M171 0v1063h640v-138h-479v-925h-161zM366 1204v24q47 60 100.5 145.5t84.5 148.5h196v-20q-42 -63 -126.5 -155.5t-146.5 -142.5h-108z" />
<glyph unicode="&#x454;" horiz-adv-x="977" d="M112 527q0 266 133 411t377 145q79 0 156 -16t132 -40l-48 -137q-138 50 -244 50q-159 0 -241.5 -79t-98.5 -243h537v-137h-539q9 -184 91.5 -272t244.5 -88q136 0 282 57v-142q-112 -55 -280 -55q-241 0 -371.5 141t-130.5 405z" />
<glyph unicode="&#x455;" horiz-adv-x="947" d="M103 802q0 130 105.5 205.5t290.5 75.5q171 0 335 -70l-57 -131q-160 66 -290 66q-115 0 -173 -36t-58 -99q0 -43 22 -73t70.5 -57t185.5 -79q190 -69 256.5 -138.5t66.5 -175.5q0 -148 -111 -228.5t-310 -80.5q-212 0 -330 67v149q76 -39 164 -61.5t169 -22.5 q127 0 194.5 40.5t67.5 122.5q0 63 -53.5 107t-210.5 104q-148 55 -210.5 96.5t-93 93.5t-30.5 125z" />
<glyph unicode="&#x456;" horiz-adv-x="502" d="M157 1351q0 55 27 81t68 26q39 0 67 -26t28 -81q0 -54 -28 -80.5t-67 -26.5q-41 0 -68 26.5t-27 80.5zM171 0v1063h161v-1063h-161z" />
<glyph unicode="&#x457;" horiz-adv-x="502" d="M-19 1351q0 51 25.5 73t61.5 22q37 0 63.5 -22t26.5 -73q0 -48 -26.5 -72t-63.5 -24q-36 0 -61.5 24t-25.5 72zM171 0v1063h161v-1063h-161zM350 1351q0 51 26 73t62 22q35 0 62 -22t27 -73q0 -48 -27 -72t-62 -24q-36 0 -62 24t-26 72z" />
<glyph unicode="&#x458;" horiz-adv-x="502" d="M-108 -322q67 -19 132 -19q76 0 111.5 41t35.5 125v1238h161v-1226q0 -314 -290 -314q-92 0 -150 24v131zM157 1351q0 55 27 81t68 26q39 0 67 -26t28 -81q0 -54 -28 -80.5t-67 -26.5q-41 0 -68 26.5t-27 80.5z" />
<glyph unicode="&#x459;" horiz-adv-x="1662" d="M16 -2v119q21 -5 48 -5q112 0 177.5 235.5t99.5 715.5h575v-439h236q205 0 303.5 -75.5t98.5 -224.5q0 -324 -424 -324h-399v925h-250q-39 -502 -126.5 -720.5t-253.5 -218.5q-54 0 -85 12zM894 135h230q269 0 269 179q0 89 -60.5 130t-214.5 41h-224v-350z" />
<glyph unicode="&#x45a;" horiz-adv-x="1760" d="M171 0v1061h167v-443h490v443h165v-439h249q210 0 308.5 -74.5t98.5 -223.5q0 -324 -421 -324h-404v479h-486v-479h-167zM989 135h233q268 0 268 179q0 90 -62 130.5t-211 40.5h-228v-350z" />
<glyph unicode="&#x45b;" horiz-adv-x="1219" d="M19 1206v123h152v180h161v-180h435v-123h-435v-190q0 -82 -8 -136h10q47 76 135 120.5t200 44.5q195 0 292.5 -93t97.5 -296v-656h-161v650q0 130 -59 194t-185 64q-169 0 -245.5 -90t-76.5 -297v-521h-161v1206h-152z" />
<glyph unicode="&#x45c;" horiz-adv-x="1031" d="M171 0v1063h161v-517l459 517h176l-459 -513l497 -550h-188l-485 538v-538h-161zM430 1204v24q47 60 100.5 145.5t84.5 148.5h196v-20q-42 -63 -126.5 -155.5t-146.5 -142.5h-108z" />
<glyph unicode="&#x45d;" horiz-adv-x="1259" d="M171 0v1063h151v-674l-7 -177l-3 -55l576 906h200v-1063h-150v650l3 128l5 126l-574 -904h-201zM346 1502v20h197q31 -67 86.5 -155t97.5 -139v-24h-106q-63 50 -149.5 143t-125.5 155z" />
<glyph unicode="&#x45e;" horiz-adv-x="1001" d="M2 1063h173l232 -606q77 -208 95 -300h8q13 50 53 169.5t263 736.5h173l-457 -1210q-68 -180 -158.5 -255t-222.5 -75q-74 0 -145 16v129q53 -11 119 -11q166 0 237 186l59 151zM141 1502h152q8 -101 52.5 -141t153.5 -40q100 0 148 42.5t59 138.5h152 q-11 -154 -97.5 -226t-265.5 -72t-261.5 69t-92.5 229z" />
<glyph unicode="&#x45f;" horiz-adv-x="1233" d="M171 0v1061h161v-922h568v922h161v-1061h-358v-366h-161v366h-371z" />
<glyph unicode="&#x460;" horiz-adv-x="2008" d="M129 743q0 329 123.5 511.5t345.5 182.5q148 0 268 -78l-68 -142q-43 30 -88.5 50t-103.5 20q-142 0 -222 -144t-80 -402q0 -292 100 -454t282 -162q135 0 234 74v443h164v-443q99 -74 237 -74q182 0 281.5 160.5t99.5 455.5q0 259 -80 402.5t-221 143.5 q-59 0 -104.5 -20t-88.5 -50l-67 142q122 78 267 78q222 0 346.5 -182.5t124.5 -511.5q0 -360 -137.5 -561t-384.5 -201q-105 0 -188.5 21.5t-163.5 71.5h-8q-77 -49 -159 -71t-186 -22q-248 0 -385.5 199t-137.5 563z" />
<glyph unicode="&#x461;" horiz-adv-x="1626" d="M0 1063h167l238 -674q31 -90 76 -274h8q18 52 54 131t174 362l-167 455h173q257 -746 278.5 -815.5t31.5 -112.5h8q168 178 242 389t74 539h161q0 -351 -94.5 -596t-307.5 -467h-176l-121 336q-32 89 -36 107q-10 -25 -19.5 -49.5t-183.5 -393.5h-207z" />
<glyph unicode="&#x462;" horiz-adv-x="1340" d="M22 1092v144h310v273h167v-273h405v-144h-405v-279h195q544 0 544 -400q0 -202 -128.5 -307.5t-381.5 -105.5h-396v1092h-310zM499 141h206q186 0 274 66.5t88 205.5q0 134 -90 193t-302 59h-176v-524z" />
<glyph unicode="&#x463;" horiz-adv-x="1255" d="M22 927v136h228v216h161v-216h334v-136h-334v-305h310q424 0 424 -298q0 -161 -108.5 -242.5t-321.5 -81.5h-465v927h-228zM411 135h296q279 0 279 179q0 90 -65.5 130.5t-217.5 40.5h-292v-350z" />
<glyph unicode="&#x464;" horiz-adv-x="1825" d="M195 0v1418h165v-603h345q29 298 208 460t474 164q207 0 383 -90l-70 -141q-97 46 -173 64.5t-147 18.5q-220 0 -346 -121t-156 -355h682v-146h-686q8 -265 136.5 -403.5t367.5 -138.5q150 0 338 53v-144q-148 -55 -363 -55q-309 0 -477.5 178.5t-176.5 507.5h-339v-667 h-165z" />
<glyph unicode="&#x465;" horiz-adv-x="1461" d="M171 0v1063h161v-447h280q23 228 153.5 347.5t347.5 119.5q78 0 153 -16t127 -40l-49 -137q-133 50 -231 50q-159 0 -240 -79.5t-96 -244.5h520v-137h-522q9 -182 91 -270t241 -88q59 0 116.5 11t152.5 46v-142q-106 -55 -267 -55q-228 0 -358 129t-141 369h-278v-479 h-161z" />
<glyph unicode="&#x466;" horiz-adv-x="1347" d="M0 0l598 1418h153l596 -1418h-177l-278 662h-143v-662h-151v662h-145l-280 -662h-173zM514 806h322l-79 201q-55 140 -84 237q-23 -96 -85 -255z" />
<glyph unicode="&#x467;" horiz-adv-x="1120" d="M10 0l451 1063h199l451 -1063h-167l-201 474h-110v-474h-146v474h-112l-198 -474h-167zM429 610h263q-42 105 -69 172t-60 170h-9q-27 -90 -125 -342z" />
<glyph unicode="&#x468;" horiz-adv-x="1829" d="M195 0v1418h165v-603h466l255 603h153l595 -1418h-182l-276 667h-139v-667h-149v667h-143l-277 -667h-180l281 667h-404v-667h-165zM1001 815h309q-115 300 -128.5 341.5t-25.5 87.5q-18 -65 -35 -115.5t-120 -313.5z" />
<glyph unicode="&#x469;" horiz-adv-x="1521" d="M171 0v1063h161v-447h339l191 447h199l448 -1063h-165l-201 479h-110v-479h-147v479h-107l-203 -479h-167l203 479h-280v-479h-161zM828 616h260l-125 336h-8q-9 -33 -24.5 -79.5t-102.5 -256.5z" />
<glyph unicode="&#x46a;" horiz-adv-x="1432" d="M19 0l132 439q46 155 94 223.5t120 104t187 42.5l-399 480v129h1128v-129l-409 -480q114 -6 189 -41t123.5 -102.5t96.5 -226.5l129 -439h-168l-133 443q-34 108 -67 154.5t-82 65t-136 18.5h-26v-681h-165v681h-25q-88 0 -136 -19t-79.5 -65t-62.5 -154l-131 -443h-180z M347 1270l368 -442l368 442h-736z" />
<glyph unicode="&#x46b;" horiz-adv-x="1275" d="M12 0l127 326q23 59 46.5 110t58.5 89.5t88.5 62.5t137.5 32l-324 341v102h982v-102l-328 -341q85 -7 138.5 -30.5t89 -62t59.5 -89.5t174 -438h-167l-129 326q-33 84 -61 118.5t-69 48t-114 13.5h-10v-506h-148v506h-11q-73 0 -112.5 -12.5t-67 -43.5t-65.5 -122 l-130 -328h-165zM351 927l284 -309l287 309h-571z" />
<glyph unicode="&#x46c;" horiz-adv-x="1935" d="M195 0v1418h165v-603h705l-396 474v129h1128v-129l-406 -483q116 -6 190.5 -41t123.5 -104.5t92 -221.5l132 -439h-163l-133 443q-31 101 -64.5 149t-84.5 67.5t-143 19.5h-24v-679h-167v679h-24q-91 0 -139.5 -19.5t-80.5 -65.5t-64 -151l-131 -443h-173l131 433 q54 178 108 234h-417v-667h-165zM866 1270l368 -444l367 444h-735z" />
<glyph unicode="&#x46d;" horiz-adv-x="1681" d="M171 0v1063h161v-445h548l-326 343v102h983v-102l-327 -343q85 -7 139 -30.5t89 -61.5t58.5 -89t173.5 -437h-166l-130 326q-32 83 -60.5 117t-70 47.5t-113.5 13.5h-10v-504h-149v504h-10q-72 0 -113 -13t-67.5 -43.5t-63.5 -119.5l-131 -328h-165l127 326 q46 116 82 155h-298v-481h-161zM760 927l285 -303l286 303h-571z" />
<glyph unicode="&#x46e;" horiz-adv-x="1156" d="M61 -131q0 122 105.5 184.5t330.5 71.5q198 8 285.5 75t87.5 204q0 259 -434 259h-212v139h203q199 0 308 71.5t109 199.5q0 104 -78.5 166t-211.5 62q-103 0 -193.5 -27t-197.5 -94l-83 111q162 111 347 138q-55 64 -169 181l-48 51v26h120q89 -57 216 -189 q89 111 152.5 153t125.5 42q49 0 96 -14v-110q-24 10 -65 10q-43 0 -97 -39.5t-100 -108.5q172 -23 266 -114.5t94 -230.5q0 -135 -93 -224.5t-258 -114.5v-8q181 -23 279.5 -109.5t98.5 -225.5q0 -202 -137.5 -305.5t-410.5 -112.5q-134 -4 -199 -31t-65 -88 q0 -53 42 -77.5t129 -24.5q94 0 210 7q116 6 184 6q151 0 220 -38v-161q-78 49 -233 49q-66 0 -168 -4q-102 -5 -204 -5q-173 0 -262.5 60.5t-89.5 189.5z" />
<glyph unicode="&#x46f;" horiz-adv-x="959" d="M24 -121q0 112 92.5 173t266.5 63q324 4 324 189q0 94 -75.5 137.5t-229.5 43.5h-144v137h115q302 0 302 167q0 157 -244 157q-72 0 -141.5 -16.5t-154.5 -51.5l-57 131q120 53 242 68q-89 113 -189 208v26h119q73 -50 209 -183q85 107 150 148t128 41q50 0 93 -14v-109 q-23 10 -63 10q-45 0 -95 -38.5t-94 -98.5q118 -27 186 -94t68 -171q0 -178 -204 -234v-7q240 -69 240 -265q0 -144 -117.5 -225.5t-335.5 -84.5q-90 -2 -143 -13t-76 -31.5t-23 -62.5q0 -48 36 -68.5t123 -20.5q83 0 202 4l169 5q121 0 159 -38v-138q-20 18 -61 29.5 t-94 11.5l-173 -4q-127 -5 -216 -5q-140 0 -217 57.5t-77 166.5z" />
<glyph unicode="&#x470;" horiz-adv-x="1581" d="M106 950v468h169v-464q0 -183 100 -280.5t306 -97.5h26v842h165v-842h28q205 0 305.5 96t100.5 278v468h170v-466q0 -160 -69.5 -280t-195.5 -179.5t-295 -59.5h-44v-433h-165v433h-44q-170 0 -294 59t-193.5 179t-69.5 279z" />
<glyph unicode="&#x471;" horiz-adv-x="1495" d="M159 536v527h161v-532q0 -190 87.5 -295.5t265.5 -118.5v1390h159v-1388q183 15 281.5 127t98.5 310q0 116 -13 230t-49 277h161q62 -264 62 -500q0 -268 -138.5 -416.5t-402.5 -163.5v-460h-159v460q-256 8 -385 149t-129 404z" />
<glyph unicode="&#x472;" horiz-adv-x="1549" d="M121 713q0 346 171 536.5t485 190.5q306 0 477.5 -194t171.5 -535q0 -340 -172 -535t-479 -195q-313 0 -483.5 191.5t-170.5 540.5zM298 650q12 -259 133 -392t344 -133q222 0 342 132.5t132 392.5h-951zM298 794h949q-16 247 -134.5 373t-335.5 126t-339 -125t-140 -374 z" />
<glyph unicode="&#x473;" horiz-adv-x="1199" d="M112 533q0 259 130 404.5t360 145.5q223 0 354.5 -148.5t131.5 -401.5q0 -260 -131 -406t-361 -146q-143 0 -253.5 66.5t-170.5 192t-60 293.5zM278 479q9 -180 86.5 -272t234.5 -92q154 0 233.5 89.5t89.5 274.5h-644zM280 616h640q-15 163 -93 246.5t-229 83.5 q-152 0 -228.5 -84t-89.5 -246z" />
<glyph unicode="&#x474;" horiz-adv-x="1243" d="M0 1418h175l327 -910q70 -193 104 -331q31 139 99 356l157 502q58 185 98.5 259t94 105.5t139.5 31.5q41 0 117 -19v-136q-54 19 -99 19q-58 0 -95.5 -50t-93.5 -226l-318 -1019h-191z" />
<glyph unicode="&#x475;" horiz-adv-x="1004" d="M0 1063h169l218 -594q97 -260 115 -357h8q23 114 102 373l93 300q36 118 70.5 177.5t78.5 85t126 25.5q43 0 72 -10v-123q-28 8 -65 8q-45 0 -73 -41t-56 -130l-240 -777h-224z" />
<glyph unicode="&#x476;" horiz-adv-x="1243" d="M0 1418h175l327 -910q70 -193 104 -331q31 139 99 356l157 502q58 185 98.5 259t94 105.5t139.5 31.5q41 0 117 -19v-136q-54 19 -99 19q-58 0 -95.5 -50t-93.5 -226l-318 -1019h-191zM183 1830v20h181q27 -59 75 -143.5t96 -150.5v-24h-93q-55 42 -139.5 139t-119.5 159 zM529 1830v20h180q27 -59 75 -143.5t96 -150.5v-24h-93q-51 41 -136.5 138.5t-121.5 159.5z" />
<glyph unicode="&#x477;" horiz-adv-x="1004" d="M0 1063h169l218 -594q97 -260 115 -357h8q23 114 102 373l93 300q36 118 70.5 177.5t78.5 85t126 25.5q43 0 72 -10v-123q-28 8 -65 8q-45 0 -73 -41t-56 -130l-240 -777h-224zM71 1502v20h181q27 -59 75 -143.5t96 -150.5v-24h-93q-55 42 -139.5 139t-119.5 159z M417 1502v20h180q27 -59 75 -143.5t96 -150.5v-24h-93q-51 41 -136.5 138.5t-121.5 159.5z" />
<glyph unicode="&#x478;" horiz-adv-x="2401" d="M121 713q0 347 157 537t448 190q282 0 439.5 -194t157.5 -535t-158.5 -535.5t-441.5 -194.5q-288 0 -445 191.5t-157 540.5zM296 711q0 -288 108 -437t319 -149t318 148t107 438q0 288 -106.5 435t-315.5 147q-212 0 -321 -146.5t-109 -435.5zM1397 1063h171l238 -610 q76 -201 95 -300h8q11 43 51 164.5t261 745.5h171l-455 -1210q-67 -177 -158 -253.5t-223 -76.5q-74 0 -146 16v129q54 -11 118 -11q91 0 147.5 50t90.5 136l60 151z" />
<glyph unicode="&#x479;" horiz-adv-x="2107" d="M112 533q0 259 130 404.5t360 145.5q223 0 354.5 -148.5t131.5 -401.5q0 -260 -131 -406t-361 -146q-143 0 -253.5 66.5t-170.5 192t-60 293.5zM278 533q0 -204 81.5 -311t239.5 -107q159 0 241 106.5t82 311.5q0 202 -82 307.5t-242 105.5q-159 0 -239.5 -104 t-80.5 -309zM1109 1063h173l232 -606q77 -208 95 -300h8q13 50 53 169.5t263 736.5h173l-457 -1210q-68 -180 -158.5 -255t-222.5 -75q-74 0 -145 16v129q53 -11 119 -11q166 0 237 186l59 151z" />
<glyph unicode="&#x47a;" horiz-adv-x="1626" d="M121 713q0 296 145 484.5t409 231.5q20 105 140 105q117 0 139 -105q259 -43 405 -235.5t146 -482.5q0 -293 -146.5 -485.5t-403.5 -235.5q-25 -107 -140 -107q-120 0 -140 107q-260 40 -407 231t-147 492zM296 711q0 -237 98 -385t281 -187q17 46 52 64.5t88 18.5 q107 0 137 -83q183 39 281 187t98 385t-98 384t-281 184q-30 -85 -137 -85q-110 0 -140 83q-183 -37 -281 -183t-98 -383z" />
<glyph unicode="&#x47b;" horiz-adv-x="1305" d="M112 533q0 226 108.5 365.5t310.5 174.5q7 54 37 74.5t86 20.5q54 0 85 -21t40 -76q196 -37 305.5 -178.5t109.5 -359.5q0 -226 -108.5 -366.5t-306.5 -176.5q-9 -52 -40 -74t-85 -22q-56 0 -85.5 21t-37.5 75q-197 35 -308 177.5t-111 365.5zM278 533q0 -172 61 -274 t194 -132q11 41 40 57.5t81 16.5q100 0 123 -72q130 30 190 132t60 272q0 341 -252 401q-13 -41 -42.5 -56.5t-78.5 -15.5q-52 0 -81 15.5t-40 58.5q-133 -30 -194 -131.5t-61 -271.5z" />
<glyph unicode="&#x47c;" horiz-adv-x="1984" d="M121 743q0 331 125 512.5t346 181.5q149 0 266 -80l-67 -142q-42 30 -87.5 51t-104.5 21q-143 0 -223 -143t-80 -403q0 -294 102 -455t283 -161q85 0 168 32t142 93q54 -55 137 -90t173 -35q182 0 284 162t102 454q0 259 -80 402.5t-223 143.5q-58 0 -104 -21t-88 -51 l-68 142q118 80 267 80q221 0 345.5 -182.5t124.5 -511.5q0 -361 -139.5 -561.5t-390.5 -200.5q-101 0 -183.5 19t-156.5 66q-72 -44 -153 -64.5t-188 -20.5q-252 0 -390.5 200t-138.5 562zM681 1810v27q0 100 56 153.5t165 53.5q56 0 110.5 -17.5t112 -39t122 -39 t140.5 -17.5h12v-117h-17q-81 0 -150 17.5t-127 38.5t-107.5 38t-91.5 17q-46 0 -75 -25t-29 -74v-16h-121zM890 1500v69q117 40 117 92q0 19 -15 28t-32.5 17t-32.5 20.5t-15 39.5q0 71 89 71q54 0 86.5 -33t32.5 -88q0 -157 -230 -216z" />
<glyph unicode="&#x47d;" horiz-adv-x="1605" d="M112 525q0 270 100 414t281 144q60 0 117.5 -16t96.5 -40l-55 -135q-86 50 -155 50q-113 0 -166 -104t-53 -311q0 -406 296 -406q120 0 228 78q60 -41 114 -59.5t119 -18.5q292 0 292 406q0 207 -53.5 311t-164.5 104q-69 0 -155 -50l-56 135q39 24 96.5 40t118.5 16 q181 0 281 -144.5t100 -413.5q0 -259 -120 -401.5t-339 -142.5q-144 0 -235 63q-89 -63 -228 -63q-218 0 -339 141t-121 403zM459 1509v30q0 97 55.5 151t164.5 54q56 0 111 -18t112 -39t120.5 -38.5t139.5 -17.5h14v-117h-16q-81 0 -150.5 17.5t-127.5 38t-107 38t-91 17.5 q-104 0 -104 -99v-17h-121zM667 1200v70q116 39 116 93q0 19 -14.5 27.5t-32 16.5t-32 20t-14.5 39q0 71 89 71q54 0 86.5 -33t32.5 -88q0 -156 -231 -216z" />
<glyph unicode="&#x47e;" horiz-adv-x="1954" d="M91 743q0 331 124.5 512.5t347.5 181.5q145 0 267 -78l-68 -142q-43 30 -88 50t-104 20q-142 0 -222 -144t-80 -402q0 -294 101.5 -455t286.5 -161q63 0 126 18.5t112 55.5v443h165v-443q99 -74 240 -74q182 0 285 160t103 456q0 259 -80 402.5t-223 143.5 q-58 0 -103 -20t-89 -50l-68 142q121 78 269 78q221 0 344.5 -182.5t123.5 -511.5q0 -362 -138.5 -562t-389.5 -200q-113 0 -196.5 23t-156.5 70h-9q-76 -48 -159.5 -70.5t-191.5 -22.5q-252 0 -390.5 201.5t-138.5 560.5zM574 1716v26h802v-26l-77 -167h-31l-49 100h-180 l-48 -100h-32l-47 100h-183l-45 -100h-32z" />
<glyph unicode="&#x47f;" horiz-adv-x="1626" d="M0 1063h167l238 -674q38 -108 78 -274h8q11 34 28 73.5t198 419.5l-167 455h173q257 -746 278.5 -815.5t31.5 -112.5h8q168 178 242 389t74 539h161q0 -351 -94.5 -596t-307.5 -467h-176l-121 336q-32 89 -36 107l-38 -92l-165 -351h-207zM368 1374v27h802v-27l-80 -166 h-29l-48 100h-183l-47 -100h-30l-48 100h-182l-49 -100h-29z" />
<glyph unicode="&#x480;" horiz-adv-x="1269" d="M121 711q0 217 85 383t244 255.5t369 89.5q230 0 394 -82l-68 -142q-166 76 -330 76q-238 0 -377.5 -155t-139.5 -427q0 -285 129 -430.5t379 -145.5q108 0 163 22v-632h-165v458h-19q-321 0 -492.5 188t-171.5 542z" />
<glyph unicode="&#x481;" horiz-adv-x="969" d="M112 525q0 267 132 412.5t376 145.5q76 0 156 -16.5t126 -39.5l-47 -137q-138 50 -239 50q-172 0 -255 -99.5t-83 -313.5t83 -311t249 -97q52 0 90.5 8.5t93.5 33.5v-638h-161v458h-23q-246 0 -372 139t-126 405z" />
<glyph unicode="&#x482;" horiz-adv-x="1209" d="M103 534l64 112l280 -163l199 345l-280 161l65 114l280 -163l179 307l115 -65l-179 -310l281 -161l-66 -112l-279 161l-197 -343l277 -163l-63 -111l-280 161l-177 -308l-117 65l176 312z" />
<glyph unicode="&#x483;" horiz-adv-x="1106" d="M197 1234q0 51 20.5 71t72.5 20h436q5 45 26 68t67 23q49 0 71 -23.5t22 -73.5q0 -54 -21.5 -73.5t-73.5 -19.5h-438q-6 -44 -26 -68t-67 -24q-49 0 -69 24t-20 76z" />
<glyph unicode="&#x484;" horiz-adv-x="1146" d="M241 1219v118h11q117 0 262 57q145 56 223 56q108 0 164 -54t56 -151v-30h-121v17q0 99 -103 99q-41 0 -90.5 -17.5t-108.5 -38.5t-127.5 -38.5t-150.5 -17.5h-15z" />
<glyph unicode="&#x485;" horiz-adv-x="1146" d="M465 1420q0 54 32.5 87.5t86.5 33.5q89 0 89 -73q0 -27 -14.5 -39t-32 -19.5t-32 -16.5t-14.5 -28q0 -53 115 -91v-72q-230 62 -230 218z" />
<glyph unicode="&#x486;" horiz-adv-x="1146" d="M467 1202v72q115 38 115 91q0 19 -14.5 28t-32 16.5t-32 19.5t-14.5 39q0 73 89 73q54 0 86.5 -33.5t32.5 -87.5q0 -156 -230 -218z" />
<glyph unicode="&#x488;" horiz-adv-x="1964" d="M40 445q5 88 54 138t148 50q90 0 145.5 -49.5t61.5 -138.5h-77q-5 44 -34.5 65t-95.5 21q-75 0 -99.5 -19t-29.5 -67h-73zM212 -40q5 88 54 138.5t149 50.5q89 0 145 -49.5t62 -139.5h-78q-5 44 -34 65t-95 21q-75 0 -99.5 -19t-29.5 -67h-74zM212 918q5 87 54 138 t149 51q89 0 145 -49.5t62 -139.5h-78q-5 43 -34 64t-95 21q-75 0 -99.5 -19t-29.5 -66h-74zM769 -309q5 86 53.5 137t148.5 51q89 0 145 -49.5t62 -138.5h-77q-5 42 -34 63.5t-96 21.5q-76 0 -100 -20t-29 -65h-73zM769 1194q11 188 202 188q90 0 145 -49t62 -139h-77 q-5 43 -34 64t-96 21q-76 0 -100 -19.5t-29 -65.5h-73zM1331 -40q5 88 54 138.5t149 50.5q89 0 144.5 -49.5t61.5 -139.5h-77q-5 44 -34 65t-95 21q-76 0 -100.5 -19t-28.5 -67h-74zM1331 918q5 87 54 138t149 51q89 0 144.5 -49.5t61.5 -139.5h-77q-5 43 -34 64t-95 21 q-76 0 -100.5 -19t-28.5 -66h-74zM1516 445q11 188 203 188q89 0 145 -50t61 -138h-77q-5 43 -34 64.5t-95 21.5q-76 0 -100.5 -19.5t-29.5 -66.5h-73z" />
<glyph unicode="&#x489;" horiz-adv-x="1899" d="M40 548v94q214 -51 339 -68v-135l-13 -10q-64 16 -157 50t-169 69zM231 -53q172 106 288 192l95 -95l-2 -16q-150 -86 -314 -147zM314 1166l65 68q120 -192 193 -288l-95 -95l-16 2q-80 135 -147 313zM844 -373q51 214 68 339h135l10 -14q-16 -64 -50 -156.5t-69 -168.5 h-94zM844 1120q18 69 53.5 166t65.5 160h94q-50 -213 -68 -339h-134zM1285 987l2 16q65 38 157 80.5t157 66.5l67 -66q-171 -106 -288 -192zM1325 83l95 95l17 -1q37 -67 81 -161.5t65 -152.5l-65 -68q-30 49 -93 143.5t-100 144.5zM1520 497v134l14 11q68 -18 165 -53.5 t160 -65.5v-94q-214 51 -339 68z" />
<glyph unicode="&#x48a;" horiz-adv-x="1529" d="M195 0v1418h156v-790q0 -115 -10 -315l-3 -80h7l796 1185h178v-1271h179l-139 -517h-191l151 370h-155v781q0 170 18 409h-8l-799 -1190h-180zM404 1829h150q10 -104 55 -142t151 -38q102 0 150 45t57 135h153q-11 -154 -99 -225.5t-264 -71.5q-181 0 -262.5 69 t-90.5 228z" />
<glyph unicode="&#x48b;" horiz-adv-x="1277" d="M171 0v1063h151v-642q0 -132 -10 -264l576 906h200v-924h171l-125 -505h-167l121 366h-150v652q0 153 8 254l-576 -906h-199zM294 1502h151q7 -99 50.5 -140t156.5 -41q100 0 148.5 43.5t57.5 137.5h153q-12 -154 -98.5 -226t-264.5 -72q-179 0 -261.5 69t-92.5 229z" />
<glyph unicode="&#x48c;" horiz-adv-x="1217" d="M46 1092v146h149v180h165v-180h332v-146h-332v-279h186q569 0 569 -400q0 -203 -134 -308t-397 -105h-389v1092h-149zM360 141h214q368 0 368 272q0 128 -89.5 190t-284.5 62h-208v-524z" />
<glyph unicode="&#x48d;" horiz-adv-x="1175" d="M19 1147v125h152v237h161v-237h286v-125h-286v-523h310q216 0 320.5 -75t104.5 -225q0 -159 -108.5 -241.5t-323.5 -82.5h-464v1147h-152zM332 135h296q278 0 278 179q0 90 -64 130.5t-218 40.5h-292v-350z" />
<glyph unicode="&#x48e;" horiz-adv-x="1213" d="M195 0v1418h381q266 0 400.5 -104t134.5 -309q0 -123 -56 -220.5t-161 -153.5l117 -152l-97 -81l-145 186q-99 -26 -231 -26h-178v-558h-165zM360 699h161q84 0 158 10l-105 137l105 79l136 -170q123 69 123 242q0 141 -94 210t-290 69h-194v-577z" />
<glyph unicode="&#x48f;" horiz-adv-x="1217" d="M171 -477v1540h131l24 -145h8q62 87 144 126t187 39q212 0 327 -145t115 -405q0 -328 -178 -469l112 -151l-97 -78l-127 169q-69 -23 -152 -23q-103 0 -189 38t-144 118h-12q12 -144 12 -177v-437h-161zM332 533q0 -225 74.5 -321.5t239.5 -96.5q46 0 85 12l-117 153 l103 78l125 -165q98 100 98 341q0 209 -73 310.5t-225 101.5q-163 0 -235.5 -90.5t-74.5 -287.5v-35z" />
<glyph unicode="&#x490;" horiz-adv-x="1046" d="M195 0v1418h649v292h157v-440h-641v-1270h-165z" />
<glyph unicode="&#x491;" horiz-adv-x="850" d="M171 0v1063h479v311h161v-436h-479v-938h-161z" />
<glyph unicode="&#x492;" horiz-adv-x="1046" d="M46 630v145h149v643h806v-148h-641v-495h411v-145h-411v-630h-165v630h-149z" />
<glyph unicode="&#x493;" horiz-adv-x="850" d="M17 470v124h154v469h638v-136h-477v-333h335v-124h-335v-470h-161v470h-154z" />
<glyph unicode="&#x494;" horiz-adv-x="1275" d="M195 0v1418h816v-148h-651v-501q87 10 205 10q310 0 475.5 -164.5t165.5 -468.5q0 -306 -139 -474.5t-390 -168.5q-80 0 -141 10.5t-129 37.5v147q120 -47 253 -47q371 0 371 495q0 237 -124 363t-363 126q-97 0 -184 -11v-624h-165z" />
<glyph unicode="&#x495;" horiz-adv-x="1042" d="M171 0v1063h646v-138h-485v-319q79 12 137 12q263 0 390.5 -137.5t127.5 -423.5q0 -259 -110.5 -401.5t-311.5 -142.5q-141 0 -239 58v145q112 -61 232 -61q129 0 195 98t66 306q0 216 -86.5 317t-262.5 101q-66 0 -138 -16v-461h-161z" />
<glyph unicode="&#x496;" horiz-adv-x="1768" d="M2 0l578 729l-558 689h185l552 -687v687h159v-687l553 687h184l-559 -687l460 -582h174v-519h-157v370h-91l-564 719v-719h-159v719l-564 -719h-193z" />
<glyph unicode="&#x497;" horiz-adv-x="1549" d="M4 0l481 548l-443 515h176l438 -515v515h148v-515l440 515h176l-444 -515l357 -409h187v-505h-157v366h-91l-468 540v-540h-148v540l-467 -540h-185z" />
<glyph unicode="&#x498;" horiz-adv-x="1154" d="M72 57v153q93 -44 201 -68.5t208 -24.5q192 0 290.5 73t98.5 210q0 130 -109 196.5t-325 66.5h-212v139h203q199 0 308 71.5t109 199.5q0 104 -78.5 166t-211.5 62q-107 0 -193 -24.5t-200 -96.5l-81 111q98 73 219.5 110.5t252.5 37.5q218 0 342 -96t124 -257 q0 -139 -89 -226.5t-245 -110.5v-8q177 -24 269 -111.5t92 -227.5q0 -199 -148.5 -310t-419.5 -111q-247 0 -405 76zM382 -312q31 -10 83 -10q36 0 60.5 23.5t24.5 67.5q0 100 -135 231h120q153 -116 153 -244q0 -89 -49.5 -139t-145.5 -50q-63 0 -111 16v105z" />
<glyph unicode="&#x499;" horiz-adv-x="959" d="M66 49v148q177 -84 359 -84q140 0 211 48.5t71 138.5q0 185 -302 185h-147v137h115q302 0 302 167q0 157 -244 157q-75 0 -136 -13.5t-160 -54.5l-57 131q164 74 359 74q184 0 289.5 -75.5t105.5 -205.5q0 -178 -199 -234v-7q123 -36 179 -102.5t56 -166.5 q0 -147 -119 -229t-328 -82q-230 0 -355 68zM304 -312q31 -10 83 -10q36 0 60.5 23.5t24.5 67.5q0 100 -135 231h120q153 -116 153 -244q0 -89 -49.5 -139t-145.5 -50q-63 0 -111 16v105z" />
<glyph unicode="&#x49a;" horiz-adv-x="1313" d="M195 0v1418h165v-703l643 703h195l-570 -616l488 -653h167v-519h-157v370h-99l-519 688l-148 -132v-556h-165z" />
<glyph unicode="&#x49b;" horiz-adv-x="1082" d="M171 0v1063h161v-517l459 517h176l-459 -513l372 -411h172v-507h-154v368h-81l-485 538v-538h-161z" />
<glyph unicode="&#x49c;" horiz-adv-x="1219" d="M195 0v1418h165v-709l121 135v338h121v-204l399 440h197l-570 -616l591 -802h-194l-423 586v-296h-121v370l-121 -104v-556h-165z" />
<glyph unicode="&#x49d;" horiz-adv-x="1059" d="M171 0v1063h161v-517l115 117v321h127v-199l262 278h177l-439 -461v-103l477 -499h-189l-290 306v-215h-125v330l-115 117v-538h-161z" />
<glyph unicode="&#x49e;" horiz-adv-x="1219" d="M46 1099v146h149v173h165v-173h214v-146h-214v-390l641 709h197l-570 -616l591 -802h-200l-511 688l-148 -130v-558h-165v1099h-149z" />
<glyph unicode="&#x49f;" horiz-adv-x="1027" d="M19 1206v123h152v180h159v-180h369v-123h-369v-520l-3 -88l-3 -54h8l17 23q54 72 73 95.5t376 400.5h193l-430 -453l458 -610h-193l-375 501l-121 -103v-398h-159v1206h-152z" />
<glyph unicode="&#x4a0;" horiz-adv-x="1368" d="M16 1270v148h492v-709l642 709h197l-570 -616l592 -802h-195l-516 688l-150 -132v-556h-165v1270h-327z" />
<glyph unicode="&#x4a1;" horiz-adv-x="1222" d="M40 927v136h498v-517l461 517h177l-459 -515l496 -548h-188l-487 538v-538h-159v927h-339z" />
<glyph unicode="&#x4a2;" horiz-adv-x="1482" d="M195 0v1418h165v-603h747v603h165v-1269h157v-519h-157v370h-165v667h-747v-667h-165z" />
<glyph unicode="&#x4a3;" horiz-adv-x="1287" d="M171 0v1063h161v-445h595v445h161v-924h146v-505h-161v366h-146v479h-595v-479h-161z" />
<glyph unicode="&#x4a4;" horiz-adv-x="1615" d="M195 0v1418h165v-603h745v603h493v-148h-326v-1270h-167v667h-745v-667h-165z" />
<glyph unicode="&#x4a5;" horiz-adv-x="1461" d="M171 0v1063h161v-445h595v445h502v-136h-341v-927h-161v479h-595v-479h-161z" />
<glyph unicode="&#x4a6;" horiz-adv-x="2119" d="M195 0v1418h1009v-651q66 12 187 12q297 0 460.5 -167t163.5 -469q0 -304 -137.5 -472t-387.5 -168q-151 0 -271 48v147q130 -47 253 -47q367 0 367 495q0 234 -111.5 360.5t-336.5 126.5q-41 0 -102.5 -3t-84.5 -8v-622h-165v1270h-679v-1270h-165z" />
<glyph unicode="&#x4a7;" horiz-adv-x="1718" d="M171 0v1063h852v-459q73 14 137 14q239 0 366 -144t127 -417q0 -260 -101.5 -402t-287.5 -142q-127 0 -221 58v145q105 -61 210 -61q233 0 233 404q0 216 -80.5 317t-247.5 101q-65 0 -135 -20v-457h-163v923h-528v-923h-161z" />
<glyph unicode="&#x4a8;" horiz-adv-x="1547" d="M121 694q0 364 159.5 555t464.5 191q123 0 212 -34l-45 -140q-82 27 -169 27q-447 0 -447 -592q0 -279 123.5 -427.5t351.5 -148.5q53 0 97 10q-83 100 -128 237.5t-45 292.5q0 237 96.5 366t265.5 129q176 0 269.5 -129t93.5 -373q0 -176 -67 -326t-179 -233 q64 -29 151 -29q76 0 135 21v-148q-54 -24 -143 -24q-172 0 -316 97q-99 -35 -239 -35q-300 0 -470.5 190.5t-170.5 522.5zM868 656q0 -136 45 -259t126 -206q99 65 154.5 188.5t55.5 272.5q0 172 -50 270.5t-140 98.5q-91 0 -141 -97.5t-50 -267.5z" />
<glyph unicode="&#x4a9;" horiz-adv-x="1271" d="M112 521q0 267 120 414.5t340 147.5q89 0 163 -22l-36 -134q-52 19 -129 19q-151 0 -221.5 -101.5t-70.5 -325.5q0 -200 82.5 -302t241.5 -102q36 0 62 4.5t31 7.5q-134 144 -134 362q0 168 81.5 261.5t227.5 93.5q144 0 220 -91.5t76 -263.5q0 -121 -52 -222.5 t-143 -163.5q50 -25 115 -25q64 0 112 13v-133q-38 -13 -123 -13q-143 0 -269 74q-93 -38 -212 -38q-145 0 -254.5 67t-168.5 190.5t-59 282.5zM728 483q0 -91 32.5 -169t94.5 -130q66 43 106 119.5t40 183.5q0 228 -131 228q-70 0 -106 -60.5t-36 -171.5z" />
<glyph unicode="&#x4aa;" horiz-adv-x="1253" d="M121 711q0 219 82 384t237 254.5t364 89.5q223 0 390 -82l-70 -142q-161 76 -322 76q-234 0 -369 -155.5t-135 -426.5q0 -278 130.5 -430t371.5 -152q149 0 339 53v-144q-148 -55 -364 -55q-313 0 -483.5 190t-170.5 540zM581 -312q31 -10 83 -10q36 0 60.5 23.5 t24.5 67.5q0 100 -135 231h120q153 -116 153 -244q0 -89 -49.5 -139t-145.5 -50q-63 0 -111 16v105z" />
<glyph unicode="&#x4ab;" horiz-adv-x="945" d="M112 525q0 267 128.5 412.5t365.5 145.5q77 0 153.5 -16.5t120.5 -39.5l-50 -137q-53 22 -116 36t-112 14q-324 0 -324 -413q0 -196 79 -301t235 -105q133 0 272 57v-142q-106 -55 -268 -55q-231 0 -357.5 142t-126.5 402zM423 -312q31 -10 83 -10q36 0 60.5 23.5 t24.5 67.5q0 100 -135 231h120q153 -116 153 -244q0 -89 -49.5 -139t-145.5 -50q-63 0 -111 16v105z" />
<glyph unicode="&#x4ac;" horiz-adv-x="1099" d="M16 1270v148h1065v-148h-450v-1121h158v-519h-158v370h-166v1270h-449z" />
<glyph unicode="&#x4ad;" horiz-adv-x="927" d="M40 927v136h846v-136h-344v-788h146v-505h-161v366h-146v927h-341z" />
<glyph unicode="&#x4ae;" horiz-adv-x="1112" d="M0 1418h180l376 -709l378 709h179l-474 -868v-550h-167v542z" />
<glyph unicode="&#x4af;" horiz-adv-x="995" d="M0 1063h167l229 -594q80 -216 99 -310h7q32 134 100 310l226 594h167l-417 -1067v-473h-161v473z" />
<glyph unicode="&#x4b0;" horiz-adv-x="1112" d="M0 1418h180l376 -709l378 709h179l-474 -868v-57h290v-148h-290v-345h-167v345h-292v148h292v49z" />
<glyph unicode="&#x4b1;" horiz-adv-x="995" d="M0 1063h167l229 -594q80 -216 99 -310h7q32 134 100 310l226 594h167l-415 -1063h266v-125h-268v-352h-161v352h-270v125h268z" />
<glyph unicode="&#x4b2;" horiz-adv-x="1229" d="M8 0l471 741l-439 677h182l352 -561l355 561h176l-440 -671l378 -598h157v-519h-157v370h-91l-382 624l-388 -624h-174z" />
<glyph unicode="&#x4b3;" horiz-adv-x="1076" d="M38 0l389 544l-370 519h184l280 -407l279 407h182l-370 -519l290 -405h145v-507h-161v368h-67l-298 431l-301 -431h-182z" />
<glyph unicode="&#x4b4;" horiz-adv-x="1698" d="M16 1270v148h1038v-148h-460v-1121h729v1269h165v-1269h165v-519h-157v370h-1067v1270h-413z" />
<glyph unicode="&#x4b5;" horiz-adv-x="1423" d="M40 925v136h822v-136h-350v-786h565v922h161v-922h151v-505h-161v366h-877v925h-311z" />
<glyph unicode="&#x4b6;" horiz-adv-x="1374" d="M165 855v563h165v-544q0 -117 61.5 -173.5t200.5 -56.5q94 0 179.5 14t249.5 68v692h165v-1269h156v-519h-156v370h-165v586q-144 -52 -240 -70.5t-199 -18.5q-201 0 -309 92t-108 266z" />
<glyph unicode="&#x4b7;" horiz-adv-x="1209" d="M151 663v400h161v-388q0 -186 213 -186q88 0 168.5 27t182.5 92v455h161v-924h145v-507h-161v368h-145v481q-102 -70 -189 -98.5t-196 -28.5q-159 0 -249.5 83.5t-90.5 225.5z" />
<glyph unicode="&#x4b8;" horiz-adv-x="1380" d="M165 855v563h165v-544q0 -115 65.5 -172.5t214.5 -57.5v338h121v-332q130 13 288 71v697h167v-1418h-167v582q-162 -63 -288 -80v-295h-121v290q-445 0 -445 358z" />
<glyph unicode="&#x4b9;" horiz-adv-x="1192" d="M151 663v400h161v-388q0 -180 194 -186v292h116v-282q109 23 238 109v455h161v-1063h-161v481q-124 -88 -238 -113v-241h-116v227h-21q-155 0 -244.5 82.5t-89.5 226.5z" />
<glyph unicode="&#x4ba;" horiz-adv-x="1380" d="M195 0v1418h165v-586q248 90 438 90q201 0 309 -93t108 -264v-565h-164v544q0 117 -62 174t-200 57q-104 0 -194.5 -16.5t-234.5 -64.5v-694h-165z" />
<glyph unicode="&#x4bb;" horiz-adv-x="1162" d="M171 0v1063h161v-483q92 67 182 97t201 30q158 0 250 -81.5t92 -227.5v-398h-163v385q0 187 -210 187q-86 0 -161.5 -23.5t-190.5 -95.5v-453h-161z" />
<glyph unicode="&#x4bc;" horiz-adv-x="1664" d="M59 876q0 71 26 123h141q-19 -48 -19 -107q0 -100 109 -100h33l5 42q28 289 189.5 447.5t432.5 158.5q288 0 431.5 -183.5t143.5 -541.5v-67h-1028q13 -256 140 -388.5t366 -132.5q98 0 196 15t235 57v-151q-111 -38 -218 -52.5t-233 -14.5q-305 0 -474 172.5t-188 494.5 q-137 0 -212.5 57t-75.5 171zM523 792h851q0 258 -98 379.5t-302 121.5q-203 0 -319.5 -129.5t-131.5 -371.5z" />
<glyph unicode="&#x4bd;" horiz-adv-x="1309" d="M49 721q0 67 25 115h136q-19 -45 -19 -103q0 -100 103 -100h20l6 34q33 196 154.5 305t298.5 109q201 0 318 -128.5t117 -348.5v-102h-734q6 -192 89.5 -286.5t251.5 -94.5q98 0 175 15.5t172 56.5v-144q-85 -36 -161.5 -52t-183.5 -16q-236 0 -370 138.5t-140 382.5 q-258 4 -258 219zM479 633h556q0 153 -68 233t-198 80t-203 -79.5t-87 -233.5z" />
<glyph unicode="&#x4be;" horiz-adv-x="1664" d="M59 876q0 71 26 123h141q-19 -48 -19 -107q0 -100 109 -100h33l5 42q28 289 189.5 447.5t432.5 158.5q288 0 431.5 -183.5t143.5 -541.5v-67h-1028q13 -256 140 -388.5t366 -132.5q98 0 196 15t235 57v-151q-171 -61 -399 -65v-353h-161v358q-250 28 -392 196t-161 464 q-137 0 -212.5 57t-75.5 171zM523 792h851q0 258 -98 379.5t-302 121.5q-203 0 -319.5 -129.5t-131.5 -371.5z" />
<glyph unicode="&#x4bf;" horiz-adv-x="1309" d="M49 721q0 67 25 115h136q-19 -45 -19 -103q0 -100 103 -100h20l6 34q33 196 154.5 305t298.5 109q201 0 318 -128.5t117 -348.5v-102h-734q6 -192 89.5 -286.5t251.5 -94.5q98 0 175 15.5t172 56.5v-144q-138 -63 -298 -66v-349h-161v356q-185 30 -287.5 162.5 t-108.5 349.5q-258 4 -258 219zM479 633h556q0 153 -68 233t-198 80t-203 -79.5t-87 -233.5z" />
<glyph unicode="&#x4c0;" horiz-adv-x="553" d="M195 0v1418h165v-1418h-165z" />
<glyph unicode="&#x4c1;" horiz-adv-x="1677" d="M2 0l578 729l-558 689h185l552 -687v687h159v-687l553 687h184l-559 -687l576 -731h-190l-564 719v-719h-159v719l-564 -719h-193zM476 1832h152q8 -101 52.5 -141t153.5 -40q100 0 148 42.5t59 138.5h152q-11 -154 -97.5 -226t-265.5 -72t-261.5 69t-92.5 229z" />
<glyph unicode="&#x4c2;" horiz-adv-x="1461" d="M4 0l481 546l-443 515h176l438 -515v515h148v-515l440 515h176l-444 -515l482 -546h-186l-468 538v-538h-148v538l-467 -538h-185zM371 1502h152q8 -101 52.5 -141t153.5 -40q100 0 148 42.5t59 138.5h152q-11 -154 -97.5 -226t-265.5 -72t-261.5 69t-92.5 229z" />
<glyph unicode="&#x4c3;" horiz-adv-x="1368" d="M195 0v1418h165v-687l629 687h199l-616 -663l26 2q324 0 496 -158t172 -453q0 -305 -143 -474t-402 -169q-80 0 -140 10t-128 38v147q118 -47 266 -47q181 0 278 130.5t97 364.5q0 225 -134.5 347.5t-371.5 122.5q-136 0 -228 -30v-586h-165z" />
<glyph unicode="&#x4c4;" horiz-adv-x="1090" d="M171 0v1063h159v-502l468 502h178l-443 -467q248 -4 370 -142t122 -397q0 -171 -53 -293.5t-152 -186.5t-228 -64q-132 0 -224 58v141q44 -24 96.5 -42.5t121.5 -18.5q131 0 204.5 105t73.5 299q0 205 -90.5 305.5t-274.5 100.5q-80 0 -169 -24v-437h-159z" />
<glyph unicode="&#x4c5;" horiz-adv-x="1402" d="M0 2v139q52 -26 110 -26q51 0 89.5 42.5t68 146.5t74.5 395.5t99 718.5h763v-1269h178l-138 -519h-192l152 370h-165v1272h-461l-30 -233q-59 -465 -104 -679.5t-119 -299t-196 -82.5q-72 0 -129 24z" />
<glyph unicode="&#x4c6;" d="M16 -2v123q21 -6 48 -6q110 0 176.5 229.5t99.5 716.5h621v-922h171l-125 -505h-167l121 366h-161v923h-321q-27 -349 -72.5 -548.5t-119.5 -293t-188 -93.5q-56 0 -83 10z" />
<glyph unicode="&#x4c7;" horiz-adv-x="1444" d="M195 0v1418h165v-603h747v603h165v-1272q0 -309 -137 -476t-390 -167q-80 0 -139 9.5t-134 38.5v145q120 -47 251 -47q384 0 384 488v530h-747v-667h-165z" />
<glyph unicode="&#x4c8;" horiz-adv-x="1224" d="M171 0v1063h161v-445h593v445h163v-1014q0 -259 -100 -397.5t-287 -138.5q-128 0 -218 56v145q108 -59 207 -59q121 0 178 96t57 297v431h-593v-479h-161z" />
<glyph unicode="&#x4c9;" horiz-adv-x="1480" d="M195 0v1418h165v-603h747v603h165v-1269h178l-140 -519h-192l154 370h-165v667h-747v-667h-165z" />
<glyph unicode="&#x4ca;" horiz-adv-x="1296" d="M171 0v1061h161v-443h595v443h161v-922h171l-125 -505h-167l121 366h-161v479h-595v-479h-161z" />
<glyph unicode="&#x4cb;" horiz-adv-x="1380" d="M165 855v563h165v-544q0 -117 61.5 -173.5t200.5 -56.5q94 0 179.5 14t249.5 68v692h165v-1418h-165v-370h-157v519h157v437q-144 -52 -240 -70.5t-199 -18.5q-201 0 -309 92t-108 266z" />
<glyph unicode="&#x4cc;" horiz-adv-x="1207" d="M151 663v400h161v-388q0 -186 213 -186q88 0 168.5 27t182.5 92v455h161v-1063h-145v-368h-161v507h145v342q-102 -70 -189 -98.5t-196 -28.5q-159 0 -249.5 83.5t-90.5 225.5z" />
<glyph unicode="&#x4cd;" horiz-adv-x="1795" d="M195 0v1418h248l451 -1170h8l451 1170h247v-1269h178l-139 -519h-193l154 370h-165v914q0 128 13 341h-8l-485 -1255h-132l-482 1257h-7l6 -123q7 -186 7 -232v-902h-152z" />
<glyph unicode="&#x4ce;" horiz-adv-x="1461" d="M171 0v1061h197l288 -701q43 -107 67 -205l30 90l41 115l289 701h204v-922h171l-125 -505h-167l121 366h-142v878l-20 -56l-56 -149l-275 -673h-134l-275 675q-51 130 -71 203v-878h-143z" />
<glyph unicode="&#x4cf;" horiz-adv-x="553" d="M195 0v1418h165v-1418h-165z" />
<glyph unicode="&#x4d0;" horiz-adv-x="1257" d="M0 0l561 1424h138l558 -1424h-171l-176 451h-569l-174 -451h-167zM267 1830h152q8 -101 52.5 -141t153.5 -40q100 0 148 42.5t59 138.5h152q-11 -154 -97.5 -226t-265.5 -72t-261.5 69t-92.5 229zM400 599h458l-164 440q-32 83 -66 205q-22 -94 -62 -205z" />
<glyph unicode="&#x4d1;" horiz-adv-x="1104" d="M91 294q0 322 515 337l181 6v66q0 125 -54 185t-172 60q-133 0 -301 -82l-50 123q79 43 172.5 67.5t187.5 24.5q190 0 282 -84.5t92 -270.5v-726h-120l-32 151h-7q-80 -100 -159 -135t-197 -35q-158 0 -248 81.5t-90 231.5zM189 1502h152q8 -101 52.5 -141t153.5 -40 q100 0 148 42.5t59 138.5h152q-11 -154 -97.5 -226t-265.5 -72t-261.5 69t-92.5 229zM260 292q0 -87 53 -133t148 -46q150 0 236 82.5t86 231.5v96l-161 -7q-192 -7 -277 -59.5t-85 -164.5z" />
<glyph unicode="&#x4d2;" horiz-adv-x="1257" d="M0 0l561 1424h138l558 -1424h-171l-176 451h-569l-174 -451h-167zM359 1679q0 51 25.5 73t61.5 22q37 0 63.5 -22t26.5 -73q0 -48 -26.5 -72t-63.5 -24q-36 0 -61.5 24t-25.5 72zM400 599h458l-164 440q-32 83 -66 205q-22 -94 -62 -205zM728 1679q0 51 26 73t62 22 q35 0 62 -22t27 -73q0 -48 -27 -72t-62 -24q-36 0 -62 24t-26 72z" />
<glyph unicode="&#x4d3;" horiz-adv-x="1104" d="M91 294q0 322 515 337l181 6v66q0 125 -54 185t-172 60q-133 0 -301 -82l-50 123q79 43 172.5 67.5t187.5 24.5q190 0 282 -84.5t92 -270.5v-726h-120l-32 151h-7q-80 -100 -159 -135t-197 -35q-158 0 -248 81.5t-90 231.5zM260 292q0 -87 53 -133t148 -46 q150 0 236 82.5t86 231.5v96l-161 -7q-192 -7 -277 -59.5t-85 -164.5zM287 1351q0 51 25.5 73t61.5 22q37 0 63.5 -22t26.5 -73q0 -48 -26.5 -72t-63.5 -24q-36 0 -61.5 24t-25.5 72zM656 1351q0 51 26 73t62 22q35 0 62 -22t27 -73q0 -48 -27 -72t-62 -24q-36 0 -62 24 t-26 72z" />
<glyph unicode="&#x4d4;" horiz-adv-x="1734" d="M-2 0l677 1418h940v-146h-563v-457h525v-146h-525v-522h563v-147h-727v451h-499l-220 -451h-171zM455 599h433v673h-115z" />
<glyph unicode="&#x4d5;" horiz-adv-x="1704" d="M91 294q0 156 120.5 243t366.5 94l179 6v66q0 125 -56.5 185t-171.5 60q-140 0 -298 -82l-51 123q72 40 168.5 66t191.5 26q126 0 206 -42.5t120 -134.5q52 85 134.5 132t189.5 47q186 0 298.5 -129.5t112.5 -345.5v-104h-679q7 -383 312 -383q88 0 164 17t158 55v-144 q-84 -36 -156 -52t-170 -16q-280 0 -402 226q-78 -124 -173.5 -175t-225.5 -51q-158 0 -248 82.5t-90 230.5zM260 292q0 -92 52 -135.5t137 -43.5q141 0 222.5 82t81.5 232v96l-154 -7q-180 -8 -259.5 -60.5t-79.5 -163.5zM925 633h504q0 152 -62 233.5t-179 81.5 t-184.5 -80.5t-78.5 -234.5z" />
<glyph unicode="&#x4d6;" horiz-adv-x="1104" d="M195 0v1418h791v-146h-626v-457h588v-146h-588v-522h626v-147h-791zM228 1830h152q8 -101 52.5 -141t153.5 -40q100 0 148 42.5t59 138.5h152q-11 -154 -97.5 -226t-265.5 -72t-261.5 69t-92.5 229z" />
<glyph unicode="&#x4d7;" horiz-adv-x="1114" d="M112 523q0 257 126.5 408.5t339.5 151.5q200 0 316.5 -131.5t116.5 -347.5v-102h-733q5 -187 95 -284t253 -97q171 0 339 72v-144q-85 -36 -161 -52t-184 -16q-236 0 -372 143.5t-136 398.5zM224 1502h152q8 -101 52.5 -141t153.5 -40q100 0 148 42.5t59 138.5h152 q-11 -154 -97.5 -226t-265.5 -72t-261.5 69t-92.5 229zM282 633h556q0 153 -68 234t-194 81q-128 0 -204 -83.5t-90 -231.5z" />
<glyph unicode="&#x4d8;" horiz-adv-x="1450" d="M113 705v68h1039q-16 258 -143.5 389t-364.5 131q-220 0 -439 -74v154q111 36 213 51.5t232 15.5q321 0 499 -193.5t178 -539.5q0 -339 -168 -532.5t-467 -193.5q-579 0 -579 724zM290 628q0 -256 99 -378.5t303 -122.5q203 0 324 130.5t136 370.5h-862z" />
<glyph unicode="&#x4d9;" horiz-adv-x="1110" d="M99 459v102h733q-5 198 -91.5 288.5t-247.5 90.5q-95 0 -175 -16t-172 -56v143q86 39 164.5 55.5t180.5 16.5q237 0 372.5 -145.5t135.5 -399.5q0 -256 -125.5 -406.5t-337.5 -150.5q-201 0 -319 130t-118 348zM273 427q0 -152 68 -232t197 -80t204 80t86 232h-555z" />
<glyph unicode="&#x4da;" horiz-adv-x="1450" d="M113 705v68h1039q-16 258 -143.5 389t-364.5 131q-220 0 -439 -74v154q111 36 213 51.5t232 15.5q321 0 499 -193.5t178 -539.5q0 -339 -168 -532.5t-467 -193.5q-579 0 -579 724zM290 628q0 -256 99 -378.5t303 -122.5q203 0 324 130.5t136 370.5h-862zM443 1679 q0 51 25.5 73t61.5 22q37 0 63.5 -22t26.5 -73q0 -48 -26.5 -72t-63.5 -24q-36 0 -61.5 24t-25.5 72zM812 1679q0 51 26 73t62 22q35 0 62 -22t27 -73q0 -48 -27 -72t-62 -24q-36 0 -62 24t-26 72z" />
<glyph unicode="&#x4db;" horiz-adv-x="1110" d="M99 459v102h733q-5 198 -91.5 288.5t-247.5 90.5q-95 0 -175 -16t-172 -56v143q86 39 164.5 55.5t180.5 16.5q237 0 372.5 -145.5t135.5 -399.5q0 -256 -125.5 -406.5t-337.5 -150.5q-201 0 -319 130t-118 348zM273 427q0 -152 68 -232t197 -80t204 80t86 232h-555z M279 1351q0 51 25.5 73t61.5 22q37 0 63.5 -22t26.5 -73q0 -48 -26.5 -72t-63.5 -24q-36 0 -61.5 24t-25.5 72zM648 1351q0 51 26 73t62 22q35 0 62 -22t27 -73q0 -48 -27 -72t-62 -24q-36 0 -62 24t-26 72z" />
<glyph unicode="&#x4dc;" horiz-adv-x="1677" d="M2 0l578 729l-558 689h185l552 -687v687h159v-687l553 687h184l-559 -687l576 -731h-190l-564 719v-719h-159v719l-564 -719h-193zM564 1679q0 51 25.5 73t61.5 22q37 0 63.5 -22t26.5 -73q0 -48 -26.5 -72t-63.5 -24q-36 0 -61.5 24t-25.5 72zM933 1679q0 51 26 73 t62 22q35 0 62 -22t27 -73q0 -48 -27 -72t-62 -24q-36 0 -62 24t-26 72z" />
<glyph unicode="&#x4dd;" horiz-adv-x="1461" d="M4 0l481 546l-443 515h176l438 -515v515h148v-515l440 515h176l-444 -515l482 -546h-186l-468 538v-538h-148v538l-467 -538h-185zM457 1351q0 51 25.5 73t61.5 22q37 0 63.5 -22t26.5 -73q0 -48 -26.5 -72t-63.5 -24q-36 0 -61.5 24t-25.5 72zM826 1351q0 51 26 73 t62 22q35 0 62 -22t27 -73q0 -48 -27 -72t-62 -24q-36 0 -62 24t-26 72z" />
<glyph unicode="&#x4de;" horiz-adv-x="1154" d="M72 57v153q93 -44 201 -68.5t208 -24.5q192 0 290.5 73t98.5 210q0 130 -109 196.5t-325 66.5h-212v139h203q199 0 308 71.5t109 199.5q0 104 -78.5 166t-211.5 62q-107 0 -193 -24.5t-200 -96.5l-81 111q98 73 219.5 110.5t252.5 37.5q218 0 342 -96t124 -257 q0 -139 -89 -226.5t-245 -110.5v-8q177 -24 269 -111.5t92 -227.5q0 -199 -148.5 -310t-419.5 -111q-247 0 -405 76zM287 1679q0 51 25.5 73t61.5 22q37 0 63.5 -22t26.5 -73q0 -48 -26.5 -72t-63.5 -24q-36 0 -61.5 24t-25.5 72zM656 1679q0 51 26 73t62 22q35 0 62 -22 t27 -73q0 -48 -27 -72t-62 -24q-36 0 -62 24t-26 72z" />
<glyph unicode="&#x4df;" horiz-adv-x="959" d="M66 49v148q177 -84 359 -84q140 0 211 48.5t71 138.5q0 185 -302 185h-147v137h115q302 0 302 167q0 157 -244 157q-75 0 -136 -13.5t-160 -54.5l-57 131q164 74 359 74q184 0 289.5 -75.5t105.5 -205.5q0 -178 -199 -234v-7q123 -36 179 -102.5t56 -166.5 q0 -147 -119 -229t-328 -82q-230 0 -355 68zM195 1351q0 51 25.5 73t61.5 22q37 0 63.5 -22t26.5 -73q0 -48 -26.5 -72t-63.5 -24q-36 0 -61.5 24t-25.5 72zM564 1351q0 51 26 73t62 22q35 0 62 -22t27 -73q0 -48 -27 -72t-62 -24q-36 0 -62 24t-26 72z" />
<glyph unicode="&#x4e0;" horiz-adv-x="1158" d="M72 57v153q93 -44 200.5 -68.5t210.5 -24.5q193 0 291 74.5t98 213.5q0 130 -109 197t-326 67h-135v137l479 464h-669v148h875v-135l-494 -477q270 -9 412 -111t142 -290q0 -199 -149 -311.5t-419 -112.5q-249 0 -407 76z" />
<glyph unicode="&#x4e1;" horiz-adv-x="970" d="M26 -260q178 -83 372 -83q156 0 251.5 92t95.5 247q0 159 -104 241.5t-300 82.5h-117v111l439 494h-612v138h800v-119l-436 -495q145 -7 256.5 -62t173 -153t61.5 -230q0 -215 -143.5 -348t-375.5 -133q-227 0 -361 68v149z" />
<glyph unicode="&#x4e2;" horiz-adv-x="1514" d="M197 0v1418h154v-788q0 -219 -13 -395h7l796 1183h180v-1418h-155v781q0 195 16 409h-8l-797 -1190h-180zM467 1532v133h582v-133h-582z" />
<glyph unicode="&#x4e3;" horiz-adv-x="1259" d="M171 0v1063h151v-674l-7 -177l-3 -55l576 906h200v-1063h-150v650l3 128l5 126l-574 -904h-201zM340 1204v133h582v-133h-582z" />
<glyph unicode="&#x4e4;" horiz-adv-x="1514" d="M197 0v1418h154v-788q0 -219 -13 -395h7l796 1183h180v-1418h-155v781q0 195 16 409h-8l-797 -1190h-180zM484 1679q0 51 25.5 73t61.5 22q37 0 63.5 -22t26.5 -73q0 -48 -26.5 -72t-63.5 -24q-36 0 -61.5 24t-25.5 72zM853 1679q0 51 26 73t62 22q35 0 62 -22t27 -73 q0 -48 -27 -72t-62 -24q-36 0 -62 24t-26 72z" />
<glyph unicode="&#x4e5;" horiz-adv-x="1259" d="M171 0v1063h151v-674l-7 -177l-3 -55l576 906h200v-1063h-150v650l3 128l5 126l-574 -904h-201zM359 1351q0 51 25.5 73t61.5 22q37 0 63.5 -22t26.5 -73q0 -48 -26.5 -72t-63.5 -24q-36 0 -61.5 24t-25.5 72zM728 1351q0 51 26 73t62 22q35 0 62 -22t27 -73 q0 -48 -27 -72t-62 -24q-36 0 -62 24t-26 72z" />
<glyph unicode="&#x4e6;" horiz-adv-x="1547" d="M121 713q0 346 171 536.5t485 190.5q306 0 477.5 -194t171.5 -535q0 -340 -172 -535t-479 -195q-313 0 -483.5 191.5t-170.5 540.5zM296 711q0 -288 122.5 -437t356.5 -149q236 0 356 148.5t120 437.5q0 286 -119.5 434t-354.5 148q-236 0 -358.5 -149t-122.5 -433z M503 1679q0 51 25.5 73t61.5 22q37 0 63.5 -22t26.5 -73q0 -48 -26.5 -72t-63.5 -24q-36 0 -61.5 24t-25.5 72zM872 1679q0 51 26 73t62 22q35 0 62 -22t27 -73q0 -48 -27 -72t-62 -24q-36 0 -62 24t-26 72z" />
<glyph unicode="&#x4e7;" horiz-adv-x="1199" d="M112 533q0 259 130 404.5t360 145.5q223 0 354.5 -148.5t131.5 -401.5q0 -260 -131 -406t-361 -146q-143 0 -253.5 66.5t-170.5 192t-60 293.5zM278 533q0 -204 81.5 -311t239.5 -107q159 0 241 106.5t82 311.5q0 202 -82 307.5t-242 105.5q-159 0 -239.5 -104 t-80.5 -309zM328 1351q0 51 25.5 73t61.5 22q37 0 63.5 -22t26.5 -73q0 -48 -26.5 -72t-63.5 -24q-36 0 -61.5 24t-25.5 72zM697 1351q0 51 26 73t62 22q35 0 62 -22t27 -73q0 -48 -27 -72t-62 -24q-36 0 -62 24t-26 72z" />
<glyph unicode="&#x4e8;" horiz-adv-x="1549" d="M121 713q0 346 171 536.5t485 190.5q306 0 477.5 -194t171.5 -535q0 -340 -172 -535t-479 -195q-313 0 -483.5 191.5t-170.5 540.5zM298 650q12 -259 133 -392t344 -133q222 0 342 132.5t132 392.5h-951zM298 794h949q-16 247 -134.5 373t-335.5 126t-339 -125t-140 -374 z" />
<glyph unicode="&#x4e9;" horiz-adv-x="1199" d="M112 533q0 259 130 404.5t360 145.5q223 0 354.5 -148.5t131.5 -401.5q0 -260 -131 -406t-361 -146q-143 0 -253.5 66.5t-170.5 192t-60 293.5zM278 479q9 -180 86.5 -272t234.5 -92q154 0 233.5 89.5t89.5 274.5h-644zM280 616h640q-15 163 -93 246.5t-229 83.5 q-152 0 -228.5 -84t-89.5 -246z" />
<glyph unicode="&#x4ea;" horiz-adv-x="1549" d="M121 713q0 346 171 536.5t485 190.5q306 0 477.5 -194t171.5 -535q0 -340 -172 -535t-479 -195q-313 0 -483.5 191.5t-170.5 540.5zM298 650q12 -259 133 -392t344 -133q222 0 342 132.5t132 392.5h-951zM298 794h949q-16 247 -134.5 373t-335.5 126t-339 -125t-140 -374 zM503 1679q0 51 25.5 73t61.5 22q37 0 63.5 -22t26.5 -73q0 -48 -26.5 -72t-63.5 -24q-36 0 -61.5 24t-25.5 72zM872 1679q0 51 26 73t62 22q35 0 62 -22t27 -73q0 -48 -27 -72t-62 -24q-36 0 -62 24t-26 72z" />
<glyph unicode="&#x4eb;" horiz-adv-x="1199" d="M112 533q0 259 130 404.5t360 145.5q223 0 354.5 -148.5t131.5 -401.5q0 -260 -131 -406t-361 -146q-143 0 -253.5 66.5t-170.5 192t-60 293.5zM278 479q9 -180 86.5 -272t234.5 -92q154 0 233.5 89.5t89.5 274.5h-644zM280 616h640q-15 163 -93 246.5t-229 83.5 q-152 0 -228.5 -84t-89.5 -246zM326 1351q0 51 25.5 73t61.5 22q37 0 63.5 -22t26.5 -73q0 -48 -26.5 -72t-63.5 -24q-36 0 -61.5 24t-25.5 72zM695 1351q0 51 26 73t62 22q35 0 62 -22t27 -73q0 -48 -27 -72t-62 -24q-36 0 -62 24t-26 72z" />
<glyph unicode="&#x4ec;" horiz-adv-x="1251" d="M59 1357q167 82 396 82q210 0 362 -85.5t230.5 -243.5t78.5 -373q0 -365 -176.5 -560.5t-508.5 -195.5q-220 0 -371 55v144q80 -20 163.5 -36.5t179.5 -16.5q263 0 397 140t142 404h-698v148h696q-22 222 -153.5 347t-343.5 125q-167 0 -324 -74zM282 1679q0 51 25.5 73 t61.5 22q37 0 63.5 -22t26.5 -73q0 -48 -26.5 -72t-63.5 -24q-36 0 -61.5 24t-25.5 72zM651 1679q0 51 26 73t62 22q35 0 62 -22t27 -73q0 -48 -27 -72t-62 -24q-36 0 -62 24t-26 72z" />
<glyph unicode="&#x4ed;" horiz-adv-x="977" d="M55 36v142q58 -22 126 -39.5t157 -17.5q168 0 260 90.5t101 269.5h-538v137h536q-15 167 -97 244.5t-238 77.5q-100 0 -247 -52l-45 135q53 26 132.5 43t157.5 17q248 0 377 -142.5t129 -409.5q0 -261 -140 -405.5t-394 -144.5q-162 0 -277 55zM189 1351q0 51 25.5 73 t61.5 22q37 0 63.5 -22t26.5 -73q0 -48 -26.5 -72t-63.5 -24q-36 0 -61.5 24t-25.5 72zM558 1351q0 51 26 73t62 22q35 0 62 -22t27 -73q0 -48 -27 -72t-62 -24q-36 0 -62 24t-26 72z" />
<glyph unicode="&#x4ee;" horiz-adv-x="1233" d="M26 1418h183l419 -806q24 -47 37 -93h8q27 81 38 103l348 796h175l-453 -1014q-82 -182 -147.5 -264.5t-147.5 -120.5t-202 -38q-107 0 -189 29v161q90 -42 183 -42q107 0 171.5 49t128.5 184zM338 1532v133h582v-133h-582z" />
<glyph unicode="&#x4ef;" horiz-adv-x="1001" d="M2 1063h173l232 -606q77 -208 95 -300h8q13 50 53 169.5t263 736.5h173l-457 -1210q-68 -180 -158.5 -255t-222.5 -75q-74 0 -145 16v129q53 -11 119 -11q166 0 237 186l59 151zM211 1204v133h582v-133h-582z" />
<glyph unicode="&#x4f0;" horiz-adv-x="1233" d="M26 1418h183l419 -806q24 -47 37 -93h8q27 81 38 103l348 796h175l-453 -1014q-82 -182 -147.5 -264.5t-147.5 -120.5t-202 -38q-107 0 -189 29v161q90 -42 183 -42q107 0 171.5 49t128.5 184zM357 1679q0 51 25.5 73t61.5 22q37 0 63.5 -22t26.5 -73q0 -48 -26.5 -72 t-63.5 -24q-36 0 -61.5 24t-25.5 72zM726 1679q0 51 26 73t62 22q35 0 62 -22t27 -73q0 -48 -27 -72t-62 -24q-36 0 -62 24t-26 72z" />
<glyph unicode="&#x4f1;" horiz-adv-x="1001" d="M2 1063h173l232 -606q77 -208 95 -300h8q13 50 53 169.5t263 736.5h173l-457 -1210q-68 -180 -158.5 -255t-222.5 -75q-74 0 -145 16v129q53 -11 119 -11q166 0 237 186l59 151zM229 1351q0 51 25.5 73t61.5 22q37 0 63.5 -22t26.5 -73q0 -48 -26.5 -72t-63.5 -24 q-36 0 -61.5 24t-25.5 72zM598 1351q0 51 26 73t62 22q35 0 62 -22t27 -73q0 -48 -27 -72t-62 -24q-36 0 -62 24t-26 72z" />
<glyph unicode="&#x4f2;" horiz-adv-x="1233" d="M26 1418h183l419 -806q24 -47 37 -93h8q27 81 38 103l348 796h175l-453 -1014q-82 -182 -147.5 -264.5t-147.5 -120.5t-202 -38q-107 0 -189 29v161q90 -42 183 -42q107 0 171.5 49t128.5 184zM361 1532v24q35 47 88.5 137t83.5 157h180v-20q-36 -62 -119 -157t-139 -141 h-94zM707 1532v24q48 66 97 152t74 142h181v-20q-36 -62 -119 -157t-140 -141h-93z" />
<glyph unicode="&#x4f3;" horiz-adv-x="1001" d="M2 1063h173l232 -606q77 -208 95 -300h8q13 50 53 169.5t263 736.5h173l-457 -1210q-68 -180 -158.5 -255t-222.5 -75q-74 0 -145 16v129q53 -11 119 -11q166 0 237 186l59 151zM228 1204v24q35 47 88.5 137t83.5 157h180v-20q-36 -62 -119 -157t-139 -141h-94zM574 1204 v24q48 66 97 152t74 142h181v-20q-36 -62 -119 -157t-140 -141h-93z" />
<glyph unicode="&#x4f4;" horiz-adv-x="1380" d="M165 855v563h165v-544q0 -117 61.5 -173.5t200.5 -56.5q94 0 179.5 14t249.5 68v692h165v-1418h-165v586q-144 -52 -240 -70.5t-199 -18.5q-201 0 -309 92t-108 266zM403 1679q0 51 25.5 73t61.5 22q37 0 63.5 -22t26.5 -73q0 -48 -26.5 -72t-63.5 -24q-36 0 -61.5 24 t-25.5 72zM772 1679q0 51 26 73t62 22q35 0 62 -22t27 -73q0 -48 -27 -72t-62 -24q-36 0 -62 24t-26 72z" />
<glyph unicode="&#x4f5;" horiz-adv-x="1207" d="M151 663v400h161v-388q0 -186 213 -186q88 0 168.5 27t182.5 92v455h161v-1063h-161v481q-102 -70 -189 -98.5t-196 -28.5q-159 0 -249.5 83.5t-90.5 225.5zM322 1351q0 51 25.5 73t61.5 22q37 0 63.5 -22t26.5 -73q0 -48 -26.5 -72t-63.5 -24q-36 0 -61.5 24t-25.5 72z M691 1351q0 51 26 73t62 22q35 0 62 -22t27 -73q0 -48 -27 -72t-62 -24q-36 0 -62 24t-26 72z" />
<glyph unicode="&#x4f6;" horiz-adv-x="1046" d="M195 0v1418h806v-148h-641v-1121h156v-519h-156v370h-165z" />
<glyph unicode="&#x4f7;" horiz-adv-x="850" d="M171 0v1061h638v-136h-477v-786h145v-505h-161v366h-145z" />
<glyph unicode="&#x4f8;" horiz-adv-x="1694" d="M195 0v1418h165v-605h232q253 0 386 -99.5t133 -300.5q0 -200 -126 -306.5t-367 -106.5h-423zM360 141h239q176 0 258.5 68t82.5 204q0 133 -87 192.5t-281 59.5h-212v-524zM575 1679q0 51 25.5 73t61.5 22q37 0 63.5 -22t26.5 -73q0 -48 -26.5 -72t-63.5 -24 q-36 0 -61.5 24t-25.5 72zM944 1679q0 51 26 73t62 22q35 0 62 -22t27 -73q0 -48 -27 -72t-62 -24q-36 0 -62 24t-26 72zM1335 0v1418h165v-1418h-165z" />
<glyph unicode="&#x4f9;" horiz-adv-x="1529" d="M171 0v1063h161v-439h290q202 0 299.5 -75.5t97.5 -224.5q0 -160 -103 -242t-304 -82h-441zM332 135h272q256 0 256 179q0 90 -59 130.5t-202 40.5h-267v-350zM491 1351q0 51 25.5 73t61.5 22q37 0 63.5 -22t26.5 -73q0 -48 -26.5 -72t-63.5 -24q-36 0 -61.5 24t-25.5 72 zM860 1351q0 51 26 73t62 22q35 0 62 -22t27 -73q0 -48 -27 -72t-62 -24q-36 0 -62 24t-26 72zM1198 0v1063h161v-1063h-161z" />
<glyph unicode="&#x4fa;" horiz-adv-x="1046" d="M46 630v145h149v643h806v-148h-641v-495h411v-145h-411v-630h-165v630h-149zM167 -224q40 -18 99 -18q91 0 91 96v295h144v-280q0 -252 -221 -252q-55 0 -113 23v136z" />
<glyph unicode="&#x4fb;" horiz-adv-x="850" d="M17 470v124h154v469h638v-136h-477v-333h335v-124h-335v-470h-161v470h-154zM137 -224q40 -18 99 -18q91 0 91 96v285h144v-270q0 -252 -221 -252q-55 0 -113 23v136z" />
<glyph unicode="&#x4fc;" horiz-adv-x="1233" d="M8 0l471 741l-439 677h182l352 -561l355 561h176l-440 -671l474 -747h-187l-382 624l-388 -624h-174zM854 -224q40 -18 99 -18q91 0 91 96v295h144v-280q0 -252 -221 -252q-55 0 -113 23v136z" />
<glyph unicode="&#x4fd;" horiz-adv-x="1072" d="M38 0l389 544l-370 519h184l280 -407l279 407h182l-370 -519l389 -544h-182l-298 431l-301 -431h-182zM710 -224q40 -18 99 -18q91 0 91 96v285h144v-270q0 -252 -221 -252q-55 0 -113 23v136z" />
<glyph unicode="&#x4fe;" horiz-adv-x="1146" d="M6 0l433 679h-316v147h298l-381 592h182l352 -563l353 563h178l-388 -592h306v-147h-316l432 -679h-187l-382 624l-388 -624h-176z" />
<glyph unicode="&#x4ff;" horiz-adv-x="1040" d="M38 0l347 487h-272v125h266l-322 451h184l280 -407l279 407h182l-324 -451h271v-125h-277l349 -487h-182l-298 431l-301 -431h-182z" />
<glyph unicode="&#x2000;" horiz-adv-x="1022" />
<glyph unicode="&#x2001;" horiz-adv-x="2044" />
<glyph unicode="&#x2002;" horiz-adv-x="1022" />
<glyph unicode="&#x2003;" horiz-adv-x="2044" />
<glyph unicode="&#x2004;" horiz-adv-x="681" />
<glyph unicode="&#x2005;" horiz-adv-x="511" />
<glyph unicode="&#x2006;" horiz-adv-x="340" />
<glyph unicode="&#x2007;" horiz-adv-x="340" />
<glyph unicode="&#x2008;" horiz-adv-x="255" />
<glyph unicode="&#x2009;" horiz-adv-x="408" />
<glyph unicode="&#x200a;" horiz-adv-x="113" />
<glyph unicode="&#x2010;" horiz-adv-x="639" d="M81 459v147h477v-147h-477z" />
<glyph unicode="&#x2011;" horiz-adv-x="639" d="M81 459v147h477v-147h-477z" />
<glyph unicode="&#x2012;" horiz-adv-x="639" d="M81 459v147h477v-147h-477z" />
<glyph unicode="&#x2013;" horiz-adv-x="993" d="M80 459v147h834v-147h-834z" />
<glyph unicode="&#x2014;" horiz-adv-x="1986" d="M80 459v147h1827v-147h-1827z" />
<glyph unicode="&#x2018;" horiz-adv-x="337" d="M24 954q22 87 69.5 217t101.5 247h119q-64 -246 -100 -486h-178z" />
<glyph unicode="&#x2019;" horiz-adv-x="337" d="M24 932q68 277 99 486h177l14 -21q-25 -97 -72.5 -225.5t-98.5 -239.5h-119z" />
<glyph unicode="&#x201a;" horiz-adv-x="486" d="M61 -256q26 101 57.5 249.5t44.5 237.5h177l14 -22q-25 -97 -72.5 -226t-99.5 -239h-121z" />
<glyph unicode="&#x201c;" horiz-adv-x="695" d="M24 954q22 87 69.5 217t101.5 247h119q-64 -246 -100 -486h-178zM379 954q55 208 173 464h119q-29 -111 -57.5 -251.5t-41.5 -234.5h-178z" />
<glyph unicode="&#x201d;" horiz-adv-x="695" d="M24 932q68 277 99 486h177l14 -21q-25 -97 -72.5 -225.5t-98.5 -239.5h-119zM379 932q25 97 57.5 246.5t44.5 239.5h177l13 -21q-23 -88 -69.5 -217t-100.5 -248h-122z" />
<glyph unicode="&#x201e;" horiz-adv-x="804" d="M24 -255q68 277 99 486h177l14 -21q-25 -97 -72.5 -225.5t-98.5 -239.5h-119zM379 -255q25 97 57.5 246.5t44.5 239.5h177l13 -21q-23 -88 -69.5 -217t-100.5 -248h-122z" />
<glyph unicode="&#x2022;" horiz-adv-x="746" d="M159 726q0 117 55 178t159 61q102 0 158.5 -60t56.5 -179q0 -116 -56 -178.5t-159 -62.5t-158.5 63.5t-55.5 177.5z" />
<glyph unicode="&#x2026;" horiz-adv-x="1557" d="M147 103q0 65 30 98.5t85 33.5q56 0 87.5 -33.5t31.5 -98.5q0 -63 -32 -97t-87 -34q-50 0 -82.5 30.5t-32.5 100.5zM661 103q0 65 30 98.5t85 33.5q56 0 87.5 -33.5t31.5 -98.5q0 -63 -32 -97t-87 -34q-50 0 -82.5 30.5t-32.5 100.5zM1176 103q0 65 30 98.5t85 33.5 q56 0 87.5 -33.5t31.5 -98.5q0 -63 -32 -97t-87 -34q-50 0 -82.5 30.5t-32.5 100.5z" />
<glyph unicode="&#x202f;" horiz-adv-x="408" />
<glyph unicode="&#x2039;" horiz-adv-x="604" d="M80 508v26l331 395l116 -67l-281 -339l281 -341l-116 -69z" />
<glyph unicode="&#x203a;" horiz-adv-x="604" d="M78 182l278 341l-278 339l113 67l334 -395v-26l-334 -395z" />
<glyph unicode="&#x205f;" horiz-adv-x="511" />
<glyph unicode="&#x20ac;" horiz-adv-x="1171" d="M61 491v125h148l-2 41v42l2 78h-148v125h159q38 253 179.5 395t371.5 142q195 0 355 -95l-69 -134q-161 83 -286 83q-309 0 -386 -391h495v-125h-508l-2 -55v-62l2 -44h449v-125h-434q36 -175 134.5 -270.5t263.5 -95.5q151 0 299 64v-145q-141 -63 -307 -63 q-230 0 -370 130.5t-185 379.5h-161z" />
<glyph unicode="&#x2122;" horiz-adv-x="1541" d="M36 1315v103h527v-103h-205v-596h-119v596h-203zM628 719v699h181l190 -542l197 542h175v-699h-124v407l6 133h-8l-204 -540h-101l-195 542h-8l6 -125v-417h-115z" />
<glyph unicode="&#x25fc;" horiz-adv-x="1062" d="M0 0v1062h1062v-1062h-1062z" />
</font>
</defs>
</svg>
