<svg xmlns="http://www.w3.org/2000/svg" xmlns:xlink="http://www.w3.org/1999/xlink" width="34.327" height="36" viewBox="0 0 34.327 36"><defs><style>.a{fill:none;}.b{clip-path:url(#a);}.c{fill:#b6dcfe;}.d{fill:#4788c7;}.e{fill:#fff;}.f{fill:#dff0fe;}.g{fill:#98ccfd;}</style><clipPath id="a"><rect class="a" width="34.327" height="36"/></clipPath></defs><g class="b" transform="translate(0 0)"><g transform="translate(0 22.068)"><path class="c" d="M3.88,54.285a9.8,9.8,0,0,1,9.874-9.195h6.9a9.8,9.8,0,0,1,9.874,9.195Z" transform="translate(-3.409 -44.63)"/><path class="d" d="M20.241,45.151a9.354,9.354,0,0,1,9.378,8.275H3.967a9.353,9.353,0,0,1,9.378-8.275h6.9m0-.92h-6.9A10.232,10.232,0,0,0,3,54.345H30.585A10.231,10.231,0,0,0,20.241,44.231Z" transform="translate(-3 -44.231)"/></g><g transform="translate(9.195 16.928)"><path class="e" d="M25.176,43.385a4.541,4.541,0,0,1-4.138-2.872V35.486h8.276v5.028A4.541,4.541,0,0,1,25.176,43.385Z" transform="translate(-20.578 -35.026)"/><path class="d" d="M28.455,35.547V40.02a3.952,3.952,0,0,1-7.356,0V35.547h7.356m.92-.92h-9.2V40.2a5.07,5.07,0,0,0,4.6,3.245,5.07,5.07,0,0,0,4.6-3.245V34.627Z" transform="translate(-20.179 -34.627)"/></g><g transform="translate(5.517 11.034)"><g transform="translate(0.46 0.461)"><path class="f" d="M27.894,28.285a1.9,1.9,0,1,1,0-3.809c1.586,0,1.9.428,1.9,1.117C29.8,26.743,28.857,28.285,27.894,28.285Zm-11.823,0c-.963,0-1.9-1.542-1.9-2.692,0-.69.319-1.117,1.9-1.117a1.9,1.9,0,0,1,0,3.809Z" transform="translate(-14.167 -24.476)"/></g><g transform="translate(0)"><path class="d" d="M27.495,24.535c1.445,0,1.445.334,1.445.657,0,.96-.824,2.234-1.445,2.234a1.445,1.445,0,0,1,0-2.89m-11.823,0a1.445,1.445,0,0,1,0,2.889c-.621,0-1.445-1.273-1.445-2.232,0-.323,0-.657,1.445-.657m11.823-.92a2.364,2.364,0,1,0,0,4.728c1.305,0,2.364-1.847,2.364-3.152s-1.059-1.576-2.364-1.576Zm-11.823,0c-1.306,0-2.364.27-2.364,1.576s1.058,3.153,2.364,3.153a2.365,2.365,0,0,0,0-4.729Z" transform="translate(-13.308 -23.615)"/></g></g><g transform="translate(7.356 4.623)"><g transform="translate(0.46 0.46)"><path class="e" d="M23.579,29.022a2.071,2.071,0,0,1-1.434-.58l-.082-.079-.111-.031A6,6,0,0,1,17.6,22.585V15.1A2.61,2.61,0,0,1,20.211,12.5h6.738A2.611,2.611,0,0,1,29.556,15.1v7.481a6,6,0,0,1-4.349,5.747l-.11.032-.083.079A2.072,2.072,0,0,1,23.579,29.022Z" transform="translate(-17.603 -12.497)"/></g><g transform="translate(0 0)"><path class="d" d="M26.55,12.558A2.15,2.15,0,0,1,28.7,14.705v7.481a5.533,5.533,0,0,1-4.015,5.3l-.22.063-.165.158a1.6,1.6,0,0,1-2.234,0l-.165-.158-.22-.063a5.533,5.533,0,0,1-4.014-5.3V14.705a2.15,2.15,0,0,1,2.148-2.148H26.55m0-.92H19.811a3.067,3.067,0,0,0-3.067,3.067v7.481a6.435,6.435,0,0,0,4.685,6.189,2.523,2.523,0,0,0,3.5,0,6.436,6.436,0,0,0,4.685-6.189V14.705a3.068,3.068,0,0,0-3.067-3.067Z" transform="translate(-16.744 -11.638)"/></g></g><g transform="translate(5.517)"><path class="c" d="M27.96,16.732V13.514c0-3.2-2.04-4.068-2.126-4.1l-.315-.128-.215.265a7.473,7.473,0,0,1-5.16,2.588c-.242,0-.486-.009-.727-.016s-.482-.016-.714-.016c-.808,0-2.7,0-2.7,2.33v2.3h-.2a12.172,12.172,0,0,1-1.641-5.447c0-4.372,3.214-7.426,7.816-7.426a5,5,0,0,1,4.19,2.511l.109.209.233.034c1.41.2,3.284.946,3.284,5.062a11.084,11.084,0,0,1-1.635,5.057Z" transform="translate(-13.707 -3.399)"/><g transform="translate(0)"><path class="d" d="M21.583,3.92a4.492,4.492,0,0,1,3.782,2.265l.218.417.466.067c1.346.192,2.89.89,2.89,4.607a9.008,9.008,0,0,1-.92,3.58V13.114c0-3.508-2.313-4.49-2.412-4.529l-.632-.256-.429.53a6.945,6.945,0,0,1-4.8,2.417c-.238,0-.477-.007-.712-.016s-.493-.016-.73-.016c-.781,0-3.155,0-3.155,2.79v.742a10.188,10.188,0,0,1-.92-3.89c0-4.1,3.025-6.967,7.356-6.967m0-.92c-4.928,0-8.275,3.372-8.275,7.886a12.843,12.843,0,0,0,1.839,5.907h.92V14.034c0-1.646,1-1.87,2.235-1.87.461,0,.954.031,1.442.031a7.882,7.882,0,0,0,5.517-2.758s1.839.747,1.839,3.678v3.678h.92a11.83,11.83,0,0,0,1.839-5.517c0-3.826-1.566-5.215-3.678-5.517A5.452,5.452,0,0,0,21.583,3Z" transform="translate(-13.308 -3)"/></g></g><g transform="translate(20.315 21.988)"><path class="g" d="M48.3,58.042a6.617,6.617,0,1,1,6.617-6.617A6.624,6.624,0,0,1,48.3,58.042Z" transform="translate(-41.294 -44.419)"/><path class="d" d="M47.962,44.859a6.228,6.228,0,1,1-6.228,6.228,6.235,6.235,0,0,1,6.228-6.228m0-.778a7.006,7.006,0,1,0,7.006,7.006,7.006,7.006,0,0,0-7.006-7.006Z" transform="translate(-40.956 -44.081)"/><path class="e" d="M54.558,53.012H51.444V49.9H49.887v3.114H46.773v1.557h3.114v3.114h1.557V54.569h3.114Z" transform="translate(-43.66 -46.785)"/></g></g></svg>