<svg xmlns="http://www.w3.org/2000/svg" xmlns:xlink="http://www.w3.org/1999/xlink" width="36" height="36" viewBox="0 0 36 36"><defs><style>.a{fill:none;}.b{clip-path:url(#a);}.c{fill:#98ccfd;}.d{fill:#4788c7;}.e{fill:#dff0fe;}</style><clipPath id="a"><rect class="a" width="36" height="36"/></clipPath></defs><g class="b" transform="translate(0 0)"><g transform="translate(0 0)"><g transform="translate(17.514 32.108)"><path class="c" d="M19.5,37.419V35.959A1.461,1.461,0,0,1,20.959,34.5H35.554a1.461,1.461,0,0,1,1.459,1.459v1.459Z" transform="translate(-19.014 -34.014)"/><path class="d" d="M35.54,34.973a.975.975,0,0,1,.973.973v.973H19.973v-.973a.975.975,0,0,1,.973-.973H35.54m0-.973H20.946A1.952,1.952,0,0,0,19,35.946v1.946H37.486V35.946A1.952,1.952,0,0,0,35.54,34Z" transform="translate(-19 -34)"/></g><g transform="translate(0 8.2)"><path class="c" d="M3.683,28.975a2.18,2.18,0,0,1-1.155-4.031c1.139-.71,23.038-13.009,26.308-14.846l.918,1.474C26.641,13.712,5.69,28.111,4.833,28.644A2.167,2.167,0,0,1,3.683,28.975Z" transform="translate(-1.013 -9.446)"/><path class="d" d="M28.655,10.732l.427.685c-8.6,5.912-23.812,16.356-24.519,16.8a1.694,1.694,0,0,1-1.791-2.875c.945-.589,16.89-9.557,25.883-14.607m.334-1.3S3.506,23.734,2.256,24.514A2.667,2.667,0,1,0,5.078,29.04C6.017,28.454,30.4,11.691,30.4,11.691L28.989,9.428Z" transform="translate(-0.999 -9.428)"/></g><g transform="translate(13.622 0)"><path class="d" d="M15.135,8.424h0a.975.975,0,0,1,.341-1.333L25.519,1.135a.975.975,0,0,1,1.333.341h0a.975.975,0,0,1-.341,1.333L16.468,8.764A.975.975,0,0,1,15.135,8.424Z" transform="translate(-15 -1)"/></g><g transform="translate(16.326 1.691)"><path class="e" d="M27.363,22.218a13.509,13.509,0,0,1-6.905-6.087A13.515,13.515,0,0,1,18.43,7.151l6.529-3.87a13.523,13.523,0,0,1,6.905,6.086,13.517,13.517,0,0,1,2.029,8.98Z" transform="translate(-17.792 -2.753)"/><path class="d" d="M25,3.8a13.188,13.188,0,0,1,6.43,5.8,13.185,13.185,0,0,1,2.006,8.427l-6.144,3.642a13.2,13.2,0,0,1-6.43-5.8A13.185,13.185,0,0,1,18.857,7.44L25,3.8m-.118-1.061-6.9,4.09a13.781,13.781,0,0,0,2.044,9.536,13.786,13.786,0,0,0,7.386,6.367l6.9-4.09a13.781,13.781,0,0,0-2.044-9.536,13.782,13.782,0,0,0-7.386-6.367Z" transform="translate(-17.779 -2.738)"/></g><g transform="translate(23.04 15.567)"><path class="d" d="M24.815,24.424h0a.975.975,0,0,1,.341-1.333L35.2,17.135a.975.975,0,0,1,1.333.341h0a.975.975,0,0,1-.341,1.333L26.148,24.764A.975.975,0,0,1,24.815,24.424Z" transform="translate(-24.68 -17)"/></g></g></g></svg>