<svg width="23" height="17" 
    xmlns="http://www.w3.org/2000/svg" 
    xmlns:xlink="http://www.w3.org/1999/xlink">
    <defs>
        <path d="M10 12.5c0-.828.665-1.5 1.503-1.5h16.994c.83 0 1.503.666 1.503 1.5 0 .828-.665 1.5-1.503 1.5H11.503c-.83 0-1.503-.666-1.503-1.5zm3 7c0-.828.665-1.5 1.503-1.5h16.994c.83 0 1.503.666 1.503 1.5 0 .828-.665 1.5-1.503 1.5H14.503c-.83 0-1.503-.666-1.503-1.5zm-3 7c0-.828.665-1.5 1.503-1.5h16.994c.83 0 1.503.666 1.503 1.5 0 .828-.665 1.5-1.503 1.5H11.503c-.83 0-1.503-.666-1.503-1.5z" id="a"/>
    </defs>
    <use fill="#1888CC" xlink:href="#a" transform="translate(-10 -11)" fill-rule="evenodd"/>
</svg>
