<svg data-name="Layer 1" xmlns="http://www.w3.org/2000/svg" xmlns:xlink="http://www.w3.org/1999/xlink" viewBox="0 0 72 72"><defs><symbol id="a" data-name="circle/plus" viewBox="0 0 32.324 32.324"><path d="M16.162 30.324a14.162 14.162 0 1 1 14.161-14.162 14.178 14.178 0 0 1-14.161 14.162z" fill="#98ccfd"/><path d="M16.162 4A12.162 12.162 0 1 1 4 16.162 12.162 12.162 0 0 1 16.162 4m0-4a16.162 16.162 0 1 0 16.162 16.162A16.18 16.18 0 0 0 16.162 0z" fill="#fff"/><circle cx="16.162" cy="16.162" r="12.162" fill="none" stroke="#4788c7" stroke-miterlimit="10" stroke-width="1.5"/><path fill="#fff" d="M23.462 14.712h-5.8v-5.8h-2.9v5.8h-5.9v2.9h5.9v5.8h2.9v-5.8h5.8v-2.9z"/></symbol></defs><rect x="5.925" y="3.127" width="53.229" height="65.798" rx="3" ry="3" fill="#98ccfd" stroke="#4788c7" stroke-linecap="round" stroke-linejoin="round" stroke-width="2"/><path fill="#fff" stroke="#4788c7" stroke-miterlimit="10" stroke-width="1.5" d="M19.853 18.509h27.474v16.509H19.853z"/><path fill="none" stroke="#4788c7" stroke-linecap="round" stroke-linejoin="round" stroke-width="1.5" d="M27.313 22.324h12.554M24.685 26.763h17.81M27.313 31.202h12.554"/><path d="M1.154 20.565a3.651 3.651 0 0 0 3.572 3.728q.078.002.156 0v-1.642a2.026 2.026 0 0 1-2.012-2.007 1.877 1.877 0 0 1 1.923-1.83l.09.005v-1.826a3.651 3.651 0 0 0-3.73 3.572zM8.62 19.005a2.19 2.19 0 0 0 4.382 0 2.375 2.375 0 0 0-2.374-2.013H6.704v1.642H8.62zM1.154 31.424a3.651 3.651 0 0 0 3.572 3.729q.078.002.156 0v-1.642a2.026 2.026 0 0 1-2.012-2.008 1.877 1.877 0 0 1 1.923-1.829q.045.001.09.005v-1.827a3.651 3.651 0 0 0-3.73 3.572zM8.62 30.043a2.219 2.219 0 0 0 2.19 2.19 2.19 2.19 0 0 0 0-4.381H6.705v1.642h2.012a1.157 1.157 0 0 0-.095.549zM1.154 42.286a3.651 3.651 0 0 0 3.572 3.728q.078.002.156 0v-1.642a2.026 2.026 0 0 1-2.012-2.007 1.877 1.877 0 0 1 1.923-1.83l.09.005v-1.826a3.651 3.651 0 0 0-3.73 3.572zM8.62 40.904a2.219 2.219 0 0 0 2.19 2.19 2.19 2.19 0 0 0 .003-4.38h-4.11v1.641h2.013a1.157 1.157 0 0 0-.095.549zM1.154 53.238a3.651 3.651 0 0 0 3.572 3.728q.078.002.156 0v-1.642a2.026 2.026 0 0 1-2.012-2.007 1.877 1.877 0 0 1 1.923-1.83l.09.005v-1.826a3.651 3.651 0 0 0-3.73 3.572zM10.814 49.666h-4.11v1.642h2.012a1.156 1.156 0 0 0-.095.548 2.219 2.219 0 0 0 2.19 2.19 2.19 2.19 0 0 0 .003-4.38z" fill="#4788c7"/><use data-name="circle/plus" width="32.324" height="32.324" transform="translate(39.295 39.341)" xlink:href="#a"/></svg>