<svg data-name="Layer 1" xmlns="http://www.w3.org/2000/svg" viewBox="0 0 72 72"><rect x="9.925" y="3.127" width="53.229" height="65.798" rx="3" ry="3" fill="#98ccfd" stroke="#4788c7" stroke-linecap="round" stroke-linejoin="round" stroke-width="2"/><path d="M60.485 3.965a1.783 1.783 0 0 1 1.78 1.78v60.51a1.783 1.783 0 0 1-1.78 1.78H12.432a1.783 1.783 0 0 1-1.78-1.78V5.746a1.783 1.783 0 0 1 1.78-1.78h48.053m0-1.78H12.432a3.558 3.558 0 0 0-3.56 3.56v60.51a3.558 3.558 0 0 0 3.56 3.56h48.053a3.558 3.558 0 0 0 3.56-3.559V5.744a3.558 3.558 0 0 0-3.56-3.56z" fill="#4788c7"/><path fill="#fff" stroke="#4788c7" stroke-miterlimit="10" stroke-width="1.5" d="M23.798 18.509h27.474v16.509H23.798z"/><path fill="none" stroke="#4788c7" stroke-linecap="round" stroke-linejoin="round" stroke-width="1.5" d="M31.258 22.324h12.554M28.63 26.763h17.81M31.258 31.202h12.554"/><path d="M5.099 20.565a3.651 3.651 0 0 0 3.572 3.728q.078.002.156 0v-1.642a2.026 2.026 0 0 1-2.012-2.007 1.877 1.877 0 0 1 1.923-1.83l.09.005v-1.826a3.651 3.651 0 0 0-3.73 3.572zM12.566 19.005a2.19 2.19 0 0 0 4.38 0 2.375 2.375 0 0 0-2.373-2.013H10.65v1.642h1.917zM5.099 31.424a3.651 3.651 0 0 0 3.572 3.729q.078.002.156 0v-1.642a2.026 2.026 0 0 1-2.012-2.008 1.877 1.877 0 0 1 1.923-1.829q.045.001.09.005v-1.827a3.651 3.651 0 0 0-3.73 3.572zM12.566 30.043a2.219 2.219 0 0 0 2.19 2.19 2.19 2.19 0 0 0 0-4.381h-4.107v1.642h2.012a1.157 1.157 0 0 0-.095.549zM5.099 42.286a3.651 3.651 0 0 0 3.572 3.728q.078.002.156 0v-1.642a2.026 2.026 0 0 1-2.012-2.007 1.877 1.877 0 0 1 1.923-1.83l.09.005v-1.826a3.651 3.651 0 0 0-3.73 3.572zM12.566 40.904a2.219 2.219 0 0 0 2.19 2.19 2.19 2.19 0 0 0 .002-4.38h-4.11v1.641h2.013a1.157 1.157 0 0 0-.095.549zM5.099 53.238a3.651 3.651 0 0 0 3.572 3.728q.078.002.156 0v-1.642a2.026 2.026 0 0 1-2.012-2.007 1.877 1.877 0 0 1 1.923-1.83l.09.005v-1.826a3.651 3.651 0 0 0-3.73 3.572zM14.759 49.666h-4.11v1.642h2.013a1.156 1.156 0 0 0-.096.548 2.219 2.219 0 0 0 2.19 2.19 2.19 2.19 0 0 0 .003-4.38z" fill="#4788c7"/></svg>