<svg data-name="Layer 1" xmlns="http://www.w3.org/2000/svg" xmlns:xlink="http://www.w3.org/1999/xlink" viewBox="0 0 72 72"><defs><symbol id="a" data-name="circle/plus" viewBox="0 0 32.324 32.324"><path d="M16.162 30.324a14.162 14.162 0 1 1 14.161-14.162 14.178 14.178 0 0 1-14.161 14.162z" fill="#98ccfd"/><path d="M16.162 4A12.162 12.162 0 1 1 4 16.162 12.162 12.162 0 0 1 16.162 4m0-4a16.162 16.162 0 1 0 16.162 16.162A16.18 16.18 0 0 0 16.162 0z" fill="#fff"/><circle cx="16.162" cy="16.162" r="12.162" fill="none" stroke="#4788c7" stroke-miterlimit="10" stroke-width="1.5"/><path fill="#fff" d="M23.462 14.712h-5.8v-5.8h-2.9v5.8h-5.9v2.9h5.9v5.8h2.9v-5.8h5.8v-2.9z"/></symbol></defs><path fill="#fff" d="M4.469 2.961v65.45l35.4-1.034h15.925V37.911l-.925-18.7-16.25-16.25"/><path fill="#dff0fe" stroke="#4788c7" stroke-miterlimit="10" stroke-width="2" d="M38.069 2.911v16.8h16.8"/><path fill="none" stroke="#4788c7" stroke-linecap="round" stroke-linejoin="round" stroke-width="2" d="M15.469 34.636h21.3M15.969 28.986h21.3M15.469 40.261h24.917M15.469 45.886h21.042M15.469 51.511h8.8M54.869 37.911v-18.7l-16.25-16.25H4.469v65.45h35.4"/><use data-name="circle/plus" width="32.324" height="32.324" transform="translate(38.207 39.766)" xlink:href="#a"/></svg>