<svg data-name="Layer 1" xmlns="http://www.w3.org/2000/svg" xmlns:xlink="http://www.w3.org/1999/xlink" viewBox="0 0 72 72"><defs><symbol id="a" data-name="document frame" viewBox="0 0 52.4 67.45"><path fill="#fff" d="M51.4 35.95v-18.7L35.15 1H1v65.45h50.4v-30.5z"/><path fill="#dff0fe" stroke="#4788c7" stroke-miterlimit="10" stroke-width="2" d="M34.6 1.05v16.8h16.8"/><path fill="none" stroke="#4788c7" stroke-linecap="round" stroke-miterlimit="10" stroke-width="2" d="M51.4 35.95v-18.7L35.15 1H1v65.45h50.4v-30.5z"/></symbol></defs><use width="52.4" height="67.45" transform="translate(9.8 2.3)" xlink:href="#a"/><g style="isolation:isolate" fill="#4788c7"><path d="M18.861 47.565l3.168-8.207-2.925-7.458h2.376l1.693 4.642L24.89 31.9h2.376l-2.992 7.458 3.233 8.207h-2.376l-1.958-5.28-1.936 5.28zM28.519 47.565V31.9h2.244v13.42h4.444v2.244zM43.919 36.41h-2.244v-.506a2.395 2.395 0 0 0-.363-1.331 1.343 1.343 0 0 0-1.221-.561 1.41 1.41 0 0 0-.748.176 1.47 1.47 0 0 0-.462.44 1.846 1.846 0 0 0-.242.649 4.239 4.239 0 0 0-.067.759 7.584 7.584 0 0 0 .033.77 1.47 1.47 0 0 0 .166.55 1.218 1.218 0 0 0 .384.418 3.475 3.475 0 0 0 .694.353l1.716.681a4.248 4.248 0 0 1 1.21.671 2.91 2.91 0 0 1 .726.89 4.178 4.178 0 0 1 .33 1.2 11.869 11.869 0 0 1 .088 1.53 8.07 8.07 0 0 1-.198 1.836 3.867 3.867 0 0 1-.638 1.44 3.166 3.166 0 0 1-1.21.97 4.27 4.27 0 0 1-1.826.35 4.003 4.003 0 0 1-1.519-.285 3.591 3.591 0 0 1-1.21-.792 3.86 3.86 0 0 1-.802-1.177 3.569 3.569 0 0 1-.297-1.463v-.836h2.244v.704a1.835 1.835 0 0 0 .362 1.11 1.415 1.415 0 0 0 1.222.495 1.964 1.964 0 0 0 .89-.165 1.18 1.18 0 0 0 .496-.472 1.746 1.746 0 0 0 .209-.738c.021-.286.033-.604.033-.957a9.493 9.493 0 0 0-.044-1.011 1.74 1.74 0 0 0-.177-.638 1.243 1.243 0 0 0-.406-.397 5.4 5.4 0 0 0-.671-.33l-1.607-.66a3.557 3.557 0 0 1-1.947-1.572 5.412 5.412 0 0 1-.495-2.453 5.704 5.704 0 0 1 .242-1.673 3.79 3.79 0 0 1 .727-1.364 3.325 3.325 0 0 1 1.177-.913 3.932 3.932 0 0 1 1.705-.34 3.725 3.725 0 0 1 1.529.308 3.932 3.932 0 0 1 1.198.814 3.399 3.399 0 0 1 1.013 2.42zM44.491 47.565l3.168-8.207-2.926-7.458h2.376l1.694 4.642L50.52 31.9h2.376l-2.992 7.458 3.233 8.207h-2.376l-1.958-5.28-1.935 5.28z"/></g></svg>