<svg data-name="Layer 1" xmlns="http://www.w3.org/2000/svg" xmlns:xlink="http://www.w3.org/1999/xlink" viewBox="0 0 72 72"><defs><symbol id="a" data-name="document frame" viewBox="0 0 52.4 67.45"><path fill="#fff" d="M51.4 35.95v-18.7L35.15 1H1v65.45h50.4v-30.5z"/><path fill="#dff0fe" stroke="#4788c7" stroke-miterlimit="10" stroke-width="2" d="M34.6 1.05v16.8h16.8"/><path fill="none" stroke="#4788c7" stroke-linecap="round" stroke-miterlimit="10" stroke-width="2" d="M51.4 35.95v-18.7L35.15 1H1v65.45h50.4v-30.5z"/></symbol></defs><use data-name="document frame" width="52.4" height="67.45" transform="translate(9.8 2.3)" xlink:href="#a"/><g style="isolation:isolate" fill="#4788c7"><path d="M23.438 45.452a4.35 4.35 0 0 0 .704-.065 1.1 1.1 0 0 0 .615-.287 2.513 2.513 0 0 0 .386-.561 4.845 4.845 0 0 0 .385-1.089l.198-.858L22.337 31.9h2.376l2.113 7.37h.044l1.65-7.37h2.376L27.64 43.803a17.21 17.21 0 0 1-.66 1.914 3.32 3.32 0 0 1-.99 1.341 2.354 2.354 0 0 1-1.111.54 7.779 7.779 0 0 1-1.287.098h-.308v-2.244zM32.083 47.564V31.9h7.15v15.664H36.99V33.88h-2.663v13.684zM46.581 47.564V37.4h-.044L43.59 47.564h-2.244V31.9h2.244v10.187h.044L46.581 31.9h2.244v15.664z"/></g></svg>