<svg data-name="Layer 1" xmlns="http://www.w3.org/2000/svg" xmlns:xlink="http://www.w3.org/1999/xlink" viewBox="0 0 72 72"><defs><symbol id="a" data-name="document frame" viewBox="0 0 52.4 67.45"><path fill="#fff" d="M51.4 35.95v-18.7L35.15 1H1v65.45h50.4v-30.5z"/><path fill="#dff0fe" stroke="#4788c7" stroke-miterlimit="10" stroke-width="2" d="M34.6 1.05v16.8h16.8"/><path fill="none" stroke="#4788c7" stroke-linecap="round" stroke-miterlimit="10" stroke-width="2" d="M51.4 35.95v-18.7L35.15 1H1v65.45h50.4v-30.5z"/></symbol></defs><use data-name="document frame" width="52.4" height="67.45" transform="translate(9.8 2.3)" xlink:href="#a"/><g style="isolation:isolate" fill="#4788c7"><path d="M23.141 47.564L26.64 31.9h1.87l3.498 15.665h-2.244l-.66-3.367h-3.057l-.66 3.366zm5.544-5.477l-1.1-5.677h-.044l-1.1 5.677zM40.94 34.012a1.415 1.415 0 0 0-.507.077.992.992 0 0 0-.374.275 1.086 1.086 0 0 0-.242.484 6.354 6.354 0 0 0-.11.638l-.198 1.826a5.124 5.124 0 0 1-.066.528l-.088.45a1.558 1.558 0 0 1-.132.408 2.253 2.253 0 0 1-.319.54 2.08 2.08 0 0 1-.362.362l2.332 7.964h-2.288l-1.98-6.973H35.35v6.973h-2.244V31.9h2.244v6.71h.748a1.542 1.542 0 0 0 .638-.11 1.02 1.02 0 0 0 .397-.308 1.232 1.232 0 0 0 .22-.45 5.058 5.058 0 0 0 .11-.561l.22-1.871a3.572 3.572 0 0 0 .054-.363 5.35 5.35 0 0 1 .363-1.353 3.296 3.296 0 0 1 .397-.704 2.36 2.36 0 0 1 1.022-.76 3.977 3.977 0 0 1 1.42-.23zM44.129 47.564V34.012h-2.597V31.9h7.436v2.112h-2.595v13.552z"/></g></svg>