<svg data-name="Layer 1" xmlns="http://www.w3.org/2000/svg" xmlns:xlink="http://www.w3.org/1999/xlink" viewBox="0 0 72 72"><defs><symbol id="a" data-name="document frame" viewBox="0 0 52.4 67.45"><path fill="#fff" d="M51.4 35.95v-18.7L35.15 1H1v65.45h50.4v-30.5z"/><path fill="#dff0fe" stroke="#4788c7" stroke-miterlimit="10" stroke-width="2" d="M34.6 1.05v16.8h16.8"/><path fill="none" stroke="#4788c7" stroke-linecap="round" stroke-miterlimit="10" stroke-width="2" d="M51.4 35.95v-18.7L35.15 1H1v65.45h50.4v-30.5z"/></symbol></defs><use data-name="document frame" width="52.4" height="67.45" transform="translate(9.8 2.3)" xlink:href="#a"/><g style="isolation:isolate" fill="#4788c7"><path d="M23.383 45.452a4.35 4.35 0 0 0 .704-.066 1.1 1.1 0 0 0 .615-.286 2.518 2.518 0 0 0 .386-.561 4.846 4.846 0 0 0 .385-1.09l.198-.857L22.282 31.9h2.376l2.112 7.37h.045l1.65-7.37h2.376l-3.256 11.902a17.2 17.2 0 0 1-.66 1.914 3.32 3.32 0 0 1-.99 1.342 2.353 2.353 0 0 1-1.111.54 7.777 7.777 0 0 1-1.287.098h-.308v-2.244zM37.265 47.564V37.4h-.044l-2.948 10.164h-2.245V31.9h2.245v10.186h.043L37.265 31.9h2.244v15.664zM41.62 47.564V31.9h2.244v6.71h2.773V31.9h2.244v15.664h-2.244V40.59h-2.773v6.974z"/></g></svg>