<svg data-name="Layer 1" xmlns="http://www.w3.org/2000/svg" xmlns:xlink="http://www.w3.org/1999/xlink" viewBox="0 0 72 72"><defs><symbol id="a" data-name="document frame" viewBox="0 0 52.4 67.45"><path fill="#fff" d="M51.4 35.95v-18.7L35.15 1H1v65.45h50.4v-30.5z"/><path fill="#dff0fe" stroke="#4788c7" stroke-miterlimit="10" stroke-width="2" d="M34.6 1.05v16.8h16.8"/><path fill="none" stroke="#4788c7" stroke-linecap="round" stroke-miterlimit="10" stroke-width="2" d="M51.4 35.95v-18.7L35.15 1H1v65.45h50.4v-30.5z"/></symbol></defs><use width="52.4" height="67.45" transform="translate(9.8 2.3)" xlink:href="#a"/><g style="isolation:isolate" fill="#4788c7"><path d="M23.823 47.565V31.9h3.366a5.01 5.01 0 0 1 1.628.242 3.128 3.128 0 0 1 1.276.858 3.358 3.358 0 0 1 .792 1.44 9.021 9.021 0 0 1 .22 2.234 11.043 11.043 0 0 1-.121 1.783 3.733 3.733 0 0 1-.517 1.363 3.277 3.277 0 0 1-1.232 1.2 4.143 4.143 0 0 1-2.024.429h-1.144v6.116zm2.244-13.553v5.325h1.078a2.294 2.294 0 0 0 1.056-.198 1.25 1.25 0 0 0 .55-.55 2.02 2.02 0 0 0 .21-.815c.02-.322.031-.682.031-1.078q0-.55-.021-1.045a2.265 2.265 0 0 0-.198-.87 1.246 1.246 0 0 0-.529-.571 2.095 2.095 0 0 0-1.011-.198zM32.777 47.565V31.9h3.322a3.86 3.86 0 0 1 2.938 1.056 4.181 4.181 0 0 1 1 2.992v7.326a4.37 4.37 0 0 1-1.067 3.246 4.21 4.21 0 0 1-3.07 1.045zm2.244-13.553v11.44h1.034a1.663 1.663 0 0 0 1.342-.472 2.287 2.287 0 0 0 .396-1.486v-7.546a2.372 2.372 0 0 0-.374-1.43 1.598 1.598 0 0 0-1.364-.506zM42.149 47.565V31.9h6.688v2.112h-4.444v4.753h3.872v2.111h-3.872v6.689z"/></g></svg>