<svg data-name="Layer 1" xmlns="http://www.w3.org/2000/svg" xmlns:xlink="http://www.w3.org/1999/xlink" viewBox="0 0 72 72"><defs><symbol id="a" data-name="document frame" viewBox="0 0 52.4 67.45"><path fill="#fff" d="M51.4 35.95v-18.7L35.15 1H1v65.45h50.4v-30.5z"/><path fill="#dff0fe" stroke="#4788c7" stroke-miterlimit="10" stroke-width="2" d="M34.6 1.05v16.8h16.8"/><path fill="none" stroke="#4788c7" stroke-linecap="round" stroke-miterlimit="10" stroke-width="2" d="M51.4 35.95v-18.7L35.15 1H1v65.45h50.4v-30.5z"/></symbol></defs><use data-name="document frame" width="52.4" height="67.45" transform="translate(9.8 2.3)" xlink:href="#a"/><g style="isolation:isolate" fill="#4788c7"><path d="M23.206 47.565V31.9h3.322a3.86 3.86 0 0 1 2.938 1.056 4.181 4.181 0 0 1 1 2.992v7.326A4.369 4.369 0 0 1 29.4 46.52a4.21 4.21 0 0 1-3.069 1.045zm2.244-13.553v11.44h1.034a1.663 1.663 0 0 0 1.342-.472 2.288 2.288 0 0 0 .396-1.486v-7.546a2.371 2.371 0 0 0-.374-1.43 1.598 1.598 0 0 0-1.364-.506zM32.446 35.596a4.008 4.008 0 0 1 .33-1.672 3.536 3.536 0 0 1 .88-1.21 3.732 3.732 0 0 1 1.2-.704 3.992 3.992 0 0 1 3.926.704 3.673 3.673 0 0 1 .859 1.21 4.008 4.008 0 0 1 .33 1.672v8.272a3.97 3.97 0 0 1-.33 1.694 3.476 3.476 0 0 1-.859 1.167 3.768 3.768 0 0 1-1.22.725 3.9 3.9 0 0 1-2.706 0 3.538 3.538 0 0 1-1.2-.726 3.353 3.353 0 0 1-.88-1.166 3.97 3.97 0 0 1-.33-1.694zm2.244 8.272a1.492 1.492 0 0 0 .452 1.2 1.672 1.672 0 0 0 2.133 0 1.492 1.492 0 0 0 .452-1.2v-8.272a1.492 1.492 0 0 0-.452-1.199 1.671 1.671 0 0 0-2.133 0 1.492 1.492 0 0 0-.452 1.2zM49.078 43.099v.967a3.499 3.499 0 0 1-.274 1.375 3.824 3.824 0 0 1-.76 1.156 3.678 3.678 0 0 1-1.133.802 3.312 3.312 0 0 1-1.396.297 5.022 5.022 0 0 1-1.298-.176 3.065 3.065 0 0 1-1.189-.616 3.412 3.412 0 0 1-.869-1.133A4.01 4.01 0 0 1 41.82 44v-8.624a3.8 3.8 0 0 1 .264-1.43 3.367 3.367 0 0 1 .747-1.144 3.494 3.494 0 0 1 1.155-.759 3.885 3.885 0 0 1 1.486-.275 3.405 3.405 0 0 1 2.574 1.034 3.69 3.69 0 0 1 .759 1.2 4.063 4.063 0 0 1 .274 1.506v.88h-2.243v-.748a1.818 1.818 0 0 0-.374-1.144 1.213 1.213 0 0 0-1.013-.484 1.138 1.138 0 0 0-1.11.517 2.768 2.768 0 0 0-.275 1.309v8.009a2.07 2.07 0 0 0 .297 1.143 1.17 1.17 0 0 0 1.067.462 1.614 1.614 0 0 0 .473-.077 1.382 1.382 0 0 0 .472-.253 1.328 1.328 0 0 0 .33-.483 1.944 1.944 0 0 0 .133-.77v-.77z"/></g></svg>