<svg data-name="Layer 1" xmlns="http://www.w3.org/2000/svg" xmlns:xlink="http://www.w3.org/1999/xlink" viewBox="0 0 72 72"><defs><symbol id="a" data-name="document frame" viewBox="0 0 52.4 67.45"><path fill="#fff" d="M51.4 35.95v-18.7L35.15 1H1v65.45h50.4v-30.5z"/><path fill="#dff0fe" stroke="#4788c7" stroke-miterlimit="10" stroke-width="2" d="M34.6 1.05v16.8h16.8"/><path fill="none" stroke="#4788c7" stroke-linecap="round" stroke-miterlimit="10" stroke-width="2" d="M51.4 35.95v-18.7L35.15 1H1v65.45h50.4v-30.5z"/></symbol></defs><use data-name="document frame" width="52.4" height="67.45" transform="translate(11.8 1.967)" xlink:href="#a"/><g style="isolation:isolate" fill="#4788c7"><path d="M17.212 11.994a2.791 2.791 0 0 1 .225-1.152 2.71 2.71 0 0 1 .603-.864 2.588 2.588 0 0 1 .873-.549 2.926 2.926 0 0 1 2.07 0 2.598 2.598 0 0 1 .872.549 2.71 2.71 0 0 1 .604.864 2.807 2.807 0 0 1 .225 1.152v7.524a2.808 2.808 0 0 1-.225 1.152 2.71 2.71 0 0 1-.604.864 2.59 2.59 0 0 1-.873.55 2.92 2.92 0 0 1-2.069 0 2.58 2.58 0 0 1-.873-.55 2.71 2.71 0 0 1-.604-.864 2.792 2.792 0 0 1-.224-1.152zm1.836 7.524a.907.907 0 0 0 .252.657.933.933 0 0 0 1.296 0 .907.907 0 0 0 .252-.657v-7.524a.91.91 0 0 0-.252-.657.936.936 0 0 0-1.296 0 .91.91 0 0 0-.252.657zM26.086 22.164V11.292l-1.836 1.35v-1.944l1.836-1.35h1.836v12.816zM30.604 11.994a2.791 2.791 0 0 1 .224-1.152 2.71 2.71 0 0 1 .604-.864 2.588 2.588 0 0 1 .873-.549 2.926 2.926 0 0 1 2.069 0 2.598 2.598 0 0 1 .873.549 2.71 2.71 0 0 1 .604.864 2.807 2.807 0 0 1 .224 1.152v7.524a2.808 2.808 0 0 1-.224 1.152 2.71 2.71 0 0 1-.604.864 2.59 2.59 0 0 1-.873.549 2.92 2.92 0 0 1-2.07 0 2.58 2.58 0 0 1-.872-.549 2.71 2.71 0 0 1-.604-.864 2.792 2.792 0 0 1-.225-1.152zm1.836 7.524a.907.907 0 0 0 .251.657.933.933 0 0 0 1.296 0 .907.907 0 0 0 .252-.657v-7.524a.91.91 0 0 0-.252-.657.936.936 0 0 0-1.296 0 .91.91 0 0 0-.252.657zM17.212 31.994a2.795 2.795 0 0 1 .225-1.152 2.695 2.695 0 0 1 .603-.863 2.583 2.583 0 0 1 .873-.55 2.934 2.934 0 0 1 2.07 0 2.593 2.593 0 0 1 .872.55 2.695 2.695 0 0 1 .604.863 2.811 2.811 0 0 1 .225 1.152v7.524a2.808 2.808 0 0 1-.225 1.152 2.71 2.71 0 0 1-.604.864 2.59 2.59 0 0 1-.873.55 2.92 2.92 0 0 1-2.069 0 2.58 2.58 0 0 1-.873-.55 2.71 2.71 0 0 1-.604-.864 2.792 2.792 0 0 1-.224-1.152zm1.836 7.524a.907.907 0 0 0 .252.657.933.933 0 0 0 1.296 0 .907.907 0 0 0 .252-.657v-7.524a.909.909 0 0 0-.252-.657.936.936 0 0 0-1.296 0 .908.908 0 0 0-.252.657zM23.908 31.994a2.795 2.795 0 0 1 .225-1.152 2.695 2.695 0 0 1 .603-.863 2.583 2.583 0 0 1 .873-.55 2.934 2.934 0 0 1 2.07 0 2.593 2.593 0 0 1 .873.55 2.695 2.695 0 0 1 .603.863 2.811 2.811 0 0 1 .225 1.152v7.524a2.808 2.808 0 0 1-.225 1.152 2.71 2.71 0 0 1-.603.864 2.59 2.59 0 0 1-.873.549 2.92 2.92 0 0 1-2.07 0 2.58 2.58 0 0 1-.873-.549 2.71 2.71 0 0 1-.603-.864 2.792 2.792 0 0 1-.225-1.152zm1.836 7.524a.907.907 0 0 0 .252.657.933.933 0 0 0 1.296 0 .907.907 0 0 0 .252-.657v-7.524a.908.908 0 0 0-.252-.657.936.936 0 0 0-1.296 0 .909.909 0 0 0-.252.657zM32.781 42.164V31.292l-1.836 1.35v-1.944l1.836-1.35h1.836v12.816zM39.477 42.164V31.292l-1.835 1.35v-1.944l1.835-1.35h1.837v12.816zM43.995 31.994a2.795 2.795 0 0 1 .225-1.152 2.695 2.695 0 0 1 .603-.863 2.583 2.583 0 0 1 .873-.55 2.934 2.934 0 0 1 2.07 0 2.593 2.593 0 0 1 .873.55 2.695 2.695 0 0 1 .603.863 2.811 2.811 0 0 1 .225 1.152v7.524a2.808 2.808 0 0 1-.225 1.152 2.71 2.71 0 0 1-.603.864 2.59 2.59 0 0 1-.873.549 2.92 2.92 0 0 1-2.07 0 2.58 2.58 0 0 1-.873-.549 2.71 2.71 0 0 1-.603-.864 2.792 2.792 0 0 1-.225-1.152zm1.836 7.524a.907.907 0 0 0 .252.657.933.933 0 0 0 1.296 0 .907.907 0 0 0 .252-.657v-7.524a.909.909 0 0 0-.252-.657.936.936 0 0 0-1.296 0 .908.908 0 0 0-.252.657zM19.39 62.164V51.292l-1.836 1.35v-1.944l1.836-1.35h1.836v12.816zM26.086 62.164V51.292l-1.836 1.35v-1.944l1.836-1.35h1.836v12.816zM32.781 62.164V51.292l-1.836 1.35v-1.944l1.836-1.35h1.836v12.816zM37.3 51.994a2.795 2.795 0 0 1 .225-1.152 2.695 2.695 0 0 1 .603-.863 2.583 2.583 0 0 1 .873-.55 2.934 2.934 0 0 1 2.07 0 2.593 2.593 0 0 1 .873.55 2.695 2.695 0 0 1 .603.863 2.811 2.811 0 0 1 .225 1.152v7.524a2.808 2.808 0 0 1-.225 1.152 2.71 2.71 0 0 1-.603.864 2.59 2.59 0 0 1-.874.549 2.92 2.92 0 0 1-2.069 0 2.58 2.58 0 0 1-.873-.549 2.71 2.71 0 0 1-.603-.864 2.792 2.792 0 0 1-.225-1.152zm1.836 7.524a.907.907 0 0 0 .252.657.933.933 0 0 0 1.296 0 .907.907 0 0 0 .252-.657v-7.524a.908.908 0 0 0-.252-.657.936.936 0 0 0-1.296 0 .909.909 0 0 0-.252.657zM46.173 62.164V51.292l-1.836 1.35v-1.944l1.836-1.35h1.836v12.816z"/></g></svg>