<svg data-name="Layer 1" xmlns="http://www.w3.org/2000/svg" xmlns:xlink="http://www.w3.org/1999/xlink" viewBox="0 0 72 72"><defs><symbol id="a" data-name="document frame" viewBox="0 0 52.4 67.45"><path fill="#fff" d="M51.4 35.95v-18.7L35.15 1H1v65.45h50.4v-30.5z"/><path fill="#dff0fe" stroke="#4788c7" stroke-miterlimit="10" stroke-width="2" d="M34.6 1.05v16.8h16.8"/><path fill="none" stroke="#4788c7" stroke-linecap="round" stroke-miterlimit="10" stroke-width="2" d="M51.4 35.95v-18.7L35.15 1H1v65.45h50.4v-30.5z"/></symbol></defs><use width="52.4" height="67.45" transform="translate(9.8 2.3)" xlink:href="#a"/><path fill="#dff0fe" d="M16.297 30.829h39.405v22.986H16.297z"/><path d="M51.872 25.903H15.75v32.838h40.5V25.903zm-1.095 1.095v3.283h-3.284v-3.283zm-4.378 0v3.283h-3.284v-3.283zm-4.379 0v3.283h-3.284v-3.283zm-4.378 0v3.283h-3.284v-3.283zm-4.379 0v3.283H29.98v-3.283zm-4.378 0v3.283h-3.284v-3.283zm-4.378 0v3.283h-3.284v-3.283zm-7.662 0h3.283v3.283h-3.283zm0 30.648v-3.284h3.283v3.284zm4.378 0v-3.284h3.284v3.284zm4.378 0v-3.284h3.284v3.284zm4.379 0v-3.284h3.283v3.284zm4.378 0v-3.284h3.284v3.284zm4.379 0v-3.284h3.283v3.284zm4.378 0v-3.284h3.284v3.284zm4.378 0v-3.284h3.284v3.284zm7.662 0h-3.283v-3.284h3.283zm0-4.378h-38.31V31.376h38.31zm-3.283-22.986v-3.284h3.283v3.283z" fill="#4788c7"/></svg>