<svg data-name="Layer 1" xmlns="http://www.w3.org/2000/svg" xmlns:xlink="http://www.w3.org/1999/xlink" viewBox="0 0 72 72"><defs><symbol id="a" data-name="document frame" viewBox="0 0 52.4 67.45"><path fill="#fff" d="M51.4 35.95v-18.7L35.15 1H1v65.45h50.4v-30.5z"/><path fill="#dff0fe" stroke="#4788c7" stroke-miterlimit="10" stroke-width="2" d="M34.6 1.05v16.8h16.8"/><path fill="none" stroke="#4788c7" stroke-linecap="round" stroke-miterlimit="10" stroke-width="2" d="M51.4 35.95v-18.7L35.15 1H1v65.45h50.4v-30.5z"/></symbol></defs><use data-name="document frame" width="52.4" height="67.45" transform="translate(11.8 1.967)" xlink:href="#a"/><path fill="#dff0fe" d="M19.858 39.649l6.954 1.758 1.45 6.605-5.579 4.508-2.825-12.871z"/><path d="M20.458 40.27l5.971 1.508 1.33 6.057-4.79 3.871-2.511-11.437m-1.2-1.239l3.14 14.305 6.368-5.147-1.571-7.152-7.938-2.006z" fill="#4788c7"/><path d="M54.636 57.333H43.75a1.814 1.814 0 0 1-1.814-1.814v-6.048" fill="none" stroke="#4788c7" stroke-linecap="round" stroke-miterlimit="10" stroke-width="2"/><circle cx="41.936" cy="49.169" r="2.268" fill="#98ccfd"/><path d="M41.936 47.355a1.814 1.814 0 1 1-1.815 1.814 1.816 1.816 0 0 1 1.815-1.814m0-.907a2.721 2.721 0 1 0 2.721 2.721 2.721 2.721 0 0 0-2.721-2.721z" fill="#4788c7"/><path d="M29.288 51.339a.772.772 0 0 1-.748-.603l-2.617-11.921a.756.756 0 0 1 .102-.577.768.768 0 0 1 .482-.337l25.034-5.497a.794.794 0 0 1 .166-.018.77.77 0 0 1 .747.602l2.618 11.921a.768.768 0 0 1-.585.914L29.453 51.32a.721.721 0 0 1-.165.019z" fill="#dff0fe"/><path d="M51.706 32.84a.315.315 0 0 1 .304.247l2.619 11.921a.313.313 0 0 1-.24.373l-25.033 5.497a.297.297 0 0 1-.068.007.315.315 0 0 1-.305-.246l-2.618-11.92a.313.313 0 0 1 .24-.373l25.033-5.498a.293.293 0 0 1 .068-.008m0-.907a1.184 1.184 0 0 0-.263.03L26.409 37.46a1.221 1.221 0 0 0-.93 1.454l2.617 11.921a1.22 1.22 0 0 0 1.191.959 1.19 1.19 0 0 0 .263-.03l25.034-5.497a1.221 1.221 0 0 0 .93-1.454l-2.617-11.92a1.222 1.222 0 0 0-1.191-.96z" fill="#4788c7"/><path fill="none" stroke="#4788c7" stroke-linecap="round" stroke-miterlimit="10" d="M41.573 44.361l9.914-2.177"/></svg>