<svg data-name="Layer 1" xmlns="http://www.w3.org/2000/svg" xmlns:xlink="http://www.w3.org/1999/xlink" viewBox="0 0 72 72"><defs><symbol id="a" data-name="document frame" viewBox="0 0 52.4 67.45"><path fill="#fff" d="M51.4 35.95v-18.7L35.15 1H1v65.45h50.4v-30.5z"/><path fill="#dff0fe" stroke="#4788c7" stroke-miterlimit="10" stroke-width="2" d="M34.6 1.05v16.8h16.8"/><path fill="none" stroke="#4788c7" stroke-linecap="round" stroke-miterlimit="10" stroke-width="2" d="M51.4 35.95v-18.7L35.15 1H1v65.45h50.4v-30.5z"/></symbol></defs><use data-name="document frame" width="52.4" height="67.45" transform="translate(11.8 1.967)" xlink:href="#a"/><g data-name="Layer 1"><path d="M20.965 46.667a1.52 1.52 0 0 1-1.517-1.518v-1.011a1.519 1.519 0 0 1 1.517-1.517h5.058v4.046z" fill="#98ccfd"/><path d="M25.517 43.126v3.035h-4.552a1.013 1.013 0 0 1-1.011-1.012v-1.011a1.013 1.013 0 0 1 1.011-1.012h4.552m1.012-1.011h-5.564a2.022 2.022 0 0 0-2.023 2.023v1.011a2.022 2.022 0 0 0 2.023 2.023h5.564v-5.057z" fill="#4788c7"/><path d="M55.904 47.6a1.517 1.517 0 0 1-.69-.167l-2.25-1.153 1.843-3.6 2.252 1.152a1.517 1.517 0 0 1 .657 2.042l-.461.9a1.508 1.508 0 0 1-1.35.826z" fill="#98ccfd"/><path d="M55.029 43.36l1.8.922a1.01 1.01 0 0 1 .438 1.362l-.46.9a1.012 1.012 0 0 1-1.362.439l-1.8-.923 1.384-2.7m-.44-1.361L52.284 46.5l2.701 1.384a2.023 2.023 0 0 0 2.723-.878l.461-.9a2.023 2.023 0 0 0-.878-2.723l-2.7-1.384z" fill="#4788c7"/><path d="M50.299 60.828a.507.507 0 0 1-.506-.506v-6.14a.507.507 0 0 1 .506-.506h3.034a.507.507 0 0 1 .506.506v6.14a.507.507 0 0 1-.506.506z" fill="#b6dcfe"/><path d="M53.333 54.182v6.139H50.3v-6.139h3.034m0-1.011H50.3a1.012 1.012 0 0 0-1.012 1.011v6.139a1.012 1.012 0 0 0 1.012 1.011h3.034a1.012 1.012 0 0 0 1.012-1.011v-6.139a1.012 1.012 0 0 0-1.012-1.011z" fill="#4788c7"/><path d="M22.988 60.828a.506.506 0 0 1-.505-.506v-6.139a.506.506 0 0 1 .505-.506h3.035a.507.507 0 0 1 .506.506v6.139a.507.507 0 0 1-.506.506z" fill="#b6dcfe"/><path d="M26.023 54.183v6.139h-3.035v-6.139h3.035m0-1.011h-3.035a1.012 1.012 0 0 0-1.011 1.011v6.139a1.012 1.012 0 0 0 1.011 1.011h3.035a1.012 1.012 0 0 0 1.012-1.011v-6.139a1.012 1.012 0 0 0-1.012-1.011z" fill="#4788c7"/><path d="M24.7 57.404a2.2 2.2 0 0 1-2.217-2.192v-8.804a2.203 2.203 0 0 1 .231-.98l1.092-2.183 1.818-8.069a3.531 3.531 0 0 1 3.302-2.667l23.686 13.626.995 1.991a2.212 2.212 0 0 1 .232.98v7.456a2.195 2.195 0 0 1-2.18 2.192z" fill="#98ccfd"/><path d="M28.806 33.022l23.422 13.474.927 1.855a1.7 1.7 0 0 1 .178.754v7.455a1.68 1.68 0 0 1-1.635 1.687l-27.023-1.35a1.688 1.688 0 0 1-1.686-1.685v-8.804a1.695 1.695 0 0 1 .178-.754l1.064-2.128.054-.11.028-.12 1.801-7.986a3.03 3.03 0 0 1 2.692-2.288M29.058 32a4.047 4.047 0 0 0-3.926 3.065l-1.807 8.009-1.064 2.128a2.696 2.696 0 0 0-.284 1.206v8.804a2.697 2.697 0 0 0 2.698 2.697l26.973 1.349a2.697 2.697 0 0 0 2.698-2.698v-7.455a2.69 2.69 0 0 0-.285-1.206l-1.065-2.128L29.057 32z" fill="#4788c7"/><path d="M47.264 52.23a2.023 2.023 0 1 0 2.023-2.023l1.022 1.668-2.401-1.022.664 1.84z" fill="#fff"/><path d="M23.94 42.644l1.684-7.468a3.534 3.534 0 0 1 3.433-2.67l15.55 1.01a1.25 1.25 0 0 1 1.142 1.273l-.046 2.385c-.027 1.346 1.22 2.078 2.297 2.295l2.255.192c.932.083 1.24.232 1.374.667l1.344 6.103z" fill="#dff0fe"/><path d="M29.027 33.011L44.56 34.02a.747.747 0 0 1 .684.76l-.045 2.383c-.028 1.365 1.033 2.466 2.704 2.802l.056.01.058.006 2.193.184c.787.07.887.17.926.279l1.19 5.392-27.769-3.622 1.558-6.904a3.03 3.03 0 0 1 2.913-2.298m.03-1.012a4.047 4.047 0 0 0-3.925 3.065l-1.807 8.009 30.298 3.952-1.51-6.847c-.242-.786-.905-.94-1.815-1.022l-2.198-.185c-.898-.18-1.913-.75-1.891-1.788l.045-2.384a1.758 1.758 0 0 0-1.614-1.788L29.058 32z" fill="#4788c7"/><path fill="#98ccfd" d="M51.31 47.172l-30.344-1.011v-3.035h2.72l27.624 4.046z"/><path fill="#dff0fe" d="M30.63 57.7l2.721-6.755 4.749 2.85 3.095-1.032 2.615.872 1.256 4.787L30.63 57.7z"/><path d="M33.6 51.684l4.041 2.424.399.24.44-.146 2.715-.906 2.195.732 1.012 3.854-13.037-.651 2.234-5.547m-.496-1.477l-3.207 7.963 15.835.792-1.501-5.721-3.035-1.011-3.034 1.012-5.058-3.035z" fill="#4788c7"/><path d="M44.23 40.092l-1.012 3.034 3.542-2.411 1.138 2.411.4-3.122-.396-.04c-1.67-.335-2.732-1.435-2.703-2.801l.002-.126-4.005-2.002 2.79 3.678-5.825 1.379z" fill="#fff"/><circle cx="28.046" cy="48.184" r="2.023" fill="#fff"/></g></svg>