<svg data-name="Layer 1" xmlns="http://www.w3.org/2000/svg" xmlns:xlink="http://www.w3.org/1999/xlink" viewBox="0 0 72 72"><defs><symbol id="a" data-name="document frame" viewBox="0 0 52.4 67.45"><path fill="#fff" d="M51.4 35.95v-18.7L35.15 1H1v65.45h50.4v-30.5z"/><path fill="#dff0fe" stroke="#4788c7" stroke-miterlimit="10" stroke-width="2" d="M34.6 1.05v16.8h16.8"/><path fill="none" stroke="#4788c7" stroke-linecap="round" stroke-miterlimit="10" stroke-width="2" d="M51.4 35.95v-18.7L35.15 1H1v65.45h50.4v-30.5z"/></symbol></defs><use data-name="document frame" width="52.4" height="67.45" transform="translate(11.8 1.967)" xlink:href="#a"/><path d="M60.294 45.579H58.91l-1.484-4.057a1.49 1.49 0 0 0-1.336-1.039c-1.633-.148-8.46-.148-10.043 0a1.545 1.545 0 0 0-1.336 1.039l-1.484 4.057H41.84a.443.443 0 0 0-.445.445v.89l.495.15a2.364 2.364 0 0 1 1.583 2.918l-.89 3.364a1.081 1.081 0 0 0 .247.149v2.177a.76.76 0 0 0 .742.742h1.583a.76.76 0 0 0 .742-.742v-2.177h10.291v2.177a.76.76 0 0 0 .742.742h1.583a.76.76 0 0 0 .742-.742v-2.177a.566.566 0 0 0 .396-.347.919.919 0 0 0 .1-.346v-3.908a4.971 4.971 0 0 0-.199-1.237h.643a.443.443 0 0 0 .446-.445v-1.089c.099-.346-.1-.544-.347-.544zm-13.803-3.265c1.484-.149 7.768-.149 9.252 0l1.434 3.958h-12.12zm1.286 8.113a.76.76 0 0 1-.742.742h-1.78a.76.76 0 0 1-.743-.742v-.494a.76.76 0 0 1 .742-.742h1.781a.76.76 0 0 1 .742.742zm9.846 0a.76.76 0 0 1-.742.742H55.1a.76.76 0 0 1-.742-.742v-.494a.729.729 0 0 1 .742-.742h1.781a.76.76 0 0 1 .742.742zM28.552 37.616l7.069 3.18c.176 0 .353.177.53.177a1.329 1.329 0 0 0 1.237-.883 1.29 1.29 0 0 0-.707-1.768L32.44 36.38l1.767-.707a1.353 1.353 0 0 0 .53-1.944l-1.767-3.18 2.827.883a1.168 1.168 0 0 0 1.06-.177 1.766 1.766 0 0 0 .707-.884l.884-3.887 1.237 3.004c.176.353.353.707.883.707a1.127 1.127 0 0 0 1.06 0l3.358-1.767-.884 3.887a1.376 1.376 0 0 0 1.06 1.59l1.414.354-3.711 2.65c-.707.354-.707 1.237-.353 1.944s1.237.707 1.943.354l6.539-4.418a1.184 1.184 0 0 0 .53-1.414 1.593 1.593 0 0 0-1.06-1.06l-3.181-.707 1.413-5.654a1.184 1.184 0 0 0-.53-1.414 1.384 1.384 0 0 0-1.413-.177l-4.77 2.651-2.298-5.478a1.4 1.4 0 0 0-1.414-.884 1.516 1.516 0 0 0-1.237 1.06l-1.59 6.539-4.77-1.59a1.375 1.375 0 0 0-1.414.353 1.407 1.407 0 0 0-.354 1.59l2.828 4.948-3.358 1.414a1.329 1.329 0 0 0-.884 1.237c0 .53.53 1.06 1.06 1.414z" fill="#98ccfd"/><path d="M41.625 48.03l-5.89-1.841-2.716-4.28a3.3 3.3 0 0 0-2.255-1.473l-5.984-1.012a2.75 2.75 0 0 0-2.623.966l-2.532 3.084-2.117-.23a1.34 1.34 0 0 0-1.472 1.196l-.323 3.866a1.352 1.352 0 0 0 1.105 1.427l.828.184a3.097 3.097 0 0 0 2.578 3.222 3.035 3.035 0 0 0 3.452-2.164l9.665 1.657a3.097 3.097 0 0 0 2.577 3.222 3.035 3.035 0 0 0 3.452-2.163l.782.138a1.377 1.377 0 0 0 1.52-.966l.828-3.13a1.34 1.34 0 0 0-.875-1.703zm-19.284 2.301a1.634 1.634 0 1 1-1.335-1.887 1.613 1.613 0 0 1 1.335 1.887zm3.682-5.799l-4.372-.736 1.84-2.255a1.084 1.084 0 0 1 .967-.368l2.071.368zm1.703.276l.552-2.991 2.21.368a1.667 1.667 0 0 1 1.058.69l1.84 2.854zm10.31 8.193a1.634 1.634 0 1 1-1.335-1.887A1.59 1.59 0 0 1 38.035 53z" fill="#4788c7"/></svg>