<svg data-name="Layer 1" xmlns="http://www.w3.org/2000/svg" viewBox="0 0 72 72"><path fill="#dff0fe" d="M10.196 28.14l9.991 2.524 2.084 9.49-8.015 6.477-4.06-18.491z"/><path d="M11.059 29.03l8.579 2.167 1.91 8.703-6.881 5.562-3.608-16.432m-1.726-1.78l4.514 20.552 9.148-7.395-2.258-10.276-11.404-2.882z" fill="#4788c7"/><path d="M60.163 53.547h-15.64a2.606 2.606 0 0 1-2.606-2.607v-8.69" fill="none" stroke="#4788c7" stroke-linecap="round" stroke-miterlimit="10" stroke-width="2"/><circle cx="41.917" cy="41.817" r="3.258" fill="#98ccfd"/><path d="M41.917 39.21a2.607 2.607 0 1 1-2.607 2.607 2.61 2.61 0 0 1 2.607-2.607m0-1.303a3.91 3.91 0 1 0 3.91 3.91 3.91 3.91 0 0 0-3.91-3.91z" fill="#4788c7"/><path d="M23.746 44.934a1.109 1.109 0 0 1-1.076-.867L18.91 26.94a1.085 1.085 0 0 1 .147-.829 1.104 1.104 0 0 1 .692-.483l35.967-7.898a1.145 1.145 0 0 1 .239-.026 1.106 1.106 0 0 1 1.074.865l3.761 17.127a1.103 1.103 0 0 1-.84 1.313l-35.967 7.898a1.032 1.032 0 0 1-.237.027z" fill="#dff0fe"/><path d="M55.953 18.357a.452.452 0 0 1 .438.354l3.762 17.127a.45.45 0 0 1-.343.536l-35.967 7.898a.424.424 0 0 1-.097.01.452.452 0 0 1-.438-.354l-3.762-17.126a.45.45 0 0 1 .343-.535l35.967-7.899a.419.419 0 0 1 .097-.011m0-1.304a1.703 1.703 0 0 0-.378.042L19.61 24.993a1.754 1.754 0 0 0-1.337 2.09l3.761 17.127a1.754 1.754 0 0 0 1.711 1.378 1.709 1.709 0 0 0 .378-.042l35.967-7.898a1.754 1.754 0 0 0 1.337-2.09l-3.761-17.127a1.755 1.755 0 0 0-1.712-1.378z" fill="#4788c7"/><path fill="none" stroke="#4788c7" stroke-linecap="round" stroke-miterlimit="10" d="M41.395 34.909l14.244-3.128"/></svg>