<svg data-name="Layer 1" xmlns="http://www.w3.org/2000/svg" xmlns:xlink="http://www.w3.org/1999/xlink" viewBox="0 0 72 72"><defs><symbol id="a" data-name="document frame" viewBox="0 0 52.4 67.45"><path fill="#fff" d="M51.4 35.95v-18.7L35.15 1H1v65.45h50.4v-30.5z"/><path fill="#dff0fe" stroke="#4788c7" stroke-miterlimit="10" stroke-width="2" d="M34.6 1.05v16.8h16.8"/><path fill="none" stroke="#4788c7" stroke-linecap="round" stroke-miterlimit="10" stroke-width="2" d="M51.4 35.95v-18.7L35.15 1H1v65.45h50.4v-30.5z"/></symbol></defs><use data-name="document frame" width="52.4" height="67.45" transform="translate(11.8 1.967)" xlink:href="#a"/><path d="M22.198 58.188A10.98 10.98 0 0 1 33.22 47.885h7.727a10.898 10.898 0 0 1 11.021 10.303z" fill="#b6dcfe"/><path d="M40.947 48.364a10.473 10.473 0 0 1 10.482 9.284H22.737a10.473 10.473 0 0 1 10.483-9.284h7.727m0-1.018H33.22a11.48 11.48 0 0 0-11.561 11.32h30.849a11.442 11.442 0 0 0-11.561-11.32z" fill="#4788c7"/><path d="M37.113 50.94a4.968 4.968 0 0 1-4.612-3.235v-5.63h9.285v5.63a5.156 5.156 0 0 1-4.673 3.235z" fill="#fff"/><path d="M41.187 42.613v5.032a4.441 4.441 0 0 1-8.267 0v-5.032h8.267m1.078-1.018H31.962v6.23a5.458 5.458 0 0 0 10.303 0v-6.23z" fill="#4788c7"/><path d="M43.702 39.798a2.156 2.156 0 1 1 0-4.313c1.797 0 2.157.48 2.157 1.258 0 1.318-1.078 3.055-2.157 3.055zm-13.238 0c-1.078 0-2.156-1.737-2.156-2.995 0-.779.36-1.258 2.156-1.258a2.147 2.147 0 0 1 2.157 2.157 2.097 2.097 0 0 1-2.157 2.096z" fill="#dff0fe"/><path d="M43.702 36.024c1.618 0 1.618.36 1.618.72 0 1.077-.899 2.515-1.618 2.515a1.617 1.617 0 1 1 0-3.235m-13.238 0a1.617 1.617 0 0 1 0 3.235c-.718 0-1.617-1.438-1.617-2.516 0-.3 0-.719 1.617-.719m13.238-1.018a2.636 2.636 0 0 0 0 5.271c1.438 0 2.636-2.036 2.636-3.534s-1.138-1.737-2.636-1.737zm-13.238 0c-1.437 0-2.635.3-2.635 1.737s1.198 3.534 2.635 3.534a2.659 2.659 0 0 0 2.636-2.635 2.62 2.62 0 0 0-2.636-2.636z" fill="#4788c7"/><path d="M37.113 46.866a2.425 2.425 0 0 1-1.617-.659l-.12-.06-.12-.06a6.721 6.721 0 0 1-4.852-6.409v-8.386a2.94 2.94 0 0 1 2.936-2.935h7.547a2.94 2.94 0 0 1 2.935 2.935v8.386a6.614 6.614 0 0 1-4.852 6.41l-.12.06-.12.06a2.425 2.425 0 0 1-1.617.658z" fill="#fff"/><path d="M40.887 28.896a2.403 2.403 0 0 1 2.396 2.396v8.386a6.164 6.164 0 0 1-4.492 5.93l-.24.06-.18.18a1.89 1.89 0 0 1-2.516 0l-.18-.18-.24-.06a6.164 6.164 0 0 1-4.493-5.93v-8.386a2.403 2.403 0 0 1 2.396-2.396h7.549m0-1.078H33.34a3.413 3.413 0 0 0-3.414 3.414v8.386a7.26 7.26 0 0 0 5.27 6.949 2.898 2.898 0 0 0 3.954 0 7.276 7.276 0 0 0 5.272-6.949v-8.386a3.643 3.643 0 0 0-3.535-3.414z" fill="#4788c7"/><path d="M43.762 37.582v-3.594c0-3.594-2.276-4.553-2.396-4.612l-.3-.12-.24.299s-2.396 2.875-5.75 2.875H33.46c-.898 0-2.995 0-2.995 2.636v2.575h-.24a13.312 13.312 0 0 1-1.856-6.11c0-4.911 3.594-8.326 8.745-8.326a5.478 5.478 0 0 1 4.672 2.816l.12.24h.24c1.557.24 3.654 1.078 3.654 5.69a11.75 11.75 0 0 1-1.857 5.63z" fill="#b6dcfe"/><path d="M37.113 23.685a5.236 5.236 0 0 1 4.253 2.516l.24.479.54.06c1.497.24 3.234 1.018 3.234 5.151a10.422 10.422 0 0 1-1.018 4.014v-1.977c0-3.953-2.576-5.032-2.696-5.092l-.779-.18-.479.6a7.804 7.804 0 0 1-5.39 2.695H33.4c-.898 0-3.534 0-3.534 3.115v.778a11.744 11.744 0 0 1-1.018-4.372c0-4.553 3.414-7.787 8.266-7.787m0-1.019c-5.511 0-9.285 3.774-9.285 8.806a14.297 14.297 0 0 0 2.037 6.589h1.018v-3.115c0-1.857 1.138-2.096 2.516-2.096.54 0 1.078.06 1.617.06 3.654 0 6.17-3.115 6.17-3.115s2.037.839 2.037 4.133v4.133h1.018a13.27 13.27 0 0 0 2.037-6.17c0-4.253-1.737-5.81-4.133-6.17a5.718 5.718 0 0 0-5.032-3.055z" fill="#4788c7"/></svg>