<svg data-name="Layer 1" xmlns="http://www.w3.org/2000/svg" viewBox="0 0 72 72"><path d="M36.812 28.235a24.17 24.17 0 0 1 5.475 1.81 23.431 23.431 0 0 0 6.593.95h10.379v4.29h-7.894c-2.748 0-6.482 1.269-8.3 3.694l-.892 1.288z" fill="#b6dcfe"/><path d="M38.04 29.235a25.894 25.894 0 0 1 3.938 1.456l.108.051.115.033a24.315 24.315 0 0 0 6.679.936h9.664v2.86h-7.18c-2.925 0-6.912 1.366-8.903 4.023l-.153.22-4.268-9.579m-2.373-1.814l6.37 14.298 1.6-2.312C45.244 37.263 48.683 36 51.364 36h8.609v-5.72H48.88a22.852 22.852 0 0 1-6.286-.88s-4.138-1.979-6.927-1.979z" fill="#4788c7"/><path d="M28.285 39.001c-1.835-2.446-5.57-3.716-8.316-3.716h-7.894v-4.29h10.379a23.598 23.598 0 0 0 6.481-.907 25.22 25.22 0 0 1 5.586-1.853l-5.36 12.032z" fill="#b6dcfe"/><path d="M33.293 29.235l-4.268 9.58-.184-.265c-1.96-2.613-5.947-3.98-8.872-3.98H12.79v-2.86h9.664a24.297 24.297 0 0 0 6.677-.935l.116-.033.109-.051a25.896 25.896 0 0 1 3.938-1.456m2.373-1.814c-2.79 0-6.927 1.978-6.927 1.978a22.853 22.853 0 0 1-6.286.881H11.36V36h8.609c2.68 0 6.12 1.262 7.728 3.407l1.6 2.312 6.37-14.298z" fill="#4788c7"/><path fill="#b6dcfe" d="M33.889 58.162l-2.33-15.323-1.643-1.908h11.501l-1.642 1.908-2.331 15.323h-3.555z"/><path d="M39.858 41.646l-.49.57-.27.31-.06.407-2.209 14.514h-2.326l-2.208-14.512-.06-.408-.269-.312-.49-.57h8.382m3.12-1.428H28.356l2.526 2.932 2.393 15.728h4.784L40.45 43.15l2.526-2.932z" fill="#4788c7"/><path d="M35.667 62.452A26.452 26.452 0 1 1 62.118 36a26.482 26.482 0 0 1-26.451 26.452zm0-47.184A20.733 20.733 0 1 0 56.399 36a20.757 20.757 0 0 0-20.732-20.733z" fill="#dff0fe"/><path d="M35.667 10.263A25.737 25.737 0 1 1 9.93 36a25.766 25.766 0 0 1 25.737-25.737m0 47.184A21.447 21.447 0 1 0 14.219 36a21.472 21.472 0 0 0 21.448 21.447m0-48.614A27.167 27.167 0 1 0 62.833 36 27.168 27.168 0 0 0 35.667 8.833zm0 47.184A20.017 20.017 0 1 1 55.684 36a20.017 20.017 0 0 1-20.017 20.017z" fill="#4788c7"/><circle cx="35.667" cy="36" r="7.864" fill="#dff0fe"/><path d="M35.667 28.85a7.15 7.15 0 1 1-7.15 7.15 7.157 7.157 0 0 1 7.15-7.15m0-1.43A8.579 8.579 0 1 0 44.246 36a8.578 8.578 0 0 0-8.58-8.579z" fill="#4788c7"/><path d="M12.515 48.776a26.384 26.384 0 0 1 .685-26.72l5.406 2.17a20.707 20.707 0 0 0-.73 22.41z" fill="#98ccfd"/><path d="M13.496 22.946l4.03 1.615a21.43 21.43 0 0 0-.68 21.715l-4.004 1.599a25.67 25.67 0 0 1 .654-24.93m-.578-1.772a27.084 27.084 0 0 0-.715 28.496l6.735-2.688a19.985 19.985 0 0 1 .786-23.077l-6.806-2.731z" fill="#4788c7"/><path d="M53.458 46.635a20.707 20.707 0 0 0-.73-22.41l5.405-2.169a26.384 26.384 0 0 1 .685 26.72z" fill="#98ccfd"/><path d="M57.837 22.946a25.67 25.67 0 0 1 .654 24.929l-4.003-1.599a21.43 21.43 0 0 0-.68-21.715l4.03-1.615m.577-1.773l-6.806 2.73a19.985 19.985 0 0 1 .787 23.078l6.734 2.688a27.084 27.084 0 0 0-.715-28.496z" fill="#4788c7"/><path fill="none" stroke="#fff" stroke-linecap="round" stroke-miterlimit="10" stroke-width="6" d="M13 11.436l46.5 50.797"/><path fill="none" stroke="#4788c7" stroke-linecap="round" stroke-miterlimit="10" stroke-width="2" d="M13 11.436l46.5 50.797"/></svg>