<svg xmlns="http://www.w3.org/2000/svg" xmlns:xlink="http://www.w3.org/1999/xlink" width="24" height="29.946" viewBox="0 0 24 29.946"><defs><style>.a{fill:none;}.b{clip-path:url(#a);}.c{fill:#ccc;}.d{fill:#868686;}.e{fill:#fff;}</style><clipPath id="a"><rect class="a" width="24" height="29.946"/></clipPath></defs><g class="b"><circle class="c" cx="6.214" cy="6.214" r="6.214" transform="translate(10.768 16.714)"/><path class="d" d="M23,35.171H16.036a.506.506,0,0,1-.536-.536V9.136c.107-.321.321-.536.536-.536H35a.506.506,0,0,1,.536.536V21.993a.536.536,0,1,1-1.071,0V9.671H16.571V34.1h6.536a.506.506,0,0,1,.536.536A1.1,1.1,0,0,1,23,35.171Z" transform="translate(-15.5 -8.6)"/><path class="d" d="M41.118,52.289a7.045,7.045,0,1,1,7.018-7.071A7.042,7.042,0,0,1,41.118,52.289Zm0-13.232a6.214,6.214,0,1,0,6.214,6.214A6.219,6.219,0,0,0,41.118,39.057Z" transform="translate(-24.136 -22.343)"/><path class="d" d="M34.232,16.171h-11.2a.536.536,0,0,1,0-1.071h11.2a.536.536,0,0,1,0,1.071Z" transform="translate(-18.75 -11.618)"/><path class="d" d="M34.232,21.871h-11.2a.536.536,0,0,1,0-1.071h11.2a.536.536,0,0,1,0,1.071Z" transform="translate(-18.75 -14.264)"/><path class="d" d="M34.232,27.671h-11.2a.536.536,0,1,1,0-1.071h11.2a.536.536,0,0,1,0,1.071Z" transform="translate(-18.75 -16.957)"/><path class="d" d="M33.375,33.371H23.036a.536.536,0,0,1,0-1.071H33.375a.536.536,0,0,1,0,1.071Z" transform="translate(-18.75 -19.604)"/><path class="d" d="M28.279,39.171H23.136a.536.536,0,1,1,0-1.071h5.143a.506.506,0,0,1,.536.536A.537.537,0,0,1,28.279,39.171Z" transform="translate(-18.796 -22.296)"/><path class="d" d="M26.725,44.871H23.136a.536.536,0,0,1,0-1.071h3.589a.506.506,0,0,1,.536.536A.537.537,0,0,1,26.725,44.871Z" transform="translate(-18.796 -24.943)"/><path class="d" d="M24.911,50.671H23.036a.536.536,0,1,1,0-1.071h1.875a.536.536,0,1,1,0,1.071Z" transform="translate(-18.75 -27.636)"/><path class="e" d="M45.832,47.941a.643.643,0,0,1-.632-.632V43.032a.632.632,0,0,1,1.264,0V46.58h3.451a.688.688,0,0,1,.632.68.472.472,0,0,1-.049.437.645.645,0,0,1-.486.292h-4.18Z" transform="translate(-29.014 -23.007)"/></g></svg>