<?xml version="1.0" encoding="UTF-8"?>
<svg width="76px" height="76px" viewBox="0 0 76 76" version="1.1" xmlns="http://www.w3.org/2000/svg" xmlns:xlink="http://www.w3.org/1999/xlink">
    <!-- Generator: sketchtool 53 (72520) - https://sketchapp.com -->
    <title>51E7ABBB-D35A-43FE-9B0A-6EE4CAEBB233</title>
    <desc>Created with sketchtool.</desc>
    <g id="Page-1" stroke="none" stroke-width="1" fill="none" fill-rule="evenodd" opacity="0.25">
        <g id="дашборд-(запуск-модулей)" transform="translate(-692.000000, -435.000000)">
            <g id="logo-civilian-claim" transform="translate(693.000000, 435.186276)">
                <g id="Group-27" transform="translate(37.500000, 38.000000) scale(-1, 1) translate(-37.500000, -38.000000) ">
                    <path d="M57.8410267,47.5947718 C58.5442343,45.1754977 58.9337954,42.6243723 58.9337954,39.9713616 C58.9337954,38.1594033 58.7460069,36.3973886 58.4103851,34.6793245" id="Stroke-1" stroke="#4788C7" stroke-linecap="round"></path>
                    <path d="M63.9279681,54.4074954 C65.8478049,49.9824814 66.9245916,45.1059761 66.9245916,39.9697634 C66.9245916,35.6386436 66.1294875,31.4953121 64.7310632,27.6416543" id="Stroke-3" stroke="#4788C7" stroke-linecap="round"></path>
                    <path d="M69.726035,60.9313446 C73.0263164,54.664406 74.9161869,47.548424 74.9161869,39.970962 C74.9161869,33.1726222 73.3619382,26.7518569 70.6709703,20.9763645" id="Stroke-5" stroke="#4788C7" stroke-linecap="round"></path>
                    <path d="M1.02224816,74.9155876 C1.5456584,62.7113389 11.6342909,52.9403486 23.9723887,52.9403486 L39.9543807,52.9403486 C52.2924786,52.9403486 62.3831088,62.7113389 62.906519,74.9155876 L1.02224816,74.9155876 Z" id="Fill-7" fill="#B6DCFE"></path>
                    <path d="M39.9549801,51.9414741 L23.972988,51.9414741 C10.7299099,51.9414741 0,62.671384 0,75.9144621 L63.9279681,75.9144621 C63.9279681,62.671384 53.1980582,51.9414741 39.9549801,51.9414741 M39.9549801,53.9392231 C51.4020818,53.9392231 60.8294594,62.7333142 61.8363249,73.9167131 L2.09164321,73.9167131 C3.0985087,62.7333142 12.5258862,53.9392231 23.972988,53.9392231 L39.9549801,53.9392231" id="Fill-9" fill="#4788C7"></path>
                    <path d="M31.963984,58.9335956 C26.2983679,58.9335956 23.543472,54.7822732 22.9741135,53.8073716 L22.9741135,42.9516036 L40.9538546,42.9516036 L40.9538546,53.8073716 C40.3844961,54.7822732 37.6296002,58.9335956 31.963984,58.9335956" id="Fill-11" fill="#FFFFFF"></path>
                    <path d="M41.9527291,41.9527291 L21.975239,41.9527291 L21.975239,54.0630835 C21.975239,54.0630835 24.9558805,59.9324701 31.963984,59.9324701 C38.9720875,59.9324701 41.9527291,54.0630835 41.9527291,54.0630835 L41.9527291,41.9527291 Z M39.9549801,43.9504781 L39.9549801,53.525689 C39.2457792,54.6424307 36.7326109,57.9347211 31.963984,57.9347211 C27.1873662,57.9347211 24.6901799,54.648424 23.972988,53.525689 L23.972988,43.9504781 L39.9549801,43.9504781 L39.9549801,43.9504781 Z" id="Fill-13" fill="#4788C7"></path>
                    <path d="M17.6910663,36.3885985 C15.3117472,36.3885985 12.9863674,32.6028642 12.9863674,29.7700561 C12.9863674,28.0380077 13.7734805,26.969212 17.6910663,26.969212 C20.2901377,26.969212 22.4037562,29.0768372 22.4037562,31.6759086 C22.4037562,34.2729823 20.2901377,36.3885985 17.6910663,36.3885985 M46.2369018,36.3885985 C43.6378303,36.3885985 41.5242119,34.2729823 41.5242119,31.6759086 C41.5242119,29.0848282 43.6378303,26.969212 46.2369018,26.969212 C50.1544876,26.969212 50.9435984,28.0459987 50.9435984,29.7780471 C50.9435984,32.6028642 48.6162209,36.3885985 46.2369018,36.3885985" id="Fill-15" fill="#B6DCFE"></path>
                    <path d="M17.6910663,25.970737 C14.5386184,25.970737 11.9874929,26.6259987 11.9874929,29.7784466 C11.9874929,32.9308946 14.5386184,37.3878726 17.6910663,37.3878726 C20.8435142,37.3878726 23.4026307,34.8347494 23.4026307,31.6823014 C23.4026307,28.5298535 20.8435142,25.970737 17.6910663,25.970737 M46.2369018,25.970737 C43.0844539,25.970737 40.5253374,28.5218625 40.5253374,31.6743104 C40.5253374,34.8287561 43.0844539,37.3878726 46.2369018,37.3878726 C49.3893497,37.3878726 51.9424729,32.9229036 51.9424729,29.7704556 C51.9424729,26.6259987 49.3893497,25.970737 46.2369018,25.970737 M17.6910663,27.968486 C19.7427545,27.968486 21.4048817,29.6306132 21.4048817,31.6743104 C21.4048817,33.7279964 19.7427545,35.3901236 17.6910663,35.3901236 C16.0609031,35.3901236 13.9852419,32.2456667 13.9852419,29.7784466 C13.9852419,28.9274056 13.9852419,27.968486 17.6910663,27.968486 M46.2369018,27.968486 C49.9447239,27.968486 49.9447239,28.9274056 49.9447239,29.7784466 C49.9447239,32.2456667 47.867065,35.3901236 46.2369018,35.3901236 C44.1852136,35.3901236 42.5230864,33.7279964 42.5230864,31.6823014 C42.5230864,29.6306132 44.1852136,27.968486 46.2369018,27.968486" id="Fill-17" fill="#4788C7"></path>
                    <path d="M31.963984,50.9425996 C30.7553459,50.9425996 29.6226222,50.5050925 28.6856779,49.6860154 L28.4998873,49.5222 L28.2721439,49.4682608 C21.6236352,47.7741697 16.9808665,41.8128866 16.9808665,34.9606075 L16.9808665,16.3875351 C16.9808665,12.7356499 19.945526,9.77099037 23.599409,9.77099037 L40.3285591,9.77099037 C43.974451,9.77099037 46.9471016,12.7356499 46.9471016,16.3875351 L46.9471016,34.9606075 C46.9471016,41.8128866 42.3043329,47.7741697 35.6558242,49.4682608 L35.4280808,49.5222 L35.2422902,49.6860154 C34.3053459,50.5050925 33.1726222,50.9425996 31.963984,50.9425996" id="Fill-19" fill="#FFFFFF"></path>
                    <path d="M40.329558,8.77131677 L23.5984101,8.77131677 C19.3931484,8.77131677 15.9809931,12.1814743 15.9809931,16.3887337 L15.9809931,34.9598084 C15.9809931,42.429392 21.1092148,48.6803486 28.0234241,50.4343722 C29.0842289,51.3633255 30.4506892,51.940675 31.9649829,51.940675 C33.4772789,51.940675 34.8437392,51.3633255 35.904544,50.4343722 C42.8187532,48.6803486 47.9469749,42.429392 47.9469749,34.9598084 L47.9469749,16.3887337 C47.9469749,12.1814743 44.5348196,8.77131677 40.329558,8.77131677 M40.329558,10.7690658 C43.4280667,10.7690658 45.9492259,13.290225 45.9492259,16.3887337 L45.9492259,34.9598084 C45.9492259,41.3526053 41.6181061,46.9243272 35.4130977,48.5005512 L34.9456244,48.6164206 L34.5860296,48.9300672 C34.0546284,49.3975405 33.1816121,49.942926 31.9649829,49.942926 C30.746356,49.942926 29.8733397,49.3975405 29.3419385,48.9300672 L28.9823437,48.6164206 L28.5148704,48.5005512 C22.309862,46.9243272 17.9787421,41.3526053 17.9787421,34.9598084 L17.9787421,16.3887337 C17.9787421,13.290225 20.4999014,10.7690658 23.5984101,10.7690658 L40.329558,10.7690658" id="Fill-21" fill="#4788C7"></path>
                    <path d="M46.9471016,32.9628585 L46.9471016,25.970737 C46.9471016,18.7049239 40.8919243,14.8193021 40.6262237,14.6554867 L39.8291219,14.1560494 L39.2837364,14.9211873 C39.11193,15.1629149 35.0545018,20.6866909 26.2664039,20.6866909 C23.972988,20.6866909 16.9808665,20.6866909 16.9808665,27.968486 L16.9808665,32.9628585 L16.6212717,32.9628585 C15.7562464,31.0050645 12.9853685,24.3086099 12.9853685,18.6050365 C12.9853685,8.06890822 20.2112267,0.998874501 30.9651095,0.998874501 C38.6364657,0.998874501 40.9378726,6.16505342 41.0317668,6.38280806 L41.2974674,6.98413051 L41.9527291,6.99212151 C45.2929654,6.99212151 50.9425996,9.30951035 50.9425996,18.011705 C50.9425996,23.2478051 48.1337645,30.7773211 47.2667414,32.9628585 L46.9471016,32.9628585 Z" id="Fill-23" fill="#B6DCFE"></path>
                    <path d="M30.9651095,0 C19.3382103,0 11.986494,7.95104103 11.986494,18.6050365 C11.986494,25.6590882 15.981992,33.961733 15.981992,33.961733 L17.979741,33.961733 L17.979741,27.968486 C17.979741,22.6384917 22.0211873,21.6855654 26.2664039,21.6855654 C35.7177544,21.6855654 40.0948225,15.5065278 40.0948225,15.5065278 C40.0948225,15.5065278 45.9482271,19.1743949 45.9482271,25.970737 L45.9482271,33.961733 L47.9459761,33.961733 C47.9459761,33.961733 51.9414741,24.4324703 51.9414741,18.011705 C51.9414741,8.98187952 46.1899547,5.99324701 41.9527291,5.99324701 C41.9527291,5.99324701 39.4475518,0 30.9651095,0 M30.9651095,1.997749 C37.9252671,1.997749 40.0328923,6.58657846 40.1108045,6.76637587 L40.6262237,7.99099601 L41.9527291,7.99099601 C45.6365782,7.99099601 49.9437251,10.6120427 49.9437251,18.011705 C49.9437251,21.0782497 48.9288686,24.9958355 47.9459761,28.0863532 L47.9459761,25.970737 C47.9459761,18.1595384 41.4373098,13.984243 41.157625,13.8124366 L39.57341,12.8295441 L38.4726503,14.3358468 C38.3168259,14.5536015 34.4931343,19.6878164 26.2664039,19.6878164 C19.4460888,19.6878164 15.981992,22.4746763 15.981992,27.968486 L15.981992,28.5937815 C14.9990995,25.7529824 13.984243,21.991221 13.984243,18.6050365 C13.984243,8.67023067 20.8045581,1.997749 30.9651095,1.997749" id="Fill-25" fill="#4788C7"></path>
                </g>
            </g>
        </g>
    </g>
</svg>