<?xml version="1.0" encoding="UTF-8"?>
<svg width="16px" height="24px" viewBox="0 0 16 24" version="1.1" xmlns="http://www.w3.org/2000/svg" xmlns:xlink="http://www.w3.org/1999/xlink">
    <!-- Generator: sketchtool 53 (72520) - https://sketchapp.com -->
    <title>201D0AC9-3CC3-4DB1-901F-BC74D3AADDAD</title>
    <desc>Created with sketchtool.</desc>
    <g id="Page-1" stroke="none" stroke-width="1" fill="none" fill-rule="evenodd">
        <g id="Учет---Дело---Обложка" transform="translate(-513.000000, -432.000000)" fill="#CCCCCC">
            <g id="body" transform="translate(400.000000, 181.000000)">
                <g id="Group-11" transform="translate(100.000000, 38.000000)">
                    <g id="Group-10" transform="translate(1.000000, 205.000000)">
                        <g id="icon-/-map">
                            <path d="M20,8 C24.418,8 28,11.582 28,16 C28,23.044 20,32 20,32 C20,32 12,22.989 12,16 C12,11.582 15.582,8 20,8 Z M20,9 C16.14,9 13,12.14 13,16 C13,21.299 18.06,28.05 20.002,30.445 C21.945,28.059 27,21.34 27,16 C27,12.14 23.86,9 20,9 Z M20,12 C22.206,12 24,13.794 24,16 C24,18.206 22.206,20 20,20 C17.794,20 16,18.206 16,16 C16,13.794 17.794,12 20,12 Z M20,13 C18.343,13 17,14.343 17,16 C17,17.657 18.343,19 20,19 C21.657,19 23,17.657 23,16 C23,14.343 21.657,13 20,13 Z" id="Shape"></path>
                        </g>
                    </g>
                </g>
            </g>
        </g>
    </g>
</svg>