<svg data-name="Layer 1" xmlns="http://www.w3.org/2000/svg" viewBox="0 0 72 72"><path fill="#fff" d="M12.867 3.367h50.267V67.5H12.867z"/><path d="M62.267 4.233v62.4H13.733v-62.4h48.534M64 2.5H12v65.867h52V2.5z" fill="#4788c7"/><path fill="#98ccfd" d="M37.492 51.033l5.708-5.708 8.308 8.308H45.8v5.708l-8.308-8.308z"/><path d="M43.2 46.55l6.216 6.217h-4.483v4.482l-6.215-6.216 4.482-4.482m0-2.451l-6.933 6.933 10.4 10.4V54.5H53.6L43.2 44.1z" fill="#4788c7"/><path fill="#98ccfd" d="M30.2 53.633h-5.708l8.308-8.308 5.708 5.708-8.308 8.308v-5.708z"/><path d="M32.8 46.55l4.482 4.483-6.215 6.216v-4.482h-4.483L32.8 46.55m0-2.451L22.4 54.5h6.933v6.933l10.4-10.4L32.8 44.1z" fill="#4788c7"/><circle cx="38" cy="45.833" r="6.067" fill="#b6dcfe"/><path d="M38 40.633a5.2 5.2 0 1 1-5.2 5.2 5.206 5.206 0 0 1 5.2-5.2m0-1.733a6.933 6.933 0 1 0 6.933 6.933A6.934 6.934 0 0 0 38 38.9zM64 59.7a8.668 8.668 0 0 0-8.667 8.667H64zM12 11.167A8.668 8.668 0 0 0 20.667 2.5H12zM12 59.7a8.668 8.668 0 0 1 8.667 8.667H12zM64 11.167A8.668 8.668 0 0 1 55.333 2.5H64zM25.867 19.833h24.266a1.733 1.733 0 0 0 0-3.466H25.867a1.733 1.733 0 0 0 0 3.466z" fill="#4788c7"/><path fill="#fff" stroke="#4788c7" stroke-linecap="round" stroke-linejoin="round" stroke-width="1.5" d="M25.333 24.967h25.334M25.333 29.492h25.334"/></svg>