<svg data-name="Layer 1" xmlns="http://www.w3.org/2000/svg" xmlns:xlink="http://www.w3.org/1999/xlink" viewBox="0 0 72 72"><defs><symbol id="a" data-name="document frame" viewBox="0 0 52.4 67.45"><path fill="#fff" d="M51.4 35.95v-18.7L35.15 1H1v65.45h50.4v-30.5z"/><path fill="#dff0fe" stroke="#4788c7" stroke-miterlimit="10" stroke-width="2" d="M34.6 1.05v16.8h16.8"/><path fill="none" stroke="#4788c7" stroke-linecap="round" stroke-miterlimit="10" stroke-width="2" d="M51.4 35.95v-18.7L35.15 1H1v65.45h50.4v-30.5z"/></symbol></defs><use data-name="document frame" width="52.4" height="67.45" transform="translate(11.8 1.967)" xlink:href="#a"/><path fill="none" stroke="#4788c7" stroke-linecap="round" stroke-miterlimit="10" d="M37.817 43.833v-6M37.817 29.75v-6.917M37.817 57.833V51.5"/><path d="M19.707 29.772s-1.153 6.895 5.067 6.895c6.035 0 5.068-6.895 5.068-6.895s1.18-.216.903-1.052c0 0-.239-.232-1.232.298l.067-8.626a7.06 7.06 0 0 0 .284-2.643c0-7.519-10.178-7.519-10.178 0a7.075 7.075 0 0 0 .283 2.643l.067 8.626c-.992-.53-1.232-.298-1.232-.298-.277.836.903 1.052.903 1.052zm5.032-15.64c1.92 0 3.412 2.033 3.412 2.033l-.002 2.432S26.814 16.1 24.686 16.1s-3.322 2.567-3.322 2.567l-.049-2.502s1.506-2.033 3.425-2.033zm-3.327 14.355s.815.727 3.257.727a5.325 5.325 0 0 0 3.375-.82l.953 2.226a5.318 5.318 0 0 1-4.264 1.687 5.277 5.277 0 0 1-4.264-1.722zM56.175 46.338s1.154-6.895-5.067-6.895c-6.035 0-5.067 6.895-5.067 6.895s-1.18.216-.904 1.052c0 0 .239.232 1.232-.298l-.067 8.626a7.06 7.06 0 0 0-.284 2.643c0 7.519 10.179 7.519 10.179 0a7.074 7.074 0 0 0-.283-2.643l-.068-8.626c.993.53 1.232.298 1.232.298.277-.836-.903-1.052-.903-1.052zm-5.032 15.64c-1.919 0-3.412-2.033-3.412-2.033l.002-2.432s1.335 2.496 3.463 2.496 3.322-2.567 3.322-2.567l.05 2.503s-1.506 2.033-3.425 2.033zm3.327-14.355s-.815-.727-3.256-.727a5.325 5.325 0 0 0-3.375.82l-.954-2.226a5.317 5.317 0 0 1 4.265-1.688 5.277 5.277 0 0 1 4.264 1.723z" fill="#4788c7"/></svg>