<svg data-name="Layer 1" xmlns="http://www.w3.org/2000/svg" xmlns:xlink="http://www.w3.org/1999/xlink" viewBox="0 0 72 72"><defs><symbol id="a" data-name="document frame" viewBox="0 0 52.4 67.45"><path fill="#fff" d="M51.4 35.95v-18.7L35.15 1H1v65.45h50.4v-30.5z"/><path fill="#dff0fe" stroke="#4788c7" stroke-miterlimit="10" stroke-width="2" d="M34.6 1.05v16.8h16.8"/><path fill="none" stroke="#4788c7" stroke-linecap="round" stroke-miterlimit="10" stroke-width="2" d="M51.4 35.95v-18.7L35.15 1H1v65.45h50.4v-30.5z"/></symbol></defs><use data-name="document frame" width="52.4" height="67.45" transform="translate(11.367 2.6)" xlink:href="#a"/><path fill="#fff" stroke="#4788c7" stroke-linecap="round" stroke-linejoin="round" stroke-width="1.5" d="M16.5 31.167h8M16.5 35.333h6.713M16.5 39.5h4.799M58.683 35.333H52.6M58.683 39.5h-4.348M58.683 43.667h-5.52"/><path d="M62.943 70.46a5.419 5.419 0 0 1-3.864-1.598L46.224 55.083l-.502.25a17.663 17.663 0 0 1-7.953 1.887 17.86 17.86 0 1 1 17.859-17.86 17.653 17.653 0 0 1-1.943 8.072l-.249.49 13.295 13.1a5.52 5.52 0 0 1 1.692 3.959 5.48 5.48 0 0 1-5.48 5.479z" fill="#fff"/><path d="M63.654 68.951a3.303 3.303 0 0 1-2.356-.971L41.004 46.35l3.74-3.747 21.25 20.614a3.344 3.344 0 0 1-2.34 5.733z" fill="#98ccfd" stroke="#4788c7" stroke-linecap="round" stroke-linejoin="round" stroke-width="1.2"/><path d="M37.768 23.167A16.193 16.193 0 1 0 53.962 39.36a16.193 16.193 0 0 0-16.194-16.193zm0 30.06A13.868 13.868 0 1 1 51.636 39.36a13.867 13.867 0 0 1-13.868 13.868z" fill="#dff0fe" stroke="#4788c7" stroke-linecap="round" stroke-linejoin="round" stroke-width=".605"/><path d="M24.434 39.36a13.335 13.335 0 1 1 13.335 13.334A13.349 13.349 0 0 1 24.434 39.36z" fill="#fff" stroke="#4788c7" stroke-linecap="round" stroke-linejoin="round" stroke-width="1.067"/><path fill="#fff" stroke="#4788c7" stroke-linecap="round" stroke-linejoin="round" stroke-width="2" d="M44.167 32.575H33.19M42.167 39.408H27.704M44.167 46.242H33.19"/><path data-name="&lt;Контур&gt;" d="M33.342 63.337c-1.125-.399-1.928.905-2.618.66s-.127-2.428-1.012-2.742c0 0-1.222 3.538-3.369 2.776-1.028-.365-1.532-2.397-.614-4.984.452-1.272 1.163-1.97 1.81-1.74s.73 1.298.294 2.527c-.686 1.934-4.034 5.677-5.768 5.062-2.293-.814-2.13-5.191-1.274-7.602.897-2.527 2.025-3.253 2.663-3.026s1.067 1.47.159 4.028c-1.11 3.128-5.827 7.464-5.827 7.464" fill="none" stroke="#4788c7" stroke-linecap="round" stroke-miterlimit="10" stroke-width=".75"/></svg>