<?xml version="1.0" encoding="UTF-8"?>
<svg width="35px" height="31px" viewBox="0 0 35 31" version="1.1" xmlns="http://www.w3.org/2000/svg" xmlns:xlink="http://www.w3.org/1999/xlink">
    <!-- Generator: Sketch 53 (72520) - https://sketchapp.com -->
    <title>penalty decision</title>
    <desc>Created with Sketch.</desc>
    <defs>
        <polygon id="path-1" points="0.00025 0.16 25.09725 0.16 25.09725 24.9028888 0.00025 24.9028888"></polygon>
        <polygon id="path-3" points="0.601358873 0.602091727 18.5133522 0.602091727 18.5133522 13.6101416 0.601358873 13.6101416"></polygon>
    </defs>
    <g id="Page-1" stroke="none" stroke-width="1" fill="none" fill-rule="evenodd">
        <g id="penalty-decision" transform="translate(-0.013298, -0.131489)">
            <g id="Group-3">
                <mask id="mask-2" fill="white">
                    <use xlink:href="#path-1"></use>
                </mask>
                <g id="Clip-2"></g>
                <path d="M14.0405,1.3056 C13.8275,1.0926 13.6145,1.0926 13.4015,1.3056 L7.4335,7.2736 C7.2205,7.4866 7.2205,7.6996 7.4335,7.9126 C7.6465,8.1256 7.8595,8.1256 8.0725,7.9126 L14.0405,1.9446 C14.2535,1.7316 14.2535,1.4116 14.0405,1.3056 L14.0405,1.3056 Z M23.9515,11.1096 C23.7385,10.8966 23.5255,10.8966 23.3125,11.1096 L17.3445,17.0776 C17.1305,17.2906 17.1305,17.5046 17.3445,17.7176 C17.5575,17.9306 17.7705,17.9306 17.9835,17.7176 L23.9515,11.7496 C24.1655,11.6426 24.1655,11.3236 23.9515,11.1096 L23.9515,11.1096 Z M1.3585,21.4466 L1.3585,21.4466 C0.7195,22.0866 0.7195,22.9386 1.2525,23.4726 L1.3585,23.5786 L1.4655,23.6846 C1.9985,24.2186 2.9575,24.1116 3.3835,23.5786 L12.0155,13.8806 L10.9505,12.8146 L1.3585,21.4466 Z M14.6805,2.5846 L8.8185,8.4456 C8.8185,8.5526 8.9255,8.5526 8.9255,8.6586 C9.8845,10.0446 11.0565,11.4296 12.2285,12.6016 C13.4015,13.7736 14.7865,14.9466 16.1715,15.9056 C16.3855,16.0126 16.5985,16.1186 16.9175,16.1186 L22.3525,10.6836 C22.3525,10.4706 22.2465,10.1506 22.1395,9.9376 C21.1805,8.5526 20.0085,7.1666 18.8355,5.9946 C17.6645,4.8226 16.2785,3.7566 14.8935,2.6906 C14.8935,2.6906 14.7865,2.6906 14.6805,2.5846 L14.6805,2.5846 Z M7.9665,8.8716 C7.5405,8.9786 7.1135,8.7646 6.7935,8.4456 C6.2615,7.9126 6.2615,7.0596 6.7935,6.4206 L12.7615,0.5596 C13.2945,0.0266 14.1465,0.0266 14.7865,0.5596 C15.1065,0.8796 15.2125,1.3056 15.2125,1.7316 C15.3195,1.7316 15.4255,1.8386 15.5325,1.9446 C17.0245,3.0106 18.3035,4.0766 19.5825,5.3546 C20.8615,6.6336 21.9265,7.9126 22.9925,9.4046 C23.0985,9.6186 23.2055,9.8306 23.3125,10.0446 C23.7385,9.9376 24.2715,10.0446 24.6975,10.3636 C25.2305,10.8966 25.2305,11.7496 24.6975,12.3886 L18.7295,18.3566 C18.1965,18.8886 17.3445,18.8886 16.7045,18.3566 C16.3855,18.0366 16.1715,17.5046 16.3855,16.9716 C16.1715,16.8646 15.9585,16.7586 15.7455,16.6516 C14.7865,15.9056 13.8275,15.1596 12.8685,14.4136 L4.2365,24.1116 C3.3835,25.0706 1.8915,25.1776 0.9325,24.3246 L0.8265,24.2186 L0.7195,24.1116 C-0.2395,23.1516 -0.2395,21.7666 0.7195,20.8076 L0.8265,20.7006 L10.5235,12.0686 C9.6715,11.2166 8.9255,10.2576 8.2855,9.1916 C8.1795,9.0846 8.0725,8.9786 7.9665,8.8716 L7.9665,8.8716 Z" id="Fill-1" fill="#cccccc" mask="url(#mask-2)"></path>
            </g>
            <g id="Group" transform="translate(16.500000, 17.116536)">
                <path d="M14.2224933,2.52373903 C14.3460315,2.49442488 14.4235046,2.3687928 14.3952374,2.24316073 C14.3659233,2.11752865 14.2402912,2.0390086 14.115706,2.06832275 C13.9911209,2.0976369 13.9136478,2.22326898 13.9429619,2.34890106 C13.9722761,2.47453313 14.0979082,2.55200625 14.2224933,2.52373903" id="Fill-4" fill="#cccccc"></path>
                <path d="M13.5446036,2.68224483 C13.6681418,2.65293068 13.7456149,2.52729861 13.7173477,2.40166653 C13.6880335,2.27603445 13.5624014,2.1975144 13.4378163,2.22682856 C13.3132311,2.25614271 13.235758,2.38177478 13.2650722,2.50740686 C13.2943863,2.631992 13.4200184,2.71051205 13.5446036,2.68224483" id="Fill-6" fill="#cccccc"></path>
                <path d="M13.0395626,2.55954417 C13.0102485,2.43495903 12.8846164,2.35643898 12.7600312,2.38575313 C12.6354461,2.41402035 12.557973,2.53965243 12.5872871,2.66633144 C12.605085,2.74171068 12.6616194,2.78882271 12.7275763,2.81708993 L12.9327753,2.79196351 C13.0102485,2.73961681 13.0615482,2.65690903 13.0395626,2.55954417" id="Fill-8" fill="#cccccc"></path>
                <path d="M14.2767245,3.54512781 C14.1500455,3.56083182 14.0589622,3.67808843 14.0757132,3.80581437 C14.0903702,3.93249338 14.2065799,4.02462357 14.3332589,4.00891956 C14.4599379,3.99426248 14.5510212,3.87700588 14.5353172,3.74927994 C14.5196132,3.62155399 14.4034035,3.5294238 14.2767245,3.54512781" id="Fill-10" fill="#cccccc"></path>
                <path d="M13.5855387,3.62992946 C13.4588597,3.64563347 13.3688233,3.76184314 13.3845273,3.88956909 C13.3991844,4.01729503 13.516441,4.10837829 13.64312,4.09267428 C13.769799,4.0780172 13.8598354,3.9607606 13.8441314,3.83303465 C13.8284274,3.70530871 13.7122177,3.61317852 13.5855387,3.62992946" id="Fill-12" fill="#cccccc"></path>
                <g id="Group-16">
                    <mask id="mask-4" fill="white">
                        <use xlink:href="#path-3"></use>
                    </mask>
                    <g id="Clip-15"></g>
                    <path d="M16.9063085,11.2274246 L16.8916515,10.0569524 L16.8853699,9.57850359 L16.8623373,7.66052056 L16.8602434,7.49196419 L16.8790882,7.64795735 L17.1062729,9.52615689 L17.1638543,9.99204251 L17.3083312,11.1782187 L16.9063085,11.2274246 Z M16.4634555,12.9475371 L5.50519759,13.0825916 L3.84476031,13.1035303 L2.66381879,13.1192343 L1.67551313,13.1307506 L1.17507869,13.1370322 L1.11854425,8.54413283 L1.09132397,6.38849578 L1.07038529,4.7280585 L1.12168506,4.72701157 L1.18031336,4.72701157 L3.14854922,4.70293209 L3.51916385,4.69769742 L3.80183602,4.69455662 L4.23736055,4.68932195 L4.56505089,4.68513421 L4.82992518,4.68094648 L5.2434641,4.67571181 L5.45494476,4.67361794 L5.84545113,4.66838327 L6.21501882,4.66419553 L6.51444194,4.66105473 L6.9478726,4.65582006 L7.19285515,4.65267926 L7.63152049,4.64639766 L7.92570893,4.64325685 L8.30155823,4.63802218 L8.52036743,4.63592832 L8.63448323,4.63383445 L8.66798512,4.63383445 L8.89202899,4.63069365 L8.95903276,4.62964671 L9.05535069,4.62859978 L10.5147766,4.6108019 L14.4397321,4.56264294 L14.8113937,4.55740827 L16.0247901,4.54170426 L16.3043215,4.53856346 L16.359809,4.53751652 L16.3608559,4.61813044 L16.3619029,4.81181322 L16.3671375,5.18138091 L16.3723722,5.61899931 L16.375513,5.88387361 L16.3807477,6.27647385 L16.3985456,7.70972645 L16.3995925,7.76940169 L16.3995925,7.78091796 L16.4006394,7.843734 L16.4048272,8.29077481 L16.4100618,8.65196703 L16.4142496,8.96604722 L16.4194842,9.39110241 L16.423672,9.68529086 L16.4289066,10.1637397 L16.4435637,11.283959 L16.4487984,11.7529854 L16.4634555,12.9475371 Z M8.55282238,2.88859552 L16.042588,1.13812192 L16.3325887,2.37873867 L12.9331941,2.79123066 L12.7279951,2.81740401 L12.3385356,2.86451604 C12.3573804,2.81949788 12.3741314,2.77029198 12.3615682,2.71794528 C12.332254,2.59336014 12.2076689,2.51484009 12.0830837,2.54310731 C11.9574517,2.57242146 11.8799785,2.69910047 11.9103396,2.82473255 C11.9176682,2.8603283 11.9480292,2.88126698 11.9700149,2.9095342 L11.6726856,2.94512995 C11.6747795,2.92105047 11.6904835,2.90115873 11.6842019,2.87603231 C11.6538408,2.75144717 11.5292557,2.67292712 11.4046705,2.70119434 C11.2800854,2.73155542 11.2026123,2.8571875 11.2319264,2.98177264 C11.2340203,2.98910118 11.2413488,2.99119505 11.2434427,2.99747665 L10.9995071,3.0267908 C10.9670521,2.90848726 10.8477016,2.83206108 10.7273042,2.8603283 C10.6236578,2.88440778 10.5692172,2.97863184 10.5639825,3.08018443 L10.2729349,3.11578019 C10.2184943,3.04563561 10.1399743,2.99747665 10.048891,3.01841533 C9.97351178,3.03621321 9.92639975,3.09274764 9.89917947,3.16079835 L9.53694031,3.20476958 C9.48773442,3.17754929 9.43015305,3.16289222 9.37152474,3.17754929 C9.33802286,3.18487783 9.31813111,3.21419198 9.29195776,3.23408373 L8.60412214,3.31783845 L4.66241574,3.7973342 L8.55282238,2.88859552 Z M15.7934177,4.10199199 L13.0232304,4.13654081 C13.1048913,4.09256958 13.1656135,4.01509647 13.1540972,3.91773161 C13.1373462,3.79000567 13.0221835,3.69892241 12.8955045,3.71357949 C12.7688255,3.7292835 12.6777422,3.84549317 12.6934462,3.97321911 C12.7018217,4.05069223 12.7531215,4.10303892 12.8159375,4.13863468 L12.4233373,4.14386935 C12.4484637,4.10094506 12.4694024,4.05383303 12.4631208,4.00148633 C12.4474168,3.87376038 12.3312071,3.78267713 12.2045281,3.7973342 C12.0778491,3.81303821 11.9867658,3.92924789 12.0014229,4.05697383 C12.0066575,4.09571039 12.0338778,4.11874293 12.0527226,4.14805709 L11.7532995,4.15224482 C11.7574873,4.12921227 11.7752851,4.11036746 11.7721443,4.08524105 C11.7564403,3.9575151 11.6402307,3.86643185 11.5135516,3.88108892 C11.3868726,3.89679293 11.2957894,4.0130026 11.3114934,4.14072855 C11.3114934,4.14805709 11.3188219,4.15119789 11.3198689,4.15747949 L11.0759332,4.16062029 C11.0549946,4.03917595 10.9461134,3.95018656 10.8215283,3.96484364 C10.7178818,3.97845378 10.651925,4.0653493 10.6372679,4.16585496 L10.3430795,4.1700427 C10.2970144,4.09466345 10.223729,4.03812902 10.1315988,4.04964529 C10.0541257,4.05802076 10.0007321,4.11036746 9.96618324,4.17423043 L9.60185022,4.1794651 C9.55578512,4.14596322 9.50029762,4.12607147 9.44062239,4.13340001 C9.40607357,4.13758775 9.38304102,4.16376109 9.3547738,4.18260591 L8.66170351,4.18993444 L6.85260161,4.21296699 L6.60238439,4.21610779 L6.26945939,4.22029553 L5.83393486,4.22657713 L5.55754429,4.228671 L5.18169499,4.23390567 L4.6917299,4.24018727 L5.25812117,4.17108963 L5.46750797,4.14491628 L5.85487354,4.09780425 L6.2233943,4.05383303 L6.51967661,4.01719034 L6.94996647,3.96484364 L7.19390209,3.93552949 L7.62942662,3.88213586 L7.92047426,3.84758704 L8.29318275,3.80152194 L8.62401389,3.76173845 L8.65751578,3.75755071 L8.87946578,3.73137736 L14.3873854,3.06133962 L14.7569531,3.01632146 L16.2928052,2.82996722 L16.4477515,4.09466345 L16.2090505,4.09675732 L15.7934177,4.10199199 Z M17.9553364,9.32828637 L17.5616892,9.41936963 L17.1104607,5.71217644 L17.9553364,9.32828637 Z M17.6182236,9.88734911 L18.5133522,9.67796232 L16.3943578,0.602091727 L8.45126978,2.45725872 L0.601358873,4.29044011 L0.716521609,13.6102463 L16.9335288,13.4081881 L16.9125901,11.696451 L17.8244696,11.5865229 L17.6182236,9.88734911 Z" id="Fill-14" fill="#cccccc" mask="url(#mask-4)"></path>
                </g>
                <path d="M3.0569425,5.59094148 C3.07683425,5.60245776 3.09672599,5.61083323 3.11975854,5.6160679 C3.13755642,5.62025563 3.15011962,5.63700658 3.17001137,5.63700658 C3.17315217,5.63595964 3.17524604,5.63281884 3.17838684,5.63281884 C3.30087812,5.6254903 3.40033684,5.52603158 3.39928991,5.39935257 C3.39824298,5.38364856 3.3835859,5.37317922 3.38149203,5.35747521 C3.37835123,5.34281813 3.36892882,5.32920799 3.36264722,5.31455092 C3.32600453,5.23289007 3.25900076,5.16798016 3.1647767,5.17007403 C3.12918094,5.17007403 3.1061484,5.19310657 3.07683425,5.20776365 C2.99622033,5.24545327 2.93445123,5.31141011 2.93549816,5.40563417 C2.93654509,5.49043582 2.98993873,5.55115799 3.0569425,5.59094148" id="Fill-17" fill="#cccccc"></path>
                <path d="M6.64960111,5.59293066 C6.77732706,5.59188372 6.88097352,5.48509646 6.87887965,5.35632358 C6.87678579,5.2275507 6.77104546,5.12495117 6.64331951,5.12599811 C6.51559357,5.12809197 6.41299404,5.23383231 6.41404097,5.36260518 C6.41613484,5.49033113 6.52187517,5.59502453 6.64960111,5.59293066" id="Fill-19" fill="#cccccc"></path>
                <path d="M3.8655943,5.62768887 C3.99332024,5.625595 4.09696671,5.51985467 4.09487284,5.39108179 C4.09487284,5.33350042 4.06660562,5.28429452 4.03100987,5.2434641 C3.98808557,5.1942582 3.93050421,5.15970938 3.86035963,5.16075631 C3.83732708,5.16075631 3.82267001,5.17855419 3.80173133,5.18588273 C3.70646034,5.21519688 3.62898722,5.29162306 3.63108109,5.39631646 C3.63212802,5.52508934 3.73786836,5.62978273 3.8655943,5.62768887" id="Fill-21" fill="#cccccc"></path>
                <path d="M6.18235448,5.36501313 C6.18130755,5.23728719 6.07452028,5.13259379 5.94784127,5.13468766 C5.82011533,5.13573459 5.7175158,5.24252186 5.71960967,5.37129474 C5.7206566,5.50006761 5.82535,5.60371408 5.95307594,5.60266714 C6.08080189,5.60057328 6.18444835,5.49378601 6.18235448,5.36501313" id="Fill-23" fill="#cccccc"></path>
                <path d="M8.01145282,5.56434936 C8.0229691,5.56539629 8.03029763,5.57586563 8.04076697,5.57586563 C8.16849292,5.5748187 8.27213938,5.46803144 8.27004551,5.33925856 C8.27004551,5.33507082 8.26585778,5.33297695 8.26585778,5.32878922 C8.25852924,5.20629794 8.16011745,5.10683922 8.0355323,5.10788615 C7.90780636,5.10998002 7.80520683,5.21676728 7.8073007,5.34554016 C7.80834763,5.46174983 7.90047782,5.54864535 8.01145282,5.56434936" id="Fill-25" fill="#cccccc"></path>
                <path d="M8.71174696,5.56738547 C8.77351606,5.56633854 8.82795663,5.54016519 8.86878705,5.50038169 C8.90228894,5.46687981 8.91275828,5.42186165 8.92322762,5.37579655 C8.92322762,5.37474962 8.92322762,5.37474962 8.92427455,5.37370268 C8.92741535,5.35799867 8.9410255,5.34752934 8.9410255,5.33077839 C8.93997856,5.20200551 8.8331913,5.09940598 8.70651229,5.10045292 C8.57878634,5.10254679 8.47513988,5.20828712 8.47723375,5.33706 C8.47723375,5.38835976 8.50445403,5.42919018 8.53272125,5.46687981 C8.57564554,5.52550811 8.63532078,5.5684324 8.71174696,5.56738547" id="Fill-27" fill="#cccccc"></path>
                <path d="M7.3458122,5.58476457 C7.38978343,5.58371764 7.42328532,5.55859122 7.45783414,5.53555868 C7.48714829,5.49368132 7.51750938,5.45494476 7.54682353,5.41516127 C7.555199,5.39108179 7.57509074,5.37433084 7.57509074,5.34711056 C7.57299688,5.21938462 7.46725655,5.11573815 7.3395306,5.11783202 C7.21180466,5.11887896 7.10815819,5.22461929 7.11025206,5.35339217 C7.111299,5.48216504 7.21808626,5.58581151 7.3458122,5.58476457" id="Fill-29" fill="#cccccc"></path>
                <path d="M6.73136666,12.1332319 C6.60259378,12.1353257 6.49999425,12.242113 6.50104118,12.3708859 C6.50208812,12.4106694 6.52721453,12.4399835 6.54501241,12.4724385 C6.54815321,12.4766262 6.54815321,12.4818609 6.55129401,12.4860486 C6.59317137,12.5509585 6.65389354,12.6012114 6.73660133,12.6001644 C6.83606005,12.5991175 6.90411076,12.527926 6.93551878,12.4389366 C6.94389425,12.416951 6.9606452,12.4002 6.96169213,12.3761205 C6.96169213,12.3719328 6.96587987,12.3698389 6.96587987,12.3646043 C6.96483293,12.2358314 6.85804567,12.1321849 6.73136666,12.1332319" id="Fill-31" fill="#cccccc"></path>
                <path d="M5.48708563,5.37412146 C5.48499177,5.24534858 5.37925143,5.14170212 5.25152549,5.14274905 C5.12379955,5.14484292 5.02120002,5.25163018 5.02329388,5.38040306 C5.02434082,5.50812901 5.13008115,5.6128224 5.25780709,5.61072854 C5.38553304,5.6096816 5.48813257,5.50289434 5.48708563,5.37412146" id="Fill-33" fill="#cccccc"></path>
                <path d="M6.03515557,12.1424449 C5.90742962,12.1434918 5.80378316,12.2502791 5.80587703,12.379052 C5.80692396,12.4617597 5.85822373,12.520388 5.92313363,12.5612185 C5.95035392,12.5790164 5.97862113,12.5936734 6.01212302,12.5978612 C6.02259236,12.599955 6.0299209,12.6093774 6.04039024,12.6093774 C6.07703293,12.6083305 6.10215934,12.585298 6.13356736,12.5695939 C6.15974071,12.5559838 6.18800793,12.5507491 6.20789967,12.5266697 C6.24454236,12.4847923 6.27071571,12.4324456 6.27071571,12.3738173 C6.26862184,12.2450444 6.16288151,12.140351 6.03515557,12.1424449" id="Fill-35" fill="#cccccc"></path>
                <path d="M5.33883978,12.150611 C5.23624025,12.1527048 5.16504874,12.2280841 5.13573459,12.3223081 C5.12840606,12.3463876 5.10956124,12.3620916 5.10956124,12.388265 C5.11165511,12.5159909 5.21739544,12.6196374 5.34512139,12.6175435 C5.47284733,12.6164966 5.57544686,12.5107563 5.57439993,12.3819834 C5.57335299,12.324402 5.54613271,12.2751961 5.51158389,12.2343657 C5.46761266,12.1851598 5.40898436,12.149564 5.33883978,12.150611" id="Fill-37" fill="#cccccc"></path>
                <path d="M4.56191008,5.61952278 C4.68963603,5.61742891 4.79328249,5.51064165 4.79118862,5.38186877 C4.78909476,5.25309589 4.68335442,5.15049636 4.55562848,5.15259023 C4.42790254,5.15363716 4.32530301,5.25937749 4.32634994,5.38815037 C4.32844381,5.51692325 4.43418414,5.62056971 4.56191008,5.61952278" id="Fill-39" fill="#cccccc"></path>
                <path d="M2.72359872,6.13890672 C2.74244354,6.25092866 2.83038599,6.34096498 2.94659566,6.33991805 C2.94868953,6.33991805 2.94973646,6.33782418 2.95183033,6.33782418 C2.99894236,6.33573031 3.03767892,6.31165083 3.07327467,6.28547748 C3.08688481,6.27396121 3.10468269,6.26872654 3.11515203,6.25406946 C3.12980911,6.23836545 3.13085604,6.21428597 3.13818458,6.19544116 C3.15284165,6.16508007 3.17692113,6.13890672 3.1758742,6.1043579 C3.1758742,6.09074776 3.16331099,6.08237229 3.16121712,6.07085602 C3.16121712,6.06980908 3.16017019,6.06876215 3.16017019,6.06771521 C3.16017019,6.06666828 3.15912326,6.06666828 3.15912326,6.06562135 C3.13818458,5.95778715 3.05338293,5.87089163 2.94031406,5.8729855 C2.92670391,5.8729855 2.91937538,5.8855487 2.90681217,5.88764257 C2.90053057,5.8886895 2.89738976,5.89287724 2.89110816,5.89497111 C2.87959189,5.89811191 2.87016948,5.90334658 2.85970014,5.90753432 C2.82096358,5.92219139 2.78955556,5.94627087 2.76442915,5.97663196 C2.74349047,6.00699304 2.72883339,6.04154186 2.72359872,6.07923149 C2.72150486,6.09074776 2.71103552,6.0980763 2.71103552,6.10959257 C2.71103552,6.11482724 2.71627019,6.11692111 2.71627019,6.12110885 C2.71731712,6.12739045 2.72359872,6.13157819 2.72359872,6.13890672" id="Fill-41" fill="#cccccc"></path>
                <path d="M3.48932623,8.7000213 C3.56156467,8.54402813 3.71546397,8.43305313 3.90077128,8.43095927 C3.91228755,8.43095927 3.92275689,8.43619394 3.9353201,8.43724087 C3.95416491,8.4382878 3.97196279,8.44456941 3.98976067,8.44771021 C4.20124133,8.48644677 4.36142223,8.65919087 4.36875077,8.88323474 C4.36875077,8.88742248 4.37084463,8.88951634 4.37084463,8.89265715 C4.37084463,8.91987743 4.36037529,8.94395691 4.35618756,8.97013026 C4.32687341,9.15962531 4.19077199,9.3041022 4.00546468,9.34493262 C3.97510359,9.35226116 3.94578944,9.36482437 3.91228755,9.3658713 C3.65264793,9.3690121 3.445355,9.16485998 3.4422142,8.90312649 C3.44116727,8.82984111 3.46105901,8.76283733 3.48932623,8.7000213 M2.97842245,8.90940809 C2.97946939,8.95023851 2.99726726,8.98583427 3.00354887,9.02666469 C3.02239368,9.15334371 3.06217717,9.26745951 3.12604014,9.37319984 C3.29145571,9.64540267 3.57936255,9.83699159 3.91752222,9.83280385 C4.24625949,9.82861612 4.51846232,9.64121494 4.68178402,9.37948144 C4.75297553,9.26327177 4.79904063,9.13554583 4.81474464,8.99420974 C4.81893237,8.95652012 4.83463638,8.9251121 4.83463638,8.88637554 C4.83358945,8.82460644 4.80950997,8.77121281 4.79694676,8.71363144 C4.78438355,8.65500314 4.78228968,8.5921871 4.75925714,8.53879346 C4.68178402,8.35139228 4.53835407,8.20796233 4.3666569,8.10640973 C4.34153048,8.09175266 4.32268567,8.07186091 4.29651232,8.06034464 C4.17716185,8.00276327 4.04734204,7.96716752 3.90705288,7.96612058 C3.90391208,7.96612058 3.89972435,7.96402671 3.89553661,7.96402671 C3.79398402,7.96507365 3.70185383,7.99334087 3.61077057,8.02474888 C3.24329675,8.15352176 2.97318778,8.49796304 2.97842245,8.90940809" id="Fill-43" fill="#cccccc"></path>
                <path d="M7.60660346,12.2252574 C7.56367916,12.1666291 7.50400393,12.1237048 7.42653081,12.1247517 C7.31660275,12.1257986 7.23703577,12.2116472 7.21609709,12.3163406 C7.21190935,12.3330916 7.19725227,12.3435609 7.19725227,12.3613588 C7.19725227,12.3781097 7.21295628,12.3885791 7.21609709,12.40533 C7.24017657,12.5089765 7.32183742,12.5937781 7.43281242,12.5927312 C7.56053836,12.5906373 7.66418483,12.4838501 7.66209096,12.3561241 C7.66209096,12.3540302 7.65999709,12.3529833 7.65999709,12.3508894 C7.65790322,12.3016835 7.63277681,12.2619001 7.60660346,12.2252574" id="Fill-45" fill="#cccccc"></path>
                <path d="M4.71727508,12.1894522 C4.69738334,12.1800298 4.67749159,12.1800298 4.66178758,12.1674666 C4.65445905,12.1674666 4.65027131,12.1601381 4.64294277,12.1601381 C4.51521683,12.161185 4.4126173,12.2669253 4.41366423,12.3956982 C4.41471117,12.4292001 4.43669678,12.4532796 4.45135386,12.4825937 C4.48799655,12.5632076 4.55500032,12.6281176 4.64922438,12.6270706 C4.77695032,12.6249768 4.87954985,12.5181895 4.87745598,12.3894166 C4.87745598,12.3873227 4.87431518,12.3852289 4.87431518,12.3841819 C4.87012744,12.287864 4.80312367,12.2198133 4.71727508,12.1894522" id="Fill-47" fill="#cccccc"></path>
                <path d="M8.1228466,12.1158528 C8.00768386,12.1179466 7.92288221,12.2090299 7.90613127,12.3210518 C7.90508433,12.3325681 7.89356806,12.3409436 7.89356806,12.3535068 C7.89461499,12.4822797 8.00140226,12.5848792 8.12808127,12.5827853 C8.25685415,12.5817384 8.35945368,12.475998 8.35840674,12.3472252 C8.35735981,12.3168641 8.33537419,12.2969723 8.32385792,12.2697521 C8.2893091,12.1839035 8.22021146,12.1148058 8.1228466,12.1158528" id="Fill-49" fill="#cccccc"></path>
                <path d="M8.77110811,12.1087336 C8.68421259,12.1097805 8.62244349,12.1673619 8.58370693,12.2385534 C8.56590905,12.2720553 8.54078264,12.3045103 8.54078264,12.3453407 C8.54287651,12.4741136 8.64861684,12.5767131 8.77634278,12.5756662 C8.90406873,12.5735723 9.00771519,12.467832 9.00562132,12.3390591 C9.00562132,12.2825247 8.9773541,12.2343657 8.94385222,12.1945822 C8.90092792,12.1432824 8.84229962,12.1076867 8.77110811,12.1087336" id="Fill-51" fill="#cccccc"></path>
                <path d="M1.83004058,10.5557118 C1.83318138,10.5557118 1.83527525,10.5588526 1.83946299,10.5588526 C1.93159318,10.5578056 1.99545615,10.4939427 2.0310519,10.4143757 C2.04570898,10.3840146 2.06874153,10.3588882 2.06874153,10.3222455 C2.06769459,10.2468662 2.02581723,10.1882379 1.9692828,10.1463606 C1.92949931,10.1170464 1.88657502,10.09192 1.83318138,10.09192 C1.81014884,10.0929669 1.79758563,10.1097179 1.77664695,10.1159995 C1.67928209,10.1453136 1.60285591,10.2227868 1.60390284,10.3285271 C1.60599671,10.4531122 1.70754931,10.551524 1.83004058,10.5557118" id="Fill-53" fill="#cccccc"></path>
                <path d="M1.74105119,9.82264859 C1.77036534,9.83625873 1.79549176,9.85824435 1.83004058,9.85824435 C1.855167,9.85824435 1.87191794,9.8383526 1.89495049,9.83102406 C1.98708068,9.79856911 2.06141299,9.72528373 2.05931912,9.6226842 C2.05827219,9.49391133 1.95253186,9.38921793 1.82480591,9.3913118 C1.81328964,9.3913118 1.8059611,9.40282807 1.79549176,9.403875 C1.75780214,9.40910967 1.72430025,9.42481368 1.6949861,9.44784623 C1.63740473,9.49077052 1.59448044,9.54939883 1.59552737,9.62687194 C1.59657431,9.721096 1.66148421,9.7860059 1.74105119,9.82264859" id="Fill-55" fill="#cccccc"></path>
                <path d="M1.81266148,8.45671384 C1.9121202,8.45566691 1.98121785,8.38342846 2.01262587,8.29443908 C2.02204827,8.26826573 2.04298695,8.24942091 2.04194002,8.22010676 C2.04089308,8.14996219 2.00634426,8.09133389 1.95609143,8.04945653 C1.91526101,8.01490771 1.86500818,7.98873436 1.80742681,7.98978129 C1.67970086,7.99187516 1.5760544,8.09761549 1.57814827,8.22638837 C1.5791952,8.35411431 1.68493553,8.45880771 1.81266148,8.45671384" id="Fill-57" fill="#cccccc"></path>
                <path d="M1.72880207,9.12026059 C1.75916315,9.13491767 1.78638343,9.15795021 1.82197919,9.15795021 C1.94970513,9.15585635 2.05230466,9.05011602 2.05125773,8.92134314 C2.04916386,8.79257026 1.94342353,8.6889238 1.81569759,8.69101766 C1.74764688,8.69101766 1.69006551,8.72451955 1.64818815,8.77267851 C1.63248414,8.79152332 1.63039027,8.81769667 1.62096787,8.83968229 C1.60945159,8.86899644 1.58641905,8.89307592 1.58641905,8.92657781 C1.58746598,8.98520611 1.61468626,9.03441201 1.65028202,9.07524243 C1.6712207,9.09827498 1.70053485,9.10665045 1.72880207,9.12026059" id="Fill-59" fill="#cccccc"></path>
                <path d="M1.85966881,10.8000661 C1.85234027,10.7990192 1.84815254,10.7927376 1.84187093,10.7927376 C1.71414499,10.7937845 1.61154546,10.9005718 1.61363933,11.0293447 C1.61468626,11.1581176 1.71937966,11.2607171 1.8471056,11.2596702 C1.87327895,11.2586232 1.88898296,11.2397784 1.91201551,11.2324499 C2.0041457,11.1999949 2.07847801,11.1267095 2.07638414,11.0230631 C2.07533721,10.9016187 1.97797235,10.8094886 1.85966881,10.8000661" id="Fill-61" fill="#cccccc"></path>
                <path d="M2.48845735,6.81271343 C2.6130425,6.81166649 2.71250122,6.70802003 2.71459509,6.58343489 C2.71459509,6.58029409 2.71773589,6.57924715 2.71773589,6.57610635 C2.71668896,6.45570894 2.6193241,6.36357875 2.5020675,6.35415635 C2.49473896,6.35415635 2.49055122,6.34578088 2.48217575,6.34578088 C2.47484721,6.34682781 2.47065948,6.35310941 2.46542481,6.35415635 C2.34607433,6.36567262 2.25185028,6.46094361 2.25289721,6.58238795 C2.25289721,6.58657569 2.25813188,6.58866956 2.25813188,6.59390423 C2.26022575,6.61903064 2.27802363,6.63787545 2.28744603,6.65986107 C2.2958215,6.68289361 2.29896231,6.7069731 2.31466632,6.72477097 C2.35759061,6.77711767 2.41621891,6.81376036 2.48845735,6.81271343" id="Fill-63" fill="#cccccc"></path>
                <path d="M3.24497184,11.7099565 C3.24392491,11.5811836 3.13818458,11.4775371 3.01045863,11.4785841 C2.9015775,11.479631 2.82410439,11.5644326 2.8000249,11.6670322 C2.7968841,11.68483 2.78118009,11.6963463 2.78222703,11.7151911 C2.78222703,11.7769602 2.80944731,11.8314008 2.84818387,11.8722312 C2.89110816,11.9172494 2.94973646,11.9476105 3.0156933,11.9465635 C3.14341925,11.9444697 3.24706571,11.8387293 3.24497184,11.7099565" id="Fill-65" fill="#cccccc"></path>
                <path d="M3.94735984,12.1679901 C3.94003131,12.1679901 3.93584357,12.1753186 3.92851503,12.1763655 C3.81125843,12.1889288 3.71598744,12.2831528 3.7180813,12.4056441 C3.71912824,12.5103375 3.79869522,12.5846698 3.89501314,12.612937 C3.91595182,12.6181717 3.9306089,12.6349226 3.95259451,12.6349226 C4.01750442,12.6338757 4.07613272,12.6056085 4.11801008,12.5605903 C4.15674664,12.517666 4.18291999,12.4611316 4.18187305,12.3993625 C4.18187305,12.3627198 4.15779357,12.3365464 4.1431365,12.3061854 C4.103353,12.2287122 4.0384431,12.1669431 3.94735984,12.1679901" id="Fill-67" fill="#cccccc"></path>
                <path d="M3.25114875,12.1772031 C3.12342281,12.17825 3.01977634,12.2850373 3.02187021,12.4138102 C3.02396408,12.542583 3.12970441,12.6451826 3.25743036,12.6441356 C3.3851563,12.6420418 3.48775583,12.5363014 3.4867089,12.4075286 C3.48461503,12.2798026 3.3788747,12.1751092 3.25114875,12.1772031" id="Fill-69" fill="#cccccc"></path>
                <path d="M1.80449539,7.75631501 C1.83380954,7.75526808 1.85370129,7.7343294 1.8788277,7.72386006 C1.95211308,7.69349898 2.00131898,7.64010534 2.01702299,7.56053836 C2.01911686,7.54588129 2.03377393,7.53541195 2.03377393,7.518661 C2.032727,7.44223482 1.98875577,7.38465346 1.93012747,7.34172916 C1.89139091,7.31450888 1.84951355,7.28833553 1.79821379,7.28938246 C1.79088525,7.28938246 1.78669751,7.296711 1.78041591,7.29775794 C1.66211237,7.30927421 1.56788831,7.4045452 1.56893525,7.52494261 C1.57102912,7.65371549 1.67676945,7.75736195 1.80449539,7.75631501" id="Fill-71" fill="#cccccc"></path>
                <path d="M2.66025922,11.0658827 C2.65397762,11.0616949 2.64664908,11.060648 2.64036747,11.0575072 C2.60791252,11.0418032 2.5796453,11.0166768 2.54090875,11.0177237 C2.51264153,11.0177237 2.49484365,11.0397093 2.46971724,11.0480848 C2.38072785,11.0826336 2.31058327,11.1538251 2.31163021,11.2543308 C2.31372408,11.3831037 2.41946441,11.4857032 2.54719035,11.4846563 C2.62989813,11.4836093 2.68957337,11.4312626 2.72935686,11.3632119 C2.75134247,11.3276162 2.77542196,11.2930674 2.77542196,11.2480492 C2.77437502,11.1663883 2.72516913,11.1067131 2.66025922,11.0658827" id="Fill-73" fill="#cccccc"></path>
                <path d="M1.715506,7.02325185 C1.74272629,7.03372119 1.7647119,7.0557068 1.79507299,7.05465987 C1.89767252,7.05361293 1.96886403,6.97823369 1.99922511,6.88400963 C2.00550671,6.86202402 2.02539846,6.84422614 2.02435153,6.81909972 C2.02330459,6.71545326 1.94792535,6.64426175 1.85474822,6.61390067 C1.83171568,6.60761906 1.81496473,6.58772732 1.78983832,6.58772732 C1.72702228,6.58877425 1.67153478,6.61599453 1.63070435,6.65682496 C1.58673313,6.69974925 1.56055978,6.75837755 1.56055978,6.82538133 C1.56265364,6.92169925 1.63070435,6.98974996 1.715506,7.02325185" id="Fill-75" fill="#cccccc"></path>
                <path d="M14.2827967,5.49786905 C14.3435189,5.49786905 14.3948186,5.47064877 14.4356491,5.43191221 C14.4817141,5.38898792 14.5131222,5.33035962 14.5120752,5.26126198 C14.5110283,5.1324891 14.404241,5.02988957 14.2765151,5.0309365 C14.1498361,5.03303037 14.0461896,5.1387707 14.0472366,5.26754358 C14.0482835,5.33664122 14.0817854,5.39317566 14.1288974,5.43505302 C14.1707748,5.47378957 14.2231215,5.49891599 14.2827967,5.49786905" id="Fill-77" fill="#cccccc"></path>
                <path d="M10.8036257,5.54184028 C10.8758642,5.54079335 10.9334455,5.50205679 10.9753229,5.44866316 C11.0067309,5.40783273 11.0339512,5.3607207 11.0329043,5.30418627 C11.0308104,5.17646032 10.9250701,5.07281386 10.7973441,5.07490773 C10.7188241,5.07595466 10.6601958,5.12201976 10.6193653,5.18274193 C10.5942389,5.22043155 10.5670186,5.26126198 10.5680656,5.31046787 C10.5701594,5.43924075 10.6758998,5.54288721 10.8036257,5.54184028" id="Fill-79" fill="#cccccc"></path>
                <path d="M13.467968,5.4590278 C13.5035637,5.48101342 13.5402064,5.50718677 13.5873185,5.50718677 C13.7139975,5.5050929 13.8176439,5.39830563 13.816597,5.27057969 C13.8155501,5.20671672 13.7893767,5.15018228 13.7474994,5.10830492 C13.7045751,5.06538063 13.6459468,5.03920728 13.5810369,5.04025421 C13.4533109,5.04130115 13.3507114,5.14704148 13.3528052,5.27581436 C13.3538522,5.35747521 13.4030581,5.41819738 13.467968,5.4590278" id="Fill-81" fill="#cccccc"></path>
                <path d="M11.6163606,5.48258382 C11.6802235,5.43965952 11.7294294,5.37893735 11.7283825,5.29622957 C11.7262886,5.16745669 11.6215952,5.06485716 11.4938693,5.0659041 C11.4237247,5.06695103 11.3671903,5.10045292 11.3253129,5.14965881 C11.2897172,5.19153617 11.2635438,5.24283594 11.2645908,5.30251117 C11.2656377,5.43023712 11.371378,5.53493052 11.499104,5.53283665 C11.5451691,5.53283665 11.5807648,5.50561636 11.6163606,5.48258382" id="Fill-83" fill="#cccccc"></path>
                <path d="M9.41109885,5.55921938 C9.50636984,5.55817245 9.57127975,5.49116868 9.6068755,5.40636702 C9.61839177,5.37809981 9.64142432,5.35611419 9.64037739,5.32156537 C9.63933045,5.19383943 9.53359012,5.09019297 9.40586418,5.09228683 C9.27813823,5.09333377 9.17449177,5.1990741 9.17658564,5.32784698 C9.17658564,5.34669179 9.19228965,5.359255 9.19752432,5.37600594 C9.22265073,5.47860547 9.30221772,5.56026632 9.41109885,5.55921938" id="Fill-85" fill="#cccccc"></path>
                <path d="M10.1073099,5.55000637 C10.1104507,5.55000637 10.1114977,5.54686556 10.1146385,5.54686556 C10.2381767,5.54058396 10.3386823,5.4400783 10.3365885,5.31339929 C10.3355415,5.18462641 10.2287543,5.08202688 10.1010283,5.08307381 C9.97330239,5.08516768 9.87070286,5.19090801 9.8717498,5.31968089 C9.87279673,5.38040306 9.90106395,5.43379669 9.93875357,5.47462712 C9.98167786,5.52069221 10.0403062,5.5510533 10.1073099,5.55000637" id="Fill-87" fill="#cccccc"></path>
                <path d="M10.8843443,12.0821415 C10.7566184,12.0831884 10.6540189,12.1899757 10.6550658,12.3187486 C10.6561127,12.3700483 10.683333,12.4119257 10.7116002,12.4506622 C10.7555715,12.5071967 10.8141998,12.550121 10.8906259,12.549074 C10.9827561,12.5480271 11.0455722,12.4841641 11.0822149,12.4056441 C11.0968719,12.3742361 11.1199045,12.3491097 11.1199045,12.3135139 C11.1178106,12.184741 11.0120703,12.0800476 10.8843443,12.0821415" id="Fill-89" fill="#cccccc"></path>
                <path d="M12.4240701,5.28827287 C12.4230232,5.15949999 12.3162359,5.0548066 12.18851,5.05690046 C12.061831,5.0579474 11.9592314,5.16473466 11.9602784,5.29350754 C11.9623722,5.42228042 12.0670656,5.52592688 12.1947916,5.52487995 C12.3225175,5.52278608 12.426164,5.41599882 12.4240701,5.28827287" id="Fill-91" fill="#cccccc"></path>
                <path d="M11.5806601,12.0729285 C11.4529342,12.0750223 11.3492877,12.1818096 11.3513816,12.3105825 C11.3513816,12.333615 11.3702264,12.3482721 11.3775549,12.3692108 C11.4068691,12.4655287 11.4812014,12.5419549 11.5869417,12.539861 C11.709433,12.5388141 11.804704,12.4393554 11.8109856,12.3168641 C11.8109856,12.3126763 11.8162203,12.3095355 11.8162203,12.3043009 C11.8141264,12.175528 11.7083861,12.0718815 11.5806601,12.0729285" id="Fill-93" fill="#cccccc"></path>
                <path d="M12.2768712,12.0647624 C12.1543799,12.0658093 12.0591089,12.166315 12.0528273,12.2877593 C12.0528273,12.292994 12.0475927,12.2961348 12.0475927,12.3013695 C12.0486396,12.4301423 12.1543799,12.5327419 12.2821059,12.5316949 C12.4098318,12.5296011 12.5134783,12.4238607 12.5113844,12.2961348 C12.5113844,12.2710084 12.4925396,12.2563513 12.4852111,12.2343657 C12.45485,12.1390947 12.3815646,12.0637155 12.2768712,12.0647624" id="Fill-95" fill="#cccccc"></path>
                <path d="M12.8913168,5.51524816 C13.0190427,5.51420122 13.1216422,5.40741396 13.1205953,5.27864108 C13.1185014,5.1498682 13.0127611,5.04726867 12.8850352,5.04831561 C12.7573092,5.05040947 12.6547097,5.15614981 12.6557566,5.28492268 C12.6578505,5.41264863 12.7635908,5.51734203 12.8913168,5.51524816" id="Fill-97" fill="#cccccc"></path>
                <path d="M14.2889736,5.96511568 C14.2900205,6.09388856 14.3968078,6.19858196 14.5245337,6.19648809 C14.5789743,6.19544116 14.6250394,6.16822087 14.6648229,6.13471899 C14.7171696,6.09074776 14.7538123,6.03211946 14.7527654,5.95988101 C14.7527654,5.95359941 14.7464837,5.95045861 14.7464837,5.94417701 C14.7360144,5.8237796 14.6396965,5.72746167 14.5182521,5.72850861 C14.3905262,5.73060248 14.2868797,5.83634281 14.2889736,5.96511568" id="Fill-99" fill="#cccccc"></path>
                <path d="M13.6335929,9.24390349 C13.3739533,9.2470443 13.1677073,9.04393911 13.1645665,8.78325255 C13.1603788,8.52256599 13.362437,8.31317919 13.6220767,8.31003839 C13.8806694,8.30585066 14.0890092,8.51104971 14.0911031,8.77173627 C14.0942439,9.03242283 13.8921856,9.24076269 13.6335929,9.24390349 M14.426122,9.22191788 C14.5025481,9.08476953 14.5580356,8.93401104 14.5559418,8.76545467 C14.552801,8.54978627 14.4648585,8.36029122 14.3402734,8.20429806 C14.1675293,7.98653579 13.9120774,7.83891811 13.6157951,7.84310584 C13.5121486,7.84415277 13.4158307,7.87241999 13.3216066,7.90696881 C12.9583205,8.03783556 12.6955401,8.38018297 12.6997278,8.78848722 C12.7039156,9.11408368 12.8839882,9.38523958 13.1383932,9.54960821 C13.1624727,9.56007755 13.1781767,9.57159383 13.1980684,9.58834477 C13.3017149,9.6448792 13.4126899,9.67838109 13.5341342,9.69199123 C13.56973,9.69513204 13.6021849,9.71188298 13.6398745,9.71083604 C13.7456149,9.70978911 13.8440267,9.68152189 13.9392977,9.64592614 C14.0314278,9.61242425 14.1120418,9.56112449 14.1884679,9.50040232 C14.2868797,9.4229292 14.3653998,9.33079901 14.426122,9.22191788" id="Fill-101" fill="#cccccc"></path>
                <path d="M10.1891802,12.0903076 C10.0614542,12.0924014 9.95780777,12.1991887 9.95990164,12.3279616 C9.96094857,12.4221856 10.0279523,12.4891894 10.1106601,12.5237382 C10.1378804,12.5363014 10.1619599,12.5582871 10.1944148,12.5572401 C10.2509493,12.5572401 10.2980613,12.5300198 10.3378448,12.496518 C10.3880976,12.4525467 10.4247403,12.3939184 10.4236934,12.32168 C10.4226465,12.1929071 10.3169061,12.0892606 10.1891802,12.0903076" id="Fill-103" fill="#cccccc"></path>
                <path d="M12.9721401,12.0555494 C12.8810568,12.0576432 12.8171938,12.1204593 12.7805511,12.1989793 C12.766941,12.2303873 12.7428615,12.2555138 12.7428615,12.2932034 C12.7449554,12.4219763 12.8506957,12.5245758 12.9784217,12.5224819 C13.1061476,12.521435 13.2097941,12.4156947 13.2077002,12.2869218 C13.2066533,12.2345751 13.179433,12.1926977 13.1511658,12.1539612 C13.1082415,12.0974267 13.0485662,12.0545024 12.9721401,12.0555494" id="Fill-105" fill="#cccccc"></path>
                <path d="M9.54709557,12.1209827 C9.52720383,12.1157481 9.51464062,12.0989971 9.49265501,12.0989971 C9.45705925,12.0989971 9.4308859,12.1241235 9.40052482,12.1398275 C9.3230517,12.1785641 9.26337647,12.243474 9.26337647,12.3356042 C9.2644234,12.4643771 9.37121066,12.5680235 9.49893661,12.5669766 C9.62666255,12.5648827 9.72926208,12.4580955 9.72821515,12.3303695 C9.72612128,12.2225353 9.6465543,12.1471561 9.54709557,12.1209827" id="Fill-107" fill="#cccccc"></path>
                <path d="M9.61860116,10.7479288 C9.45737333,10.8212142 9.28148842,10.8662324 9.10036885,10.8976404 C9.06163229,10.9028751 9.02289573,10.9091567 8.98415918,10.9133444 C8.93600021,10.9185791 8.88993512,10.9321892 8.84072922,10.9332361 C8.82397828,10.9342831 8.8093212,10.9384708 8.79361719,10.9395178 C8.77686625,10.9395178 8.76220917,10.93533 8.74650516,10.93533 C8.67531365,10.9342831 8.60726295,10.9185791 8.5381653,10.9102036 C8.39264148,10.8944996 8.25235233,10.8630916 8.11729785,10.8180734 C7.29859548,10.5437767 6.70184312,9.78370265 6.69032685,8.86344769 C6.68823298,8.71373613 6.70393699,8.56716538 6.7322042,8.42478236 C6.79187944,8.12012457 6.92274619,7.84478094 7.09863109,7.60293919 C7.12585138,7.56420263 7.15516553,7.52651301 7.18762048,7.48987032 C7.28079761,7.37784838 7.38339713,7.27629579 7.49855987,7.1873064 C7.83043794,6.92661984 8.24188299,6.76015734 8.69415847,6.74235946 C8.70986248,6.74131253 8.72451955,6.73712479 8.74127049,6.73607786 C8.7569745,6.73607786 8.77163158,6.7402656 8.78838252,6.7402656 C9.85625517,6.75701654 10.7220696,7.57676584 10.8236222,8.63312222 C10.8299038,8.69279745 10.8435139,8.75037882 10.8435139,8.81110099 C10.8456078,8.9409208 10.8319976,9.06759981 10.8121059,9.19009109 C10.8068712,9.2183583 10.8005896,9.24662552 10.7953549,9.27593967 C10.7231165,9.61619321 10.5660764,9.92294487 10.3514549,10.1804906 C10.3399387,10.1941008 10.3315632,10.206664 10.3210939,10.2202741 C10.2509493,10.2998411 10.1724292,10.3731265 10.0897214,10.4411772 C10.0279523,10.4945708 9.96304244,10.5448236 9.8939448,10.5908887 C9.80600234,10.6474232 9.71596602,10.7039576 9.61860116,10.7479288 M11.2235509,8.21120783 C10.9450665,7.10564555 9.95780777,6.28589625 8.78210092,6.27437998 L8.78210092,6.27123918 C8.76953771,6.27123918 8.75906837,6.26809838 8.74545823,6.26809838 C8.74231743,6.26809838 8.73917663,6.26914531 8.73498889,6.26914531 C8.73080115,6.27019224 8.72766035,6.26809838 8.72451955,6.26809838 C8.71195634,6.26914531 8.70044007,6.27228611 8.68787686,6.27333305 L8.68787686,6.27542691 C8.32249691,6.28799012 7.97910256,6.38221418 7.66816317,6.53506654 C7.61058181,6.56228682 7.55718817,6.59788258 7.50274761,6.63033753 C7.3268627,6.73398399 7.16249407,6.85333447 7.01697024,6.99467055 C6.92065232,7.08784767 6.8337568,7.18940027 6.75314288,7.29618753 C6.42126482,7.73485287 6.21920656,8.27716467 6.2265351,8.86868236 C6.23805137,9.77637411 6.72173487,10.5605277 7.4346969,11.0086154 C7.54462497,11.0756192 7.65455303,11.1426229 7.77285657,11.1939227 C7.91942733,11.2567387 8.07332662,11.3059446 8.23246058,11.3404935 C8.24292992,11.3425873 8.25235233,11.3446812 8.26282167,11.347822 C8.4209087,11.380277 8.58527733,11.4001687 8.75173983,11.4022626 L8.75173983,11.4043564 L8.75488064,11.4043564 C8.76639691,11.4043564 8.77686625,11.4074972 8.78838252,11.4074972 C8.79152332,11.4074972 8.79571106,11.4064503 8.79885186,11.4064503 C8.8030396,11.4064503 8.8061804,11.4074972 8.81036814,11.4074972 C8.82188441,11.4064503 8.83340068,11.4033095 8.84596389,11.4033095 L8.84596389,11.4001687 C8.94332875,11.3970279 9.03545894,11.3760892 9.129683,11.3624791 C9.22076625,11.347822 9.31289644,11.3363057 9.40188583,11.3143201 C9.50239149,11.2881468 9.59766248,11.2504571 9.69398041,11.2127675 C10.1514906,11.030601 10.54095,10.7207086 10.8236222,10.3249675 C10.8948137,10.2244619 10.9555358,10.1187215 11.0131172,10.0098404 C11.0947781,9.85070642 11.1607349,9.68319699 11.2078469,9.50731208 C11.2675222,9.28640901 11.3083526,9.05713047 11.3062587,8.81633566 C11.3062587,8.81214792 11.3073057,8.80900712 11.3073057,8.80691325 C11.3052118,8.62998141 11.28532,8.45723731 11.2497243,8.28972787 C11.2434427,8.26250759 11.2308795,8.23842811 11.2235509,8.21120783" id="Fill-109" fill="#cccccc"></path>
                <path d="M15.6416123,10.3481048 C15.6730203,10.3638088 15.7002406,10.3868413 15.7358364,10.3857944 C15.8112156,10.3847474 15.8698439,10.3428701 15.9106743,10.2852887 C15.9399885,10.2455052 15.9661618,10.201534 15.9651149,10.1502342 C15.964068,10.0214614 15.8572807,9.91781489 15.7306017,9.91886182 C15.6028757,9.92095569 15.4992293,10.026696 15.5002762,10.1554689 C15.5023701,10.2475991 15.5651861,10.3114621 15.6416123,10.3481048" id="Fill-111" fill="#cccccc"></path>
                <path d="M15.7274609,9.68560494 C15.7913239,9.684558 15.8468114,9.65838465 15.8886887,9.61546036 C15.9305661,9.57253607 15.9577864,9.51390776 15.9567394,9.44899786 C15.9556925,9.38827569 15.9284722,9.33592899 15.8897356,9.29405163 C15.8468114,9.24798654 15.78923,9.21762545 15.7211793,9.21867238 C15.6751142,9.21971932 15.6405654,9.24484573 15.6049696,9.26892522 C15.5767024,9.28672309 15.5578576,9.3055679 15.5400597,9.33383512 C15.5170272,9.37047781 15.4908538,9.40816743 15.4919007,9.45423253 C15.4929477,9.58300541 15.5997349,9.68665187 15.7274609,9.68560494" id="Fill-113" fill="#cccccc"></path>
                <path d="M15.6405654,8.25633068 C15.6646448,8.26470615 15.6824427,8.28355096 15.709663,8.28355096 C15.7881831,8.28250403 15.8457644,8.23643893 15.8865948,8.1767637 C15.9138151,8.13802714 15.9389415,8.09824365 15.9389415,8.04799082 C15.9368477,7.91921794 15.8321543,7.81557148 15.7044283,7.81661841 C15.5756555,7.81871228 15.4730559,7.92549954 15.4751498,8.05322549 C15.4761967,8.15477808 15.5494821,8.22596959 15.6405654,8.25633068" id="Fill-115" fill="#cccccc"></path>
                <path d="M15.6313523,8.94950566 C15.6606665,8.9631158 15.684746,8.98510142 15.7182479,8.98510142 C15.7779231,8.98405448 15.827129,8.9568342 15.8690064,8.92019151 C15.9150714,8.87622028 15.9485733,8.81759198 15.9475264,8.74849434 C15.9475264,8.69405377 15.9192592,8.64798868 15.8878512,8.60925212 C15.8449269,8.55585849 15.7852516,8.51712193 15.7119663,8.51816887 C15.6962622,8.51816887 15.6878868,8.53177901 15.6732297,8.53491981 C15.5664424,8.55795236 15.4816408,8.64066014 15.4826877,8.75372901 C15.4847816,8.849 15.5507384,8.91390991 15.6313523,8.94950566" id="Fill-117" fill="#cccccc"></path>
                <path d="M15.7386631,10.6200982 C15.6109371,10.6211451 15.5072907,10.7279324 15.5093845,10.8567053 C15.5114784,10.9854782 15.6172187,11.0880777 15.7449447,11.0870307 C15.8726706,11.0849369 15.9752702,10.9791965 15.9742232,10.8504237 C15.9721293,10.7226977 15.866389,10.6180043 15.7386631,10.6200982" id="Fill-119" fill="#cccccc"></path>
                <path d="M14.9933508,6.65724373 C15.1210767,6.6561968 15.2247232,6.54940953 15.2226293,6.42063666 C15.2215824,6.34421048 15.1786581,6.28662911 15.1200298,6.24370481 C15.0812932,6.2154376 15.0394159,6.19031118 14.9870692,6.19031118 C14.8593432,6.19240505 14.7567437,6.29814538 14.7577906,6.42691826 C14.7588376,6.50125057 14.799668,6.55883194 14.8541086,6.6007093 C14.8938921,6.63211732 14.9389102,6.65829067 14.9933508,6.65724373" id="Fill-121" fill="#cccccc"></path>
                <path d="M14.5874545,11.3347353 C14.4743856,11.3368292 14.3916778,11.4258186 14.372833,11.5346997 C14.3707391,11.5483099 14.3581759,11.5577323 14.3581759,11.5723893 C14.3602698,11.7011622 14.4660101,11.8037617 14.5937361,11.8016679 C14.721462,11.8006209 14.8240616,11.6948806 14.8230146,11.5661077 C14.8230146,11.5336528 14.7999821,11.5116672 14.7874189,11.4844469 C14.7507762,11.3996452 14.6837724,11.3336884 14.5874545,11.3347353" id="Fill-123" fill="#cccccc"></path>
                <path d="M13.7522106,12.0810946 C13.7239433,12.0685313 13.7009108,12.0475927 13.6684558,12.0475927 C13.6129683,12.0486396 13.5669032,12.074813 13.5281667,12.1072679 C13.47582,12.1512391 13.4381304,12.2109144 13.4391773,12.2831528 C13.4412712,12.4119257 13.5470115,12.5166191 13.6747374,12.5145252 C13.8024634,12.5124313 13.9050629,12.406691 13.904016,12.2779181 C13.902969,12.1826471 13.8349183,12.1156434 13.7522106,12.0810946" id="Fill-125" fill="#cccccc"></path>
                <path d="M14.3645622,12.0392172 C14.2368363,12.0402641 14.1331898,12.1470514 14.1352837,12.2758243 C14.1363306,12.4045972 14.242071,12.5071967 14.3697969,12.5061497 C14.4975229,12.5040559 14.6011693,12.3983155 14.6001224,12.2695427 C14.5980285,12.1407698 14.4922882,12.0371233 14.3645622,12.0392172" id="Fill-127" fill="#cccccc"></path>
                <path d="M15.7008688,7.58357091 C15.8285947,7.58147704 15.9322412,7.47468978 15.9301473,7.3459169 C15.9291004,7.21819095 15.8223131,7.11454449 15.6945872,7.11663836 C15.5668612,7.11768529 15.4642617,7.22342562 15.4653086,7.3521985 C15.4674025,7.48097138 15.5731428,7.58461784 15.7008688,7.58357091" id="Fill-129" fill="#cccccc"></path>
                <path d="M15.0454881,10.8623587 C15.0235025,10.8623587 15.0098923,10.8801566 14.9900006,10.8853913 C14.8926357,10.9157524 14.8151626,10.9921785 14.8162096,11.0989658 C14.8183034,11.2277387 14.9240438,11.3303382 15.0517697,11.3292913 C15.1794956,11.3271974 15.2831421,11.2214571 15.2810482,11.0926842 C15.2800013,11.0340559 15.252781,10.98485 15.2171853,10.9440196 C15.174261,10.8948137 15.1156327,10.8613118 15.0454881,10.8623587" id="Fill-131" fill="#cccccc"></path>
                <path d="M15.6927027,6.88222984 C15.8204286,6.88118291 15.9230281,6.77439564 15.9219812,6.64562277 C15.9209343,6.61944942 15.9010425,6.60165154 15.8916201,6.57861899 C15.8570713,6.55349258 15.8403204,6.51161522 15.8225225,6.46973786 C15.7837859,6.44042371 15.7398147,6.41529729 15.6864211,6.41529729 C15.5586951,6.41739116 15.4550487,6.52313149 15.4571425,6.65190437 C15.4581895,6.78067725 15.5649767,6.88432371 15.6927027,6.88222984" id="Fill-133" fill="#cccccc"></path>
            </g>
        </g>
    </g>
</svg>