<?xml version="1.0" encoding="UTF-8"?>
<svg width="40px" height="49px" viewBox="0 0 40 49" version="1.1" xmlns="http://www.w3.org/2000/svg" xmlns:xlink="http://www.w3.org/1999/xlink">
    <!-- Generator: sketchtool 53 (72520) - https://sketchapp.com -->
    <title>017321B2-1D9B-4322-9715-3BC7A44FA784</title>
    <desc>Created with sketchtool.</desc>
    <g id="Page-1" stroke="none" stroke-width="1" fill="none" fill-rule="evenodd">
        <g id="Учет---Дело---Обложка" transform="translate(-510.000000, -690.000000)" fill="#CCCCCC">
            <g id="body" transform="translate(400.000000, 181.000000)">
                <g id="Group-11" transform="translate(100.000000, 38.000000)">
                    <g id="Group" transform="translate(0.000000, 441.000000)">
                        <g id="Group-8">
                            <g id="icon-/-40*40-/-police" transform="translate(0.000000, 24.000000)">
                                <path d="M30.0556643,6 C27.1289062,6 24.9082035,7.86035101 22.5498045,9.73535103 C20.1914062,11.610351 17.6630858,13.5673823 14.1064455,14.2646483 C13.754883,14.3320313 13.5,14.6396483 13.5,15.0000001 C13.5,16.8867188 14.8623045,18.2050778 16.0810545,19.0253904 C17.0478517,19.6699216 17.6396483,19.8515626 18,19.9863279 L18,27.7792967 L18.0117188,27.7792967 C18.0351562,28.2011717 18.1582035,28.5732422 18.2666017,28.9394529 C18.3251955,29.1445314 18.3837892,29.3349609 18.421875,29.4785154 C18.4599608,29.6220699 18.46875,29.7626949 18.46875,29.6542967 C18.46875,30.6738279 19.3242188,31.4707029 20.3320312,31.5058592 C20.484375,34.7431637 22.2011722,37.5527342 24.75,39.205078 L24.75,39.3808593 L21.7617188,41.3906253 C20.0625,42.131836 17.3613285,43.3330075 15.0234375,44.80957 C13.8398438,45.5566406 12.75,46.3681638 11.9238285,47.2587888 C11.0976562,48.1494138 10.5,49.1542968 10.5,50.2792968 L10.5,54.7792969 L49.5,54.7792969 L49.5,50.2792968 C49.5,49.1542968 48.9023438,48.1494138 48.0761722,47.2587888 C47.25,46.3681638 46.1601562,45.5566406 44.9765625,44.80957 C42.6386722,43.3330075 39.9375,42.131836 38.2382812,41.3906253 L35.25,39.3808593 L35.25,39.2080075 C37.7988285,37.5556637 39.515625,34.7431637 39.6679688,31.5058592 C40.6757812,31.4707029 41.53125,30.6738279 41.53125,29.6542967 C41.53125,29.7626949 41.5400392,29.6220699 41.578125,29.4785154 C41.6162108,29.3349609 41.6748045,29.1445314 41.7333983,28.9394529 C41.8417972,28.5732422 41.9648438,28.2011717 41.9882812,27.7792967 L42,27.7792967 L42,19.9863279 C42.3603517,19.8515626 42.9521483,19.6699216 43.9189455,19.0253904 C45.1376955,18.2050778 46.5,16.8867188 46.5,15.0000001 C46.5,14.6132813 46.2070312,14.2910153 45.8203125,14.2529296 C42.3105472,13.9160153 39.84375,11.9912108 37.5234375,10.03125 C35.2001955,8.07128852 33.0146483,6 30.0556643,6 Z M30.0556643,7.5 C32.2910161,7.5 34.2011723,9.19335904 36.5537108,11.1767573 C38.71875,13.0048824 41.296875,14.9501949 44.7949222,15.5566404 C44.5546875,16.4355467 43.9277347,17.2119137 43.0810545,17.777344 C42.0527347,18.46582 41.0126955,18.8173825 41.0126955,18.8173825 C40.7050785,18.9199217 40.5,19.2070315 40.5,19.5292968 L40.5,21.3925781 C40.3681643,21.5185548 39.7265625,22.1630861 38.083008,22.9833986 C36.2841795,23.8740236 33.5771483,24.7792969 29.9443358,24.7792969 C26.3144536,24.7792969 23.6367189,23.8769531 21.8671876,22.9863281 C20.2470706,22.1689451 19.6259769,21.5214843 19.5000001,21.3984378 L19.5000001,19.5292968 C19.5000001,19.2070315 19.2949224,18.9199217 18.9873046,18.8173825 C18.9873046,18.8173825 17.9472662,18.46582 16.9189457,17.777344 C16.0546877,17.200195 15.4072269,16.4062502 15.1845707,15.5009762 C18.6943359,14.6044922 21.2841796,12.6562501 23.4843751,10.9101563 C25.8515626,9.02636703 27.7822268,7.5 30.0556643,7.5 Z M28.5,12.0292969 L28.5,14.2792969 C28.5,15.0292969 30,15.7792969 30,15.7792969 C30,15.7792969 31.5,15.0292969 31.5,14.2792969 L31.5,12.0292969 L28.5,12.0292969 Z M21,18.7792969 C20.5869142,18.7792969 20.25,19.1162111 20.25,19.5292969 C20.25,19.9423826 20.5869142,20.2792969 21,20.2792969 C21.4130858,20.2792969 21.75,19.9423826 21.75,19.5292969 C21.75,19.1162111 21.4130858,18.7792969 21,18.7792969 Z M24,18.7792969 C23.5869142,18.7792969 23.25,19.1162111 23.25,19.5292969 C23.25,19.9423826 23.5869142,20.2792969 24,20.2792969 C24.4130858,20.2792969 24.75,19.9423826 24.75,19.5292969 C24.75,19.1162111 24.4130858,18.7792969 24,18.7792969 Z M27,18.7792969 C26.5869142,18.7792969 26.25,19.1162111 26.25,19.5292969 C26.25,19.9423826 26.5869142,20.2792969 27,20.2792969 C27.4130858,20.2792969 27.75,19.9423826 27.75,19.5292969 C27.75,19.1162111 27.4130858,18.7792969 27,18.7792969 Z M30,18.7792969 C29.5869142,18.7792969 29.25,19.1162111 29.25,19.5292969 C29.25,19.9423826 29.5869142,20.2792969 30,20.2792969 C30.4130858,20.2792969 30.75,19.9423826 30.75,19.5292969 C30.75,19.1162111 30.4130858,18.7792969 30,18.7792969 Z M33,18.7792969 C32.5869142,18.7792969 32.25,19.1162111 32.25,19.5292969 C32.25,19.9423826 32.5869142,20.2792969 33,20.2792969 C33.4130858,20.2792969 33.75,19.9423826 33.75,19.5292969 C33.75,19.1162111 33.4130858,18.7792969 33,18.7792969 Z M36,18.7792969 C35.5869142,18.7792969 35.25,19.1162111 35.25,19.5292969 C35.25,19.9423826 35.5869142,20.2792969 36,20.2792969 C36.4130858,20.2792969 36.75,19.9423826 36.75,19.5292969 C36.75,19.1162111 36.4130858,18.7792969 36,18.7792969 Z M39,18.7792969 C38.5869142,18.7792969 38.25,19.1162111 38.25,19.5292969 C38.25,19.9423826 38.5869142,20.2792969 39,20.2792969 C39.4130858,20.2792969 39.75,19.9423826 39.75,19.5292969 C39.75,19.1162111 39.4130858,18.7792969 39,18.7792969 Z M40.5000002,23.2939453 L40.5000002,25.6406255 C40.2919922,25.5732425 40.0722662,25.529297 39.8437502,25.529297 C39.7792974,25.529297 39.7910162,25.5439453 39.7500002,25.549805 L39.7500002,25.529297 C39.7500002,24.8964845 39.6445314,24.3867193 39.4951172,23.9296881 C39.8964849,23.7041016 40.2041019,23.4960943 40.5000002,23.2939453 Z M19.5,23.3144531 C19.7900392,23.5136719 20.083008,23.7128906 20.4697267,23.9355469 C20.3349607,24.4394531 20.2558597,24.9755861 20.2529295,25.5527344 C20.2119142,25.5468754 20.223633,25.5292969 20.15625,25.5292969 C19.9277347,25.5292969 19.708008,25.5732424 19.5,25.6406254 L19.5,23.3144531 Z M38.1474608,24.6064453 C38.2119142,24.8642578 38.25,25.1455078 38.25,25.5292971 L38.25,28.007813 L39.3779295,27.3457033 C39.5712892,27.2343755 39.75,27.1347658 39.8759767,27.070313 C39.890625,27.0615238 39.8964847,27.0615238 39.911133,27.0527345 C40.2539062,27.0878908 40.5,27.3281255 40.5,27.6298828 C40.5,27.685547 40.4121097,28.1250005 40.2978517,28.5175783 C40.239258,28.710938 40.1806642,28.9072265 40.1308597,29.085938 C40.0810545,29.2646488 40.03125,29.3906255 40.03125,29.654297 C40.03125,29.8535157 39.8671875,30.029297 39.609375,30.029297 L38.25,30.029297 L38.25,31.054688 C38.25,35.1210942 35.317383,38.4814451 31.4560545,39.1699219 L31.2421875,39.2050781 L31.0810545,39.3544924 C30.7880858,39.6210941 30.4189455,39.7792969 30,39.7792969 C29.5810545,39.7792969 29.2119142,39.6210941 28.9189455,39.3544924 L28.7578125,39.2050781 L28.5439455,39.1699219 C24.682617,38.4814451 21.75,35.1210942 21.75,31.054688 L21.75,30.029297 L20.390625,30.029297 C20.1328125,30.029297 19.96875,29.8535157 19.96875,29.654297 C19.96875,29.3906255 19.9189455,29.2646488 19.869141,29.085938 C19.8193358,28.9072265 19.760742,28.710938 19.7021483,28.5175783 C19.587891,28.1250005 19.5,27.685547 19.5,27.6298828 C19.5,27.3281255 19.7460938,27.0878908 20.088867,27.0527345 C20.103516,27.0615238 20.109375,27.0615238 20.1240233,27.070313 C20.25,27.1347658 20.4287108,27.2343755 20.6220705,27.3457033 L21.75,28.007813 L21.75,25.5673828 C21.75,25.2333988 21.7851562,24.9228516 21.8408205,24.6298828 C23.7685545,25.5000006 26.4697267,26.279297 29.9443358,26.279297 C33.4570312,26.279297 36.1933597,25.4853516 38.1474608,24.6064453 Z M25.875,27.0292969 C25.2539062,27.0292969 24.75,27.5332031 24.75,28.1542969 C24.75,28.7753906 25.2539062,29.2792969 25.875,29.2792969 C26.4960938,29.2792969 27,28.7753906 27,28.1542969 C27,27.5332031 26.4960938,27.0292969 25.875,27.0292969 Z M34.125,27.0292969 C33.5039062,27.0292969 33,27.5332031 33,28.1542969 C33,28.7753906 33.5039062,29.2792969 34.125,29.2792969 C34.7460938,29.2792969 35.25,28.7753906 35.25,28.1542969 C35.25,27.5332031 34.7460938,27.0292969 34.125,27.0292969 Z M26.25,40.0019531 C26.833008,40.2480469 27.4453125,40.4443361 28.0810545,40.5732424 C28.6113285,40.9951174 29.2675785,41.2792969 30,41.2792969 C30.729492,41.2792969 31.3828125,40.9951174 31.9101562,40.5761719 C32.5488285,40.4501951 33.1640625,40.2509764 33.75,40.0048826 L33.75,41.4931639 C33.6621097,41.6718754 32.364258,44.2792969 30,44.2792969 C27.635742,44.2792969 26.337891,41.6718754 26.25,41.4931639 L26.25,40.0019531 Z M24.7500001,41.1884766 L24.7500001,41.8681641 L24.8173831,42.0175783 C24.8173831,42.0175783 25.6875001,44.0097659 27.5302734,45.0966802 L24.1728518,46.8867195 L23.2851562,42.1728516 L24.7500001,41.1884766 Z M35.2500001,41.1884766 L37.0458984,42.3955078 L36.1962894,46.916016 L32.5078125,45.0703132 C34.3242188,43.9804694 35.1826171,42.0175783 35.1826171,42.0175783 L35.2500001,41.8681641 L35.2500001,41.1884766 Z M21.911133,42.9667969 L23.0771483,49.1718754 L29.4990233,45.7470701 C29.6630858,45.7646486 29.8271483,45.7792969 30,45.7792969 C30.1728517,45.7792969 30.3398438,45.7617191 30.5039062,45.7441406 L37.3037108,49.1425781 L38.4375,43.1191406 C40.0957035,43.8574219 42.2841795,44.8828129 44.1796875,46.0781254 C45.2929688,46.7812504 46.2890625,47.5400389 46.9746097,48.2783201 C47.6601562,49.0166014 48,49.7080076 48,50.2792969 L48,53.2792969 L30.75,53.2792969 C30.75,52.8662111 30.4130858,52.5292969 30,52.5292969 C29.5869142,52.5292969 29.25,52.8662111 29.25,53.2792969 L12,53.2792969 L12,50.2792969 C12,49.7080076 12.3398438,49.0166014 13.025391,48.2783201 C13.7109375,47.5400389 14.7070312,46.7812504 15.8203125,46.0781254 C17.8505858,44.7978514 20.223633,43.7080076 21.911133,42.9667969 Z M30,46.5292969 C29.5869142,46.5292969 29.25,46.8662111 29.25,47.2792969 C29.25,47.6923826 29.5869142,48.0292969 30,48.0292969 C30.4130858,48.0292969 30.75,47.6923826 30.75,47.2792969 C30.75,46.8662111 30.4130858,46.5292969 30,46.5292969 Z M30,49.5292969 C29.5869142,49.5292969 29.25,49.8662111 29.25,50.2792969 C29.25,50.6923826 29.5869142,51.0292969 30,51.0292969 C30.4130858,51.0292969 30.75,50.6923826 30.75,50.2792969 C30.75,49.8662111 30.4130858,49.5292969 30,49.5292969 Z M15,50.2792969 C14.5869142,50.2792969 14.25,50.6162111 14.25,51.0292969 C14.25,51.4423826 14.5869142,51.7792969 15,51.7792969 C15.4130858,51.7792969 15.75,51.4423826 15.75,51.0292969 C15.75,50.6162111 15.4130858,50.2792969 15,50.2792969 Z M18,50.2792969 C17.5869142,50.2792969 17.25,50.6162111 17.25,51.0292969 C17.25,51.4423826 17.5869142,51.7792969 18,51.7792969 C18.4130858,51.7792969 18.75,51.4423826 18.75,51.0292969 C18.75,50.6162111 18.4130858,50.2792969 18,50.2792969 Z M21,50.2792969 C20.5869142,50.2792969 20.25,50.6162111 20.25,51.0292969 C20.25,51.4423826 20.5869142,51.7792969 21,51.7792969 C21.4130858,51.7792969 21.75,51.4423826 21.75,51.0292969 C21.75,50.6162111 21.4130858,50.2792969 21,50.2792969 Z M39,50.2792969 C38.5869142,50.2792969 38.25,50.6162111 38.25,51.0292969 C38.25,51.4423826 38.5869142,51.7792969 39,51.7792969 C39.4130858,51.7792969 39.75,51.4423826 39.75,51.0292969 C39.75,50.6162111 39.4130858,50.2792969 39,50.2792969 Z M42,50.2792969 C41.5869142,50.2792969 41.25,50.6162111 41.25,51.0292969 C41.25,51.4423826 41.5869142,51.7792969 42,51.7792969 C42.4130858,51.7792969 42.75,51.4423826 42.75,51.0292969 C42.75,50.6162111 42.4130858,50.2792969 42,50.2792969 Z M45,50.2792969 C44.5869142,50.2792969 44.25,50.6162111 44.25,51.0292969 C44.25,51.4423826 44.5869142,51.7792969 45,51.7792969 C45.4130858,51.7792969 45.75,51.4423826 45.75,51.0292969 C45.75,50.6162111 45.4130858,50.2792969 45,50.2792969 Z" id="Shape"></path>
                            </g>
                        </g>
                    </g>
                </g>
            </g>
        </g>
    </g>
</svg>