<svg id="4931bd5a-2711-4d68-852d-9b168416b0c2" data-name="Layer 1" xmlns="http://www.w3.org/2000/svg" xmlns:xlink="http://www.w3.org/1999/xlink" viewBox="0 0 72 72"><defs><symbol id="3313b8c6-cb24-4f24-afdd-3d9eebb73050" data-name="document frame" viewBox="0 0 52.4 67.45"><polygon points="51.4 35.95 51.4 17.25 35.15 1 1 1 1 66.45 51.4 66.45 51.4 35.95" fill="#fff"/><polyline points="34.6 1.05 34.6 17.85 51.4 17.85" fill="#dff0fe" stroke="#4788c7" stroke-miterlimit="10" stroke-width="2"/><polygon points="51.4 35.95 51.4 17.25 35.15 1 1 1 1 66.45 51.4 66.45 51.4 35.95" fill="none" stroke="#4788c7" stroke-linecap="round" stroke-miterlimit="10" stroke-width="2"/></symbol></defs><title>posnanovlenie</title><use id="2b211092-4d63-4c9f-a80c-019eb4ac6e8a" data-name="document frame" width="52.4" height="67.45" transform="translate(11.3667 2.6)" xlink:href="#3313b8c6-cb24-4f24-afdd-3d9eebb73050"/><circle cx="46.5673" cy="52.3887" r="13.2861" fill="none" stroke="#98ccfd" stroke-linecap="round" stroke-linejoin="round" stroke-width="0.8781"/><circle cx="46.5673" cy="52.3887" r="10.4371" fill="none" stroke="#dff0fe" stroke-miterlimit="10" stroke-width="2.3416"/><path d="M35.6566,26.1979A3.9436,3.9436,0,0,1,39.198,27.65a3.7934,3.7934,0,0,0-2.1219-.3455A4.1561,4.1561,0,0,0,33.648,32.07a4.4791,4.4791,0,0,0,.9843,2.2875,4.3469,4.3469,0,0,1-2.4037-3.3937A4.1558,4.1558,0,0,1,35.6566,26.1979Z" fill="#fff"/><path d="M50.5349,52.0728A1.502,1.502,0,0,0,48.8813,50.74l-3.4846.3738-.267-2.4891a.5007.5007,0,0,0-.5512-.4445L33.6268,49.3544a.5009.5009,0,0,0-.4445.5512l.267,2.4892-3.4846.3737a1.5021,1.5021,0,0,0-1.3333,1.6535l.32,2.9869a.5.5,0,0,0,.5512.4443l20.9078-2.2424a.5.5,0,0,0,.4444-.5512Z" fill="#4788c7"/><path d="M35.67,46.5334l.0534.4977,5.9737-.6407a32.8584,32.8584,0,0,1,1.161-12.884A6.008,6.008,0,1,0,31.777,34.5589,33.0667,33.0667,0,0,1,35.67,46.5334Z" fill="#98ccfd" stroke="#4788c7" stroke-linecap="round" stroke-linejoin="round" stroke-width="1.2"/><path d="M48.2762,54.4871,31.3509,56.3024a1.1583,1.1583,0,1,1-.247-2.3033l16.9253-1.8153a1.1583,1.1583,0,0,1,.247,2.3033Z" fill="#98ccfd"/><path d="M36.0605,13.9385l2.0407,6.5824L19.7774,26.2018l-2.0407-6.5824,18.3238-5.6809M36.5548,13,16.7982,19.1251,19.2831,27.14,39.04,21.0151,36.5548,13Z" fill="#98ccfd"/><path d="M34.9926,15.9655l1.0814,3.488L20.8453,24.1748l-1.0814-3.488,15.2287-4.7213m.4943-.9385L18.8254,20.1925l1.5256,4.9208,16.6614-5.1655L35.4869,15.027Z" fill="#dff0fe"/></svg>