<svg data-name="Layer 1" xmlns="http://www.w3.org/2000/svg" xmlns:xlink="http://www.w3.org/1999/xlink" viewBox="0 0 72 72"><defs><symbol id="a" data-name="document frame" viewBox="0 0 52.4 67.45"><path fill="#fff" d="M51.4 35.95v-18.7L35.15 1H1v65.45h50.4v-30.5z"/><path fill="#dff0fe" stroke="#4788c7" stroke-miterlimit="10" stroke-width="2" d="M34.6 1.05v16.8h16.8"/><path fill="none" stroke="#4788c7" stroke-linecap="round" stroke-miterlimit="10" stroke-width="2" d="M51.4 35.95v-18.7L35.15 1H1v65.45h50.4v-30.5z"/></symbol></defs><use data-name="document frame" width="52.4" height="67.45" transform="translate(11.367 2.6)" xlink:href="#a"/><circle cx="43.35" cy="50.282" r="14.282" fill="none" stroke="#98ccfd" stroke-linecap="round" stroke-linejoin="round" stroke-width=".878"/><circle cx="43.35" cy="50.282" r="11.22" fill="none" stroke="#dff0fe" stroke-miterlimit="10" stroke-width="2.342"/><path d="M48.69 49.108a1.615 1.615 0 0 0-1.777-1.433l-3.746.402-.287-2.676a.538.538 0 0 0-.593-.478l-11.772 1.263a.538.538 0 0 0-.478.592l.287 2.676-3.746.402a1.615 1.615 0 0 0-1.433 1.777l.344 3.211a.538.538 0 0 0 .593.478l22.475-2.41a.538.538 0 0 0 .478-.593zM33.021 44.32l.057.535 6.422-.688a35.32 35.32 0 0 1 1.248-13.85 6.458 6.458 0 1 0-11.911 1.131A35.55 35.55 0 0 1 33.02 44.32zm.162-19.736a3.65 3.65 0 0 1 3.279 1.344 3.511 3.511 0 0 0-1.965-.32 3.847 3.847 0 0 0-3.173 4.412 4.147 4.147 0 0 0 .911 2.118 4.025 4.025 0 0 1-2.225-3.141 3.847 3.847 0 0 1 3.173-4.412z" fill="#4788c7"/><path d="M46.263 51.703l-18.195 1.952a1.245 1.245 0 1 1-.265-2.476l18.194-1.952a1.245 1.245 0 1 1 .265 2.476z" fill="#dff0fe"/></svg>