<svg xmlns="http://www.w3.org/2000/svg" xmlns:xlink="http://www.w3.org/1999/xlink" width="26.645" height="26.645" viewBox="0 0 26.645 26.645"><defs><style>.a{fill:none;}.b{clip-path:url(#a);}.c{fill:#868686;}</style><clipPath id="a"><rect class="a" width="26.645" height="26.645"/></clipPath></defs><g class="b"><path class="c" d="M7.213,2V9.53H3.738A1.747,1.747,0,0,0,2,11.268V21.694a1.747,1.747,0,0,0,1.738,1.738H7.213v5.213H23.431V23.431h3.475a1.747,1.747,0,0,0,1.738-1.738V11.268A1.747,1.747,0,0,0,26.907,9.53H23.431V2ZM8.372,3.158h13.9V9.53H8.372Zm-4.634,7.53H7.695a.579.579,0,0,0,.189,0H22.755a.579.579,0,0,0,.189,0h3.963a.57.57,0,0,1,.579.579V21.694a.57.57,0,0,1-.579.579H23.431V17.06H7.213v5.213H3.738a.57.57,0,0,1-.579-.579V11.268A.57.57,0,0,1,3.738,10.688ZM24.59,12.426a1.158,1.158,0,1,0,1.158,1.158A1.158,1.158,0,0,0,24.59,12.426ZM8.372,18.218h13.9v4.537a.579.579,0,0,0,0,.189v4.542H8.372V22.95a.579.579,0,0,0,0-.189Zm2.317,1.738a.579.579,0,1,0,0,1.159h9.268a.579.579,0,1,0,0-1.159Zm0,2.317a.579.579,0,1,0,0,1.159h6.951a.579.579,0,1,0,0-1.159Zm0,2.317a.579.579,0,1,0,0,1.159h9.268a.579.579,0,1,0,0-1.159Z" transform="translate(-2 -2)"/></g></svg>