<svg data-name="Layer 1" xmlns="http://www.w3.org/2000/svg" xmlns:xlink="http://www.w3.org/1999/xlink" viewBox="0 0 72 72"><defs><symbol id="a" data-name="tablet" viewBox="0 0 56.393 70.931"><path d="M2.564 69.991A1.645 1.645 0 0 1 .94 68.328V6.363a1.645 1.645 0 0 1 1.624-1.664h19.128a5.897 5.897 0 0 0-.075.94 6.58 6.58 0 0 0 13.159 0 5.909 5.909 0 0 0-.076-.94H53.83a1.645 1.645 0 0 1 1.624 1.664v61.965a1.647 1.647 0 0 1-1.624 1.663z" fill="#b6dcfe"/><path d="M53.829 5.64a.706.706 0 0 1 .684.723V68.33a.705.705 0 0 1-.684.722H2.564a.706.706 0 0 1-.684-.724V6.363a.706.706 0 0 1 .684-.724h18.113a7.52 7.52 0 0 0 15.039 0h18.113m0-1.88H33.49a5.568 5.568 0 0 1 .346 1.88 5.64 5.64 0 0 1-11.279 0 5.566 5.566 0 0 1 .346-1.88H2.564A2.584 2.584 0 0 0 0 6.363V68.33a2.584 2.584 0 0 0 2.564 2.602h51.267a2.584 2.584 0 0 0 2.562-2.604V6.363a2.584 2.584 0 0 0-2.564-2.603z" fill="#4788c7"/><path fill="#fff" d="M7.519 11.279h41.355v52.133H7.519z"/><path d="M17.998 14.098a2.823 2.823 0 0 1-2.82-2.82V4.7h7.586l.074-.2a4.645 4.645 0 0 0-.141 1.14 4.7 4.7 0 0 0 9.399 0 4.65 4.65 0 0 0-.141-1.14l.073.2h7.587v6.58a2.823 2.823 0 0 1-2.82 2.82zM27.39.94z" fill="#98ccfd"/><path d="M38.675 5.64v5.639a1.883 1.883 0 0 1-1.88 1.88H17.998a1.883 1.883 0 0 1-1.88-1.88v-5.64h5.639a5.64 5.64 0 0 0 11.279 0h5.639M27.397 0a5.621 5.621 0 0 0-5.294 3.76h-7.865v7.52a3.759 3.759 0 0 0 3.76 3.759h18.797a3.759 3.759 0 0 0 3.76-3.76V3.76H32.69A5.621 5.621 0 0 0 27.397 0zm0 9.399a3.76 3.76 0 1 1 3.759-3.76 3.763 3.763 0 0 1-3.76 3.76z" fill="#4788c7"/></symbol></defs><use width="56.393" height="70.931" transform="translate(10.17 .367)" xlink:href="#a"/><path d="M29.195 42.167a8.644 8.644 0 0 1 17.236 0z" fill="#98ccfd" stroke="#4788c7" stroke-miterlimit="10" stroke-width=".5"/><path data-name="&lt;Контур&gt;" d="M37.39 58.901c-1.125-.4-1.928.905-2.617.66s-.127-2.428-1.013-2.742c0 0-1.222 3.538-3.368 2.776-1.029-.365-1.533-2.397-.614-4.984.451-1.272 1.162-1.97 1.81-1.741s.73 1.298.294 2.527c-.687 1.935-4.035 5.678-5.769 5.062-2.293-.813-2.13-5.19-1.274-7.601.897-2.528 2.025-3.253 2.663-3.027s1.067 1.471.16 4.029c-1.11 3.128-5.828 7.464-5.828 7.464" fill="none" stroke="#4788c7" stroke-linecap="round" stroke-miterlimit="10" stroke-width=".75"/><path d="M58.05 70.611A14.162 14.162 0 1 1 72.212 56.45 14.177 14.177 0 0 1 58.05 70.611z" fill="#4788c7"/><path d="M58.05 44.288A12.162 12.162 0 1 1 45.888 56.45 12.162 12.162 0 0 1 58.05 44.288m0-4A16.162 16.162 0 1 0 74.212 56.45 16.18 16.18 0 0 0 58.05 40.288z" fill="#fff"/><path d="M58.05 44.288A12.162 12.162 0 1 1 45.888 56.45 12.162 12.162 0 0 1 58.05 44.288m0-4A16.162 16.162 0 1 0 74.212 56.45 16.18 16.18 0 0 0 58.05 40.288z" fill="#fff"/><circle cx="37.813" cy="28.532" r="4.032" fill="#dff0fe" stroke="#4788c7" stroke-miterlimit="10" stroke-width=".5"/><path d="M59.5 47.687a1.514 1.514 0 0 0-1.24.675 1.463 1.463 0 0 0-.219 1.044l-1.055.556.522.522.795-.424a1.532 1.532 0 0 0 .402.392.346.346 0 1 0 .381-.577.812.812 0 0 1-.152-.153l.163-.087a.343.343 0 0 0 .142-.468.348.348 0 0 0-.468-.152l-.044.021a.693.693 0 0 1 .109-.283.834.834 0 0 1 1.121-.25.273.273 0 0 0 .033.022 10.082 10.082 0 0 1 .707.468c.087.063.158.113.207.142a.797.797 0 0 1-.109 1.415.349.349 0 0 0-.152.468.33.33 0 0 0 .304.185.38.38 0 0 0 .164-.033 1.463 1.463 0 0 0 .816-1.676 1.541 1.541 0 0 0-.642-.947.476.476 0 0 0-.033-.022c-.031-.018-.077-.052-.141-.098a9.397 9.397 0 0 0-.283-.196 7.728 7.728 0 0 0-.501-.315 1.444 1.444 0 0 0-.827-.23zm-4.768.99a1.056 1.056 0 0 0-.751.305l-1.001 1.023a3.678 3.678 0 0 0-2.972.99c-1.48 1.518-1.247 4.197.522 5.966a4.884 4.884 0 0 0 3.408 1.47 3.52 3.52 0 0 0 2.547-1.012 3.417 3.417 0 0 0 1.001-2.95l.99-1.034a1.051 1.051 0 0 0 0-1.503l-2.993-2.96a1.055 1.055 0 0 0-.751-.295zm5.791.827a.336.336 0 0 0-.13.044 1.529 1.529 0 0 0-.697.697 1.507 1.507 0 0 0-.044 1.186.33.33 0 0 0 .011.033 4.853 4.853 0 0 1 .153.468 4.44 4.44 0 0 0 .217.599 1.532 1.532 0 0 0 1.024.925l-.11.838.72-.12.097-.697c.052-.01.104-.02.153-.032l.087-.022a1.57 1.57 0 0 0 .914-1.992.264.264 0 0 0-.022-.033 4.89 4.89 0 0 1-.141-.446 2.312 2.312 0 0 0-.109-.305c-.016-.04-.033-.076-.043-.109a.344.344 0 0 0-.654.218c.015.046.033.098.055.152a1.61 1.61 0 0 1 .076.218 5.158 5.158 0 0 0 .185.566.81.81 0 0 1-.022.61.903.903 0 0 1-.38.425l.032-.218a.354.354 0 0 0-.305-.392.347.347 0 0 0-.392.294l-.043.337a.817.817 0 0 1-.468-.479.154.154 0 0 0-.011-.032 3.884 3.884 0 0 1-.185-.5 5.06 5.06 0 0 0-.196-.556.854.854 0 0 1 .032-.642.905.905 0 0 1 .414-.392.34.34 0 0 0 .13-.468.356.356 0 0 0-.348-.175zm-8.088 2.265a3.16 3.16 0 0 1 2.319.968c1.08 1.08 1.324 2.682.522 3.484s-2.403.555-3.483-.49c-1.08-1.08-1.324-2.682-.522-3.484a1.733 1.733 0 0 1 1.164-.478zm10.723 2.503l-4.148.708a1.073 1.073 0 0 0-.87 1.187l.217 1.404a3.728 3.728 0 0 0-.958 2.96 4.1 4.1 0 0 0 4.267 3.136 5.65 5.65 0 0 0 .838-.065 4.902 4.902 0 0 0 3.244-1.905 3.45 3.45 0 0 0 .664-2.602 3.681 3.681 0 0 0-1.829-2.537l-.228-1.404a1.065 1.065 0 0 0-1.067-.882.817.817 0 0 0-.13 0zm-.991 3.408a2.374 2.374 0 0 1 2.547 1.676c.174 1.115-.94 2.271-2.438 2.515s-2.929-.494-3.103-1.644c-.174-1.114.94-2.26 2.439-2.504a3.684 3.684 0 0 1 .555-.043z" fill="#dff0fe" data-name="surface1"/></svg>