<svg id="1c8c1028-36c9-45ce-8a6e-5ee241aae0c6" data-name="Layer 1" xmlns="http://www.w3.org/2000/svg" xmlns:xlink="http://www.w3.org/1999/xlink" viewBox="0 0 72 72"><defs><symbol id="4058d299-1a94-45b3-b5e8-cfafd3645d93" data-name="tablet" viewBox="0 0 56.393 70.931"><path d="M2.564,69.9912A1.6453,1.6453,0,0,1,.94,68.3276V6.363A1.6453,1.6453,0,0,1,2.564,4.6994H21.6925a5.8969,5.8969,0,0,0-.0752.94,6.5792,6.5792,0,0,0,13.1584,0,5.9085,5.9085,0,0,0-.0752-.94H53.829A1.6454,1.6454,0,0,1,55.4531,6.363V68.3276a1.6466,1.6466,0,0,1-1.6241,1.6636Z" fill="#b6dcfe"/><path d="M53.829,5.6393a.7056.7056,0,0,1,.6842.7237V68.33a.7051.7051,0,0,1-.6842.7218H2.564a.7056.7056,0,0,1-.6842-.7237V6.363a.7056.7056,0,0,1,.6842-.7237H20.6774a7.5191,7.5191,0,0,0,15.0382,0H53.829m0-1.88H33.49a5.5684,5.5684,0,0,1,.3459,1.88,5.6393,5.6393,0,0,1-11.2786,0,5.5659,5.5659,0,0,1,.3459-1.88H2.564A2.5843,2.5843,0,0,0,0,6.363V68.33a2.5838,2.5838,0,0,0,2.564,2.6016H53.8309a2.5839,2.5839,0,0,0,2.5621-2.6035V6.363A2.5843,2.5843,0,0,0,53.829,3.76Z" fill="#4788c7"/><rect x="7.5191" y="11.2786" width="41.3549" height="52.1335" fill="#fff"/><path d="M17.9977,14.0982a2.823,2.823,0,0,1-2.82-2.82V4.6994h7.5867l.0734-.2011a4.6454,4.6454,0,0,0-.141,1.141,4.6994,4.6994,0,0,0,9.3988,0,4.65,4.65,0,0,0-.141-1.141l.0733.2011H39.615v6.5792a2.823,2.823,0,0,1-2.82,2.82ZM27.3909.94h0Z" fill="#98ccfd"/><path d="M38.6751,5.6393v5.6393a1.8829,1.8829,0,0,1-1.88,1.88H17.9977a1.8829,1.8829,0,0,1-1.88-1.88V5.6393h5.6393a5.6393,5.6393,0,0,0,11.2786,0h5.6393M27.3965,0a5.621,5.621,0,0,0-5.2934,3.76h-7.865v7.5191a3.7585,3.7585,0,0,0,3.76,3.7595H36.7953a3.7585,3.7585,0,0,0,3.76-3.7595V3.76H32.69A5.621,5.621,0,0,0,27.3965,0Zm0,9.3988A3.76,3.76,0,1,1,31.156,5.6393a3.7632,3.7632,0,0,1-3.7595,3.7595Z" fill="#4788c7"/></symbol></defs><title>protokol-izjatie</title><use width="56.393" height="70.9311" transform="translate(10.1691 0.3667)" xlink:href="#4058d299-1a94-45b3-b5e8-cfafd3645d93"/><g id="f3ed0f8c-83a6-4eab-87c0-11d560065c17" data-name="circle/plus"><path d="M58.05,70.6113A14.1616,14.1616,0,1,1,72.2119,56.45,14.177,14.177,0,0,1,58.05,70.6113Z" fill="#4788c7"/><path d="M58.05,44.2882A12.1618,12.1618,0,1,1,45.8882,56.45,12.1618,12.1618,0,0,1,58.05,44.2882m0-4A16.1618,16.1618,0,1,0,74.2118,56.45,16.18,16.18,0,0,0,58.05,40.2882Z" fill="#fff"/><path d="M58.05,44.2882A12.1618,12.1618,0,1,1,45.8882,56.45,12.1618,12.1618,0,0,1,58.05,44.2882m0-4A16.1618,16.1618,0,1,0,74.2118,56.45,16.18,16.18,0,0,0,58.05,40.2882Z" fill="#fff"/><path d="M62.0388,53.1h-.0623v-.748a3.9267,3.9267,0,0,0-7.8534,0V53.1h-.0619a1.9947,1.9947,0,0,0-1.9948,1.9947V62.075H64.0336V55.0944A1.9947,1.9947,0,0,0,62.0388,53.1Zm-2.4929,6.7315H56.5541l.6932-1.7331a1.4959,1.4959,0,1,1,1.6054,0ZM60.8546,53.1h-5.61v-.748a2.8048,2.8048,0,0,1,5.61,0Z" fill="#dff0fe"/></g><path d="M32.4688,25.5141a5.9018,5.9018,0,0,1,11.7937,0" fill="none" stroke="#4788c7" stroke-miterlimit="10" stroke-width="0.9123"/><path d="M31.486,25.4224v-1.638c0-.2575.07-.3276.3276-.3276h1.9656c.2575,0,.3276.07.3276.3276v1.638Z" fill="#fff"/><path d="M33.7792,23.7844v1.31H31.8136v-1.31h1.9656m0-.6552H31.8136a.5785.5785,0,0,0-.6552.6552V25.75h3.276V23.7844a.5785.5785,0,0,0-.6552-.6552Z" fill="#4788c7"/><path d="M42.6244,25.4224v-1.638c0-.2575.07-.3276.3276-.3276h1.9657c.2574,0,.3276.07.3276.3276v1.638Z" fill="#fff"/><path d="M44.9177,23.7844v1.31H42.952v-1.31h1.9657m0-.6552H42.952a.5786.5786,0,0,0-.6552.6552V25.75h3.2761V23.7844a.5786.5786,0,0,0-.6552-.6552Z" fill="#4788c7"/><path d="M46.8833,25.75a.8142.8142,0,0,1,.7181.3021l.034.0727A19.2444,19.2444,0,0,1,49.5041,35.26a32.03,32.03,0,0,1-.6362,7.3232,1.3083,1.3083,0,0,1-.6742.8577H28.5369a1.3072,1.3072,0,0,1-.6729-.8577,31.9779,31.9779,0,0,1-.6368-7.3232,19.2429,19.2429,0,0,1,1.8686-9.1342l.0341-.0727a.8124.8124,0,0,1,.7181-.3027H46.8833m0-.6552H29.848a1.4179,1.4179,0,0,0-1.31.6775A19.7562,19.7562,0,0,0,26.572,35.259a33.5231,33.5231,0,0,0,.6552,7.4791c.1435.5871.724,1.3576,1.31,1.3576H48.1943c.5851,0,1.1656-.77,1.31-1.3569a33.53,33.53,0,0,0,.6552-7.4792,19.7545,19.7545,0,0,0-1.9656-9.4867,1.4171,1.4171,0,0,0-1.31-.6781Z" fill="#4788c7"/><path d="M35.9086,33.716a.492.492,0,0,1-.4914-.4914v-4.914a.492.492,0,0,1,.4914-.4914h4.914a.492.492,0,0,1,.4914.4914v4.914a.492.492,0,0,1-.4914.4914Z" fill="#fff"/><path d="M40.8226,28.1468a.1638.1638,0,0,1,.1638.1638v4.914a.1638.1638,0,0,1-.1638.1638h-4.914a.1638.1638,0,0,1-.1638-.1638v-4.914a.1639.1639,0,0,1,.1638-.1638h4.914m0-.6552h-4.914a.8193.8193,0,0,0-.819.819v4.914a.8194.8194,0,0,0,.819.8191h4.914a.8194.8194,0,0,0,.819-.8191v-4.914a.8193.8193,0,0,0-.819-.819Z" fill="#4788c7"/><path id="773a65cd-70a1-4040-bd53-196a4b2e5733" data-name="&lt;Контур&gt;" d="M41.3061,52.3968c-1.5425,0-1.9565,1.9343-2.9013,1.9343S37.2007,51.43,35.987,51.43c0,0,.0406,4.8356-2.9014,4.8356-1.41,0-2.9014-2.2563-2.9014-5.8027,0-1.7437.5639-2.9014,1.4507-2.9014s1.4507,1.265,1.4507,2.95c0,2.6519-2.4584,8.6558-4.8356,8.6558-3.1431,0-4.8356-5.3995-4.8356-8.7041,0-3.4652,1.059-4.8356,1.9342-4.8356s1.9343,1.33,1.9343,4.8356c0,4.2882-3.8685,11.6054-3.8685,11.6054" fill="none" stroke="#4788c7" stroke-linecap="round" stroke-miterlimit="10"/></svg>