<svg data-name="Layer 1" xmlns="http://www.w3.org/2000/svg" xmlns:xlink="http://www.w3.org/1999/xlink" viewBox="0 0 72 72"><defs><symbol id="a" data-name="tablet" viewBox="0 0 56.393 70.931"><path d="M2.564 69.991A1.645 1.645 0 0 1 .94 68.328V6.363a1.645 1.645 0 0 1 1.624-1.664h19.128a5.897 5.897 0 0 0-.075.94 6.58 6.58 0 0 0 13.159 0 5.909 5.909 0 0 0-.076-.94H53.83a1.645 1.645 0 0 1 1.624 1.664v61.965a1.647 1.647 0 0 1-1.624 1.663z" fill="#b6dcfe"/><path d="M53.829 5.64a.706.706 0 0 1 .684.723V68.33a.705.705 0 0 1-.684.722H2.564a.706.706 0 0 1-.684-.724V6.363a.706.706 0 0 1 .684-.724h18.113a7.52 7.52 0 0 0 15.039 0h18.113m0-1.88H33.49a5.568 5.568 0 0 1 .346 1.88 5.64 5.64 0 0 1-11.279 0 5.566 5.566 0 0 1 .346-1.88H2.564A2.584 2.584 0 0 0 0 6.363V68.33a2.584 2.584 0 0 0 2.564 2.602h51.267a2.584 2.584 0 0 0 2.562-2.604V6.363a2.584 2.584 0 0 0-2.564-2.603z" fill="#4788c7"/><path fill="#fff" d="M7.519 11.279h41.355v52.133H7.519z"/><path d="M17.998 14.098a2.823 2.823 0 0 1-2.82-2.82V4.7h7.586l.074-.2a4.645 4.645 0 0 0-.141 1.14 4.7 4.7 0 0 0 9.399 0 4.65 4.65 0 0 0-.141-1.14l.073.2h7.587v6.58a2.823 2.823 0 0 1-2.82 2.82zM27.39.94z" fill="#98ccfd"/><path d="M38.675 5.64v5.639a1.883 1.883 0 0 1-1.88 1.88H17.998a1.883 1.883 0 0 1-1.88-1.88v-5.64h5.639a5.64 5.64 0 0 0 11.279 0h5.639M27.397 0a5.621 5.621 0 0 0-5.294 3.76h-7.865v7.52a3.759 3.759 0 0 0 3.76 3.759h18.797a3.759 3.759 0 0 0 3.76-3.76V3.76H32.69A5.621 5.621 0 0 0 27.397 0zm0 9.399a3.76 3.76 0 1 1 3.759-3.76 3.763 3.763 0 0 1-3.76 3.76z" fill="#4788c7"/></symbol></defs><use width="56.393" height="70.931" transform="translate(10.17 .367)" xlink:href="#a"/><path d="M58.05 70.611A14.162 14.162 0 1 1 72.212 56.45 14.177 14.177 0 0 1 58.05 70.611z" fill="#dff0fe"/><path d="M58.05 44.288A12.162 12.162 0 1 1 45.888 56.45 12.162 12.162 0 0 1 58.05 44.288m0-4A16.162 16.162 0 1 0 74.212 56.45 16.18 16.18 0 0 0 58.05 40.288z" fill="#fff"/><path d="M65.252 56.37a1.168 1.168 0 0 0-1.654.045l-.251.266h-.015c-.03.044-.074.089-.103.133l-1.315 1.373v-2.363l.015-5.98v-.695c0-.709-.399-1.181-.975-1.167-.561.015-.93.444-.93 1.138-.015 1.063 0 2.998 0 3.766a.328.328 0 0 1-.325.324h-.03a.331.331 0 0 1-.324-.34v-3.19c0-.62.015-1.24 0-1.86-.015-.71-.443-1.211-.99-1.197s-.96.503-.96 1.226c-.014 1.698.015 3.397-.014 5.095a.328.328 0 0 1-.325.325.351.351 0 0 1-.34-.325c-.03-1.462-.015-2.939-.015-4.4 0-.783-.384-1.256-.975-1.227-.576.015-.96.532-.945 1.27 0 1.462.015 4.18.015 5.11a.328.328 0 0 1-.325.325h-.044a.322.322 0 0 1-.325-.34c0-.709.015-2.377.015-3.278 0-.739-.37-1.152-.99-1.137-.576.014-.916.413-.916 1.137v9.82a4.296 4.296 0 0 0 4.372 4.697 5.865 5.865 0 0 0 5.951-2.865c.237-.399.488-.783.739-1.167l2.126-2.998a1.157 1.157 0 0 0-.147-1.52z" fill="#4788c7"/><path d="M27.902 40.492a9.94 9.94 0 0 1 19.822 0z" fill="#98ccfd" stroke="#4788c7" stroke-miterlimit="10" stroke-width=".5"/><circle cx="37.813" cy="24.811" r="4.636" fill="#dff0fe" stroke="#4788c7" stroke-miterlimit="10" stroke-width=".5"/><path data-name="&lt;Контур&gt;" d="M41.306 52.397c-1.542 0-1.956 1.934-2.901 1.934S37.2 51.43 35.987 51.43c0 0 .04 4.836-2.901 4.836-1.41 0-2.902-2.257-2.902-5.803 0-1.744.564-2.902 1.45-2.902s1.452 1.265 1.452 2.95c0 2.652-2.459 8.656-4.836 8.656-3.143 0-4.836-5.4-4.836-8.704 0-3.465 1.06-4.835 1.935-4.835s1.934 1.33 1.934 4.835c0 4.288-3.869 11.606-3.869 11.606" fill="none" stroke="#4788c7" stroke-linecap="round" stroke-miterlimit="10"/></svg>