<svg data-name="Layer 1" xmlns="http://www.w3.org/2000/svg" xmlns:xlink="http://www.w3.org/1999/xlink" viewBox="0 0 72 72"><defs><symbol id="a" data-name="tablet" viewBox="0 0 56.393 70.931"><path d="M2.564 69.991A1.645 1.645 0 0 1 .94 68.328V6.363a1.645 1.645 0 0 1 1.624-1.664h19.128a5.897 5.897 0 0 0-.075.94 6.58 6.58 0 0 0 13.159 0 5.909 5.909 0 0 0-.076-.94H53.83a1.645 1.645 0 0 1 1.624 1.664v61.965a1.647 1.647 0 0 1-1.624 1.663z" fill="#b6dcfe"/><path d="M53.829 5.64a.706.706 0 0 1 .684.723V68.33a.705.705 0 0 1-.684.722H2.564a.706.706 0 0 1-.684-.724V6.363a.706.706 0 0 1 .684-.724h18.113a7.52 7.52 0 0 0 15.039 0h18.113m0-1.88H33.49a5.568 5.568 0 0 1 .346 1.88 5.64 5.64 0 0 1-11.279 0 5.566 5.566 0 0 1 .346-1.88H2.564A2.584 2.584 0 0 0 0 6.363V68.33a2.584 2.584 0 0 0 2.564 2.602h51.267a2.584 2.584 0 0 0 2.562-2.604V6.363a2.584 2.584 0 0 0-2.564-2.603z" fill="#4788c7"/><path fill="#fff" d="M7.519 11.279h41.355v52.133H7.519z"/><path d="M17.998 14.098a2.823 2.823 0 0 1-2.82-2.82V4.7h7.586l.074-.2a4.645 4.645 0 0 0-.141 1.14 4.7 4.7 0 0 0 9.399 0 4.65 4.65 0 0 0-.141-1.14l.073.2h7.587v6.58a2.823 2.823 0 0 1-2.82 2.82zM27.39.94z" fill="#98ccfd"/><path d="M38.675 5.64v5.639a1.883 1.883 0 0 1-1.88 1.88H17.998a1.883 1.883 0 0 1-1.88-1.88v-5.64h5.639a5.64 5.64 0 0 0 11.279 0h5.639M27.397 0a5.621 5.621 0 0 0-5.294 3.76h-7.865v7.52a3.759 3.759 0 0 0 3.76 3.759h18.797a3.759 3.759 0 0 0 3.76-3.76V3.76H32.69A5.621 5.621 0 0 0 27.397 0zm0 9.399a3.76 3.76 0 1 1 3.759-3.76 3.763 3.763 0 0 1-3.76 3.76z" fill="#4788c7"/></symbol></defs><use width="56.393" height="70.931" transform="translate(10.17 .367)" xlink:href="#a"/><path d="M45.795 40.823a.572.572 0 0 1-.578-.578v-1.027H30.32v1.027a.572.572 0 0 1-.577.578h-1.606a.572.572 0 0 1-.578-.578v-6.867a3.762 3.762 0 0 1 .63-2.089l.487-.74H26.93l.13-.779a1.355 1.355 0 0 1 1.204-1.159h.054l1.13.505 1.477-3.69a1.85 1.85 0 0 1 1.728-1.168h10.233a1.85 1.85 0 0 1 1.728 1.17l1.477 3.688 1.13-.505h.055a1.355 1.355 0 0 1 1.203 1.159l.13.78h-1.747l.488.74a3.783 3.783 0 0 1 .628 2.088v6.867a.572.572 0 0 1-.577.578z" fill="#fff"/><path d="M42.885 24.514a1.601 1.601 0 0 1 1.49 1.008l1.576 3.937 1.323-.59a1.096 1.096 0 0 1 .95.944l.08.48h-1.92l.328.497.423.64a3.535 3.535 0 0 1 .586 1.948v6.867a.315.315 0 0 1-.321.321h-1.606a.315.315 0 0 1-.32-.32V38.96h-15.41v1.284a.315.315 0 0 1-.322.321h-1.605a.315.315 0 0 1-.32-.32v-6.868a3.523 3.523 0 0 1 .585-1.948l.752-1.137h-1.922l.08-.48a1.096 1.096 0 0 1 .95-.944l1.323.592 1.577-3.938a1.601 1.601 0 0 1 1.49-1.009h10.233m0-.513H32.652a2.107 2.107 0 0 0-1.967 1.331l-1.377 3.442-.836-.374-.1-.045h-.11a1.596 1.596 0 0 0-1.457 1.373l-.08.48-.1.598H28.2l-.226.341a4.025 4.025 0 0 0-.67 2.23v6.868a.826.826 0 0 0 .834.835h1.605a.826.826 0 0 0 .835-.835v-.77H44.96v.77a.825.825 0 0 0 .834.835H47.4a.826.826 0 0 0 .834-.835v-6.867a4.04 4.04 0 0 0-.67-2.23l-.225-.342h1.573l-.1-.598-.08-.48a1.596 1.596 0 0 0-1.457-1.373h-.11l-.1.045-.835.373-1.378-3.441a2.106 2.106 0 0 0-1.966-1.33z" fill="#4788c7"/><path d="M30.706 31.898a1.605 1.605 0 1 0 1.605 1.605 1.61 1.61 0 0 0-1.605-1.605zM44.831 31.898a1.605 1.605 0 1 0 1.605 1.605 1.61 1.61 0 0 0-1.605-1.605zM40.678 37.751c.858 0 1.932-1.38 1.932-2.69h-9.683c0 1.31 1.074 2.69 1.932 2.69zM30.988 29.368l1.216-3.445a.481.481 0 0 1 .448-.293h10.233a.486.486 0 0 1 .454.307l1.21 3.431z" fill="#98ccfd"/><g data-name="circle/plus"><path d="M58.05 70.611A14.162 14.162 0 1 1 72.213 56.45 14.178 14.178 0 0 1 58.05 70.611z" fill="#4788c7"/><path d="M58.05 44.288A12.162 12.162 0 1 1 45.888 56.45 12.162 12.162 0 0 1 58.05 44.288m0-4A16.162 16.162 0 1 0 74.212 56.45 16.18 16.18 0 0 0 58.05 40.288z" fill="#fff"/><path d="M62.039 53.1h-.062v-.748a3.927 3.927 0 0 0-7.854 0v.748h-.062a1.995 1.995 0 0 0-1.995 1.995v6.98h11.968v-6.98a1.995 1.995 0 0 0-1.995-1.995zm-2.493 6.731h-2.992l.693-1.733a1.496 1.496 0 1 1 1.606 0zm1.309-6.731h-5.61v-.748a2.805 2.805 0 0 1 5.61 0z" fill="#dff0fe"/></g><path data-name="&lt;Контур&gt;" d="M37.39 58.901c-1.125-.4-1.928.905-2.617.66s-.127-2.428-1.013-2.742c0 0-1.222 3.538-3.368 2.776-1.029-.365-1.533-2.397-.614-4.984.451-1.272 1.162-1.97 1.81-1.741s.73 1.298.294 2.527c-.687 1.935-4.035 5.678-5.769 5.062-2.293-.813-2.13-5.19-1.274-7.601.897-2.528 2.025-3.253 2.663-3.027s1.067 1.471.16 4.029c-1.11 3.128-5.828 7.464-5.828 7.464" fill="none" stroke="#4788c7" stroke-linecap="round" stroke-miterlimit="10" stroke-width=".75"/></svg>