<svg data-name="Layer 1" xmlns="http://www.w3.org/2000/svg" xmlns:xlink="http://www.w3.org/1999/xlink" viewBox="0 0 72 72"><defs><symbol id="a" data-name="tablet" viewBox="0 0 56.393 70.931"><path d="M2.564 69.991A1.645 1.645 0 0 1 .94 68.328V6.363a1.645 1.645 0 0 1 1.624-1.664h19.128a5.897 5.897 0 0 0-.075.94 6.58 6.58 0 0 0 13.159 0 5.909 5.909 0 0 0-.076-.94H53.83a1.645 1.645 0 0 1 1.624 1.664v61.965a1.647 1.647 0 0 1-1.624 1.663z" fill="#b6dcfe"/><path d="M53.829 5.64a.706.706 0 0 1 .684.723V68.33a.705.705 0 0 1-.684.722H2.564a.706.706 0 0 1-.684-.724V6.363a.706.706 0 0 1 .684-.724h18.113a7.52 7.52 0 0 0 15.039 0h18.113m0-1.88H33.49a5.568 5.568 0 0 1 .346 1.88 5.64 5.64 0 0 1-11.279 0 5.566 5.566 0 0 1 .346-1.88H2.564A2.584 2.584 0 0 0 0 6.363V68.33a2.584 2.584 0 0 0 2.564 2.602h51.267a2.584 2.584 0 0 0 2.562-2.604V6.363a2.584 2.584 0 0 0-2.564-2.603z" fill="#4788c7"/><path fill="#fff" d="M7.519 11.279h41.355v52.133H7.519z"/><path d="M17.998 14.098a2.823 2.823 0 0 1-2.82-2.82V4.7h7.586l.074-.2a4.645 4.645 0 0 0-.141 1.14 4.7 4.7 0 0 0 9.399 0 4.65 4.65 0 0 0-.141-1.14l.073.2h7.587v6.58a2.823 2.823 0 0 1-2.82 2.82zM27.39.94z" fill="#98ccfd"/><path d="M38.675 5.64v5.639a1.883 1.883 0 0 1-1.88 1.88H17.998a1.883 1.883 0 0 1-1.88-1.88v-5.64h5.639a5.64 5.64 0 0 0 11.279 0h5.639M27.397 0a5.621 5.621 0 0 0-5.294 3.76h-7.865v7.52a3.759 3.759 0 0 0 3.76 3.759h18.797a3.759 3.759 0 0 0 3.76-3.76V3.76H32.69A5.621 5.621 0 0 0 27.397 0zm0 9.399a3.76 3.76 0 1 1 3.759-3.76 3.763 3.763 0 0 1-3.76 3.76z" fill="#4788c7"/></symbol></defs><use width="56.393" height="70.931" transform="translate(10.17 .367)" xlink:href="#a"/><path d="M58.05 70.611A14.162 14.162 0 1 1 72.212 56.45 14.177 14.177 0 0 1 58.05 70.611z" fill="#dff0fe"/><path d="M58.05 44.288A12.162 12.162 0 1 1 45.888 56.45 12.162 12.162 0 0 1 58.05 44.288m0-4A16.162 16.162 0 1 0 74.212 56.45 16.18 16.18 0 0 0 58.05 40.288z" fill="#fff"/><path d="M27.902 40.492a9.94 9.94 0 0 1 19.822 0z" fill="#98ccfd" stroke="#4788c7" stroke-miterlimit="10" stroke-width=".5"/><circle cx="37.813" cy="24.811" r="4.636" fill="#dff0fe" stroke="#4788c7" stroke-miterlimit="10" stroke-width=".5"/><path d="M59.675 46.888a1.716 1.716 0 0 0-.323.036 1.698 1.698 0 0 0-1.042.706 1.61 1.61 0 0 0-.24 1.15l-1.161.61.575.575.874-.467a1.684 1.684 0 0 0 .443.431.38.38 0 1 0 .419-.635.893.893 0 0 1-.168-.167l.18-.096a.378.378 0 0 0 .156-.515.383.383 0 0 0-.515-.168l-.048.024a.76.76 0 0 1 .12-.31.917.917 0 0 1 1.234-.276.291.291 0 0 0 .036.024 10.97 10.97 0 0 1 .778.515c.096.068.174.124.227.155a.877.877 0 0 1-.12 1.557.384.384 0 0 0-.167.515.363.363 0 0 0 .335.203.418.418 0 0 0 .18-.036 1.61 1.61 0 0 0 .898-1.844 1.696 1.696 0 0 0-.706-1.041.532.532 0 0 0-.036-.024c-.035-.02-.086-.057-.156-.108-.087-.063-.2-.14-.311-.216a8.568 8.568 0 0 0-.551-.347 1.588 1.588 0 0 0-.91-.251zm-5.244 1.09a1.161 1.161 0 0 0-.827.335l-1.101 1.125a4.046 4.046 0 0 0-3.27 1.09c-1.626 1.67-1.37 4.617.576 6.562a5.372 5.372 0 0 0 3.748 1.617 3.873 3.873 0 0 0 2.802-1.114 3.759 3.759 0 0 0 1.101-3.245l1.09-1.138a1.157 1.157 0 0 0 0-1.653L55.257 48.3a1.161 1.161 0 0 0-.826-.323zm6.37.91a.37.37 0 0 0-.144.048 1.682 1.682 0 0 0-.766.766 1.658 1.658 0 0 0-.048 1.305.359.359 0 0 0 .012.036 5.332 5.332 0 0 1 .167.515 4.856 4.856 0 0 0 .24.658 1.685 1.685 0 0 0 1.125 1.018l-.12.922.79-.132.108-.766c.057-.012.114-.022.168-.036l.095-.024a1.728 1.728 0 0 0 1.006-2.191.298.298 0 0 0-.024-.036 5.312 5.312 0 0 1-.155-.49 2.524 2.524 0 0 0-.12-.336c-.018-.044-.036-.084-.048-.12a.379.379 0 0 0-.719.24c.017.05.036.107.06.167a1.776 1.776 0 0 1 .084.24 5.652 5.652 0 0 0 .204.622.892.892 0 0 1-.024.67.993.993 0 0 1-.42.467l.037-.24a.39.39 0 0 0-.336-.43.381.381 0 0 0-.43.323l-.049.371a.899.899 0 0 1-.515-.527.168.168 0 0 0-.012-.036 4.279 4.279 0 0 1-.203-.55 5.583 5.583 0 0 0-.216-.611.939.939 0 0 1 .036-.707.997.997 0 0 1 .455-.43.374.374 0 0 0 .144-.515.392.392 0 0 0-.382-.192zm-8.897 2.49a3.477 3.477 0 0 1 2.55 1.066c1.188 1.188 1.456 2.95.574 3.832s-2.643.61-3.831-.54c-1.189-1.188-1.457-2.95-.575-3.83a1.906 1.906 0 0 1 1.282-.528zm11.795 2.754l-4.562.778a1.18 1.18 0 0 0-.958 1.306l.239 1.544a4.1 4.1 0 0 0-1.054 3.257 4.51 4.51 0 0 0 4.694 3.448 6.202 6.202 0 0 0 .922-.071 5.391 5.391 0 0 0 3.568-2.096 3.794 3.794 0 0 0 .73-2.862 4.05 4.05 0 0 0-2.011-2.79l-.252-1.544a1.171 1.171 0 0 0-1.173-.97.897.897 0 0 0-.143 0zm-1.09 3.748a2.612 2.612 0 0 1 2.802 1.844c.192 1.226-1.034 2.498-2.682 2.766s-3.221-.543-3.413-1.808c-.192-1.226 1.034-2.486 2.682-2.754a4.062 4.062 0 0 1 .611-.048z" fill="#4788c7"/><path data-name="&lt;Контур&gt;" d="M41.306 52.397c-1.542 0-1.956 1.934-2.901 1.934S37.2 51.43 35.987 51.43c0 0 .04 4.836-2.901 4.836-1.41 0-2.902-2.257-2.902-5.803 0-1.744.564-2.902 1.45-2.902s1.452 1.265 1.452 2.95c0 2.652-2.459 8.656-4.836 8.656-3.143 0-4.836-5.4-4.836-8.704 0-3.465 1.06-4.835 1.935-4.835s1.934 1.33 1.934 4.835c0 4.288-3.869 11.606-3.869 11.606" fill="none" stroke="#4788c7" stroke-linecap="round" stroke-miterlimit="10"/></svg>