<svg data-name="Layer 1" xmlns="http://www.w3.org/2000/svg" xmlns:xlink="http://www.w3.org/1999/xlink" viewBox="0 0 72 72"><defs><symbol id="a" data-name="tablet" viewBox="0 0 56.393 70.931"><path d="M2.564 69.991A1.645 1.645 0 0 1 .94 68.328V6.363a1.645 1.645 0 0 1 1.624-1.664h19.128a5.897 5.897 0 0 0-.075.94 6.58 6.58 0 0 0 13.159 0 5.909 5.909 0 0 0-.076-.94H53.83a1.645 1.645 0 0 1 1.624 1.664v61.965a1.647 1.647 0 0 1-1.624 1.663z" fill="#b6dcfe"/><path d="M53.829 5.64a.706.706 0 0 1 .684.723V68.33a.705.705 0 0 1-.684.722H2.564a.706.706 0 0 1-.684-.724V6.363a.706.706 0 0 1 .684-.724h18.113a7.52 7.52 0 0 0 15.039 0h18.113m0-1.88H33.49a5.568 5.568 0 0 1 .346 1.88 5.64 5.64 0 0 1-11.279 0 5.566 5.566 0 0 1 .346-1.88H2.564A2.584 2.584 0 0 0 0 6.363V68.33a2.584 2.584 0 0 0 2.564 2.602h51.267a2.584 2.584 0 0 0 2.562-2.604V6.363a2.584 2.584 0 0 0-2.564-2.603z" fill="#4788c7"/><path fill="#fff" d="M7.519 11.279h41.355v52.133H7.519z"/><path d="M17.998 14.098a2.823 2.823 0 0 1-2.82-2.82V4.7h7.586l.074-.2a4.645 4.645 0 0 0-.141 1.14 4.7 4.7 0 0 0 9.399 0 4.65 4.65 0 0 0-.141-1.14l.073.2h7.587v6.58a2.823 2.823 0 0 1-2.82 2.82zM27.39.94z" fill="#98ccfd"/><path d="M38.675 5.64v5.639a1.883 1.883 0 0 1-1.88 1.88H17.998a1.883 1.883 0 0 1-1.88-1.88v-5.64h5.639a5.64 5.64 0 0 0 11.279 0h5.639M27.397 0a5.621 5.621 0 0 0-5.294 3.76h-7.865v7.52a3.759 3.759 0 0 0 3.76 3.759h18.797a3.759 3.759 0 0 0 3.76-3.76V3.76H32.69A5.621 5.621 0 0 0 27.397 0zm0 9.399a3.76 3.76 0 1 1 3.759-3.76 3.763 3.763 0 0 1-3.76 3.76z" fill="#4788c7"/></symbol></defs><path fill="#fff" stroke="#4788c7" stroke-linecap="round" stroke-linejoin="round" stroke-width="1.5" d="M23.833 20.25h28.159M23.833 23.775h28.159M23.833 27.3h28.159M23.833 30.825h28.159M23.833 34.35h28.159M23.833 37.875h28.159M23.833 41.4h28.159"/><use width="56.393" height="70.931" transform="translate(10.17 .367)" xlink:href="#a"/><path fill="#fff" stroke="#4788c7" stroke-linecap="round" stroke-linejoin="round" stroke-width="1.5" d="M23.833 23.775h28.159M23.833 27.3h28.159M23.833 30.825h28.159M23.833 34.35h28.159M23.833 37.875h28.159M23.833 41.4h28.159"/><path data-name="&lt;Контур&gt;" d="M47.89 57.417c-1.238-.44-2.12.995-2.879.726s-.14-2.671-1.114-3.017c0 0-1.344 3.892-3.705 3.054-1.132-.402-1.686-2.637-.676-5.483.497-1.399 1.28-2.167 1.99-1.915s.804 1.429.324 2.78c-.755 2.128-4.437 6.246-6.345 5.569-2.522-.895-2.342-5.71-1.401-8.362.987-2.78 2.227-3.578 2.93-3.33s1.172 1.619.174 4.432c-1.221 3.44-6.41 8.21-6.41 8.21" fill="none" stroke="#4788c7" stroke-linecap="round" stroke-miterlimit="10" stroke-width=".825"/></svg>