<svg id="752e721c-6f6c-4e77-ab60-49ee60d693cb" data-name="Layer 1" xmlns="http://www.w3.org/2000/svg" xmlns:xlink="http://www.w3.org/1999/xlink" viewBox="0 0 72 72"><defs><symbol id="0c5793ac-3b98-48d8-aadc-1e7f0b1d0826" data-name="tablet" viewBox="0 0 56.393 70.931"><path d="M2.564,69.9912A1.6453,1.6453,0,0,1,.94,68.3276V6.363A1.6453,1.6453,0,0,1,2.564,4.6994H21.6925a5.8969,5.8969,0,0,0-.0752.94,6.5792,6.5792,0,0,0,13.1584,0,5.9085,5.9085,0,0,0-.0752-.94H53.829A1.6454,1.6454,0,0,1,55.4531,6.363V68.3276a1.6466,1.6466,0,0,1-1.6241,1.6636Z" fill="#b6dcfe"/><path d="M53.829,5.6393a.7056.7056,0,0,1,.6842.7237V68.33a.7051.7051,0,0,1-.6842.7218H2.564a.7056.7056,0,0,1-.6842-.7237V6.363a.7056.7056,0,0,1,.6842-.7237H20.6774a7.5191,7.5191,0,0,0,15.0382,0H53.829m0-1.88H33.49a5.5684,5.5684,0,0,1,.3459,1.88,5.6393,5.6393,0,0,1-11.2786,0,5.5659,5.5659,0,0,1,.3459-1.88H2.564A2.5843,2.5843,0,0,0,0,6.363V68.33a2.5838,2.5838,0,0,0,2.564,2.6016H53.8309a2.5839,2.5839,0,0,0,2.5621-2.6035V6.363A2.5843,2.5843,0,0,0,53.829,3.76Z" fill="#4788c7"/><rect x="7.5191" y="11.2786" width="41.3549" height="52.1335" fill="#fff"/><path d="M17.9977,14.0982a2.823,2.823,0,0,1-2.82-2.82V4.6994h7.5867l.0734-.2011a4.6454,4.6454,0,0,0-.141,1.141,4.6994,4.6994,0,0,0,9.3988,0,4.65,4.65,0,0,0-.141-1.141l.0733.2011H39.615v6.5792a2.823,2.823,0,0,1-2.82,2.82ZM27.3909.94h0Z" fill="#98ccfd"/><path d="M38.6751,5.6393v5.6393a1.8829,1.8829,0,0,1-1.88,1.88H17.9977a1.8829,1.8829,0,0,1-1.88-1.88V5.6393h5.6393a5.6393,5.6393,0,0,0,11.2786,0h5.6393M27.3965,0a5.621,5.621,0,0,0-5.2934,3.76h-7.865v7.5191a3.7585,3.7585,0,0,0,3.76,3.7595H36.7953a3.7585,3.7585,0,0,0,3.76-3.7595V3.76H32.69A5.621,5.621,0,0,0,27.3965,0Zm0,9.3988A3.76,3.76,0,1,1,31.156,5.6393a3.7632,3.7632,0,0,1-3.7595,3.7595Z" fill="#4788c7"/></symbol></defs><title>protokol-ts-zaderzhanie</title><use width="56.393" height="70.9311" transform="translate(10.1691 0.3667)" xlink:href="#0c5793ac-3b98-48d8-aadc-1e7f0b1d0826"/><path d="M46.9987,40.0273a.62.62,0,0,1-.626-.6259V38.1807H29.1647v1.2207a.62.62,0,0,1-.626.6259H26.693a.62.62,0,0,1-.6269-.6259V31.5039a4.3029,4.3029,0,0,1,.7168-2.3818l.6015-.9092H25.3473l.1436-.8525a1.5142,1.5142,0,0,1,1.3457-1.3h.0547l1.3281.5938,1.7139-4.28a2.0883,2.0883,0,0,1,1.9511-1.32H43.653a2.0913,2.0913,0,0,1,1.9512,1.32l1.7129,4.28,1.3281-.5938H48.7a1.5171,1.5171,0,0,1,1.3466,1.3l.1417.8525H48.154l.6.9092a4.3154,4.3154,0,0,1,.7168,2.3818v7.8975a.62.62,0,0,1-.626.6259Z" fill="#fff"/><path d="M43.6525,21.31A1.8414,1.8414,0,0,1,45.3658,22.47l1.8128,4.527L48.7,26.3177a1.26,1.26,0,0,1,1.0932,1.0858l.0923.5523H47.6762l.3778.5726.486.7355a4.0665,4.0665,0,0,1,.6735,2.24v7.8973a.3627.3627,0,0,1-.3692.3692h-1.846a.3628.3628,0,0,1-.3692-.3692V37.9241H28.9078v1.4768a.3627.3627,0,0,1-.3692.3692h-1.846a.3627.3627,0,0,1-.3692-.3692V31.5036a4.0509,4.0509,0,0,1,.6735-2.24l.8653-1.3081H25.6513l.0923-.5523a1.26,1.26,0,0,1,1.0932-1.0858l1.5215.6805L30.1711,22.47A1.8414,1.8414,0,0,1,31.8844,21.31H43.6525m0-.5134H31.8844a2.346,2.346,0,0,0-2.19,1.4826L28.08,26.3115l-1.0338-.4624-.1-.0448h-.11a1.7574,1.7574,0,0,0-1.5995,1.5146l-.0923.5523-.1.598h1.862l-.3384.5115a4.5518,4.5518,0,0,0-.7587,2.5229v7.8973a.8732.8732,0,0,0,.8826.8826h1.846a.8731.8731,0,0,0,.8825-.8826v-.9634H46.1158v.9634a.8731.8731,0,0,0,.8825.8826h1.846a.8732.8732,0,0,0,.8826-.8826V31.5036a4.57,4.57,0,0,0-.7583-2.5223l-.3384-.5121h1.8616l-.1-.598L50.3,27.3189A1.7574,1.7574,0,0,0,48.7,25.8043h-.1094l-.1.0446-1.0341.4616L45.8424,22.279a2.3458,2.3458,0,0,0-2.19-1.4821Z" fill="#4788c7"/><path d="M29.6462,29.8018a1.846,1.846,0,1,0,1.8459,1.846A1.8514,1.8514,0,0,0,29.6462,29.8018Z" fill="#98ccfd"/><path d="M45.8908,29.8018a1.846,1.846,0,1,0,1.8459,1.846A1.8514,1.8514,0,0,0,45.8908,29.8018Z" fill="#98ccfd"/><path d="M41.1143,36.5326c.9865,0,2.2217-1.5874,2.2217-3.0928H32.2009c0,1.5054,1.2352,3.0928,2.2217,3.0928Z" fill="#98ccfd"/><path d="M29.9706,26.8923,31.369,22.93a.5532.5532,0,0,1,.5152-.3362H43.6523a.5588.5588,0,0,1,.5218.3525l1.3927,3.9459Z" fill="#98ccfd"/><g id="8eec81c2-69b2-4fdc-9977-604caacb51a0" data-name="circle/plus"><path d="M58.0505,70.6113A14.1616,14.1616,0,1,1,72.2116,56.45,14.1779,14.1779,0,0,1,58.0505,70.6113Z" fill="#4788c7"/><path d="M58.05,44.2882A12.1618,12.1618,0,1,1,45.8882,56.45,12.1618,12.1618,0,0,1,58.05,44.2882m0-4A16.1618,16.1618,0,1,0,74.2118,56.45,16.18,16.18,0,0,0,58.05,40.2882Z" fill="#fff"/><path d="M62.0388,53.1h-.0623v-.748a3.9267,3.9267,0,0,0-7.8534,0V53.1h-.0619a1.9947,1.9947,0,0,0-1.9948,1.9947V62.075H64.0336V55.0944A1.9947,1.9947,0,0,0,62.0388,53.1Zm-2.4929,6.7315H56.5541l.6932-1.7331a1.4959,1.4959,0,1,1,1.6054,0ZM60.8546,53.1h-5.61v-.748a2.8048,2.8048,0,0,1,5.61,0Z" fill="#dff0fe"/></g><path id="b97f9576-b774-4bca-aa60-f5d3d1fc3d13" data-name="&lt;Контур&gt;" d="M41.3061,52.3968c-1.5425,0-1.9565,1.9343-2.9013,1.9343S37.2007,51.43,35.987,51.43c0,0,.0406,4.8356-2.9014,4.8356-1.41,0-2.9014-2.2563-2.9014-5.8027,0-1.7437.5639-2.9014,1.4507-2.9014s1.4507,1.265,1.4507,2.95c0,2.6519-2.4584,8.6558-4.8356,8.6558-3.1431,0-4.8356-5.3995-4.8356-8.7041,0-3.4652,1.059-4.8356,1.9342-4.8356s1.9343,1.33,1.9343,4.8356c0,4.2882-3.8685,11.6054-3.8685,11.6054" fill="none" stroke="#4788c7" stroke-linecap="round" stroke-miterlimit="10"/></svg>