<svg data-name="Layer 1" xmlns="http://www.w3.org/2000/svg" xmlns:xlink="http://www.w3.org/1999/xlink" viewBox="0 0 72 72"><defs><symbol id="a" data-name="tablet" viewBox="0 0 56.393 70.931"><path d="M2.564 69.991A1.645 1.645 0 0 1 .94 68.328V6.363a1.645 1.645 0 0 1 1.624-1.664h19.128a5.897 5.897 0 0 0-.075.94 6.58 6.58 0 0 0 13.159 0 5.909 5.909 0 0 0-.076-.94H53.83a1.645 1.645 0 0 1 1.624 1.664v61.965a1.647 1.647 0 0 1-1.624 1.663z" fill="#b6dcfe"/><path d="M53.829 5.64a.706.706 0 0 1 .684.723V68.33a.705.705 0 0 1-.684.722H2.564a.706.706 0 0 1-.684-.724V6.363a.706.706 0 0 1 .684-.724h18.113a7.52 7.52 0 0 0 15.039 0h18.113m0-1.88H33.49a5.568 5.568 0 0 1 .346 1.88 5.64 5.64 0 0 1-11.279 0 5.566 5.566 0 0 1 .346-1.88H2.564A2.584 2.584 0 0 0 0 6.363V68.33a2.584 2.584 0 0 0 2.564 2.602h51.267a2.584 2.584 0 0 0 2.562-2.604V6.363a2.584 2.584 0 0 0-2.564-2.603z" fill="#4788c7"/><path fill="#fff" d="M7.519 11.279h41.355v52.133H7.519z"/><path d="M17.998 14.098a2.823 2.823 0 0 1-2.82-2.82V4.7h7.586l.074-.2a4.645 4.645 0 0 0-.141 1.14 4.7 4.7 0 0 0 9.399 0 4.65 4.65 0 0 0-.141-1.14l.073.2h7.587v6.58a2.823 2.823 0 0 1-2.82 2.82zM27.39.94z" fill="#98ccfd"/><path d="M38.675 5.64v5.639a1.883 1.883 0 0 1-1.88 1.88H17.998a1.883 1.883 0 0 1-1.88-1.88v-5.64h5.639a5.64 5.64 0 0 0 11.279 0h5.639M27.397 0a5.621 5.621 0 0 0-5.294 3.76h-7.865v7.52a3.759 3.759 0 0 0 3.76 3.759h18.797a3.759 3.759 0 0 0 3.76-3.76V3.76H32.69A5.621 5.621 0 0 0 27.397 0zm0 9.399a3.76 3.76 0 1 1 3.759-3.76 3.763 3.763 0 0 1-3.76 3.76z" fill="#4788c7"/></symbol></defs><use width="56.393" height="70.931" transform="translate(10.17 .367)" xlink:href="#a"/><path data-name="&lt;Контур&gt;" d="M37.39 58.901c-1.125-.4-1.928.905-2.617.66s-.127-2.428-1.013-2.742c0 0-1.222 3.538-3.368 2.776-1.029-.365-1.533-2.397-.614-4.984.451-1.272 1.162-1.97 1.81-1.741s.73 1.298.294 2.527c-.687 1.935-4.035 5.678-5.769 5.062-2.293-.813-2.13-5.19-1.274-7.601.897-2.528 2.025-3.253 2.663-3.027s1.067 1.471.16 4.029c-1.11 3.128-5.828 7.464-5.828 7.464" fill="none" stroke="#4788c7" stroke-linecap="round" stroke-miterlimit="10" stroke-width=".75"/><g data-name="circle/plus"><path d="M58.05 70.611A14.162 14.162 0 1 1 72.212 56.45 14.177 14.177 0 0 1 58.05 70.611z" fill="#4788c7"/><path d="M58.05 44.288A12.162 12.162 0 1 1 45.888 56.45 12.162 12.162 0 0 1 58.05 44.288m0-4A16.162 16.162 0 1 0 74.212 56.45 16.18 16.18 0 0 0 58.05 40.288z" fill="#fff"/><path d="M58.05 44.288A12.162 12.162 0 1 1 45.888 56.45 12.162 12.162 0 0 1 58.05 44.288m0-4A16.162 16.162 0 1 0 74.212 56.45 16.18 16.18 0 0 0 58.05 40.288z" fill="#fff"/><path d="M62.039 53.1h-.062v-.748a3.927 3.927 0 0 0-7.854 0v.748h-.062a1.995 1.995 0 0 0-1.995 1.995v6.98h11.968v-6.98a1.995 1.995 0 0 0-1.995-1.995zm-2.493 6.731h-2.992l.693-1.733a1.496 1.496 0 1 1 1.606 0zm1.309-6.731h-5.61v-.748a2.805 2.805 0 0 1 5.61 0z" fill="#dff0fe"/></g><path d="M33.238 26.923a5.132 5.132 0 0 1 10.255 0" fill="none" stroke="#4788c7" stroke-miterlimit="10" stroke-width=".912"/><path d="M32.383 26.843v-1.425c0-.224.061-.284.285-.284h1.71c.223 0 .284.06.284.284v1.425z" fill="#dff0fe"/><path d="M34.377 25.418v1.14h-1.709v-1.14h1.71m0-.57h-1.71a.503.503 0 0 0-.57.57v1.71h2.849v-1.71a.503.503 0 0 0-.57-.57z" fill="#4788c7"/><path d="M42.069 26.843v-1.425c0-.224.06-.284.285-.284h1.709c.224 0 .285.06.285.284v1.425z" fill="#dff0fe"/><path d="M44.063 25.418v1.14h-1.71v-1.14h1.71m0-.57h-1.71a.503.503 0 0 0-.57.57v1.71h2.85v-1.71a.503.503 0 0 0-.57-.57z" fill="#4788c7"/><path d="M29.82 42.796c-.332 0-.759-.539-.863-.963a28.132 28.132 0 0 1-.561-6.436 17.005 17.005 0 0 1 1.652-8.065l.03-.063a.962.962 0 0 1 .882-.426h14.812a.962.962 0 0 1 .882.426l.03.063a16.996 16.996 0 0 1 1.652 8.065 28.12 28.12 0 0 1-.56 6.436c-.105.424-.53.963-.863.963z" fill="#fff"/><path d="M45.772 27.128a.708.708 0 0 1 .625.262l.03.064a16.734 16.734 0 0 1 1.625 7.943 27.85 27.85 0 0 1-.554 6.368 1.137 1.137 0 0 1-.586.746H29.82a1.137 1.137 0 0 1-.585-.746 27.804 27.804 0 0 1-.554-6.368 16.733 16.733 0 0 1 1.625-7.943l.03-.063a.706.706 0 0 1 .624-.263h14.813m0-.57H30.96a1.233 1.233 0 0 0-1.14.589 17.18 17.18 0 0 0-1.709 8.25 29.155 29.155 0 0 0 .57 6.503c.125.51.63 1.18 1.139 1.18h17.093c.51 0 1.014-.67 1.14-1.18a29.147 29.147 0 0 0 .57-6.504 17.177 17.177 0 0 0-1.71-8.249 1.232 1.232 0 0 0-1.14-.59z" fill="#4788c7"/><path fill="#dff0fe" d="M31.244 31.518v-4.675h14.243v4.674l-7.172 3.296-7.071-3.295z"/><path d="M45.203 27.128v4.206L38.315 34.5l-6.786-3.163v-4.208h13.674m.57-.57H30.959v5.141l7.355 3.428 7.458-3.428v-5.141z" fill="#4788c7"/><path d="M36.23 37.098a.428.428 0 0 1-.428-.427v-4.273a.428.428 0 0 1 .427-.427h4.273a.428.428 0 0 1 .427.427v4.273a.428.428 0 0 1-.427.427z" fill="#fff"/><path d="M40.502 32.255a.142.142 0 0 1 .143.143v4.273a.142.142 0 0 1-.143.142H36.23a.142.142 0 0 1-.142-.142v-4.273a.142.142 0 0 1 .142-.143h4.273m0-.57H36.23a.713.713 0 0 0-.712.713v4.273a.712.712 0 0 0 .712.712h4.273a.712.712 0 0 0 .712-.712v-4.273a.712.712 0 0 0-.712-.713z" fill="#4788c7"/></svg>