<svg data-name="Layer 1" xmlns="http://www.w3.org/2000/svg" xmlns:xlink="http://www.w3.org/1999/xlink" viewBox="0 0 72 72"><defs><symbol id="a" data-name="tablet" viewBox="0 0 56.393 70.931"><path d="M2.564 69.991A1.645 1.645 0 0 1 .94 68.328V6.363a1.645 1.645 0 0 1 1.624-1.664h19.128a5.897 5.897 0 0 0-.075.94 6.58 6.58 0 0 0 13.159 0 5.909 5.909 0 0 0-.076-.94H53.83a1.645 1.645 0 0 1 1.624 1.664v61.965a1.647 1.647 0 0 1-1.624 1.663z" fill="#b6dcfe"/><path d="M53.829 5.64a.706.706 0 0 1 .684.723V68.33a.705.705 0 0 1-.684.722H2.564a.706.706 0 0 1-.684-.724V6.363a.706.706 0 0 1 .684-.724h18.113a7.52 7.52 0 0 0 15.039 0h18.113m0-1.88H33.49a5.568 5.568 0 0 1 .346 1.88 5.64 5.64 0 0 1-11.279 0 5.566 5.566 0 0 1 .346-1.88H2.564A2.584 2.584 0 0 0 0 6.363V68.33a2.584 2.584 0 0 0 2.564 2.602h51.267a2.584 2.584 0 0 0 2.562-2.604V6.363a2.584 2.584 0 0 0-2.564-2.603z" fill="#4788c7"/><path fill="#fff" d="M7.519 11.279h41.355v52.133H7.519z"/><path d="M17.998 14.098a2.823 2.823 0 0 1-2.82-2.82V4.7h7.586l.074-.2a4.645 4.645 0 0 0-.141 1.14 4.7 4.7 0 0 0 9.399 0 4.65 4.65 0 0 0-.141-1.14l.073.2h7.587v6.58a2.823 2.823 0 0 1-2.82 2.82zM27.39.94z" fill="#98ccfd"/><path d="M38.675 5.64v5.639a1.883 1.883 0 0 1-1.88 1.88H17.998a1.883 1.883 0 0 1-1.88-1.88v-5.64h5.639a5.64 5.64 0 0 0 11.279 0h5.639M27.397 0a5.621 5.621 0 0 0-5.294 3.76h-7.865v7.52a3.759 3.759 0 0 0 3.76 3.759h18.797a3.759 3.759 0 0 0 3.76-3.76V3.76H32.69A5.621 5.621 0 0 0 27.397 0zm0 9.399a3.76 3.76 0 1 1 3.759-3.76 3.763 3.763 0 0 1-3.76 3.76z" fill="#4788c7"/></symbol><symbol id="b" data-name="zoom" viewBox="0 0 48.233 48.596"><path d="M42.102 48.596a6.069 6.069 0 0 1-4.327-1.79l-13.799-14.79A16.7 16.7 0 0 1 .246 18.59a16.97 16.97 0 0 1-.086-1.706A16.72 16.72 0 0 1 15.178.245 16.974 16.974 0 0 1 16.884.16a16.7 16.7 0 0 1 15.15 23.778L46.35 38.042a6.196 6.196 0 0 1 1.884 4.423 6.13 6.13 0 0 1-6.13 6.13z" fill="#fff"/><path d="M42.38 46.087a3.303 3.303 0 0 1-2.354-.971L19.73 23.486l3.741-3.746 21.249 20.613a3.344 3.344 0 0 1-2.34 5.734z" fill="#98ccfd" stroke="#4788c7" stroke-linecap="round" stroke-linejoin="round" stroke-width="1.2"/><path d="M.925 16.496a15.57 15.57 0 1 1 15.57 15.57 15.587 15.587 0 0 1-15.57-15.57z" fill="#fff" stroke="#4788c7" stroke-linecap="round" stroke-linejoin="round" stroke-width=".605"/><path d="M16.496.303a16.193 16.193 0 1 0 16.193 16.193A16.193 16.193 0 0 0 16.496.303z" fill="#dff0fe" stroke="#4788c7" stroke-linecap="round" stroke-linejoin="round" stroke-width=".605"/><path d="M3.161 16.496A13.335 13.335 0 1 1 16.496 29.83 13.349 13.349 0 0 1 3.16 16.496z" fill="#fff" stroke="#4788c7" stroke-linecap="round" stroke-linejoin="round" stroke-width="1.067"/><path d="M16.496 2.628a13.868 13.868 0 1 0 13.868 13.868A13.867 13.867 0 0 0 16.496 2.628z" fill="#fff" stroke="#4788c7" stroke-linecap="round" stroke-linejoin="round" stroke-width="1.067"/></symbol></defs><use width="56.393" height="70.931" transform="translate(10.17 .367)" xlink:href="#a"/><use data-name="zoom" width="48.233" height="48.596" transform="translate(21.273 22.864)" xlink:href="#b"/><path d="M44.23 45.6a.503.503 0 0 1-.509-.509v-.783H31.816v.783a.503.503 0 0 1-.508.509h-1.292a.503.503 0 0 1-.508-.509v-5.528a3.073 3.073 0 0 1 .513-1.706l.348-.527h-1.377l.112-.678a1.135 1.135 0 0 1 1.013-.968h.054l.875.391 1.172-2.928a1.533 1.533 0 0 1 1.431-.968h8.238a1.533 1.533 0 0 1 1.431.968l1.173 2.927.876-.39h.053a1.135 1.135 0 0 1 1.013.968l.112.678h-1.377l.349.527a3.088 3.088 0 0 1 .512 1.706v5.528a.503.503 0 0 1-.508.509z" fill="#fff"/><path d="M41.887 32.428a1.289 1.289 0 0 1 1.2.812l1.268 3.169 1.065-.476a.882.882 0 0 1 .765.76l.065.387h-1.547l.265.4.34.515a2.846 2.846 0 0 1 .471 1.568v5.528a.254.254 0 0 1-.258.258h-1.292a.254.254 0 0 1-.258-.258v-1.034H31.566v1.034a.254.254 0 0 1-.258.258h-1.292a.254.254 0 0 1-.259-.258v-5.528a2.835 2.835 0 0 1 .472-1.568l.605-.915h-1.547l.065-.387a.882.882 0 0 1 .765-.76l1.065.477 1.269-3.17a1.289 1.289 0 0 1 1.199-.812h8.237m0-.5H33.65a1.782 1.782 0 0 0-1.664 1.126l-1.075 2.686-.59-.264-.097-.043h-.107a1.373 1.373 0 0 0-1.258 1.178l-.065.386-.097.583h1.207l-.092.14a3.326 3.326 0 0 0-.554 1.843v5.528a.75.75 0 0 0 .758.758h1.292a.75.75 0 0 0 .758-.758v-.534h11.405v.534a.75.75 0 0 0 .758.758h1.292a.75.75 0 0 0 .759-.758v-5.528a3.339 3.339 0 0 0-.554-1.843l-.093-.14h1.207l-.097-.582-.064-.387a1.373 1.373 0 0 0-1.259-1.178h-.106l-.098.044-.59.263-1.075-2.686a1.782 1.782 0 0 0-1.664-1.126z" fill="#4788c7"/><path d="M32.083 38.372a1.292 1.292 0 1 0 1.292 1.292 1.296 1.296 0 0 0-1.292-1.292zM43.454 38.372a1.292 1.292 0 1 0 1.292 1.292 1.296 1.296 0 0 0-1.292-1.292zM40.11 43.083c.69 0 1.555-1.11 1.555-2.164h-7.794c0 1.053.865 2.164 1.555 2.164zM32.31 36.335l.979-2.773a.387.387 0 0 1 .36-.235h8.238a.391.391 0 0 1 .365.247l.975 2.761z" fill="#98ccfd"/></svg>