<svg data-name="Layer 1" xmlns="http://www.w3.org/2000/svg" xmlns:xlink="http://www.w3.org/1999/xlink" viewBox="0 0 72 72"><defs><symbol id="a" data-name="tablet" viewBox="0 0 56.393 70.931"><path d="M2.564 69.991A1.645 1.645 0 0 1 .94 68.328V6.363a1.645 1.645 0 0 1 1.624-1.664h19.128a5.897 5.897 0 0 0-.075.94 6.58 6.58 0 0 0 13.159 0 5.909 5.909 0 0 0-.076-.94H53.83a1.645 1.645 0 0 1 1.624 1.664v61.965a1.647 1.647 0 0 1-1.624 1.663z" fill="#b6dcfe"/><path d="M53.829 5.64a.706.706 0 0 1 .684.723V68.33a.705.705 0 0 1-.684.722H2.564a.706.706 0 0 1-.684-.724V6.363a.706.706 0 0 1 .684-.724h18.113a7.52 7.52 0 0 0 15.039 0h18.113m0-1.88H33.49a5.568 5.568 0 0 1 .346 1.88 5.64 5.64 0 0 1-11.279 0 5.566 5.566 0 0 1 .346-1.88H2.564A2.584 2.584 0 0 0 0 6.363V68.33a2.584 2.584 0 0 0 2.564 2.602h51.267a2.584 2.584 0 0 0 2.562-2.604V6.363a2.584 2.584 0 0 0-2.564-2.603z" fill="#4788c7"/><path fill="#fff" d="M7.519 11.279h41.355v52.133H7.519z"/><path d="M17.998 14.098a2.823 2.823 0 0 1-2.82-2.82V4.7h7.586l.074-.2a4.645 4.645 0 0 0-.141 1.14 4.7 4.7 0 0 0 9.399 0 4.65 4.65 0 0 0-.141-1.14l.073.2h7.587v6.58a2.823 2.823 0 0 1-2.82 2.82zM27.39.94z" fill="#98ccfd"/><path d="M38.675 5.64v5.639a1.883 1.883 0 0 1-1.88 1.88H17.998a1.883 1.883 0 0 1-1.88-1.88v-5.64h5.639a5.64 5.64 0 0 0 11.279 0h5.639M27.397 0a5.621 5.621 0 0 0-5.294 3.76h-7.865v7.52a3.759 3.759 0 0 0 3.76 3.759h18.797a3.759 3.759 0 0 0 3.76-3.76V3.76H32.69A5.621 5.621 0 0 0 27.397 0zm0 9.399a3.76 3.76 0 1 1 3.759-3.76 3.763 3.763 0 0 1-3.76 3.76z" fill="#4788c7"/></symbol></defs><use width="56.393" height="70.931" transform="translate(10.17 .367)" xlink:href="#a"/><path d="M58.05 70.611A14.162 14.162 0 1 1 72.212 56.45 14.177 14.177 0 0 1 58.05 70.611z" fill="#dff0fe"/><path d="M58.05 44.288A12.162 12.162 0 1 1 45.888 56.45 12.162 12.162 0 0 1 58.05 44.288m0-4A16.162 16.162 0 1 0 74.212 56.45 16.18 16.18 0 0 0 58.05 40.288z" fill="#fff"/><path d="M62.637 52.777h-.072v-.86a4.516 4.516 0 0 0-9.031 0v.86h-.071a2.294 2.294 0 0 0-2.294 2.294V63.1H64.93V55.07a2.294 2.294 0 0 0-2.294-2.294zm-2.867 7.741h-3.44l.797-1.993a1.72 1.72 0 1 1 1.846 0zm1.505-7.74h-6.451v-.86a3.225 3.225 0 1 1 6.45 0z" fill="#4788c7"/><path d="M32.469 25.514a5.902 5.902 0 0 1 11.793 0" fill="none" stroke="#4788c7" stroke-miterlimit="10" stroke-width=".912"/><path d="M31.486 25.422v-1.638c0-.257.07-.327.328-.327h1.965c.258 0 .328.07.328.327v1.638z" fill="#fff"/><path d="M33.78 23.784v1.31h-1.966v-1.31h1.965m0-.655h-1.965a.579.579 0 0 0-.656.655v1.966h3.276v-1.966a.579.579 0 0 0-.655-.655z" fill="#4788c7"/><path d="M42.624 25.422v-1.638c0-.257.07-.327.328-.327h1.966c.257 0 .327.07.327.327v1.638z" fill="#fff"/><path d="M44.918 23.784v1.31h-1.966v-1.31h1.966m0-.655h-1.966a.579.579 0 0 0-.655.655v1.966h3.276v-1.966a.579.579 0 0 0-.655-.655z" fill="#4788c7"/><path d="M46.883 25.75a.814.814 0 0 1 .718.302l.034.073a19.244 19.244 0 0 1 1.87 9.135 32.03 32.03 0 0 1-.637 7.323 1.308 1.308 0 0 1-.674.858H28.537a1.307 1.307 0 0 1-.673-.858 31.978 31.978 0 0 1-.637-7.323 19.243 19.243 0 0 1 1.869-9.134l.034-.073a.812.812 0 0 1 .718-.303h17.035m0-.655H29.848a1.418 1.418 0 0 0-1.31.678 19.756 19.756 0 0 0-1.966 9.486 33.523 33.523 0 0 0 .655 7.48c.144.586.724 1.357 1.31 1.357h19.657c.585 0 1.166-.77 1.31-1.357a33.53 33.53 0 0 0 .656-7.48 19.755 19.755 0 0 0-1.966-9.486 1.417 1.417 0 0 0-1.31-.678z" fill="#4788c7"/><path d="M35.909 33.716a.492.492 0 0 1-.492-.491V28.31a.492.492 0 0 1 .492-.492h4.914a.492.492 0 0 1 .491.492v4.914a.492.492 0 0 1-.491.491z" fill="#fff"/><path d="M40.823 28.147a.164.164 0 0 1 .163.164v4.914a.164.164 0 0 1-.163.163h-4.914a.164.164 0 0 1-.164-.163V28.31a.164.164 0 0 1 .164-.164h4.914m0-.655h-4.914a.82.82 0 0 0-.82.819v4.914a.82.82 0 0 0 .82.819h4.914a.82.82 0 0 0 .819-.82v-4.913a.82.82 0 0 0-.82-.82z" fill="#4788c7"/><path data-name="&lt;Контур&gt;" d="M41.306 52.397c-1.542 0-1.956 1.934-2.901 1.934S37.2 51.43 35.987 51.43c0 0 .04 4.836-2.901 4.836-1.41 0-2.902-2.257-2.902-5.803 0-1.744.564-2.902 1.45-2.902s1.452 1.265 1.452 2.95c0 2.652-2.459 8.656-4.836 8.656-3.143 0-4.836-5.4-4.836-8.704 0-3.465 1.06-4.835 1.935-4.835s1.934 1.33 1.934 4.835c0 4.288-3.869 11.606-3.869 11.606" fill="none" stroke="#4788c7" stroke-linecap="round" stroke-miterlimit="10"/></svg>