<svg id="ec1bfa28-6e0a-47bb-9b1d-4bc5ca8c420e" data-name="Layer 1" xmlns="http://www.w3.org/2000/svg" xmlns:xlink="http://www.w3.org/1999/xlink" viewBox="0 0 72 72"><defs><symbol id="7aa2ce48-2aec-4ae8-9ed5-a755fbdcd49d" data-name="tablet" viewBox="0 0 56.393 70.931"><path d="M2.564,69.9912A1.6453,1.6453,0,0,1,.94,68.3276V6.363A1.6453,1.6453,0,0,1,2.564,4.6994H21.6925a5.8969,5.8969,0,0,0-.0752.94,6.5792,6.5792,0,0,0,13.1584,0,5.9085,5.9085,0,0,0-.0752-.94H53.829A1.6454,1.6454,0,0,1,55.4531,6.363V68.3276a1.6466,1.6466,0,0,1-1.6241,1.6636Z" fill="#b6dcfe"/><path d="M53.829,5.6393a.7056.7056,0,0,1,.6842.7237V68.33a.7051.7051,0,0,1-.6842.7218H2.564a.7056.7056,0,0,1-.6842-.7237V6.363a.7056.7056,0,0,1,.6842-.7237H20.6774a7.5191,7.5191,0,0,0,15.0382,0H53.829m0-1.88H33.49a5.5684,5.5684,0,0,1,.3459,1.88,5.6393,5.6393,0,0,1-11.2786,0,5.5659,5.5659,0,0,1,.3459-1.88H2.564A2.5843,2.5843,0,0,0,0,6.363V68.33a2.5838,2.5838,0,0,0,2.564,2.6016H53.8309a2.5839,2.5839,0,0,0,2.5621-2.6035V6.363A2.5843,2.5843,0,0,0,53.829,3.76Z" fill="#4788c7"/><rect x="7.5191" y="11.2786" width="41.3549" height="52.1335" fill="#fff"/><path d="M17.9977,14.0982a2.823,2.823,0,0,1-2.82-2.82V4.6994h7.5867l.0734-.2011a4.6454,4.6454,0,0,0-.141,1.141,4.6994,4.6994,0,0,0,9.3988,0,4.65,4.65,0,0,0-.141-1.141l.0733.2011H39.615v6.5792a2.823,2.823,0,0,1-2.82,2.82ZM27.3909.94h0Z" fill="#98ccfd"/><path d="M38.6751,5.6393v5.6393a1.8829,1.8829,0,0,1-1.88,1.88H17.9977a1.8829,1.8829,0,0,1-1.88-1.88V5.6393h5.6393a5.6393,5.6393,0,0,0,11.2786,0h5.6393M27.3965,0a5.621,5.621,0,0,0-5.2934,3.76h-7.865v7.5191a3.7585,3.7585,0,0,0,3.76,3.7595H36.7953a3.7585,3.7585,0,0,0,3.76-3.7595V3.76H32.69A5.621,5.621,0,0,0,27.3965,0Zm0,9.3988A3.76,3.76,0,1,1,31.156,5.6393a3.7632,3.7632,0,0,1-3.7595,3.7595Z" fill="#4788c7"/></symbol></defs><title>protokol-lizo-dosmotr</title><use width="56.393" height="70.9311" transform="translate(10.1691 0.3667)" xlink:href="#7aa2ce48-2aec-4ae8-9ed5-a755fbdcd49d"/><path d="M58.05,70.6113A14.1616,14.1616,0,1,1,72.2119,56.45,14.177,14.177,0,0,1,58.05,70.6113Z" fill="#4788c7"/><path d="M58.05,44.2882A12.1618,12.1618,0,1,1,45.8882,56.45,12.1618,12.1618,0,0,1,58.05,44.2882m0-4A16.1618,16.1618,0,1,0,74.2118,56.45,16.18,16.18,0,0,0,58.05,40.2882Z" fill="#fff"/><path d="M58.05,44.2882A12.1618,12.1618,0,1,1,45.8882,56.45,12.1618,12.1618,0,0,1,58.05,44.2882m0-4A16.1618,16.1618,0,1,0,74.2118,56.45,16.18,16.18,0,0,0,58.05,40.2882Z" fill="#fff"/><path d="M64.4252,56.2943a1.0156,1.0156,0,0,0-1.4383.0386l-.2183.2311h-.0129c-.0256.0385-.0642.0771-.09.1156l-1.1429,1.1943V55.8192l.0129-5.2009v-.6036c0-.6164-.3468-1.0273-.8476-1.0145-.488.0128-.809.3853-.809.9888-.0129.9246,0,2.6069,0,3.2747a.285.285,0,0,1-.2825.2825H59.571a.288.288,0,0,1-.2825-.2954V50.477c0-.5393.0128-1.0787,0-1.6181-.0129-.6164-.3853-1.053-.86-1.04s-.8347.4366-.8347,1.0658c-.0129,1.4768.0128,2.9536-.0129,4.43a.2851.2851,0,0,1-.2825.2826.3058.3058,0,0,1-.2954-.2826c-.0257-1.2713-.0128-2.5555-.0128-3.8268,0-.6806-.3339-1.0916-.8476-1.0659-.5008.0129-.8347.4623-.8218,1.1044,0,1.2714.0128,3.6342.0128,4.4433a.285.285,0,0,1-.2825.2825h-.0385a.28.28,0,0,1-.2826-.2954c0-.6164.0129-2.0675.0129-2.8508,0-.6421-.3211-1.0017-.86-.9889-.5008.0129-.7962.36-.7962.9889v8.54A3.736,3.736,0,0,0,56.8871,63.73a5.1,5.1,0,0,0,5.1752-2.4913c.2055-.3467.4238-.6806.6421-1.0145l1.8492-2.6069A1.006,1.006,0,0,0,64.4252,56.2943Z" fill="#dff0fe"/><path d="M27.9024,40.4917a9.9409,9.9409,0,0,1,19.8216,0Z" fill="#98ccfd" stroke="#4788c7" stroke-miterlimit="10" stroke-width="0.5"/><circle cx="37.8132" cy="24.8114" r="4.6364" fill="#dff0fe" stroke="#4788c7" stroke-miterlimit="10" stroke-width="0.5"/><path id="c606ac69-5107-47aa-a641-035ae36e4b6d" data-name="&lt;Контур&gt;" d="M41.3061,52.3968c-1.5425,0-1.9565,1.9343-2.9013,1.9343S37.2007,51.43,35.987,51.43c0,0,.0406,4.8356-2.9014,4.8356-1.41,0-2.9014-2.2563-2.9014-5.8027,0-1.7437.5639-2.9014,1.4507-2.9014s1.4507,1.265,1.4507,2.95c0,2.6519-2.4584,8.6558-4.8356,8.6558-3.1431,0-4.8356-5.3995-4.8356-8.7041,0-3.4652,1.059-4.8356,1.9342-4.8356s1.9343,1.33,1.9343,4.8356c0,4.2882-3.8685,11.6054-3.8685,11.6054" fill="none" stroke="#4788c7" stroke-linecap="round" stroke-miterlimit="10"/></svg>