<svg id="4be275d4-d733-4b47-8774-4c08b16de467" data-name="Layer 1" xmlns="http://www.w3.org/2000/svg" xmlns:xlink="http://www.w3.org/1999/xlink" viewBox="0 0 72 72"><defs><symbol id="0332a23c-34de-42b2-8833-3d319100f2e0" data-name="tablet" viewBox="0 0 56.393 70.931"><path d="M2.564,69.9912A1.6453,1.6453,0,0,1,.94,68.3276V6.363A1.6453,1.6453,0,0,1,2.564,4.6994H21.6925a5.8969,5.8969,0,0,0-.0752.94,6.5792,6.5792,0,0,0,13.1584,0,5.9085,5.9085,0,0,0-.0752-.94H53.829A1.6454,1.6454,0,0,1,55.4531,6.363V68.3276a1.6466,1.6466,0,0,1-1.6241,1.6636Z" fill="#b6dcfe"/><path d="M53.829,5.6393a.7056.7056,0,0,1,.6842.7237V68.33a.7051.7051,0,0,1-.6842.7218H2.564a.7056.7056,0,0,1-.6842-.7237V6.363a.7056.7056,0,0,1,.6842-.7237H20.6774a7.5191,7.5191,0,0,0,15.0382,0H53.829m0-1.88H33.49a5.5684,5.5684,0,0,1,.3459,1.88,5.6393,5.6393,0,0,1-11.2786,0,5.5659,5.5659,0,0,1,.3459-1.88H2.564A2.5843,2.5843,0,0,0,0,6.363V68.33a2.5838,2.5838,0,0,0,2.564,2.6016H53.8309a2.5839,2.5839,0,0,0,2.5621-2.6035V6.363A2.5843,2.5843,0,0,0,53.829,3.76Z" fill="#4788c7"/><rect x="7.5191" y="11.2786" width="41.3549" height="52.1335" fill="#fff"/><path d="M17.9977,14.0982a2.823,2.823,0,0,1-2.82-2.82V4.6994h7.5867l.0734-.2011a4.6454,4.6454,0,0,0-.141,1.141,4.6994,4.6994,0,0,0,9.3988,0,4.65,4.65,0,0,0-.141-1.141l.0733.2011H39.615v6.5792a2.823,2.823,0,0,1-2.82,2.82ZM27.3909.94h0Z" fill="#98ccfd"/><path d="M38.6751,5.6393v5.6393a1.8829,1.8829,0,0,1-1.88,1.88H17.9977a1.8829,1.8829,0,0,1-1.88-1.88V5.6393h5.6393a5.6393,5.6393,0,0,0,11.2786,0h5.6393M27.3965,0a5.621,5.621,0,0,0-5.2934,3.76h-7.865v7.5191a3.7585,3.7585,0,0,0,3.76,3.7595H36.7953a3.7585,3.7585,0,0,0,3.76-3.7595V3.76H32.69A5.621,5.621,0,0,0,27.3965,0Zm0,9.3988A3.76,3.76,0,1,1,31.156,5.6393a3.7632,3.7632,0,0,1-3.7595,3.7595Z" fill="#4788c7"/></symbol></defs><title>protokol-lizo-zaderzhanie</title><use width="56.393" height="70.9311" transform="translate(10.1691 0.3667)" xlink:href="#0332a23c-34de-42b2-8833-3d319100f2e0"/><path d="M58.05,70.6113A14.1616,14.1616,0,1,1,72.2119,56.45,14.177,14.177,0,0,1,58.05,70.6113Z" fill="#4788c7"/><path d="M58.05,44.2882A12.1618,12.1618,0,1,1,45.8882,56.45,12.1618,12.1618,0,0,1,58.05,44.2882m0-4A16.1618,16.1618,0,1,0,74.2118,56.45,16.18,16.18,0,0,0,58.05,40.2882Z" fill="#fff"/><path d="M58.05,44.2882A12.1618,12.1618,0,1,1,45.8882,56.45,12.1618,12.1618,0,0,1,58.05,44.2882m0-4A16.1618,16.1618,0,1,0,74.2118,56.45,16.18,16.18,0,0,0,58.05,40.2882Z" fill="#fff"/><path d="M27.9024,40.4917a9.9409,9.9409,0,0,1,19.8216,0Z" fill="#98ccfd" stroke="#4788c7" stroke-miterlimit="10" stroke-width="0.5"/><circle cx="37.8132" cy="24.8114" r="4.6364" fill="#dff0fe" stroke="#4788c7" stroke-miterlimit="10" stroke-width="0.5"/><g id="c1959ba9-dc11-4a2a-bee0-134a75279c0b" data-name="surface1"><path d="M59.5,47.6866a1.5135,1.5135,0,0,0-1.2409.6749,1.463,1.463,0,0,0-.2177,1.045l-1.0559.5552.5225.5225.7946-.4246a1.5318,1.5318,0,0,0,.4028.3919.3457.3457,0,1,0,.381-.5769.8116.8116,0,0,1-.1524-.1524l.1633-.0871a.3432.3432,0,0,0,.1415-.4681.348.348,0,0,0-.4681-.1524l-.0435.0218a.6932.6932,0,0,1,.1088-.2831.8339.8339,0,0,1,1.1212-.25.2727.2727,0,0,0,.0327.0217c.0558.0286.3089.1946.4572.294.0939.0626.1782.1224.25.1741.0871.0626.1578.113.2068.1415a.7975.7975,0,0,1-.1089,1.4152.3489.3489,0,0,0-.1524.4681.33.33,0,0,0,.3048.185.3807.3807,0,0,0,.1633-.0326,1.4629,1.4629,0,0,0,.8164-1.6764,1.5412,1.5412,0,0,0-.6422-.9471c-.0068-.0054-.0259-.0177-.0327-.0218-.0313-.0176-.0775-.0517-.1415-.0979-.0789-.0572-.181-.1279-.283-.196-.249-.166-.4109-.2667-.5007-.3156A1.4438,1.4438,0,0,0,59.5,47.6866Zm-4.7679.9905a1.0557,1.0557,0,0,0-.7511.3048l-1.0014,1.0233a3.6777,3.6777,0,0,0-2.9718.9906c-1.4791,1.5172-1.2464,4.1964.5225,5.9653a4.8841,4.8841,0,0,0,3.4072,1.47,3.5208,3.5208,0,0,0,2.5472-1.0124,3.4167,3.4167,0,0,0,1.0015-2.95l.9906-1.0341a1.0513,1.0513,0,0,0,0-1.5022L55.483,48.9711A1.0552,1.0552,0,0,0,54.7319,48.6771Zm5.7912.8274a.3363.3363,0,0,0-.1306.0435,1.5288,1.5288,0,0,0-.6967.6967,1.5072,1.5072,0,0,0-.0436,1.1865.33.33,0,0,0,.0109.0327,4.8525,4.8525,0,0,1,.1524.4681,4.4391,4.4391,0,0,0,.2177.5987,1.5321,1.5321,0,0,0,1.0233.9252l-.1089.8382.7185-.12.098-.6967c.0517-.0109.1034-.02.1524-.0326l.087-.0218a1.5708,1.5708,0,0,0,.9144-1.9921.2637.2637,0,0,0-.0217-.0326c-.015-.0313-.0653-.18-.1415-.4464a2.3116,2.3116,0,0,0-.1089-.3048c-.0163-.0394-.0327-.0762-.0435-.1088a.3443.3443,0,0,0-.6532.2177c.015.0463.0327.098.0544.1524a1.61,1.61,0,0,1,.0762.2177,5.158,5.158,0,0,0,.1851.5661.81.81,0,0,1-.0218.61.9033.9033,0,0,1-.381.4245l.0327-.2177a.3542.3542,0,0,0-.3048-.3919.3467.3467,0,0,0-.3919.2939l-.0435.3375a.8173.8173,0,0,1-.4681-.479.1542.1542,0,0,0-.0109-.0326,3.8837,3.8837,0,0,1-.1851-.5008,5.0591,5.0591,0,0,0-.1959-.5552.8535.8535,0,0,1,.0327-.6422.9053.9053,0,0,1,.4136-.3919.34.34,0,0,0,.1306-.4681A.3558.3558,0,0,0,60.5231,49.5045Zm-8.088,2.2642a3.1609,3.1609,0,0,1,2.3186.9688c1.08,1.08,1.324,2.6819.5225,3.4834s-2.403.5552-3.4834-.49c-1.08-1.08-1.3239-2.6819-.5225-3.4834A1.7328,1.7328,0,0,1,52.4351,51.7687Zm10.7223,2.5037L59.01,54.98a1.0731,1.0731,0,0,0-.8709,1.1866l.2178,1.4042a3.7275,3.7275,0,0,0-.958,2.9609,4.1005,4.1005,0,0,0,4.2672,3.1351,5.65,5.65,0,0,0,.8382-.0653,4.9016,4.9016,0,0,0,3.2439-1.905,3.4492,3.4492,0,0,0,.664-2.6017,3.6812,3.6812,0,0,0-1.8288-2.5364l-.2286-1.4042a1.0647,1.0647,0,0,0-1.0668-.8817A.8169.8169,0,0,0,63.1574,54.2724ZM62.1668,57.68a2.3745,2.3745,0,0,1,2.5473,1.6764c.1741,1.1144-.94,2.271-2.4384,2.5145s-2.9283-.4939-3.1024-1.6437c-.1742-1.1144.94-2.26,2.4384-2.5037A3.6838,3.6838,0,0,1,62.1668,57.68Z" fill="#dff0fe"/></g><path id="fa880b1f-86c8-4b9f-a3ea-77d33054693e" data-name="&lt;Контур&gt;" d="M41.3061,52.3968c-1.5425,0-1.9565,1.9343-2.9013,1.9343S37.2007,51.43,35.987,51.43c0,0,.0406,4.8356-2.9014,4.8356-1.41,0-2.9014-2.2563-2.9014-5.8027,0-1.7437.5639-2.9014,1.4507-2.9014s1.4507,1.265,1.4507,2.95c0,2.6519-2.4584,8.6558-4.8356,8.6558-3.1431,0-4.8356-5.3995-4.8356-8.7041,0-3.4652,1.059-4.8356,1.9342-4.8356s1.9343,1.33,1.9343,4.8356c0,4.2882-3.8685,11.6054-3.8685,11.6054" fill="none" stroke="#4788c7" stroke-linecap="round" stroke-miterlimit="10"/></svg>