<svg data-name="Layer 1" xmlns="http://www.w3.org/2000/svg" xmlns:xlink="http://www.w3.org/1999/xlink" viewBox="0 0 72 72"><defs><symbol id="a" data-name="tablet" viewBox="0 0 56.393 70.931"><path d="M2.564 69.991A1.645 1.645 0 0 1 .94 68.328V6.363a1.645 1.645 0 0 1 1.624-1.664h19.128a5.897 5.897 0 0 0-.075.94 6.58 6.58 0 0 0 13.159 0 5.909 5.909 0 0 0-.076-.94H53.83a1.645 1.645 0 0 1 1.624 1.664v61.965a1.647 1.647 0 0 1-1.624 1.663z" fill="#b6dcfe"/><path d="M53.829 5.64a.706.706 0 0 1 .684.723V68.33a.705.705 0 0 1-.684.722H2.564a.706.706 0 0 1-.684-.724V6.363a.706.706 0 0 1 .684-.724h18.113a7.52 7.52 0 0 0 15.039 0h18.113m0-1.88H33.49a5.568 5.568 0 0 1 .346 1.88 5.64 5.64 0 0 1-11.279 0 5.566 5.566 0 0 1 .346-1.88H2.564A2.584 2.584 0 0 0 0 6.363V68.33a2.584 2.584 0 0 0 2.564 2.602h51.267a2.584 2.584 0 0 0 2.562-2.604V6.363a2.584 2.584 0 0 0-2.564-2.603z" fill="#4788c7"/><path fill="#fff" d="M7.519 11.279h41.355v52.133H7.519z"/><path d="M17.998 14.098a2.823 2.823 0 0 1-2.82-2.82V4.7h7.586l.074-.2a4.645 4.645 0 0 0-.141 1.14 4.7 4.7 0 0 0 9.399 0 4.65 4.65 0 0 0-.141-1.14l.073.2h7.587v6.58a2.823 2.823 0 0 1-2.82 2.82zM27.39.94z" fill="#98ccfd"/><path d="M38.675 5.64v5.639a1.883 1.883 0 0 1-1.88 1.88H17.998a1.883 1.883 0 0 1-1.88-1.88v-5.64h5.639a5.64 5.64 0 0 0 11.279 0h5.639M27.397 0a5.621 5.621 0 0 0-5.294 3.76h-7.865v7.52a3.759 3.759 0 0 0 3.76 3.759h18.797a3.759 3.759 0 0 0 3.76-3.76V3.76H32.69A5.621 5.621 0 0 0 27.397 0zm0 9.399a3.76 3.76 0 1 1 3.759-3.76 3.763 3.763 0 0 1-3.76 3.76z" fill="#4788c7"/></symbol></defs><use width="56.393" height="70.931" transform="translate(10.17 .367)" xlink:href="#a"/><path d="M29.195 42.167a8.644 8.644 0 0 1 17.236 0z" fill="#98ccfd" stroke="#4788c7" stroke-miterlimit="10" stroke-width=".5"/><path data-name="&lt;Контур&gt;" d="M37.39 58.901c-1.125-.4-1.928.905-2.617.66s-.127-2.428-1.013-2.742c0 0-1.222 3.538-3.368 2.776-1.029-.365-1.533-2.397-.614-4.984.451-1.272 1.162-1.97 1.81-1.741s.73 1.298.294 2.527c-.687 1.935-4.035 5.678-5.769 5.062-2.293-.813-2.13-5.19-1.274-7.601.897-2.528 2.025-3.253 2.663-3.027s1.067 1.471.16 4.029c-1.11 3.128-5.828 7.464-5.828 7.464" fill="none" stroke="#4788c7" stroke-linecap="round" stroke-miterlimit="10" stroke-width=".75"/><path d="M58.05 70.611A14.162 14.162 0 1 1 72.212 56.45 14.177 14.177 0 0 1 58.05 70.611z" fill="#4788c7"/><path d="M58.05 44.288A12.162 12.162 0 1 1 45.888 56.45 12.162 12.162 0 0 1 58.05 44.288m0-4A16.162 16.162 0 1 0 74.212 56.45 16.18 16.18 0 0 0 58.05 40.288z" fill="#fff"/><path d="M58.05 44.288A12.162 12.162 0 1 1 45.888 56.45 12.162 12.162 0 0 1 58.05 44.288m0-4A16.162 16.162 0 1 0 74.212 56.45 16.18 16.18 0 0 0 58.05 40.288z" fill="#fff"/><path d="M64.425 56.294a1.016 1.016 0 0 0-1.438.039l-.218.231h-.013c-.026.038-.064.077-.09.116l-1.143 1.194v-2.055l.013-5.2v-.604c0-.617-.347-1.028-.848-1.015-.488.013-.809.386-.809.989-.013.925 0 2.607 0 3.275a.285.285 0 0 1-.282.282h-.026a.288.288 0 0 1-.282-.295v-2.774c0-.54.012-1.079 0-1.618-.013-.617-.386-1.053-.86-1.04s-.835.436-.835 1.066c-.013 1.477.013 2.953-.013 4.43a.285.285 0 0 1-.283.282.306.306 0 0 1-.295-.282c-.026-1.272-.013-2.556-.013-3.827 0-.68-.334-1.092-.847-1.066-.501.013-.835.462-.822 1.104 0 1.272.013 3.635.013 4.444a.285.285 0 0 1-.283.282h-.038a.28.28 0 0 1-.283-.295c0-.617.013-2.068.013-2.851 0-.642-.321-1.002-.86-.989-.5.013-.796.36-.796.989v8.54a3.736 3.736 0 0 0 3.8 4.084 5.1 5.1 0 0 0 5.175-2.491c.206-.347.424-.68.642-1.015l1.85-2.607a1.006 1.006 0 0 0-.129-1.323z" fill="#dff0fe"/><circle cx="37.813" cy="28.532" r="4.032" fill="#dff0fe" stroke="#4788c7" stroke-miterlimit="10" stroke-width=".5"/></svg>