<svg data-name="Layer 1" xmlns="http://www.w3.org/2000/svg" viewBox="0 0 72 72"><rect x="9.127" y="3.166" width="53.229" height="65.798" rx="3" ry="3" transform="rotate(-90 35.741 36.065)" fill="#fff" stroke="#4788c7" stroke-linecap="round" stroke-linejoin="round" stroke-width="2"/><path data-name="&lt;Контур&gt;" d="M62.363 39.632c-1.542 0-1.956 1.934-2.901 1.934s-1.204-2.902-2.418-2.902c0 0 .04 4.836-2.901 4.836-1.41 0-2.902-2.256-2.902-5.803 0-1.743.564-2.901 1.45-2.901s1.451 1.265 1.451 2.95c0 2.652-2.458 8.656-4.835 8.656-3.143 0-4.836-5.4-4.836-8.704 0-3.466 1.06-4.836 1.935-4.836s1.934 1.33 1.934 4.836c0 4.288-3.869 11.605-3.869 11.605" fill="none" stroke="#4788c7" stroke-linecap="round" stroke-miterlimit="10"/><path fill="none" stroke="#4788c7" stroke-linecap="round" stroke-linejoin="round" stroke-width="2" d="M43.49 17.164h19.385M43.167 24.344h18.45"/><path d="M8.249 12.84h30.627v46.41H8.25a2 2 0 0 1-2-2V14.84a2 2 0 0 1 2-2z" fill="#dff0fe"/><path fill="#fff" stroke="#4788c7" stroke-miterlimit="10" d="M9.649 37.399l3.209-3.208L18 39.333 30.834 26.5l3.208 3.207L18 45.75l-8.351-8.351z"/></svg>