<svg data-name="Layer 1" xmlns="http://www.w3.org/2000/svg" xmlns:xlink="http://www.w3.org/1999/xlink" viewBox="0 0 72 72"><defs><symbol id="a" data-name="document frame" viewBox="0 0 52.4 67.45"><path fill="#fff" d="M51.4 35.95v-18.7L35.15 1H1v65.45h50.4v-30.5z"/><path fill="#dff0fe" stroke="#4788c7" stroke-miterlimit="10" stroke-width="2" d="M34.6 1.05v16.8h16.8"/><path fill="none" stroke="#4788c7" stroke-linecap="round" stroke-miterlimit="10" stroke-width="2" d="M51.4 35.95v-18.7L35.15 1H1v65.45h50.4v-30.5z"/></symbol><symbol id="b" data-name="vesy" viewBox="0 0 44.367 49.406"><path d="M36.414 30.24a7.756 7.756 0 0 1-7.112-4.744h14.224a7.756 7.756 0 0 1-7.112 4.744z" fill="#dff0fe"/><path d="M42.571 26.09a7.107 7.107 0 0 1-12.314 0H42.57m1.796-1.186H28.462a8.298 8.298 0 0 0 15.905 0z" fill="#4788c7"/><path d="M36.414 4.915l6.704 19.994a7.112 7.112 0 0 1-13.408.001l6.704-19.995m0-3.73l-7.953 23.719a8.298 8.298 0 0 0 15.906 0L36.414 1.186z" fill="#4788c7"/><path d="M7.953 30.24A7.756 7.756 0 0 1 .84 25.497h14.223a7.756 7.756 0 0 1-7.111 4.743z" fill="#dff0fe"/><path d="M14.11 26.09a7.107 7.107 0 0 1-12.314 0H14.11m1.795-1.186H0a8.298 8.298 0 0 0 15.905 0z" fill="#4788c7"/><path d="M7.953 4.915l6.704 19.994a7.112 7.112 0 0 1-13.408.001L7.953 4.915m0-3.73L0 24.904a8.298 8.298 0 0 0 15.905 0L7.953 1.186z" fill="#4788c7"/><path d="M36.37 3.953C32.112-.305 25.583-.281 22.183 3.119" fill="none" stroke="#4788c7" stroke-miterlimit="10" stroke-width="1.186"/><circle cx="36.414" cy="3.558" r="2.372" fill="#4788c7"/><path d="M7.997 3.953c4.258-4.258 10.786-4.234 14.186-.834" fill="none" stroke="#4788c7" stroke-miterlimit="10" stroke-width="1.186"/><path fill="#b6dcfe" d="M20.404 2.965h3.558v39.699h-3.558z"/><path d="M23.37 3.558V42.07h-2.373V3.558h2.372m1.186-1.186h-4.743v40.884h4.743V2.372z" fill="#4788c7"/><circle cx="22.183" cy="3.558" r="2.965" fill="#b6dcfe"/><path d="M22.183 1.186a2.372 2.372 0 1 1-2.371 2.372 2.374 2.374 0 0 1 2.371-2.372m0-1.186a3.558 3.558 0 1 0 3.558 3.558A3.558 3.558 0 0 0 22.183 0z" fill="#4788c7"/><circle cx="7.953" cy="3.558" r="2.372" fill="#4788c7"/><path d="M13.65 48.877v-1.59a1.59 1.59 0 0 1 1.589-1.588h13.889a1.59 1.59 0 0 1 1.589 1.589v1.589z" fill="#98ccfd"/><path d="M29.128 46.229a1.061 1.061 0 0 1 1.06 1.059v1.06H14.18v-1.06a1.061 1.061 0 0 1 1.06-1.06h13.888m0-1.059h-13.89a2.125 2.125 0 0 0-2.118 2.119v2.118h18.127v-2.118a2.125 2.125 0 0 0-2.12-2.119z" fill="#4788c7"/></symbol></defs><use data-name="document frame" width="52.4" height="67.45" transform="translate(9.8 2.3)" xlink:href="#a"/><use width="44.367" height="49.406" transform="translate(18.601 25.5) scale(.7843)" xlink:href="#b"/></svg>