<svg data-name="Layer 1" xmlns="http://www.w3.org/2000/svg" xmlns:xlink="http://www.w3.org/1999/xlink" viewBox="0 0 72 72"><defs><symbol id="a" data-name="document frame" viewBox="0 0 52.4 67.45"><path fill="#fff" d="M51.4 35.95v-18.7L35.15 1H1v65.45h50.4v-30.5z"/><path fill="#dff0fe" stroke="#4788c7" stroke-miterlimit="10" stroke-width="2" d="M34.6 1.05v16.8h16.8"/><path fill="none" stroke="#4788c7" stroke-linecap="round" stroke-miterlimit="10" stroke-width="2" d="M51.4 35.95v-18.7L35.15 1H1v65.45h50.4v-30.5z"/></symbol></defs><use data-name="document frame" width="52.4" height="67.45" transform="translate(9.8 2.3)" xlink:href="#a"/><path fill="#fff" stroke="#4788c7" stroke-linecap="round" stroke-linejoin="round" stroke-width="1.5" d="M21 30.3h28.158M21 34.825h28.158M21 39.35h28.158"/><circle cx="47.358" cy="54.949" r="10.025" fill="none" stroke="#98ccfd" stroke-linecap="round" stroke-linejoin="round" stroke-width=".75"/><circle cx="47.358" cy="54.949" r="7.875" fill="none" stroke="#dff0fe" stroke-miterlimit="10" stroke-width="1.5"/><path data-name="&lt;Контур&gt;" d="M49.584 59.292c-1.362-.483-2.333 1.095-3.167.799s-.154-2.939-1.225-3.319c0 0-1.48 4.281-4.076 3.36-1.245-.442-1.854-2.901-.743-6.031.546-1.54 1.407-2.385 2.19-2.107s.884 1.571.356 3.058c-.83 2.341-4.881 6.87-6.98 6.126-2.774-.985-2.576-6.281-1.541-9.198 1.085-3.059 2.45-3.937 3.222-3.662s1.29 1.78.192 4.874c-1.343 3.785-7.05 9.032-7.05 9.032" fill="none" stroke="#4788c7" stroke-linecap="round" stroke-miterlimit="10" stroke-width=".907"/><path d="M36.06 13.938l2.041 6.583-18.324 5.68-2.04-6.582 18.323-5.68m.495-.939l-19.757 6.125 2.485 8.015 19.757-6.125L36.555 13z" fill="#98ccfd"/><path d="M36.06 13.938l2.041 6.583-18.324 5.68-2.04-6.582 18.323-5.68m.495-.939l-19.757 6.125 2.485 8.015 19.757-6.125L36.555 13z" fill="#98ccfd"/><path d="M34.993 15.966l1.081 3.488-15.229 4.72-1.081-3.487 15.229-4.721m.494-.939l-16.662 5.165 1.526 4.921 16.661-5.165-1.525-4.921z" fill="#dff0fe"/></svg>