<svg data-name="Layer 1" xmlns="http://www.w3.org/2000/svg" xmlns:xlink="http://www.w3.org/1999/xlink" viewBox="0 0 72 72"><defs><symbol id="a" data-name="hummer" viewBox="0 0 44.59 36.5"><path d="M17.04 9.195a1.208 1.208 0 0 1 .422-1.65L29.9.167a1.208 1.208 0 0 1 1.65.422 1.208 1.208 0 0 1-.42 1.651L18.69 9.617a1.208 1.208 0 0 1-1.651-.422z" fill="#4788c7"/><path d="M22.296 35.897V34.09a1.81 1.81 0 0 1 1.807-1.808H42.18a1.81 1.81 0 0 1 1.807 1.808v1.808z" fill="#98ccfd"/><path d="M42.18 32.885a1.207 1.207 0 0 1 1.205 1.205v1.205H22.898V34.09a1.207 1.207 0 0 1 1.205-1.205H42.18m0-1.205H24.103a2.417 2.417 0 0 0-2.41 2.41v2.41H44.59v-2.41a2.417 2.417 0 0 0-2.41-2.41z" fill="#4788c7"/><path d="M3.308 34.346a2.7 2.7 0 0 1-1.43-4.993c1.41-.88 28.534-16.113 32.585-18.389L35.6 12.79C31.743 15.44 5.793 33.276 4.732 33.936a2.683 2.683 0 0 1-1.424.41z" fill="#98ccfd"/><path d="M34.255 11.772l.529.848C24.131 19.942 5.29 32.88 4.414 33.425a2.098 2.098 0 0 1-2.219-3.56c1.17-.73 20.921-11.839 32.06-18.093m.414-1.615S3.105 27.877 1.557 28.842a3.303 3.303 0 1 0 3.494 5.606c1.165-.725 31.365-21.488 31.365-21.488l-1.748-2.803z" fill="#4788c7"/><path d="M32.076 26.204c-3.17-1.025-6.35-3.824-8.553-7.539s-3.133-7.85-2.512-11.122l8.087-4.794c3.167 1.026 6.349 3.824 8.553 7.538 2.203 3.717 3.133 7.851 2.513 11.123z" fill="#dff0fe"/><path d="M29.167 3.408c2.948 1.046 5.894 3.694 7.965 7.186s2.982 7.35 2.485 10.438l-7.61 4.51c-2.948-1.045-5.893-3.694-7.965-7.185-2.072-3.494-2.983-7.35-2.485-10.438l7.61-4.51m-.146-1.314L20.474 7.16c-.725 3.331.105 7.72 2.532 11.811s5.878 6.924 9.148 7.887l8.547-5.067c.726-3.33-.105-7.72-2.532-11.811s-5.877-6.925-9.148-7.886z" fill="#4788c7"/><path d="M28.705 28.477a1.208 1.208 0 0 1 .422-1.65l12.44-7.377a1.208 1.208 0 0 1 1.65.422 1.208 1.208 0 0 1-.421 1.65L30.356 28.9a1.208 1.208 0 0 1-1.65-.422z" fill="#4788c7"/></symbol></defs><use width="44.59" height="36.5" transform="translate(12.197 17.436)" xlink:href="#a"/></svg>