<svg xmlns="http://www.w3.org/2000/svg" xmlns:xlink="http://www.w3.org/1999/xlink" width="31.917" height="31.622" viewBox="0 0 31.917 31.622"><defs><style>.a{fill:none;}.b{clip-path:url(#a);}.c{fill:#fff;}</style><clipPath id="a"><rect class="a" width="31.917" height="31.622"/></clipPath></defs><g class="b"><g transform="translate(4.748 4.157)"><path class="c" d="M143.986,138.077h4.177a1.139,1.139,0,0,0,.019-2.277h-6.939a1.144,1.144,0,0,0-1.144,1.134v6.939a1.139,1.139,0,0,0,2.277.019v-4.2l4.913,4.913a1.138,1.138,0,0,0,1.6-1.618C147.262,141.343,145.624,139.715,143.986,138.077Z" transform="translate(-140.1 -135.8)"/></g><g transform="translate(17.834 17.244)"><path class="c" d="M284.311,271.948a1.139,1.139,0,0,0-2.277-.019v4.2l-4.913-4.913a1.138,1.138,0,0,0-1.6,1.618l4.9,4.9h-4.177a1.139,1.139,0,0,0-.019,2.277h6.939a1.144,1.144,0,0,0,1.144-1.134C284.321,276.571,284.311,274.255,284.311,271.948Z" transform="translate(-275.137 -270.837)"/></g><path class="c" d="M122.809,95.41c-.795-2.219-2.52-2.51-4.555-2.51H95.461c-2.093,0-3.721.8-4.119,2.946a1.313,1.313,0,0,0-.058.349,1.267,1.267,0,0,0,0,.271V108.89c0,4.2-.426,8.635.058,12.811.271,2.374,2.481,2.82,4.419,2.82h22.977c2.045,0,4.167-.872,4.167-3.3V99.626C122.906,98.414,123.235,96.592,122.809,95.41Zm-2.18,4.477v21.32c0,1.628-3.983,1.037-4.72,1.037H94.589c-1.638,0-1.037-3.983-1.037-4.72V96.2c.194-1.667,3.809-1.037,4.72-1.037h21.32C121.22,95.168,120.629,99.151,120.629,99.887Z" transform="translate(-91.111 -92.9)"/></g></svg>