<svg data-name="Layer 1" xmlns="http://www.w3.org/2000/svg" viewBox="0 0 72 72"><path d="M64.044 42.008c-17.486 2.913-36.84 14.076-40.341 16.158L9.382 34.98l36.425-22.498z" fill="#b6dcfe"/><path d="M45.596 13.375l17.392 28.158C46.219 44.58 28.514 54.565 23.918 57.28L10.275 35.191l35.321-21.816m.422-1.786l-37.53 23.18 15 24.284s22.076-13.636 41.62-16.557l-19.09-30.907z" fill="#4788c7"/><path d="M61.149 34.852c-15.827 5.8-36.928 18.45-40.598 20.68L6.233 32.35 44.866 8.489z" fill="#b6dcfe"/><path d="M44.655 9.381L60.18 34.52c-15.12 5.682-34.604 17.22-39.416 20.125L7.125 32.561l37.53-23.18m.422-1.785L5.34 32.139l14.999 24.284S44.622 41.424 62.12 35.191L45.077 7.596z" fill="#4788c7"/><path fill="#b6dcfe" d="M3.083 29.72L43.924 4.495l14.317 23.18L17.401 52.9z"/><path d="M43.713 5.388L57.35 27.464 17.612 52.008 3.976 29.932 43.713 5.388m.422-1.785L2.191 29.51 17.19 53.793l41.944-25.907L44.135 3.603z" fill="#4788c7"/><circle cx="30.662" cy="28.698" r="9.082" fill="#fff"/><circle cx="45.012" cy="19.835" r="3.892" fill="#fff"/><circle cx="17.022" cy="37.916" r="3.892" fill="#fff"/><path fill="#b6dcfe" d="M42.701 52.034v8.245h-5.057l6.824 6.824 6.824-6.824h-5.057v-8.245h-3.534z"/><path d="M44.468 66.27l-5.402-5.402h4.224v-8.245h2.356v8.245h4.224l-5.402 5.402m0 1.666l8.245-8.246h-5.89v-8.245h-4.711v8.245h-5.89l8.245 8.246z" fill="#4788c7"/></svg>