<svg data-name="Layer 1" xmlns="http://www.w3.org/2000/svg" viewBox="0 0 72 72"><path data-name="&lt;Контур&gt;" d="M30.763 54.285c-1.361-.483-2.333 1.094-3.167.798s-.154-2.938-1.225-3.318c0 0-1.479 4.28-4.076 3.359-1.244-.442-1.854-2.9-.743-6.03.547-1.54 1.407-2.385 2.19-2.107s.884 1.57.356 3.058c-.83 2.34-4.882 6.87-6.98 6.125-2.774-.985-2.577-6.28-1.541-9.198 1.085-3.058 2.45-3.936 3.222-3.662s1.29 1.78.192 4.874c-1.343 3.785-7.05 9.032-7.05 9.032" fill="none" stroke="#4788c7" stroke-linecap="round" stroke-miterlimit="10" stroke-width=".907"/><path fill="none" stroke="#4788c7" stroke-linecap="round" stroke-miterlimit="10" stroke-width="2" d="M3.166 63.333v-51h66v51z"/><path fill="none" stroke="#98ccfd" stroke-linecap="round" stroke-linejoin="round" stroke-width=".75" d="M50.451 39.05L45.35 57.774l18.766-4.945L50.451 39.05z"/><path fill="none" stroke="#dff0fe" stroke-miterlimit="10" stroke-width="2" d="M51.441 42.811l8.923 8.997-12.253 3.228 3.33-12.225z"/><path fill="#fff" stroke="#4788c7" stroke-linecap="round" stroke-linejoin="round" stroke-width="1.5" d="M25.75 25.3h18.658M14.408 29.825H55.75M14.408 34.35H35"/></svg>