<svg data-name="Layer 1" xmlns="http://www.w3.org/2000/svg" viewBox="0 0 72 72"><rect x="9.627" y="1.969" width="53.229" height="65.798" rx="3" ry="3" transform="rotate(-90 36.241 34.868)" fill="#dff0fe" stroke="#4788c7" stroke-linecap="round" stroke-linejoin="round" stroke-width="2"/><path d="M53.697 20.053H18.785a1.746 1.746 0 0 1-1.745-1.746 1.746 1.746 0 0 1 1.746-1.746h34.912a1.746 1.746 0 0 1 1.745 1.746 1.746 1.746 0 0 1-1.745 1.746zM54.57 25.29H17.912a.873.873 0 0 1-.872-.873.873.873 0 0 1 .872-.873H54.57a.873.873 0 0 1 .873.873.873.873 0 0 1-.873.873z" fill="#4788c7"/><path fill="#98ccfd" d="M35.73 44.491l5.748-5.748 8.367 8.367h-5.748v5.748l-8.367-8.367z"/><path d="M41.478 39.977l6.26 6.26h-4.514v4.514l-6.26-6.26 4.514-4.514m0-2.468l-6.982 6.982 10.473 10.474v-6.983h6.983L41.478 37.51z" fill="#4788c7"/><path fill="#98ccfd" d="M28.386 47.11h-5.748l8.366-8.367 5.749 5.748-8.367 8.367V47.11z"/><path d="M31.005 39.977l4.514 4.514-6.26 6.26v-4.514h-4.514l6.26-6.26m0-2.468L20.53 47.983h6.982v6.982L37.987 44.49l-6.983-6.982z" fill="#4788c7"/><circle cx="36.241" cy="39.254" r="6.11" fill="#b6dcfe"/><path d="M36.241 34.017a5.237 5.237 0 1 1-5.236 5.237 5.243 5.243 0 0 1 5.236-5.237m0-1.745a6.982 6.982 0 1 0 6.983 6.982 6.983 6.983 0 0 0-6.983-6.982z" fill="#4788c7"/></svg>