<?xml version="1.0" encoding="UTF-8"?>
<svg width="22px" height="22px" viewBox="0 0 22 22" version="1.1" xmlns="http://www.w3.org/2000/svg" xmlns:xlink="http://www.w3.org/1999/xlink">
    <!-- Generator: sketchtool 53 (72520) - https://sketchapp.com -->
    <title>EAA77106-6DD5-469C-9A7E-AD9F80EBA75E</title>
    <desc>Created with sketchtool.</desc>
    <g id="Page-1" stroke="none" stroke-width="1" fill="none" fill-rule="evenodd">
        <g id="Учет---Дело---Обложка" transform="translate(-510.000000, -383.000000)" fill="#CCCCCC">
            <g id="body" transform="translate(400.000000, 181.000000)">
                <g id="Group-11" transform="translate(100.000000, 38.000000)">
                    <g id="Group-10-Copy" transform="translate(1.000000, 155.000000)">
                        <g id="icon-/-time">
                            <path d="M28.1745931,27.3604367 C24.1095362,31.8751398 17.1542664,32.23965 12.6395633,28.1745931 C8.12486024,24.1095362 7.76035,17.1542664 11.8254069,12.6395633 C15.8904638,8.12486024 22.8457336,7.76035 27.3604367,11.8254069 C31.8751398,15.8904638 32.23965,22.8457336 28.1745931,27.3604367 Z M27.4314483,26.6913061 C31.1269545,22.5870305 30.7955816,16.264058 26.6913061,12.5685517 C22.5870305,8.87304545 16.264058,9.2044184 12.5685517,13.3086939 C8.87304545,17.4129695 9.2044184,23.735942 13.3086939,27.4314483 C17.4129695,31.1269545 23.735942,30.7955816 27.4314483,26.6913061 Z M18.8951003,18.3323275 C19.3471716,18.0323544 19.8980111,17.9337536 20.4160809,18.0434188 L22.6025082,15.6151453 C22.9720588,15.2047177 23.6043561,15.1715804 24.0147836,15.541131 C24.4252112,15.9106817 24.4583485,16.5429789 24.0887979,16.9534065 L21.9023705,19.38168 C22.1152318,20.0386737 21.9816352,20.7881242 21.4862897,21.3382612 C20.7471884,22.1591163 19.4825939,22.2253909 18.6617388,21.4862897 C17.9691875,20.8627136 17.8137626,19.8650804 18.2259697,19.0754723 L13.3487037,14.6839623 C13.1434899,14.4991869 13.1269213,14.1830383 13.3116966,13.9778245 C13.4964719,13.7726108 13.8126205,13.7560421 14.0178343,13.9408174 L18.8951003,18.3323275 L18.8951003,18.3323275 Z M20.7431448,20.6691306 C21.1126955,20.2587031 21.0795582,19.6264058 20.6691306,19.2568552 C20.2587031,18.8873045 19.6264058,18.9204418 19.2568552,19.3308694 C18.8873045,19.7412969 18.9204418,20.3735942 19.3308694,20.7431448 C19.7412969,21.1126955 20.3735942,21.0795582 20.7431448,20.6691306 Z" id="Shape"></path>
                        </g>
                    </g>
                </g>
            </g>
        </g>
    </g>
</svg>