<svg data-name="Layer 1" xmlns="http://www.w3.org/2000/svg" xmlns:xlink="http://www.w3.org/1999/xlink" viewBox="0 0 72 72"><defs><symbol id="a" data-name="circle/plus" viewBox="0 0 32.324 32.324"><path d="M16.162 30.324a14.162 14.162 0 1 1 14.161-14.162 14.178 14.178 0 0 1-14.161 14.162z" fill="#98ccfd"/><path d="M16.162 4A12.162 12.162 0 1 1 4 16.162 12.162 12.162 0 0 1 16.162 4m0-4a16.162 16.162 0 1 0 16.162 16.162A16.18 16.18 0 0 0 16.162 0z" fill="#fff"/><circle cx="16.162" cy="16.162" r="12.162" fill="none" stroke="#4788c7" stroke-miterlimit="10" stroke-width="1.5"/><path fill="#fff" d="M23.462 14.712h-5.8v-5.8h-2.9v5.8h-5.9v2.9h5.9v5.8h2.9v-5.8h5.8v-2.9z"/></symbol></defs><path d="M57.338 59.761a1.586 1.586 0 0 1-1.604-1.603v-2.665H16.266v2.665a1.587 1.587 0 0 1-1.603 1.603h-4.268a1.587 1.587 0 0 1-1.603-1.603V39.9a10.087 10.087 0 0 1 1.681-5.592l1.23-1.86h-4.6l.358-2.15a3.3 3.3 0 0 1 3.268-2.764h1.496a2.482 2.482 0 0 1 1.603.596l.113.098 3.8-9.49a4.989 4.989 0 0 1 4.657-3.153h27.204a4.989 4.989 0 0 1 4.658 3.152l3.8 9.49.112-.095a2.463 2.463 0 0 1 1.603-.599h1.497a3.3 3.3 0 0 1 3.266 2.764l.36 2.15h-4.6l1.23 1.862a10.125 10.125 0 0 1 1.681 5.59v18.258a1.586 1.586 0 0 1-1.604 1.603z" fill="#fff"/><path d="M49.603 16.336a4.256 4.256 0 0 1 3.96 2.68l4.191 10.466.907-.78a1.712 1.712 0 0 1 1.114-.417h1.497a2.552 2.552 0 0 1 2.527 2.137l.213 1.277h-5.108l.874 1.323 1.124 1.7a9.401 9.401 0 0 1 1.557 5.178v18.257a.839.839 0 0 1-.854.854h-4.267a.839.839 0 0 1-.854-.854v-3.414H15.516v3.414a.839.839 0 0 1-.854.854h-4.267a.839.839 0 0 1-.854-.854V39.901a9.366 9.366 0 0 1 1.557-5.178l2-3.024h-5.11l.213-1.277a2.552 2.552 0 0 1 2.527-2.137h1.497a1.72 1.72 0 0 1 1.117.417l.904.783 4.19-10.469a4.257 4.257 0 0 1 3.961-2.68h27.206m0-1.5H22.397a5.735 5.735 0 0 0-5.354 3.624l-3.455 8.632a3.19 3.19 0 0 0-1.363-.307h-1.497a4.048 4.048 0 0 0-4.006 3.39l-.214 1.276-.292 1.748h4.092l-.46.696A10.835 10.835 0 0 0 8.04 39.9v18.257a2.328 2.328 0 0 0 2.354 2.354h4.267a2.328 2.328 0 0 0 2.354-2.354v-1.914h37.968v1.914a2.328 2.328 0 0 0 2.354 2.354h4.267a2.328 2.328 0 0 0 2.354-2.354V39.901a10.876 10.876 0 0 0-1.805-6.004l-.462-.698h4.092l-.292-1.747-.214-1.277a4.048 4.048 0 0 0-4.006-3.39h-1.497a3.194 3.194 0 0 0-1.362.306l-3.457-8.632a5.734 5.734 0 0 0-5.353-3.623z" fill="#4788c7"/><path d="M17.223 37.673a2.56 2.56 0 1 0 2.56 2.56 2.548 2.548 0 0 0-2.56-2.56zM54.777 37.673a2.56 2.56 0 1 0 2.56 2.56 2.549 2.549 0 0 0-2.56-2.56z" fill="#fff"/><path d="M17.223 35.966a4.268 4.268 0 1 0 4.267 4.268 4.28 4.28 0 0 0-4.267-4.268zm0 6.828a2.56 2.56 0 1 1 2.56-2.56 2.549 2.549 0 0 1-2.56 2.56zM54.777 35.966a4.268 4.268 0 1 0 4.268 4.268 4.28 4.28 0 0 0-4.268-4.268zm0 6.828a2.56 2.56 0 1 1 2.56-2.56 2.549 2.549 0 0 1-2.56 2.56z" fill="#4788c7"/><path d="M43.735 50.944c2.28 0 5.136-3.67 5.136-7.15H23.129c0 3.48 2.856 7.15 5.136 7.15z" fill="#dff0fe" stroke="#4788c7" stroke-linecap="round" stroke-linejoin="round" stroke-width="1.5"/><use data-name="circle/plus" width="32.324" height="32.324" transform="translate(39.015 35.883)" xlink:href="#a"/><path d="M55.396 30.208l-3.69-10.45a2.253 2.253 0 0 0-2.104-1.422H22.398a2.254 2.254 0 0 0-2.104 1.423l-3.69 10.45z" fill="#b6dcfe"/></svg>