<svg data-name="Layer 1" xmlns="http://www.w3.org/2000/svg" viewBox="0 0 72 72"><path d="M14.502 62.45A16.514 16.514 0 0 1 30.98 46.673h11.473A16.513 16.513 0 0 1 58.931 62.45z" fill="#fff"/><path d="M42.453 47.39a15.797 15.797 0 0 1 15.712 14.343H15.268A15.797 15.797 0 0 1 30.98 47.39h11.473m0-1.434H30.98a17.211 17.211 0 0 0-17.21 17.21h45.894a17.211 17.211 0 0 0-17.21-17.21z" fill="#4788c7"/><path fill="#fff" d="M30.263 47.131v-7.629h12.908v7.629l-6.454 5.083-6.454-5.083z"/><path d="M42.453 40.22v6.564l-5.736 4.519-5.737-4.52V40.22h11.473m1.435-1.434H29.546v8.694l7.17 5.648 7.172-5.648v-8.694z" fill="#4788c7"/><path fill="#4788c7" d="M40.447 48.396l-3.73.984-3.728-.979 2.365 4.375-2.855 10.389h8.436l-2.856-10.389 2.368-4.38z"/><path d="M50.494 49.612a15.674 15.674 0 0 0-6.248-2.11l-4.66 14.23h13.978a39.877 39.877 0 0 1-3.07-12.12zM29.189 47.502a15.643 15.643 0 0 0-6.248 2.11 39.914 39.914 0 0 1-3.072 12.12h13.98z" fill="#98ccfd"/><path d="M47.2 33.167a3 3 0 0 1 0-6c2.49 0 3 .732 3 1.833 0 1.819-1.456 4.167-3 4.167z" fill="#dff0fe"/><path d="M47.2 27.667c2.5 0 2.5.739 2.5 1.333 0 1.515-1.293 3.667-2.5 3.667a2.5 2.5 0 0 1 0-5m0-1a3.5 3.5 0 0 0 0 7c1.933 0 3.5-2.734 3.5-4.667s-1.567-2.333-3.5-2.333z" fill="#4788c7"/><path d="M26.2 33.167c-1.545 0-3-2.348-3-4.167 0-1.101.51-1.833 3-1.833a3 3 0 0 1 0 6z" fill="#dff0fe"/><path d="M26.2 27.667a2.5 2.5 0 0 1 0 5c-1.207 0-2.5-2.152-2.5-3.667 0-.594 0-1.333 2.5-1.333m0-1c-1.933 0-3.5.4-3.5 2.333s1.567 4.667 3.5 4.667a3.5 3.5 0 0 0 0-7z" fill="#4788c7"/><path d="M36.7 45.167a4.44 4.44 0 0 1-3.316-1.483l-.084-.092-.118-.042a10.52 10.52 0 0 1-6.982-9.883v-14.62a4.747 4.747 0 0 1 4.742-4.741h11.516a4.747 4.747 0 0 1 4.742 4.742v14.619a10.52 10.52 0 0 1-6.982 9.883l-.118.042-.084.092a4.44 4.44 0 0 1-3.316 1.483z" fill="#fff"/><path d="M42.458 14.806a4.247 4.247 0 0 1 4.242 4.242v14.619a10.016 10.016 0 0 1-6.65 9.412l-.236.084-.168.185a3.949 3.949 0 0 1-5.892-.001l-.168-.185-.236-.084a10.014 10.014 0 0 1-6.65-9.411v-14.62a4.247 4.247 0 0 1 4.242-4.241h11.516m.06-1H30.88a5.297 5.297 0 0 0-5.297 5.296v14.772a11.11 11.11 0 0 0 7.391 10.463 5.001 5.001 0 0 0 7.45-.001 11.11 11.11 0 0 0 7.39-10.461V19.101a5.297 5.297 0 0 0-5.298-5.296z" fill="#4788c7"/><path d="M47.2 31.167v-6.69c0-5.667-4.289-7.265-4.332-7.28l-.323-.115-.225.26a13.341 13.341 0 0 1-9.692 3.826c-4.146 0-6.429 2.102-6.429 5.918v4.08h-.163c-.563-1.4-2.836-7.326-2.836-11.626 0-5.591 4.676-11.373 12.5-11.373a8.58 8.58 0 0 1 7.141 3.256l.15.198h.249c1.806 0 6.961 1.52 6.961 8.27 0 3.38-2.291 9.773-2.847 11.275H47.2z" fill="#b6dcfe"/><path d="M35.7 8.667a8.079 8.079 0 0 1 6.741 3.058l.3.397h.498c1.676 0 6.461 1.428 6.461 7.772 0 2.34-1.141 6.202-2 8.777v-4.194c0-6.015-4.473-7.683-4.663-7.751l-.648-.232-.448.523a12.741 12.741 0 0 1-9.312 3.65c-4.468 0-6.929 2.279-6.929 6.418v1.756a31.771 31.771 0 0 1-2-9.301c0-5.271 4.206-10.873 12-10.873m-.014-1.334c-8.443 0-13.18 6.216-13.18 12.038 0 5.114 3.041 12.296 3.041 12.296h1.014V27.02c0-4.323 2.932-5.493 6.011-5.493a13.887 13.887 0 0 0 10.211-4.056s4.056 1.45 4.056 6.905v7.29h1.014s3.041-7.917 3.041-11.938c0-7.08-5.431-8.894-7.565-8.894a9.18 9.18 0 0 0-7.643-3.502z" fill="#4788c7"/><path d="M34.2 29.167a3.625 3.625 0 0 1 5 0" fill="none" stroke="#4788c7" stroke-miterlimit="10"/><path d="M42.7 35.167a3.504 3.504 0 0 1-3.5-3.5v-3a.5.5 0 0 1 .5-.5h7a.5.5 0 0 1 .5.5v3a3.504 3.504 0 0 1-3.5 3.5z" fill="#dff0fe"/><path d="M46.7 28.667v3a3.004 3.004 0 0 1-3 3h-1a3.004 3.004 0 0 1-3-3v-3h7m0-1h-7a1 1 0 0 0-1 1v3a4 4 0 0 0 4 4h1a4 4 0 0 0 4-4v-3a1 1 0 0 0-1-1z" fill="#4788c7"/><path d="M29.7 35.167a3.504 3.504 0 0 1-3.5-3.5v-3a.5.5 0 0 1 .5-.5h7a.5.5 0 0 1 .5.5v3a3.504 3.504 0 0 1-3.5 3.5z" fill="#dff0fe"/><path d="M33.7 28.667v3a3.004 3.004 0 0 1-3 3h-1a3.004 3.004 0 0 1-3-3v-3h7m0-1h-7a1 1 0 0 0-1 1v3a4 4 0 0 0 4 4h1a4 4 0 0 0 4-4v-3a1 1 0 0 0-1-1zM5.613 39.398L9.43 22.31h2.04l3.815 17.088h-2.447l-.72-3.672H8.78l-.72 3.672zm6.048-5.976l-1.2-6.192h-.048l-1.2 6.192zM58.647 39.398v-2.16l4.607-12.624h-4.368V22.31h7.032v1.943l-4.704 12.841h4.704v2.304z" fill="#4788c7"/></svg>