<svg data-name="Layer 1" xmlns="http://www.w3.org/2000/svg" viewBox="0 0 72 72"><path fill="#4788c7" d="M25.14 73.298V58.614l11.421 7.342-11.421 7.342z"/><path d="M9.99 51.81c0-2.168 1.867-4.167 5-5.803a16.908 16.908 0 0 1 1.038-3.025C9.623 45.418 5.563 48.96 5.563 52.918c0 6.36 10.432 11.667 24.358 12.973v-4.442C18.464 60.34 9.99 56.452 9.99 51.81z" fill="#4788c7"/><path d="M17.523 53.811a13.639 13.639 0 0 1 13.59-12.713H42.01A13.639 13.639 0 0 1 55.6 53.811z" fill="#b6dcfe"/><path d="M42.01 42.006a12.734 12.734 0 0 1 12.584 10.897H18.529a12.732 12.732 0 0 1 12.584-10.897H42.01m0-1.816H31.113a14.53 14.53 0 0 0-14.529 14.53h39.955A14.53 14.53 0 0 0 42.01 40.19z" fill="#4788c7"/><path d="M36.561 44.73c-4.845 0-6.14-2.655-6.356-3.205v-6.32h12.713v6.32c-.22.558-1.513 3.206-6.357 3.206z" fill="#fff"/><path d="M42.01 36.113v5.218c-.303.616-1.547 2.492-5.448 2.492-3.934 0-5.165-1.906-5.449-2.485v-5.227H42.01m1.816-1.814h-14.53v7.38s1.14 3.962 7.265 3.962 7.265-3.961 7.265-3.961v-7.381z" fill="#4788c7"/><path d="M45.642 28.202a2.724 2.724 0 0 1 0-5.449c2.515 0 2.724.716 2.724 1.513 0 1.647-1.373 3.936-2.724 3.936zm-18.161 0c-1.351 0-2.724-2.289-2.724-3.936 0-.797.208-1.513 2.724-1.513a2.724 2.724 0 0 1 0 5.449z" fill="#fff"/><path d="M45.642 23.661c1.498 0 1.769.282 1.77.284a.797.797 0 0 1 .046.321c0 1.308-1.142 3.028-1.816 3.028a1.816 1.816 0 0 1 0-3.633m-18.161 0a1.816 1.816 0 1 1 0 3.632c-.674 0-1.816-1.72-1.816-3.027a.835.835 0 0 1 .043-.32c.004-.004.275-.285 1.773-.285m18.161-1.816a3.632 3.632 0 0 0 0 7.265c2.007 0 3.632-2.837 3.632-4.844s-1.625-2.42-3.632-2.42zm-18.161 0c-2.007 0-3.632.416-3.632 2.421s1.625 4.844 3.632 4.844a3.632 3.632 0 0 0 0-7.264z" fill="#4788c7"/><path d="M36.561 39.282a2.473 2.473 0 0 1-1.896-.904l-.19-.229-.29-.073a9.957 9.957 0 0 1-7.61-9.69v-9.548a4.29 4.29 0 0 1 4.283-4.284h11.408a4.29 4.29 0 0 1 4.284 4.284v9.547a9.957 9.957 0 0 1-7.61 9.691l-.29.073-.191.229a2.48 2.48 0 0 1-1.898.904z" fill="#fff"/><path d="M42.266 15.462a3.38 3.38 0 0 1 3.376 3.378v9.546a9.05 9.05 0 0 1-6.92 8.808l-.58.141-.384.46a1.53 1.53 0 0 1-2.395.002l-.383-.46-.582-.14a9.053 9.053 0 0 1-6.917-8.81v-9.549a3.382 3.382 0 0 1 3.376-3.378h11.409m0-1.814H30.859a5.193 5.193 0 0 0-5.194 5.192v9.547a10.892 10.892 0 0 0 8.303 10.574 3.347 3.347 0 0 0 5.187 0 10.892 10.892 0 0 0 8.303-10.573v-9.548a5.192 5.192 0 0 0-5.192-5.192z" fill="#4788c7"/><path d="M46.55 28.386V25.66a9.589 9.589 0 0 0-4.146-7.638l-.603-.387-.518.494c-.023.022-2.744 2.502-8.468 2.502-3.108 0-6.242 1.862-6.242 6.02v1.733h-.217a45.178 45.178 0 0 1-1.6-9.989c0-4.963 3.85-9.988 11.211-9.988a5.378 5.378 0 0 1 5.196 3.053l.227.573.62.006a6.523 6.523 0 0 1 6.356 6.48 47.764 47.764 0 0 1-1.607 9.865z" fill="#b6dcfe"/><path d="M35.968 9.316a4.469 4.469 0 0 1 4.345 2.463l.446 1.17h1.251a5.622 5.622 0 0 1 5.448 5.571 27.457 27.457 0 0 1-.43 4.286 10.973 10.973 0 0 0-4.13-5.546l-1.191-.743-1.034.942c-.101.093-2.546 2.267-7.856 2.267a6.828 6.828 0 0 0-6.575 4.003 30.865 30.865 0 0 1-.577-5.332c0-4.514 3.54-9.081 10.303-9.081m0-1.816c-7.66 0-12.12 5.216-12.12 10.896a48.35 48.35 0 0 0 1.817 10.897h1.816v-2.638c0-3.507 2.54-5.115 5.334-5.115 6.217 0 9.097-2.755 9.097-2.755a8.737 8.737 0 0 1 3.73 6.876v3.632h1.816s1.816-6.543 1.816-10.773a7.437 7.437 0 0 0-7.264-7.388A6.288 6.288 0 0 0 35.968 7.5zM57.083 42.978a16.803 16.803 0 0 1 1.046 3.026c3.136 1.637 5.004 3.637 5.004 5.806 0 4.873-9.347 8.913-21.677 9.776v4.427c14.787-1.009 26.105-6.476 26.105-13.097 0-3.958-4.066-7.504-10.478-9.938z" fill="#4788c7"/></svg>