<svg data-name="Layer 1" xmlns="http://www.w3.org/2000/svg" viewBox="0 0 72 72"><g opacity=".4"><path fill="none" stroke="#4788c7" stroke-linecap="round" stroke-miterlimit="10" stroke-width="1.308" d="M31.473 10.681V6.757"/><path fill="#b6dcfe" d="M27.55 9.373h7.846v2.615H27.55z"/><path d="M34.742 10.027v1.307h-6.538v-1.307h6.538m1.308-1.308h-9.154v3.923h9.154V8.72z" fill="#4788c7"/><path fill="#b6dcfe" d="M21.093 55.144l5.076-43.156h10.608l5.077 43.156H21.093z"/><path d="M36.195 12.642L41.12 54.49h-19.29l4.923-41.848h9.443m1.163-1.308h-11.77l-5.231 44.463h22.232l-5.231-44.463z" fill="#4788c7"/><path fill="#dff0fe" d="M30.11 55.144l-3.808-43.156h10.342l-3.808 43.156H30.11z"/><path d="M35.93 12.642L32.237 54.49h-1.529l-3.692-41.848h8.914m1.428-1.308h-11.77l3.923 44.463h3.923l3.924-44.463z" fill="#4788c7"/><path fill="#dff0fe" d="M7.934 21.142h13.077v23.539H7.934z"/><path d="M20.357 21.796v22.232H8.587V21.796h11.77m1.308-1.308H7.28v24.848h14.385V20.487z" fill="#4788c7"/><path fill="#dff0fe" d="M6.626 44.682h15.693v10.462H6.626z"/><path d="M21.665 45.336v9.154H7.28v-9.154h14.385m1.308-1.308h-17v11.77h17v-11.77z" fill="#4788c7"/><path fill="#dff0fe" d="M10.549 15.911h7.846v5.231h-7.846z"/><path d="M17.742 16.565v3.923h-6.539v-3.923h6.539m1.308-1.307H9.895v6.538h9.155v-6.538z" fill="#4788c7"/><path fill="#dff0fe" d="M11.857 10.681h5.231v5.231h-5.231z"/><path d="M16.434 11.334v3.924h-3.923v-3.924h3.923m1.308-1.307h-6.539v6.538h6.539v-6.538z" fill="#4788c7"/><path fill="none" stroke="#4788c7" stroke-linecap="round" stroke-miterlimit="10" stroke-width="1.308" d="M14.472 10.681V6.757"/><path fill="#98ccfd" d="M12.511 23.104h1.308v1.308h-1.308zM15.126 23.104h1.308v1.308h-1.308zM12.511 17.873h1.308v1.308h-1.308zM15.126 17.873h1.308v1.308h-1.308zM13.819 12.642h1.308v1.308h-1.308zM17.742 23.104h1.308v1.308h-1.308zM9.895 23.104h1.308v1.308H9.895zM12.511 25.72h1.308v1.308h-1.308zM15.126 25.72h1.308v1.308h-1.308zM17.742 25.72h1.308v1.308h-1.308zM9.895 25.72h1.308v1.308H9.895zM12.511 28.335h1.308v1.308h-1.308zM15.126 28.335h1.308v1.308h-1.308zM17.742 28.335h1.308v1.308h-1.308zM9.895 28.335h1.308v1.308H9.895zM12.511 30.95h1.308v1.308h-1.308zM15.126 30.95h1.308v1.308h-1.308zM17.742 30.95h1.308v1.308h-1.308zM9.895 30.95h1.308v1.308H9.895zM12.511 33.566h1.308v1.308h-1.308zM15.126 33.566h1.308v1.308h-1.308zM17.742 33.566h1.308v1.308h-1.308zM9.895 33.566h1.308v1.308H9.895zM12.511 36.181h1.308v1.308h-1.308zM15.126 36.181h1.308v1.308h-1.308zM17.742 36.181h1.308v1.308h-1.308zM9.895 36.181h1.308v1.308H9.895zM12.511 38.797h1.308v1.308h-1.308zM15.126 38.797h1.308v1.308h-1.308zM17.742 38.797h1.308v1.308h-1.308zM9.895 38.797h1.308v1.308H9.895zM12.511 41.412h1.308v1.308h-1.308zM15.126 41.412h1.308v1.308h-1.308zM17.742 41.412h1.308v1.308h-1.308zM9.895 41.412h1.308v1.308H9.895zM12.511 46.643h1.308v1.308h-1.308zM15.126 46.643h1.308v1.308h-1.308zM17.742 46.643h2.615v1.308h-2.615zM8.588 46.643h2.615v1.308H8.588zM12.511 49.259h1.308v1.308h-1.308zM15.126 49.259h1.308v1.308h-1.308zM17.742 49.259h2.615v1.308h-2.615zM8.588 49.259h2.615v1.308H8.588zM12.511 51.874h1.308v1.308h-1.308zM15.126 51.874h1.308v1.308h-1.308zM17.742 51.874h2.615v1.308h-2.615zM8.588 51.874h2.615v1.308H8.588z"/></g><path d="M27.04 63.662a14.507 14.507 0 0 1 14.474-13.859h10.08a14.506 14.506 0 0 1 14.474 13.859z" fill="#b6dcfe"/><path d="M51.593 50.433a13.877 13.877 0 0 1 13.802 12.599H27.712a13.877 13.877 0 0 1 13.802-12.599h10.08m0-1.26h-10.08a15.12 15.12 0 0 0-15.118 15.119h40.316a15.12 15.12 0 0 0-15.119-15.119z" fill="#4788c7"/><path d="M46.554 53.288l-5.924 3.725-1.974-6.91a14.231 14.231 0 0 1 2.859-.3h10.078a14.337 14.337 0 0 1 2.86.299l-1.974 6.91z" fill="#b6dcfe"/><path d="M51.593 50.433a13.3 13.3 0 0 1 2.063.165l-1.553 5.435-4.878-3.068-.671-.422-.67.422-4.879 3.068-1.552-5.435a13.271 13.271 0 0 1 2.061-.165h10.08m0-1.26h-10.08a15.136 15.136 0 0 0-3.647.461l2.387 8.358 6.3-3.96 6.3 3.96 2.387-8.358a15.135 15.135 0 0 0-3.648-.46z" fill="#4788c7"/><path fill="#fff" d="M40.884 50.205v-6.701h11.339v6.701l-5.669 4.466-5.67-4.466z"/><path d="M51.593 44.134V49.9l-5.04 3.97-5.039-3.97v-5.766h10.08m1.26-1.26h-12.6v7.637l6.3 4.961 6.3-4.96v-7.638z" fill="#4788c7"/><path fill="#4788c7" d="M49.831 52.473l-3.277.864-3.275-.859 2.015 4.254-2.52 7.56h7.559l-2.519-7.56 2.017-4.259z"/><path d="M55.553 39.364a2.97 2.97 0 1 1 0-5.94c2.473 0 2.97.679 2.97 1.77 0 1.782-1.468 4.17-2.97 4.17zm-17.998 0c-1.502 0-2.97-2.387-2.97-4.17 0-1.092.496-1.77 2.97-1.77a2.97 2.97 0 0 1 0 5.94z" fill="#b6dcfe"/><path d="M55.553 34.055c2.34 0 2.34.606 2.34 1.14 0 1.555-1.312 3.54-2.34 3.54a2.34 2.34 0 0 1 0-4.68m-17.998 0a2.34 2.34 0 1 1 0 4.679c-1.029 0-2.34-1.984-2.34-3.54 0-.533 0-1.139 2.34-1.139m17.998-1.26a3.6 3.6 0 1 0 0 7.199c1.988 0 3.6-2.812 3.6-4.8s-1.612-2.399-3.6-2.399zm-17.998 0c-1.989 0-3.6.412-3.6 2.4s1.611 4.8 3.6 4.8a3.6 3.6 0 0 0 0-7.2z" fill="#4788c7"/><path d="M46.554 48.543a3.099 3.099 0 0 1-2.068-.793l-.113-.101-.147-.038a9.43 9.43 0 0 1-7.121-9.147V26.75a4.178 4.178 0 0 1 4.174-4.174H51.83a4.178 4.178 0 0 1 4.174 4.174v11.714a9.43 9.43 0 0 1-7.12 9.147l-.148.038-.114.1a3.104 3.104 0 0 1-2.068.794z" fill="#fff"/><path d="M51.829 23.206a3.548 3.548 0 0 1 3.544 3.544v11.714a8.803 8.803 0 0 1-6.646 8.537l-.293.075-.229.2a2.458 2.458 0 0 1-3.303 0l-.228-.2-.293-.075a8.804 8.804 0 0 1-6.646-8.537V26.75a3.548 3.548 0 0 1 3.544-3.544h10.55m0-1.26H41.277a4.803 4.803 0 0 0-4.802 4.804v11.714a10.073 10.073 0 0 0 7.596 9.758 3.717 3.717 0 0 0 4.966 0 10.073 10.073 0 0 0 7.596-9.758V26.75a4.804 4.804 0 0 0-4.804-4.804z" fill="#4788c7"/><path d="M56.003 37.205v-4.41a8.94 8.94 0 0 0-3.985-7.135l-.502-.315-.346.483a10.17 10.17 0 0 1-8.207 3.637c-1.449 0-5.858 0-5.858 4.59v3.15h-.226c-.55-1.237-2.294-5.458-2.294-9.056 0-6.64 4.557-11.102 11.339-11.102 4.836 0 6.29 3.257 6.35 3.395l.164.382.415.002c2.616 0 5.67 1.82 5.67 6.949 0 3.304-1.773 8.054-2.315 9.43z" fill="#b6dcfe"/><path d="M45.924 17.677c4.388 0 5.717 2.894 5.766 3.004l.324.775h.84c2.323 0 5.038 1.654 5.038 6.318a23.147 23.147 0 0 1-1.26 6.354v-1.333a9.61 9.61 0 0 0-4.28-7.669l-1.009-.634-.689.973a9.613 9.613 0 0 1-7.691 3.369c-4.305.001-6.489 1.757-6.489 5.22v.396a20.523 20.523 0 0 1-1.26-6.303c0-6.263 4.304-10.47 10.71-10.47m0-1.26c-7.332 0-11.97 5.015-11.97 11.73 0 4.448 2.52 9.687 2.52 9.687h1.26v-3.78c0-3.361 2.55-3.96 5.229-3.96a10.871 10.871 0 0 0 8.72-3.902 8.376 8.376 0 0 1 3.69 6.602v5.04h1.26s2.52-6.008 2.52-10.06c0-5.692-3.625-7.579-6.3-7.579 0 0-1.578-3.78-6.929-3.78z" fill="#4788c7"/></svg>