<svg data-name="Layer 1" xmlns="http://www.w3.org/2000/svg" viewBox="0 0 72 72"><path d="M14.253 62.21a16.287 16.287 0 0 1 16.25-15.56H41.82a16.286 16.286 0 0 1 16.25 15.56z" fill="#b6dcfe"/><path d="M41.82 47.358a15.58 15.58 0 0 1 15.495 14.144H15.008a15.58 15.58 0 0 1 15.496-14.145H41.82m0-1.414H30.504A16.974 16.974 0 0 0 13.53 62.917h45.263A16.974 16.974 0 0 0 41.82 45.943z" fill="#4788c7"/><path d="M36.162 50.563l-6.651 4.182-2.217-7.758a15.972 15.972 0 0 1 3.21-.337H41.82a16.1 16.1 0 0 1 3.21.335l-2.216 7.759z" fill="#b6dcfe"/><path d="M41.82 47.358a14.94 14.94 0 0 1 2.316.185l-1.743 6.102-5.477-3.444-.754-.474-.752.474-5.477 3.444-1.743-6.102a14.907 14.907 0 0 1 2.314-.185H41.82m0-1.415H30.504a16.995 16.995 0 0 0-4.095.518l2.68 9.383 7.072-4.447 7.072 4.447 2.681-9.383a16.997 16.997 0 0 0-4.094-.518z" fill="#4788c7"/><path fill="#fff" d="M29.796 47.101v-7.523h12.731v7.523l-6.365 5.015-6.366-5.015z"/><path d="M41.82 40.285v6.474l-5.658 4.457-5.658-4.457v-6.474H41.82m1.414-1.414H29.09v8.574l7.073 5.57 7.072-5.57v-8.574z" fill="#4788c7"/><path fill="#4788c7" d="M39.841 49.647l-3.679.971-3.677-.965 2.262 4.777-2.829 8.487h8.487l-2.829-8.487 2.265-4.783z"/><path d="M58.21 71.268c-.978-.426-9.548-4.593-9.63-19.61l-.005-.74 10.034-3.134 10.034 3.135-.004.74c-.082 14.979-8.651 19.178-9.628 19.607l-.4.177z" fill="#dff0fe"/><path d="M58.61 48.832l9.03 2.821c-.08 14.305-8.037 18.261-9.032 18.698-.995-.433-8.95-4.355-9.03-18.698l9.03-2.821m0-2.096l-.596.187-9.03 2.821-1.412.441.008 1.48c.036 6.46 1.574 11.762 4.572 15.754a14.948 14.948 0 0 0 5.66 4.766l.802.349.8-.352c1.038-.456 10.141-4.903 10.227-20.518l.008-1.479-1.411-.44-9.03-2.822-.597-.187z" fill="#fff"/><path d="M58.609 70.35c-.995-.432-8.951-4.354-9.03-18.697l9.03-2.821 9.03 2.821c-.078 14.305-8.035 18.26-9.03 18.698z" fill="none" stroke="#4788c7" stroke-miterlimit="10"/><path fill="none" stroke="#4788c7" stroke-miterlimit="10" stroke-width="1.748" d="M54.261 58.562l3.406 3.406 6.477-6.599"/><path d="M46.818 33.045a3.64 3.64 0 0 1-3.424-3.813 3.638 3.638 0 0 1 3.424-3.814c2.463 0 3.423.668 3.423 2.384 0 2.289-1.66 5.243-3.423 5.243zm-20.802 0c-1.764 0-3.424-2.954-3.424-5.244 0-1.715.96-2.383 3.424-2.383a3.64 3.64 0 0 1 3.424 3.814 3.64 3.64 0 0 1-3.424 3.813z" fill="#dff0fe"/><path d="M46.818 25.895c2.477 0 2.947.67 2.947 1.907 0 1.993-1.486 4.767-2.947 4.767a3.164 3.164 0 0 1-2.947-3.337 3.164 3.164 0 0 1 2.947-3.337m-20.802 0a3.164 3.164 0 0 1 2.947 3.337 3.164 3.164 0 0 1-2.947 3.337c-1.462 0-2.947-2.774-2.947-4.768 0-1.236.47-1.906 2.947-1.906m20.802-.954a4.11 4.11 0 0 0-3.9 4.29 4.11 4.11 0 0 0 3.9 4.29c2.153 0 3.9-3.351 3.9-5.72s-1.747-2.86-3.9-2.86zm-20.802 0c-2.154 0-3.9.491-3.9 2.86s1.746 5.72 3.9 5.72a4.11 4.11 0 0 0 3.9-4.29 4.11 4.11 0 0 0-3.9-4.29z" fill="#4788c7"/><path d="M36.417 45.44a3.294 3.294 0 0 1-2.48-1.124l-.1-.114-.147-.034a12.117 12.117 0 0 1-9.378-12.244l.387-10.47c.235-6.332 5.381-10.391 11.718-10.391s11.483 4.06 11.717 10.392l.387 10.47a12.115 12.115 0 0 1-9.378 12.243l-.146.035-.101.113a3.294 3.294 0 0 1-2.48 1.124z" fill="#fff"/><path d="M36.417 11.54c6.079 0 11.016 3.859 11.24 9.933l.389 10.47a11.643 11.643 0 0 1-9.01 11.762l-.295.068-.202.226a2.818 2.818 0 0 1-4.246 0l-.202-.226-.295-.068a11.641 11.641 0 0 1-9.01-11.762l.39-10.47c.224-6.075 5.162-9.933 11.24-9.933m0-1.306c-6.69 0-12.183 4.392-12.431 11.08l-.396 10.673a12.834 12.834 0 0 0 9.938 12.974 3.846 3.846 0 0 0 5.78 0 12.834 12.834 0 0 0 9.937-12.974l-.395-10.674c-.248-6.687-5.741-11.08-12.432-11.08z" fill="#4788c7"/><path d="M48.406 28.619c-.045-1.112-.164-3.92-.283-5.093a6.945 6.945 0 0 0-3.521-5.096l-1.308-6.285c2.123.925 6.947 3.866 6.947 8.982 0 1.656-1.334 6.215-1.719 7.491z" fill="#b6dcfe"/><path d="M43.955 12.99c2.238 1.18 5.81 3.86 5.81 8.138a26.38 26.38 0 0 1-.999 4.904c-.05-.982-.11-1.968-.168-2.553a7.373 7.373 0 0 0-3.572-5.35l-1.07-5.14m-1.305-1.59l1.529 7.345a6.618 6.618 0 0 1 3.469 4.83c.146 1.448.298 5.521.298 5.521h.929s1.842-5.948 1.842-7.968c0-6.088-6.377-9.266-8.067-9.728z" fill="#4788c7"/><path d="M24.311 28.619c-.385-1.277-1.719-5.835-1.719-7.491 0-5.117 4.824-8.058 6.948-8.983l-1.308 6.285a6.949 6.949 0 0 0-3.521 5.096c-.12 1.172-.239 3.98-.284 5.092z" fill="#b6dcfe"/><path d="M28.878 12.99l-1.07 5.14a7.369 7.369 0 0 0-3.572 5.35c-.06.585-.119 1.57-.17 2.552a26.386 26.386 0 0 1-.997-4.904c0-4.277 3.571-6.958 5.809-8.138m1.304-1.59c-1.691.462-8.067 3.64-8.067 9.728 0 2.02 1.842 7.968 1.842 7.968h.929s.153-4.073.298-5.521a6.62 6.62 0 0 1 3.469-4.83l1.53-7.345zM46.428 28.255h-7.151a.95.95 0 0 0-.863.56 3.823 3.823 0 0 0-3.995 0 .95.95 0 0 0-.863-.56h-7.15a.477.477 0 1 0 0 .953h.476v3.814a1.906 1.906 0 0 0 1.907 1.907h3.814a1.906 1.906 0 0 0 1.907-1.907V29.91a3.149 3.149 0 0 1 1.907-.695 3.186 3.186 0 0 1 1.907.697v3.111a1.906 1.906 0 0 0 1.906 1.907h3.814a1.906 1.906 0 0 0 1.907-1.907v-3.814h.476a.477.477 0 1 0 0-.953zm-12.872 4.767a.955.955 0 0 1-.953.954h-3.814a.955.955 0 0 1-.953-.954v-3.814h5.72zm11.441 0a.955.955 0 0 1-.953.954H40.23a.955.955 0 0 1-.953-.954v-3.814h5.72zM27.36 26.348h5.72a.477.477 0 1 0 0-.953h-5.72a.477.477 0 1 0 0 .953zM39.754 26.348h5.72a.477.477 0 1 0 0-.953h-5.72a.477.477 0 0 0 0 .953z" fill="#4788c7"/></svg>