<svg data-name="Layer 1" xmlns="http://www.w3.org/2000/svg" viewBox="0 0 72 72"><path d="M13.918 62.137a16.728 16.728 0 0 1 16.69-15.98H42.23a16.727 16.727 0 0 1 16.69 15.98z" fill="#b6dcfe"/><path d="M42.23 46.883A16.002 16.002 0 0 1 58.145 61.41H14.694a16.001 16.001 0 0 1 15.914-14.527H42.23m0-1.453H30.608a17.434 17.434 0 0 0-17.433 17.433h46.488A17.434 17.434 0 0 0 42.23 45.43z" fill="#4788c7"/><path d="M36.42 50.175l-6.831 4.296-2.277-7.968a16.406 16.406 0 0 1 3.296-.346H42.23a16.537 16.537 0 0 1 3.298.344l-2.277 7.968z" fill="#b6dcfe"/><path d="M42.23 46.883a15.346 15.346 0 0 1 2.378.19l-1.79 6.267-5.625-3.537-.774-.487-.773.487-5.625 3.537-1.79-6.267a15.313 15.313 0 0 1 2.377-.19H42.23m0-1.453H30.608a17.45 17.45 0 0 0-4.205.532l2.753 9.638 7.263-4.567 7.264 4.567 2.753-9.637a17.451 17.451 0 0 0-4.206-.533z" fill="#4788c7"/><path fill="#fff" d="M29.882 46.62v-7.727h13.075v7.727l-6.538 5.15-6.537-5.15z"/><path d="M42.23 39.62v6.649l-5.811 4.577-5.811-4.577v-6.65H42.23m1.453-1.452H29.156v8.806l7.263 5.721 7.264-5.72v-8.807z" fill="#4788c7"/><path fill="#4788c7" d="M40.198 49.235l-3.779.997-3.775-.991 2.323 4.906-2.906 8.716h8.717l-2.906-8.716 2.326-4.912zM45.26 26.04c2.734 0 4.06 1.705 4.06 2.602a4.056 4.056 0 0 1-4.06 3.525 3.065 3.065 0 0 1 0-6.127m-18.586 0a3.065 3.065 0 0 1 0 6.127c-2.218.023-3.757-.733-4.162-3.325-.138-.887 1.427-2.802 4.162-2.802m18.585-1.021a4.035 4.035 0 0 0-3.982 4.085c0 2.255 1.554 5.68 3.723 5.313 2.927-.494 5.324-3.954 5.342-5.975.02-2.255-2.883-3.423-5.083-3.423zm-18.585 0c-2.2 0-5.083 1.168-5.083 3.423s2.37 6.392 5.326 6.392c2.2 0 3.74-3.475 3.74-5.73a4.035 4.035 0 0 0-3.983-4.085z"/><path d="M35.967 44.91a4.531 4.531 0 0 1-3.385-1.514l-.087-.095-.12-.043c-4.266-1.518-7.131-6.574-7.131-11.092V19.893a4.848 4.848 0 0 1 4.843-4.843h11.76a4.848 4.848 0 0 1 4.842 4.843v12.274c0 4.517-2.865 9.573-7.13 11.091l-.12.043-.087.095a4.531 4.531 0 0 1-3.385 1.514z" fill="#fff"/><path d="M41.775 15.561a4.284 4.284 0 0 1 4.28 4.279v12.125c0 4.25-2.696 9.065-6.709 10.494l-.238.085-.17.186a3.984 3.984 0 0 1-5.943 0l-.17-.186-.238-.085c-4.012-1.43-6.708-6.245-6.708-10.495V19.84a4.284 4.284 0 0 1 4.28-4.28h11.616m.072-1.02h-11.76a5.353 5.353 0 0 0-5.353 5.353v12.274c0 4.88 3.12 10.024 7.47 11.573a5.053 5.053 0 0 0 7.526 0c4.35-1.55 7.47-6.692 7.47-11.573V19.893a5.353 5.353 0 0 0-5.353-5.353z" fill="#4788c7"/><path d="M46.178 22.976v6.127H47.2a14.822 14.822 0 0 0 1.021-6.127zM25.755 22.976v6.127h-1.021a14.822 14.822 0 0 1-1.022-6.127z" fill="#4788c7"/><ellipse cx="35.967" cy="22.976" rx="11.744" ry="3.574" fill="#98ccfd"/><path d="M35.967 19.913c7.267 0 11.233 2.024 11.233 3.063s-3.966 3.064-11.233 3.064-11.233-2.024-11.233-3.064 3.965-3.063 11.233-3.063m0 1.634c-6.768 0-12.254-.826-12.254 1.43s5.486 4.085 12.254 4.085 12.254-1.83 12.254-4.085-5.487-1.43-12.254-1.43z" fill="#4788c7"/><path d="M23.795 20.015a8.655 8.655 0 0 1-3.236-2.01 5.15 5.15 0 0 1-1.442-3.48c0-4.711 12.163-5.744 16.85-5.744s16.85 1.033 16.85 5.745a5.153 5.153 0 0 1-1.441 3.479 8.67 8.67 0 0 1-3.236 2.01z" fill="#98ccfd"/><path d="M35.967 9.292c6.784 0 16.339 1.624 16.339 5.234a4.641 4.641 0 0 1-1.302 3.129 8.075 8.075 0 0 1-2.953 1.849H23.882a8.155 8.155 0 0 1-2.953-1.85 4.645 4.645 0 0 1-1.301-3.128c0-3.61 9.554-5.234 16.339-5.234m0-1.02c-4.822 0-17.36 1.02-17.36 6.254a5.642 5.642 0 0 0 1.58 3.83 9.167 9.167 0 0 0 3.526 2.17H48.22a9.167 9.167 0 0 0 3.526-2.17 5.642 5.642 0 0 0 1.58-3.83c0-5.234-12.538-6.255-17.36-6.255z" fill="#4788c7"/><path fill="#4788c7" d="M23.712 19.504H48.22v3.472H23.712z"/><path d="M35.967 12.25c2.632 0 4.765 1.228 4.765 2.046s-2.134 1.48-4.765 1.48-4.766-.662-4.766-1.48 2.134-2.046 4.766-2.046z" fill="#fff" stroke="#4788c7" stroke-miterlimit="10" stroke-width=".766"/><path fill="#4788c7" d="M46.488 44.973l11.142 5.091-.935 2.047-11.142-5.091zM27.63 47.02l-11.142 5.09-.935-2.046 11.142-5.091z"/></svg>