<svg data-name="Layer 1" xmlns="http://www.w3.org/2000/svg" viewBox="0 0 72 72"><path d="M53.574 43.323a19.497 19.497 0 0 0 .41-9.258M57.935 48.204a25.826 25.826 0 0 0 .575-19.184M62.09 52.878a32.09 32.09 0 0 0 .677-28.635" fill="none" stroke="#4788c7" stroke-linecap="round" stroke-miterlimit="10" stroke-width="1.432"/><path d="M14.95 62.3A16.485 16.485 0 0 1 31.4 46.552h11.454a16.484 16.484 0 0 1 16.45 15.75z" fill="#b6dcfe"/><path d="M42.854 47.267a15.77 15.77 0 0 1 15.685 14.318H15.715A15.77 15.77 0 0 1 31.4 47.267h11.454m0-1.432H31.4a17.182 17.182 0 0 0-17.182 17.182h45.817a17.182 17.182 0 0 0-17.181-17.181z" fill="#4788c7"/><path d="M37.127 50.847a7.495 7.495 0 0 1-6.443-3.676v-7.778H43.57v7.778a7.495 7.495 0 0 1-6.443 3.676z" fill="#fff"/><path d="M42.854 40.108v6.862a6.768 6.768 0 0 1-11.454 0v-6.861h11.454m1.432-1.432H29.968v8.679a8.195 8.195 0 0 0 14.318 0v-8.68z" fill="#4788c7"/><path d="M47.354 34.688a3.375 3.375 0 0 1 0-6.75c2.81 0 3.374.77 3.374 2.012 0 2.025-1.668 4.738-3.374 4.738zm-20.454 0c-1.707 0-3.375-2.713-3.375-4.74 0-1.24.565-2.011 3.375-2.011a3.375 3.375 0 0 1 0 6.75z" fill="#b6dcfe"/><path d="M47.354 28.654c2.659 0 2.659.689 2.659 1.296 0 1.767-1.49 4.023-2.66 4.023a2.66 2.66 0 0 1 0-5.319m-20.453 0a2.659 2.659 0 1 1 0 5.318c-1.169 0-2.66-2.255-2.66-4.022 0-.607 0-1.296 2.66-1.296m20.454-1.431a4.09 4.09 0 0 0 0 8.18c2.26 0 4.09-3.195 4.09-5.454s-1.83-2.726-4.09-2.726zm-20.454 0c-2.26 0-4.091.468-4.091 2.727s1.831 5.455 4.09 5.455a4.091 4.091 0 0 0 0-8.182z" fill="#4788c7"/><path d="M37.127 45.12a3.528 3.528 0 0 1-2.351-.902l-.13-.115-.166-.043a10.718 10.718 0 0 1-8.091-10.394V20.353a4.748 4.748 0 0 1 4.741-4.743h11.991a4.75 4.75 0 0 1 4.743 4.743v13.313a10.718 10.718 0 0 1-8.09 10.394l-.166.043-.13.115a3.528 3.528 0 0 1-2.351.902z" fill="#fff"/><path d="M43.121 16.325a4.032 4.032 0 0 1 4.028 4.028v13.313a10.005 10.005 0 0 1-7.553 9.701l-.333.085-.26.227a2.794 2.794 0 0 1-3.753 0l-.26-.227-.333-.085a10.005 10.005 0 0 1-7.553-9.701V20.353a4.032 4.032 0 0 1 4.028-4.028h11.99m0-1.431H31.13a5.459 5.459 0 0 0-5.458 5.459v13.313a11.448 11.448 0 0 0 8.632 11.089 4.224 4.224 0 0 0 5.644 0 11.448 11.448 0 0 0 8.632-11.09V20.354a5.46 5.46 0 0 0-5.459-5.46z" fill="#4788c7"/><path d="M47.865 32.234v-5.011a10.156 10.156 0 0 0-4.529-8.108l-.57-.358-.394.548a11.561 11.561 0 0 1-9.326 4.133c-1.647 0-6.658 0-6.658 5.216v3.58h-.256c-.623-1.406-2.607-6.203-2.607-10.292 0-7.547 5.178-12.617 12.886-12.617 5.496 0 7.147 3.702 7.214 3.86l.188.433.472.003c2.393 0 6.443 1.664 6.443 7.896 0 3.756-2.014 9.153-2.631 10.717z" fill="#b6dcfe"/><path d="M36.41 10.041c4.988 0 6.498 3.29 6.554 3.415l.368.88h.954c2.641 0 5.727 1.88 5.727 7.18a26.306 26.306 0 0 1-1.432 7.22v-1.513c0-5.597-4.665-8.59-4.864-8.716l-1.138-.704-.786 1.082a10.897 10.897 0 0 1-8.747 3.836c-4.892.002-7.374 1.997-7.374 5.933v.45a23.327 23.327 0 0 1-1.431-7.163c0-7.117 4.89-11.9 12.17-11.9m0-1.43c-8.332 0-13.602 5.7-13.602 13.33 0 5.056 2.863 11.01 2.863 11.01h1.432v-4.297c0-3.82 2.898-4.5 5.942-4.5a12.355 12.355 0 0 0 9.91-4.434s4.193 2.633 4.193 7.503v5.727h1.432s2.863-6.827 2.863-11.433c0-6.467-4.119-8.612-7.158-8.612 0 0-1.794-4.295-7.875-4.295z" fill="#4788c7"/></svg>