<svg data-name="Layer 1" xmlns="http://www.w3.org/2000/svg" viewBox="0 0 72 72"><path d="M14.255 62.448a16.469 16.469 0 0 1 16.533-15.454h11.59a16.347 16.347 0 0 1 16.533 15.454z" fill="#b6dcfe"/><path d="M42.379 47.712A15.709 15.709 0 0 1 58.103 61.64H15.063a15.709 15.709 0 0 1 15.724-13.927h11.59m0-1.527h-11.59a17.22 17.22 0 0 0-17.341 16.982H59.72a17.163 17.163 0 0 0-17.341-16.982z" fill="#4788c7"/><path d="M36.628 51.576a7.451 7.451 0 0 1-6.918-4.852v-8.446h13.927v8.446c-.36.809-2.247 4.852-7.009 4.852z" fill="#fff"/><path d="M42.738 39.087v7.547c-.45.899-2.156 4.223-6.2 4.223s-5.75-3.324-6.2-4.223v-7.547h12.4m1.617-1.528H28.901v9.345s1.977 5.48 7.727 5.48 7.727-5.48 7.727-5.48v-9.345z" fill="#4788c7"/><path d="M46.512 34.864a3.235 3.235 0 0 1 0-6.47c2.695 0 3.234.72 3.234 1.887 0 1.977-1.617 4.583-3.234 4.583zm-19.857 0c-1.617 0-3.235-2.606-3.235-4.493 0-1.168.54-1.887 3.235-1.887a3.221 3.221 0 0 1 3.235 3.235 3.146 3.146 0 0 1-3.235 3.145z" fill="#dff0fe"/><path d="M46.512 29.203c2.426 0 2.426.54 2.426 1.078 0 1.618-1.348 3.774-2.426 3.774a2.426 2.426 0 1 1 0-4.852m-19.857 0a2.426 2.426 0 0 1 0 4.852c-1.078 0-2.426-2.156-2.426-3.774 0-.449 0-1.078 2.426-1.078m19.857-1.527a3.953 3.953 0 0 0 0 7.907c2.156 0 3.953-3.055 3.953-5.301s-1.707-2.606-3.953-2.606zm-19.857 0c-2.156 0-3.953.45-3.953 2.606s1.797 5.3 3.953 5.3a3.989 3.989 0 0 0 3.953-3.953 3.93 3.93 0 0 0-3.953-3.953z" fill="#4788c7"/><path d="M36.628 45.466a3.638 3.638 0 0 1-2.426-.988l-.18-.09-.18-.09a10.082 10.082 0 0 1-7.278-9.614V22.105a4.41 4.41 0 0 1 4.403-4.403H42.29a4.41 4.41 0 0 1 4.403 4.403v12.58a9.921 9.921 0 0 1-7.278 9.613l-.18.09-.18.09a3.638 3.638 0 0 1-2.426.988z" fill="#fff"/><path d="M42.289 18.511a3.605 3.605 0 0 1 3.594 3.594v12.58a9.246 9.246 0 0 1-6.739 8.894l-.36.09-.27.27a2.836 2.836 0 0 1-3.773 0l-.27-.27-.36-.09a9.246 9.246 0 0 1-6.738-8.895V22.105a3.605 3.605 0 0 1 3.594-3.594h11.322m0-1.617H30.968a5.12 5.12 0 0 0-5.122 5.121v12.58a10.889 10.889 0 0 0 7.907 10.422 4.347 4.347 0 0 0 5.93 0 10.914 10.914 0 0 0 7.907-10.423V22.015a5.464 5.464 0 0 0-5.301-5.121z" fill="#4788c7"/><path d="M46.602 31.54v-5.392c0-5.39-3.415-6.828-3.594-6.918l-.45-.18-.359.45s-3.594 4.312-8.626 4.312h-2.426c-1.347 0-4.492 0-4.492 3.953v3.864h-.36a19.967 19.967 0 0 1-2.785-9.165c0-7.367 5.391-12.489 13.118-12.489a8.217 8.217 0 0 1 7.008 4.223l.18.36h.36c2.336.36 5.48 1.617 5.48 8.536a17.625 17.625 0 0 1-2.785 8.445z" fill="#b6dcfe"/><path d="M36.628 10.694c4.223 0 6.29 3.684 6.38 3.774l.359.719.809.09c2.246.359 4.852 1.527 4.852 7.727a15.633 15.633 0 0 1-1.528 6.02v-2.966c0-5.93-3.863-7.547-4.043-7.637l-1.168-.27-.719.899s-3.324 4.043-8.086 4.043h-2.427c-1.347 0-5.3 0-5.3 4.672v1.168a17.616 17.616 0 0 1-1.528-6.559c0-6.828 5.121-11.68 12.4-11.68m0-1.528c-8.267 0-13.928 5.66-13.928 13.208 0 5.032 3.055 9.884 3.055 9.884h1.528v-4.672c0-2.785 1.707-3.145 3.773-3.145.81 0 1.618.09 2.426.09 5.481 0 9.255-4.672 9.255-4.672s3.055 1.258 3.055 6.2v6.2h1.527s3.055-4.672 3.055-9.255c0-6.38-2.606-8.715-6.2-9.254a8.578 8.578 0 0 0-7.548-4.583z" fill="#4788c7"/><circle cx="58.05" cy="59.855" r="12.162" fill="#fff" stroke="#4788c7" stroke-miterlimit="10" stroke-width="1.5"/><path d="M57.911 69.429a9.441 9.441 0 0 1-.24-18.88l.251-.002a9.441 9.441 0 0 1 .24 18.879c-.083.002-.167.003-.25.003z" fill="#dff0fe"/><path d="M57.922 50.292v.51a9.186 9.186 0 0 1 .234 18.368 9.435 9.435 0 0 1-.244.004 9.186 9.186 0 0 1-.234-18.37 9.44 9.44 0 0 1 .244-.002v-.51m0-.75c-.092 0-.185 0-.277.004a10.446 10.446 0 0 0 .267 20.888c.092 0 .185 0 .276-.004a10.446 10.446 0 0 0-.266-20.888z" fill="#4788c7"/><path d="M63.111 65.383a7.533 7.533 0 0 0-10.389 0" fill="none" stroke="#4788c7" stroke-linecap="round" stroke-miterlimit="10"/><circle cx="61.489" cy="58.457" r="2.465" fill="#fff"/><path d="M61.49 56.344a2.113 2.113 0 1 1-2.114 2.113 2.115 2.115 0 0 1 2.113-2.113m0-.704a2.817 2.817 0 1 0 2.817 2.817 2.817 2.817 0 0 0-2.817-2.817z" fill="#4788c7"/><circle cx="61.489" cy="58.457" r=".88" fill="#4788c7"/><circle cx="54.345" cy="58.457" r="2.465" fill="#fff"/><path d="M54.345 56.344a2.113 2.113 0 1 1-2.113 2.113 2.115 2.115 0 0 1 2.113-2.113m0-.704a2.817 2.817 0 1 0 2.817 2.817 2.817 2.817 0 0 0-2.817-2.817z" fill="#4788c7"/><circle cx="54.345" cy="58.457" r=".88" fill="#4788c7"/></svg>