<svg data-name="Layer 1" xmlns="http://www.w3.org/2000/svg" viewBox="0 0 72 72"><g opacity=".4"><path d="M5.747 49.759c.41-6.45 6.248-11.582 13.368-11.582h9.41c7.12 0 12.96 5.132 13.368 11.582z" fill="#dff0fe"/><path d="M28.525 38.9c6.448 0 11.787 4.43 12.57 10.135H6.545c.782-5.706 6.121-10.134 12.57-10.134h9.41m0-1.448h-9.41C11.318 37.453 5 43.286 5 50.483h37.64c0-7.197-6.32-13.03-14.115-13.03z" fill="#4788c7"/><path d="M23.82 41.072a5.574 5.574 0 0 1-5.067-3.5v-6.16h10.134v6.16a5.574 5.574 0 0 1-5.067 3.5z" fill="#dff0fe"/><path d="M28.163 32.137v5.283a4.685 4.685 0 0 1-8.686 0v-5.283h8.686m1.448-1.448H18.029v7.02a6.386 6.386 0 0 0 5.791 4.087 6.386 6.386 0 0 0 5.79-4.087v-7.02z" fill="#4788c7"/><path d="M31.576 28.457a2.38 2.38 0 0 1 0-4.759c2.197 0 2.378.636 2.378 1.345 0 1.43-1.199 3.414-2.378 3.414zm-15.511 0c-1.18 0-2.379-1.985-2.379-3.412 0-.71.181-1.345 2.379-1.345a2.379 2.379 0 0 1 0 4.757z" fill="#98ccfd"/><path d="M31.576 24.424c1.654 0 1.654.315 1.654.62 0 1.188-1.026 2.69-1.654 2.69a1.655 1.655 0 0 1 0-3.31m-15.511 0a1.655 1.655 0 0 1 0 3.31c-.629 0-1.655-1.504-1.655-2.69 0-.305 0-.62 1.655-.62m15.51-1.448a3.103 3.103 0 0 0 0 6.205c1.715 0 3.103-2.423 3.103-4.136s-1.388-2.069-3.102-2.069zm-15.51 0c-1.714 0-3.103.355-3.103 2.069s1.389 4.136 3.103 4.136a3.103 3.103 0 0 0 0-6.205z" fill="#4788c7"/><path d="M23.82 36.73a2.674 2.674 0 0 1-1.969-.865l-.133-.143-.187-.055a8.01 8.01 0 0 1-5.673-7.624V17.947a3.42 3.42 0 0 1 3.415-3.415h9.093a3.42 3.42 0 0 1 3.415 3.415v10.096a8.013 8.013 0 0 1-5.672 7.625l-.187.055-.133.143a2.678 2.678 0 0 1-1.969.863z" fill="#dff0fe"/><path d="M28.367 15.255a2.695 2.695 0 0 1 2.692 2.693v10.095a7.284 7.284 0 0 1-5.157 6.932l-.373.113-.267.285a1.956 1.956 0 0 1-2.882-.002l-.267-.285-.373-.113a7.28 7.28 0 0 1-5.158-6.93V17.947a2.696 2.696 0 0 1 2.69-2.693h9.095m0-1.446h-9.093a4.14 4.14 0 0 0-4.14 4.139v10.096a8.686 8.686 0 0 0 6.19 8.317 3.4 3.4 0 0 0 4.994 0 8.686 8.686 0 0 0 6.189-8.317V17.947a4.139 4.139 0 0 0-4.14-4.14z" fill="#4788c7"/><path d="M31.783 25.148v-3.942c0-4.496-2.39-5.743-2.492-5.794l-.518-.26-.366.45c-.03.037-2.975 3.592-7.16 3.592-.345 0-.683-.011-1.008-.023-.32-.01-.629-.022-.923-.022-1.71 0-3.457.397-3.457 3.343v2.655h-.298a16.175 16.175 0 0 1-1.875-7.06c0-6.264 3.978-10.312 10.134-10.312a6.91 6.91 0 0 1 5.792 3.471l.173.33.367.053c2.522.36 3.802 2.717 3.802 7.004a14.413 14.413 0 0 1-1.863 6.514z" fill="#dff0fe"/><path d="M23.82 8.499a6.131 6.131 0 0 1 5.15 3.082l.344.657.734.106c2.112.303 3.182 2.42 3.182 6.289a11.677 11.677 0 0 1-.724 3.83v-1.256c0-4.856-2.596-6.295-2.89-6.442l-1.037-.514-.734.894c-.028.034-2.773 3.327-6.599 3.327-.337 0-.667-.011-.986-.022a27.177 27.177 0 0 0-.947-.021c-1.016 0-4.07 0-4.178 3.855a13.675 13.675 0 0 1-.725-4.197c0-5.824 3.693-9.588 9.41-9.588m0-1.448c-6.897 0-10.858 4.718-10.858 11.036a16.927 16.927 0 0 0 2.172 7.785h1.447v-3.378c0-2.305 1.14-2.618 2.734-2.618.593 0 1.247.044 1.93.044 4.599 0 7.721-3.86 7.721-3.86s2.092 1.046 2.092 5.147v4.664h1.448a15.358 15.358 0 0 0 2.172-7.238c0-4.557-1.467-7.298-4.425-7.72A7.63 7.63 0 0 0 23.82 7.05z" fill="#4788c7"/></g><path d="M20.648 63.662a14.507 14.507 0 0 1 14.474-13.859h10.08a14.506 14.506 0 0 1 14.474 13.859z" fill="#b6dcfe"/><path d="M45.201 50.433a13.877 13.877 0 0 1 13.802 12.599H21.32a13.877 13.877 0 0 1 13.802-12.599h10.08m0-1.26h-10.08a15.12 15.12 0 0 0-15.118 15.119H60.32a15.12 15.12 0 0 0-15.119-15.119z" fill="#4788c7"/><path d="M40.162 53.288l-5.924 3.725-1.974-6.91a14.23 14.23 0 0 1 2.858-.3h10.08a14.337 14.337 0 0 1 2.86.299l-1.975 6.91z" fill="#b6dcfe"/><path d="M45.201 50.433a13.3 13.3 0 0 1 2.062.165l-1.552 5.435-4.878-3.068-.671-.422-.67.422-4.879 3.068-1.552-5.435a13.27 13.27 0 0 1 2.061-.165h10.08m0-1.26h-10.08a15.135 15.135 0 0 0-3.647.461l2.387 8.358 6.3-3.96 6.299 3.96 2.387-8.358a15.136 15.136 0 0 0-3.647-.46z" fill="#4788c7"/><path fill="#fff" d="M34.492 50.205v-6.701h11.339v6.701l-5.669 4.466-5.67-4.466z"/><path d="M45.201 44.134V49.9l-5.04 3.97-5.039-3.97v-5.766h10.08m1.26-1.26h-12.6v7.637l6.3 4.961 6.299-4.96v-7.638z" fill="#4788c7"/><path fill="#4788c7" d="M43.438 52.473l-3.276.864-3.275-.859 2.015 4.254-2.52 7.56h7.559l-2.52-7.56 2.017-4.259z"/><path d="M49.16 39.364a2.97 2.97 0 0 1 0-5.94c2.474 0 2.97.679 2.97 1.77 0 1.782-1.467 4.17-2.97 4.17zm-17.998 0c-1.501 0-2.97-2.387-2.97-4.17 0-1.092.497-1.77 2.97-1.77a2.97 2.97 0 0 1 0 5.94z" fill="#b6dcfe"/><path d="M49.16 34.055c2.34 0 2.34.606 2.34 1.14 0 1.555-1.31 3.54-2.34 3.54a2.34 2.34 0 0 1 0-4.68m-17.998 0a2.34 2.34 0 1 1 0 4.679c-1.028 0-2.34-1.984-2.34-3.54 0-.533 0-1.139 2.34-1.139m17.999-1.26a3.6 3.6 0 0 0 0 7.199c1.988 0 3.6-2.812 3.6-4.8s-1.612-2.399-3.6-2.399zm-17.999 0c-1.988 0-3.6.412-3.6 2.4s1.612 4.8 3.6 4.8a3.6 3.6 0 0 0 0-7.2z" fill="#4788c7"/><path d="M40.162 48.543a3.099 3.099 0 0 1-2.068-.793l-.113-.101-.148-.038a9.43 9.43 0 0 1-7.12-9.147V26.75a4.178 4.178 0 0 1 4.174-4.174h10.55a4.178 4.178 0 0 1 4.175 4.174v11.714a9.43 9.43 0 0 1-7.12 9.147l-.148.038-.114.101a3.104 3.104 0 0 1-2.068.793z" fill="#fff"/><path d="M45.437 23.206a3.548 3.548 0 0 1 3.544 3.544v11.714a8.804 8.804 0 0 1-6.646 8.537l-.294.075-.228.2a2.458 2.458 0 0 1-3.303 0l-.228-.2-.294-.075a8.804 8.804 0 0 1-6.645-8.537V26.75a3.548 3.548 0 0 1 3.544-3.544h10.55m0-1.26H34.884a4.803 4.803 0 0 0-4.802 4.804v11.714a10.073 10.073 0 0 0 7.595 9.758 3.717 3.717 0 0 0 4.967 0 10.073 10.073 0 0 0 7.595-9.758V26.75a4.804 4.804 0 0 0-4.803-4.804z" fill="#4788c7"/><path d="M49.61 37.205v-4.41a8.94 8.94 0 0 0-3.984-7.135l-.502-.315-.346.482a10.17 10.17 0 0 1-8.207 3.638c-1.449 0-5.858 0-5.858 4.59v3.15h-.226c-.55-1.238-2.294-5.458-2.294-9.056 0-6.641 4.557-11.102 11.339-11.102 4.836 0 6.289 3.256 6.35 3.395l.163.382.416.002c2.616 0 5.67 1.82 5.67 6.948 0 3.305-1.773 8.055-2.315 9.43z" fill="#b6dcfe"/><path d="M39.532 17.677c4.388 0 5.717 2.894 5.766 3.004l.324.775h.839c2.324 0 5.04 1.654 5.04 6.318a23.147 23.147 0 0 1-1.26 6.354v-1.333a9.61 9.61 0 0 0-4.28-7.669l-1.01-.634-.689.973a9.613 9.613 0 0 1-7.691 3.369c-4.305.001-6.489 1.757-6.489 5.22v.396a20.523 20.523 0 0 1-1.26-6.303c0-6.263 4.304-10.47 10.709-10.47m0-1.26c-7.331 0-11.969 5.015-11.969 11.73 0 4.448 2.52 9.687 2.52 9.687h1.26v-3.78c0-3.361 2.55-3.96 5.229-3.96a10.871 10.871 0 0 0 8.72-3.902 8.376 8.376 0 0 1 3.69 6.602v5.04h1.26s2.52-6.008 2.52-10.06c0-5.692-3.625-7.579-6.3-7.579 0 0-1.578-3.78-6.93-3.78z" fill="#4788c7"/></svg>