<svg data-name="Layer 1" xmlns="http://www.w3.org/2000/svg" viewBox="0 0 72 72"><g data-name="Layer 1"><path d="M19.995 65.908l-5.058-.702a6.016 6.016 0 0 1-4.823-3.252 5.555 5.555 0 0 1 .203-5.299c3.519-5.963 10.969-11.98 19.682-11.98h12.133c8.697 0 16.15 6.015 19.677 11.976a5.654 5.654 0 0 1 .219 5.46 5.847 5.847 0 0 1-4.803 3.092l-5.14.705z" fill="#b6dcfe"/><path d="M42.132 45.434c8.398 0 15.607 5.828 19.025 11.603a4.906 4.906 0 0 1 .194 4.732 5.08 5.08 0 0 1-4.258 2.688l-5.06.693H20.098l-5.084-.7a5.265 5.265 0 0 1-4.22-2.832 4.797 4.797 0 0 1 .177-4.578C14.38 51.264 21.585 45.434 30 45.434h12.133m0-1.517H30c-8.528 0-16.33 5.564-20.334 12.353a6.473 6.473 0 0 0 5.167 9.687l5.163.71h32.141l5.163-.708a6.387 6.387 0 0 0 5.163-9.693c-4.016-6.787-11.84-12.349-20.33-12.349z" fill="#4788c7"/><path fill="#b6dcfe" d="M52.227 62.55H20.165l-.17 4.117h32.141l.091-4.117z"/><path d="M24.745 66.667a5.437 5.437 0 0 1-1.95-3.792 5.253 5.253 0 0 1 1.697-3.541l6.24 4.16a2.675 2.675 0 0 0-.354 1.277 2.888 2.888 0 0 0 .788 1.896h9.797a2.889 2.889 0 0 0 .789-1.896 2.675 2.675 0 0 0-.355-1.277l6.24-4.16a5.244 5.244 0 0 1 1.697 3.541 5.437 5.437 0 0 1-1.95 3.792h4.75a8.036 8.036 0 0 0 .992-3.792c0-6.282-7.64-11.375-17.063-11.375s-17.06 5.093-17.06 11.375a8.036 8.036 0 0 0 .992 3.792zm11.32-11.375a19.241 19.241 0 0 1 8.215 1.724l-6.299 4.2a7.873 7.873 0 0 0-3.83 0l-6.3-4.2a19.241 19.241 0 0 1 8.215-1.724z" fill="#4788c7"/><path d="M36.066 49.225a7.489 7.489 0 0 1-6.825-4.736v-6.775h13.65v6.776a7.49 7.49 0 0 1-6.825 4.735z" fill="#dff0fe"/><path d="M42.132 38.472v5.862a6.519 6.519 0 0 1-12.133 0v-5.862h12.133m1.517-1.517H28.482v7.678s1.922 5.352 7.584 5.352 7.583-5.352 7.583-5.352v-7.678z" fill="#4788c7"/><path d="M45.816 34.275a3.141 3.141 0 1 1 0-6.282c2.616 0 3.141.706 3.141 1.842 0 1.897-1.553 4.44-3.14 4.44zm-19.5 0c-1.589 0-3.142-2.543-3.142-4.44 0-1.138.526-1.842 3.141-1.842a3.141 3.141 0 1 1 0 6.282z" fill="#dff0fe"/><path d="M45.816 28.75c2.383 0 2.383.55 2.383 1.083 0 1.583-1.359 3.684-2.383 3.684a2.384 2.384 0 0 1 0-4.767m-19.5 0a2.383 2.383 0 0 1 0 4.765c-1.026 0-2.384-2.099-2.384-3.684 0-.53 0-1.081 2.383-1.081m19.501-1.517a3.9 3.9 0 1 0 0 7.799c2.154 0 3.9-3.045 3.9-5.2s-1.746-2.599-3.9-2.599zm-19.5 0c-2.155 0-3.9.446-3.9 2.6s1.745 5.201 3.9 5.201a3.9 3.9 0 0 0 0-7.8z" fill="#4788c7"/><path d="M36.066 44.675a3.414 3.414 0 0 1-2.366-.957l-.137-.13-.182-.052a9.89 9.89 0 0 1-7.174-9.479V21.72a4.306 4.306 0 0 1 4.302-4.301h11.114a4.306 4.306 0 0 1 4.301 4.301v12.34a9.89 9.89 0 0 1-7.174 9.479l-.182.051-.137.13a3.42 3.42 0 0 1-2.365.956z" fill="#fff"/><path d="M41.623 18.176a3.547 3.547 0 0 1 3.543 3.543v12.34a9.126 9.126 0 0 1-6.624 8.748l-.362.103-.273.26a2.647 2.647 0 0 1-3.684 0l-.273-.26-.362-.103a9.126 9.126 0 0 1-6.622-8.748v-12.34a3.547 3.547 0 0 1 3.543-3.543h11.114m0-1.517H30.509a5.06 5.06 0 0 0-5.06 5.06v12.34a10.614 10.614 0 0 0 7.727 10.209 4.162 4.162 0 0 0 5.779 0 10.614 10.614 0 0 0 7.727-10.209V21.72a5.06 5.06 0 0 0-5.06-5.06z" fill="#4788c7"/><path d="M45.924 31.025v-5.308c0-5.283-3.362-6.711-3.507-6.769l-.52-.21-.355.436c-.033.041-3.53 4.268-8.51 4.268-.4 0-.802-.014-1.2-.026-.401-.012-.797-.026-1.18-.026-1.33 0-4.445 0-4.445 3.844v3.791h-.324c-.668-1.172-2.71-5.08-2.71-8.985 0-7.211 5.302-12.248 12.893-12.248a8.15 8.15 0 0 1 6.91 4.143l.181.342.384.057c2.325.332 5.416 1.561 5.416 8.35 0 3.532-2.03 7.22-2.698 8.341z" fill="#b6dcfe"/><path d="M36.066 10.55a7.418 7.418 0 0 1 6.24 3.736l.36.688.768.11c2.219.318 4.765 1.469 4.765 7.6a14.857 14.857 0 0 1-1.517 5.906v-2.873c0-5.788-3.816-7.406-3.978-7.471l-1.042-.423-.708.875c-.034.038-3.28 3.986-7.922 3.986a33.4 33.4 0 0 1-1.175-.026c-.41-.014-.815-.026-1.204-.026-1.288 0-5.204 0-5.204 4.602v1.223a16.804 16.804 0 0 1-1.517-6.415c0-6.767 4.99-11.492 12.134-11.492m0-1.516c-8.13 0-13.65 5.561-13.65 13.007 0 4.932 3.033 9.743 3.033 9.743h1.517v-4.55c0-2.717 1.645-3.085 3.687-3.085.76 0 1.574.051 2.38.051 5.419 0 9.1-4.55 9.1-4.55s3.033 1.233 3.033 6.067v6.066h1.517s3.033-4.606 3.033-9.1c0-6.31-2.583-8.6-6.067-9.1a8.993 8.993 0 0 0-7.583-4.55z" fill="#4788c7"/></g></svg>