<svg data-name="Layer 1" xmlns="http://www.w3.org/2000/svg" viewBox="0 0 72 72"><rect x="9.502" y="3.041" width="53.229" height="65.798" rx="3" ry="3" transform="rotate(-90 36.116 35.94)" fill="#fff" stroke="#4788c7" stroke-linecap="round" stroke-linejoin="round" stroke-width="2"/><path d="M34.605 47a.924.924 0 0 1-.933-.934v-1.235H13.853v1.235a.924.924 0 0 1-.933.934h-2.17a.924.924 0 0 1-.933-.934V36.79a5.247 5.247 0 0 1 .875-2.908l.503-.76H8.937l.206-1.23a1.959 1.959 0 0 1 1.778-1.694h.106l1.41.63 1.937-4.836a2.653 2.653 0 0 1 2.476-1.677h13.824a2.653 2.653 0 0 1 2.478 1.677l1.936 4.835 1.41-.63h.107a1.962 1.962 0 0 1 1.778 1.694l.205 1.232h-2.257l.503.76a5.273 5.273 0 0 1 .874 2.908v9.277a.924.924 0 0 1-.934.933z" fill="#dff0fe"/><path d="M30.675 24.814a2.163 2.163 0 0 1 2.013 1.362l2.13 5.318 1.787-.797a1.48 1.48 0 0 1 1.284 1.275l.109.649h-2.596l.444.673.57.864a4.776 4.776 0 0 1 .792 2.63v9.278a.426.426 0 0 1-.434.434h-2.169a.426.426 0 0 1-.433-.434v-1.735H13.353v1.735a.426.426 0 0 1-.433.434h-2.169a.426.426 0 0 1-.434-.434V36.79a4.76 4.76 0 0 1 .792-2.631l1.016-1.537H9.528l.108-.649a1.48 1.48 0 0 1 1.285-1.275l1.787.8 2.13-5.32a2.163 2.163 0 0 1 2.012-1.363h13.825m0-1H16.85a3.15 3.15 0 0 0-2.942 1.992l-1.742 4.352-.837-.374-.195-.087h-.214a2.469 2.469 0 0 0-2.27 2.11l-.108.65-.195 1.164h1.918a5.743 5.743 0 0 0-.948 3.168v9.277a1.419 1.419 0 0 0 1.434 1.434h2.169a1.419 1.419 0 0 0 1.434-1.434v-.735h18.818v.735a1.419 1.419 0 0 0 1.434 1.434h2.168a1.418 1.418 0 0 0 1.434-1.434V36.79a5.765 5.765 0 0 0-.947-3.168h1.917l-.194-1.165-.109-.649a2.469 2.469 0 0 0-2.27-2.11h-.213l-.194.086-.838.374-1.744-4.352a3.15 3.15 0 0 0-2.941-1.99z" fill="#4788c7"/><path d="M14.22 34.79a2.169 2.169 0 1 0 2.17 2.169 2.175 2.175 0 0 0-2.17-2.169zM33.304 34.79a2.169 2.169 0 1 0 2.169 2.169 2.175 2.175 0 0 0-2.169-2.169z" fill="#4788c7"/><path d="M27.693 42.697c1.16 0 2.61-1.865 2.61-3.634h-13.08c0 1.769 1.45 3.634 2.61 3.634zM14.602 31.372l1.643-4.655a.65.65 0 0 1 .605-.395h13.825a.656.656 0 0 1 .613.414l1.636 4.636z" fill="#98ccfd"/><path fill="#fff" stroke="#4788c7" stroke-linecap="round" stroke-linejoin="round" stroke-width="2" opacity=".65" d="M43.49 21.164h19.385M43.167 28.344H57"/></svg>