<svg xmlns="http://www.w3.org/2000/svg" xmlns:xlink="http://www.w3.org/1999/xlink" width="39.682" height="39.682" viewBox="0 0 39.682 39.682"><defs><style>.a{fill:red;}.b{clip-path:url(#a);}.c{fill:#fff;opacity:0.65;}</style><clipPath id="a"><circle class="a" cx="19.841" cy="19.841" r="19.841"/></clipPath></defs><g class="b" transform="translate(0 0)"><path class="c" d="M33.98,29.344a23.3,23.3,0,0,0-3.755-1.159c-.672-.185-1.414-.371-2.109-.579a.969.969,0,0,0-.232-.093l-1.275-.371c-.232-.07-.44-.162-.626-.232l-.093-.023c-.232-.093-.464-.185-.649-.278-.023,0-.046-.023-.07-.023a2.145,2.145,0,0,0-.232-.116l-.046-.023c-.07-.046-.162-.093-.185-.116l-.046-.046-.209-.139a.023.023,0,0,1-.023-.023.981.981,0,0,0-.162-.116l-.023-.023-.023-.023-.116-.116c-.023-.023-.046-.07-.093-.093l-.023-.023c0-.023-.023-.023-.023-.046a.081.081,0,0,0-.023-.046l-1.228.672,1.159-.7h.046v-.927a10.207,10.207,0,0,0,2.828-4.752c.973-.6,1.646-2.063,1.715-3.94a6.411,6.411,0,0,0-.324-2.387,21.2,21.2,0,0,0,1-3.338,1.218,1.218,0,0,0-.07-.811C28.9,9.04,25.357,0,19.006,0a8.813,8.813,0,0,0-5.864,2.619A7.716,7.716,0,0,0,8.877,5.586a6.049,6.049,0,0,0-.719,4.844,18.382,18.382,0,0,0,.788,2.642,6.183,6.183,0,0,0-.51,2.9c.07,1.877.742,3.338,1.715,3.94a9.909,9.909,0,0,0,2.828,4.752v.9a.233.233,0,0,1-.023.07v.023c0,.023-.023.046-.046.07l-.023.023c-.023.023-.046.07-.07.07l1,.974-1.043-.927-.093.093-.046.023a.981.981,0,0,1-.162.116l-.023.023-.209.139c-.023,0-.023.023-.046.023a1.682,1.682,0,0,1-.209.116l-.07.023a1.349,1.349,0,0,1-.255.116l-.023.023c-.209.093-.417.185-.672.278l-1.993.672c-.9.255-1.808.487-2.689.7a19.167,19.167,0,0,0-3.43,1.02A4.5,4.5,0,0,0,0,33.331a1.389,1.389,0,0,0,1.437,1.391H35.232a1.4,1.4,0,0,0,1.391-1.391A4.155,4.155,0,0,0,33.98,29.344Z" transform="translate(1.53 4.96)"/></g></svg>