<svg data-name="Layer 1" xmlns="http://www.w3.org/2000/svg" viewBox="0 0 72 72"><path fill="#fff" d="M7.469 2.961v65.45l35.4-1.034h15.925V37.911l-.925-18.7-16.25-16.25"/><path fill="#dff0fe" stroke="#4788c7" stroke-miterlimit="10" stroke-width="2" d="M41.069 2.911v16.8h16.8"/><path fill="none" stroke="#4788c7" stroke-linecap="round" stroke-linejoin="round" stroke-width="2" d="M57.869 44.911v-25.7l-16.25-16.25H7.469v65.45h35.4"/><circle cx="57.158" cy="60.252" r="12.162" fill="#fff" stroke="#4788c7" stroke-miterlimit="10" stroke-width="1.5"/><path d="M57.02 69.826a9.441 9.441 0 0 1-.24-18.879l.251-.003a9.441 9.441 0 0 1 .24 18.88l-.251.002z" fill="#dff0fe"/><path d="M57.03 50.689v.51a9.186 9.186 0 0 1 .234 18.369 9.915 9.915 0 0 1-.243.003 9.186 9.186 0 0 1-.234-18.369c.08-.002.162-.003.243-.003v-.51m0-.75c-.091 0-.184.001-.276.004a10.446 10.446 0 0 0 .266 20.889c.092 0 .185-.001.277-.004a10.446 10.446 0 0 0-.267-20.889z" fill="#4788c7"/><path d="M62.22 65.78a7.533 7.533 0 0 0-10.39 0" fill="none" stroke="#4788c7" stroke-linecap="round" stroke-miterlimit="10"/><circle cx="60.598" cy="58.854" r="2.465" fill="#fff"/><path d="M60.598 56.742a2.113 2.113 0 1 1-2.113 2.112 2.115 2.115 0 0 1 2.113-2.112m0-.705a2.817 2.817 0 1 0 2.817 2.817 2.817 2.817 0 0 0-2.817-2.817z" fill="#4788c7"/><circle cx="60.598" cy="58.854" r=".88" fill="#4788c7"/><circle cx="53.453" cy="58.854" r="2.465" fill="#fff"/><path d="M53.453 56.742a2.113 2.113 0 1 1-2.113 2.112 2.115 2.115 0 0 1 2.113-2.112m0-.705a2.817 2.817 0 1 0 2.817 2.817 2.817 2.817 0 0 0-2.817-2.817z" fill="#4788c7"/><circle cx="53.453" cy="58.854" r=".88" fill="#4788c7"/><path data-name="&lt;Контур&gt;" d="M39.49 55.566c-1.41-.5-2.415 1.133-3.279.827s-.16-3.042-1.268-3.436c0 0-1.532 4.432-4.22 3.478-1.289-.457-1.92-3.003-.77-6.244.566-1.594 1.457-2.469 2.267-2.181s.916 1.627.37 3.166c-.86 2.424-5.055 7.113-7.227 6.342-2.873-1.02-2.668-6.503-1.596-9.523 1.124-3.167 2.536-4.076 3.336-3.792s1.336 1.843.199 5.047c-1.391 3.919-7.3 9.35-7.3 9.35" fill="none" stroke="#4788c7" stroke-linecap="round" stroke-miterlimit="10" stroke-width=".94"/><path fill="#fff" stroke="#4788c7" stroke-linecap="round" stroke-linejoin="round" stroke-width="1.5" d="M19.052 27.175h28.159M19.052 31.7h28.159M19.052 36.225H32.5"/></svg>